<?xml version="1.0" standalone="no"?>
<!DOCTYPE svg PUBLIC "-//W3C//DTD SVG 1.1//EN" "http://www.w3.org/Graphics/SVG/1.1/DTD/svg11.dtd" >
<svg xmlns="http://www.w3.org/2000/svg">
<metadata>Generated by IcoMoon</metadata>
<defs>
<font id="font-icons" horiz-adv-x="1024">
<font-face units-per-em="1024" ascent="960" descent="-64" />
<missing-glyph horiz-adv-x="1024" />
<glyph unicode="&#x20;" horiz-adv-x="512" d="" />
<glyph unicode="&#xe900;" glyph-name="fill" d="M321.074 695.176l-131.145-131.145c-20.021-20.021-31.038-46.61-31.038-74.894v-464.868c0-42.867-38.383-76.942-82.592-69.633-34.711 5.72-58.651 38.418-58.651 73.623v437.396c0 126.766 102.755 229.521 229.521 229.521h73.906zM966.769 452.273l-278.215 278.215v99.647c0 73.729-53.779 139.69-127.155 146.823-84.217 8.192-155.333-58.016-155.333-140.537v-370.765c0-9.746 7.91-17.655 17.655-17.655s17.655 7.91 17.655 17.655v370.765c0 65.325 59.428 117.020 127.049 103.885 50.283-9.781 84.817-56.851 84.817-108.051v-66.455l-31.038 31.038c-40.007 40.043-103.92 40.961-145.516 3.496v-334.677c0-29.202-23.764-52.966-52.966-52.966s-52.966 23.764-52.966 52.966v229.274l-155.862-155.862c-13.348-13.348-20.692-31.074-20.692-49.93v-111.759l348.836-348.836c41.384-41.384 108.44-41.384 149.824 0l273.907 273.907c41.349 41.384 41.349 108.475 0 149.824z" />
<glyph unicode="&#xe901;" glyph-name="position" d="M0 908.8c0 28.33 22.87 51.2 51.2 51.2h409.6c28.33 0 51.2-22.87 51.2-51.2v-153.6h-70.314v83.287c0 28.33-22.87 51.2-51.2 51.2h-268.97c-28.33 0-51.2-22.87-51.2-51.2v-268.97c0-28.33 22.87-51.2 51.2-51.2h83.287v-70.314h-153.6c-28.33 0-51.2 22.87-51.2 51.2zM1024-12.8c0-28.33-22.87-51.2-51.2-51.2h-409.6c-28.33 0-51.2 22.87-51.2 51.2v153.6h70.314v-83.287c0-28.33 22.87-51.2 51.2-51.2h268.97c28.33 0 51.2 22.87 51.2 51.2v268.97c0 28.33-22.87 51.2-51.2 51.2h-83.287v70.314h153.6c28.33 0 51.2-22.87 51.2-51.2zM255.999 652.8c0 28.33 22.87 51.2 51.2 51.2h409.6c28.33 0 51.2-22.87 51.2-51.2v-409.6c0-28.33-22.87-51.2-51.2-51.2h-409.6c-28.33 0-51.2 22.87-51.2 51.2zM326.313 313.513c0-28.33 22.87-51.2 51.2-51.2h268.97c28.33 0 51.2 22.87 51.2 51.2v268.97c0 28.33-22.87 51.2-51.2 51.2h-268.97c-28.33 0-51.2-22.87-51.2-51.2z" />
<glyph unicode="&#xe902;" glyph-name="control" d="M364.715 910.677l-73.216-73.216v-71.765h73.216zM364.715 765.696v-1.493h-73.216v1.493h-147.029l-144.469-140.373v-152.619h120.576v105.856c0 22.4 18.304 40.704 40.704 40.704h702.977c22.4 0 40.704-18.347 40.704-40.704v-105.813h117.504v152.576l-144.469 140.373h-139.861v-1.493h-73.259v1.493zM664.875 765.696h73.259v71.765l-73.259 73.216zM370.304 909.312v-70.485h288.981v70.485zM859.733 607.659c-0.040 0-0.088 0-0.136 0-1.94 0-3.844-0.155-5.699-0.454l0.204 0.027-23.168-0.085c-222.549-0.597-445.099 0.341-667.649-0.427-18.56 2.688-33.877-18.603-30.549-37.675v-96.597h759.98c-0.683 37.888 1.92 76.032-1.451 113.749-4.437 14.592-18.219 21.419-31.531 21.419zM201.728 580.608c16.236 0 29.397-13.334 29.397-29.781v0c-0.024-16.429-13.176-29.739-29.397-29.739 0 0 0 0 0 0v0c-16.203 0.025-29.331 13.324-29.355 29.736v0.002c0 0 0 0 0 0 0 16.433 13.137 29.757 29.352 29.781h0.002zM292.779 580.608c16.236 0 29.397-13.334 29.397-29.781v0c-0.024-16.429-13.176-29.739-29.397-29.739 0 0 0 0 0 0v0c-16.203 0.025-29.331 13.324-29.355 29.736v0.002c0 0 0 0 0 0 0 16.433 13.137 29.757 29.352 29.781h0.002zM1.536 463.147v-390.656c0-44.8 36.608-81.408 81.365-81.408h37.675v472.064zM904.96 463.147v-472.064h37.632c44.8 0 81.408 36.608 81.408 81.408v390.656zM173.099 399.659v-292.267h261.845v292.267zM738.133 398.763v-161.152l-72.875-41.685-72.875 41.685v160.341c-57.998-28.162-97.271-86.614-97.271-154.24s39.273-126.078 96.256-153.795l1.015-0.445v-104.149h147.499v104.192c57.965 28.173 97.212 86.609 97.212 154.212 0 68.283-40.040 127.213-97.922 154.594l-1.039 0.442zM173.099 46.336v-61.013h338.133v61.013z" />
<glyph unicode="&#xe903;" glyph-name="dimension" d="M26.437 711.478c11.832 6.777 26.146 6.969 39.7 6.969 214.718 0 429.434-0.095 644.153-0.095 20.709 0 44.091-1.146 57.924-16.604 12.023-13.456 12.596-33.208 12.596-51.152 0-216.915 0-433.731 0-650.547 0-13.359-0.19-27.579-7.35-38.841-12.786-20.328-40.939-22.521-64.986-22.521-214.527-0.095-429.052-0.095-643.673-0.095-12.884 0-26.337 0.19-37.602 6.299-24.238 13.266-27.198 46.189-27.198 73.671 0.095 206.701 0.19 413.403 0.19 620.104 0.095 27.1 2.769 59.26 26.243 72.813zM102.976 616.241c-0.859-192.1-0.954-384.2-0.286-576.206 189.046-0.095 378.189-0.19 567.236-0.286 2.387 0 4.962 0.095 6.68 1.717 2.005 1.814 2.196 4.87 2.196 7.541 0 186.28 0 372.464 0 558.74 0 2.482-0.095 5.251-1.908 6.871-1.623 1.527-4.105 1.623-6.396 1.623-189.144 0-378.282 0-567.52 0zM164.527 777.516c0.095-7.35-1.908-17.083-9.16-17.75-4.296-0.382-8.015 2.96-11.068 6.014-27.579 27.482-55.16 55.061-82.641 82.549-3.436 3.436-7.159 7.635-6.396 12.405 0.477 3.151 2.863 5.632 5.153 7.923 27.007 27.007 53.917 53.917 80.924 80.924 5.251 5.251 13.647 10.784 19.373 6.014 3.436-2.863 3.724-7.923 3.724-12.311 0-15.268 0-30.535 0-45.807 0-3.436 4.582-4.487 7.923-4.487 192.672 0 385.345 0 578.021 0 3.342 0 7.732 1.050 7.732 4.296-0.095 14.695-0.095 29.39-0.19 44.091 0 5.535 0.572 12.12 5.344 14.885 6.014 3.436 13.075-1.814 17.94-6.68 26.625-26.719 53.345-53.345 80.067-80.067 2.96-2.96 6.108-6.396 6.014-10.594 0-4.008-3.053-7.35-5.918-10.212-27.77-27.673-55.541-55.35-83.312-83.023-2.863-2.863-6.299-5.918-10.403-5.725-7.444 0.286-9.639 10.306-9.639 17.75 0 15.84 0 31.587 0 47.428-195.343 0.095-390.688 0.095-586.035 0.19-3.244 0-7.732-1.050-7.635-4.389 0-14.504 0.095-28.915 0.19-43.42zM824.998 91.090c-0.859 8.015 10.023 11.26 18.038 11.451 15.556 0.477 31.109 0.954 46.665 1.432 0 197.062 0 394.22 0 591.283-16.986 0.572-33.971 1.050-50.961 1.623-4.772 0.095-10.403 0.764-12.694 4.962-2.863 5.251 1.623 11.26 5.823 15.556 27.673 27.579 55.252 55.16 82.833 82.739 2.387 2.387 4.962 4.87 8.304 5.344 4.772 0.668 8.97-2.96 12.311-6.396 27.673-27.863 55.35-55.732 83.023-83.597 2.863-2.96 6.014-6.396 5.632-10.403-0.668-6.969-9.732-8.779-16.702-8.686-14.123 0.095-28.343 0.19-42.465 0.19-4.87 0.095-6.489-6.489-6.489-11.451 0.095-193.724 0.095-387.443 0.095-581.168 15.65-0.477 31.299-0.859 46.953-1.241 8.396-0.286 19.755-4.008 18.228-12.214-0.572-2.769-2.672-5.060-4.772-7.060-27.961-27.961-56.016-55.924-84.075-83.787-3.244-3.244-7.060-6.68-11.548-6.396-3.818 0.286-6.871 3.151-9.542 5.823-27.77 27.863-55.636 55.825-83.503 83.693-2.29 2.387-4.87 4.962-5.153 8.304z" />
<glyph unicode="&#xe904;" glyph-name="opacity" d="M498.829 424.154c-2.292-5.537-6.584-10.022-10.881-14.319-23.862-24.341-48.391-48.010-73.492-71.105-32.832 32.93-65.574 65.762-98.406 98.692-8.209 8.302-17.944 17.179-29.586 16.799-10.69-0.381-19.279-8.4-26.821-15.939-86.378-85.904-172.663-171.897-258.946-257.801-0.193 206.26-0.381 412.425-0.573 618.684 0 21.283 0.193 43.333 9.449 62.423 7.349 15.366 20.523 27.774 36.175 34.363 17.278 7.256 36.556 7.349 55.359 7.349 120.741 0 241.482 0 362.124 0 9.542 0 19.757-0.287 27.201-6.109 10.116-8.017 10.975-22.716 10.975-35.507 0-139.446 0-278.896 0.095-418.249 0-6.491-0.095-13.267-2.673-19.279zM276.436 772.63c-11.36 1.908-23.096 2.193-34.649 0.953-18.611-2.005-36.843-8.017-52.781-17.752-39.894-24.148-63.949-71.966-59.844-118.355 4.199-46.385 36.27-89.149 79.602-106.234 43.712-17.085 96.783-7.444 131.523 24.148 34.649 31.592 49.345 83.613 36.076 128.663-13.173 45.051-53.546 80.94-99.932 88.577zM825.925-7.362c-10.116-0.095-20.33-0.095-30.447-0.193-7.349-0.095-14.793-0.095-21.57 2.48-11.36 4.298-19.472 16.131-19.185 28.346 0.193 12.12 8.685 23.67 20.236 27.487 5.344 1.813 11.167 2.005 16.799 2.098 12.215 0.287 24.341 0.193 36.462-0.193 4.104-0.095 8.209-0.287 12.215-1.24 12.6-3.245 22.335-15.559 22.429-28.633 0.095-12.981-9.542-25.484-22.142-28.826-4.771-1.24-9.829-1.338-14.793-1.338zM791.756 843.070c-4.964 0.095-9.927 0.095-14.698 1.338-12.501 3.245-22.049 15.461-22.335 28.445-0.193 12.887 8.97 25.388 21.382 29.015 5.537 1.719 11.36 1.719 17.085 1.719 9.829 0 19.663 0 29.493 0 6.968 0 14.126-0.095 20.711-2.48 11.074-4.104 19.090-15.366 19.377-27.106 0.287-11.835-7.157-23.382-18.039-28.061-7.444-3.15-15.845-3.15-23.956-3.053-9.641 0.095-19.377 0.095-29.015 0.193zM635.987 842.877c-7.922-0.095-16.131-0.095-23.481 2.959-11.36 4.771-19.090 17.085-18.232 29.399 0.765 12.313 9.927 23.575 21.857 26.821 5.058 1.338 10.308 1.338 15.559 1.338 10.116 0.095 20.236 0.095 30.352 0.095 7.157 0 14.605 0 21.283-2.578 11.455-4.391 19.472-16.418 19.090-28.633s-9.163-23.767-20.902-27.393c-5.439-1.719-11.36-1.719-17.085-1.813-9.449 0-18.897-0.095-28.445-0.193zM662.901-7.455c-9.355 0-18.611-0.095-27.966-0.095-7.063 0-14.221 0-20.809 2.292-11.36 4.011-19.663 15.366-20.044 27.298-0.287 11.931 7.542 23.767 18.707 27.966 5.154 1.908 10.69 2.386 16.131 2.578 11.167 0.573 22.238 0.765 33.404 0.48 8.4-0.193 17.085-0.667 24.435-4.583 10.022-5.251 16.418-16.704 15.559-27.966-0.765-11.262-8.685-21.669-19.377-25.581-6.297-2.292-13.267-2.386-20.044-2.386zM963.176 671.835c0 9.735-0.095 19.472-0.095 29.206 0 8.209 0 16.704 3.338 24.243 4.298 9.829 14.506 16.893 25.294 17.466s21.669-5.344 27.106-14.698c5.154-8.97 5.251-19.949 5.154-30.352-0.095-7.542-0.095-15.080-0.193-22.523s-0.193-15.080-2.865-21.953c-4.678-11.455-17.085-19.279-29.399-18.611-12.408 0.765-23.767 10.116-26.914 22.049-1.338 4.964-1.433 10.116-1.433 15.177zM963.273 190.881c0 10.69 0 21.477 0 32.164-0.095 5.632-0.095 11.36 1.526 16.799 3.437 11.741 14.793 20.711 27.013 21.382 12.215 0.573 24.435-7.157 29.015-18.517 2.865-6.968 2.959-14.698 2.959-22.142 0.095-7.829 0.193-15.654 0.193-23.481 0.095-9.542 0.095-19.472-4.298-27.966-5.344-10.501-17.466-17.085-29.206-15.939s-22.335 9.927-25.581 21.283c-1.526 5.251-1.623 10.881-1.623 16.418zM963.273 352.283c0 10.403 0 20.809-0.095 31.211 0 5.632 0 11.262 1.526 16.704 3.531 12.313 15.746 21.477 28.633 21.57 12.788 0 25.008-9.069 28.633-21.382 1.623-5.344 1.623-11.074 1.719-16.606 0-10.403 0.095-20.711 0.193-31.117 0-5.632 0-11.262-1.526-16.704-4.104-14.986-21.283-25.008-36.462-21.283-8.782 2.193-16.606 8.685-19.949 17.085-2.578 6.491-2.673 13.553-2.673 20.523zM963.082 541.837c0 7.349 0.095 14.986 2.766 21.857 4.199 10.595 14.986 18.324 26.44 18.707s22.81-6.491 27.679-16.799c3.818-7.829 3.912-16.893 3.912-25.581 0-8.302 0-16.704 0-25.008-0.095-7.73-0.193-15.654-3.15-22.81-4.485-10.787-16.033-18.324-27.679-18.137-11.741 0.095-23.003 7.922-27.298 18.897-2.673 6.777-2.673 14.319-2.673 21.669 0 9.069 0 18.137 0 27.201zM636.654 473.498c-5.439-5.344-10.787-10.69-16.226-16.033-5.439-5.439-11.167-11.074-18.324-13.934-10.308-4.199-23.003-1.908-31.117 5.632-8.209 7.636-11.455 20.044-8.017 30.639 2.865 9.069 9.927 16.131 16.704 22.81 5.823 5.632 11.548 11.262 17.371 16.99 4.869 4.771 9.927 9.735 16.226 12.6 9.829 4.583 22.142 3.338 30.733-3.245 8.589-6.683 12.981-18.324 10.69-28.919s-10.308-18.897-18.039-26.534zM836.517 478.748c-4.104 4.104-8.209 8.302-10.975 13.36-5.724 11.074-3.437 25.675 5.439 34.457 8.782 8.685 23.382 10.975 34.457 5.344 5.344-2.578 9.735-6.777 13.934-10.881 9.829-9.449 19.472-19.185 28.826-29.112 10.69-11.36 10.308-31.305-0.859-42.186-11.262-10.881-31.211-10.69-42.284 0.381-9.449 9.542-18.992 19.090-28.539 28.633zM936.927 51.243c7.063 2.005 15.366 1.526 20.617 6.584 5.632 5.344 5.251 14.126 7.349 21.57 3.15 10.595 12.6 19.090 23.481 20.902 10.975 1.908 22.716-2.959 29.206-11.931 8.495-11.741 7.157-28.159 2.098-41.9-9.069-24.72-29.873-45.244-55.359-52.021-12.981-3.437-28.061-2.959-38.369 5.537-8.302 6.872-12.408 18.517-10.116 29.015s10.69 19.472 21.095 22.238zM958.499 837.246c-5.439 6.011-14.793 5.537-22.523 7.922-10.881 3.338-19.279 13.36-20.617 24.627-1.433 11.167 4.391 23.003 14.033 28.826 7.829 4.583 17.278 5.439 26.248 4.391 27.873-3.437 51.541-24.627 62.614-50.396 6.204-14.605 8.495-32.737-0.953-45.432-6.683-8.97-18.517-13.648-29.493-11.548-10.881 2.098-20.236 10.881-23.096 21.57-1.813 6.872-1.433 14.793-6.204 20.044zM748.326 647.592c5.344-2.005 9.542-5.917 13.648-9.735 6.109-5.724 12.12-11.455 18.232-17.085 11.262-10.501 23.288-23.096 22.716-38.369-0.381-13.173-11.36-24.815-24.341-27.013-12.887-2.193-26.628 4.678-33.502 15.845-2.098 3.338-7.157 3.245-10.501 1.145-3.338-2.005-5.537-5.439-8.209-8.302-9.163-9.829-25.388-12.12-36.936-5.154-11.455 6.872-17.085 22.238-12.788 34.935 3.912 11.548 14.319 19.472 23.003 27.966 6.968 6.872 13.173 14.605 21.095 20.236 8.017 5.632 18.517 8.876 27.586 5.537zM197.79 617.24c-5.917 12.408-7.829 26.726-5.344 40.181 4.199 23.67 22.429 44.286 45.338 51.448s49.536 0.573 66.527-16.418c18.137-18.137 24.148-47.244 14.793-71.105-9.449-23.767-33.789-40.946-59.368-41.806s-50.968 14.605-61.944 37.701zM501.407 338.73c0-100.504 0.095-201.009 0.095-301.513 0-15.080-1.526-33.118-14.605-40.661-6.584-3.724-14.506-3.818-22.049-3.818-103.177 0-206.353 0-309.437 0 115.297 115.297 230.6 230.695 345.993 345.993zM291.521 377.384c25.675-25.867 51.349-51.734 77.122-77.596 1.338-1.433 2.766-3.053 2.578-4.964-0.193-1.433-1.24-2.578-2.292-3.626-95.926-95.926-191.847-191.847-287.772-287.867-3.437-3.437-7.063-7.063-11.741-8.495-4.771-1.526-10.022-0.573-14.793 0.953-34.837 10.787-55.454 49.631-54.595 86.092 0.193 6.396 1.052 13.36 5.632 17.851 92.582 92.582 185.166 185.166 277.845 277.845 1.052 1.052 2.292 2.193 3.724 2.193 1.719 0.095 3.053-1.145 4.298-2.386z" />
<glyph unicode="&#xe905;" glyph-name="rotation" d="M897.774 694.657c-14.653-17.734-40.986-19.218-64.025-19.218-43.429-0.105-86.959-0.213-130.388-0.213-14.653 0-29.836 0-43.32 5.627-18.157 7.539-31.641 25.482-33.975 45.022-2.23 19.537 6.796 40.030 22.723 51.496 18.581 13.38 43.111 14.123 66.044 13.167-116.267 69.124-268.421 73.155-388.083 10.195s-202.589-190.698-211.509-325.546c-1.274-20.067-1.379-41.195-11.679-58.292-18.581-30.791-70.29-32.702-90.994-3.292-12.744 18.053-13.38 41.729-12.106 63.815 10.619 179.231 122.745 348.904 283.501 428.965 160.65 79.952 363.77 67.105 513.058-32.493-7.643 27.925 2.444 60.945 26.65 76.664 24.317 15.819 61.265 9.875 76.664-14.544 9.982-15.819 10.195-35.677 10.195-54.362-0.213-45.126-0.318-90.147-0.532-135.164 0-18.157-0.638-37.906-12.21-51.814zM125.639 200.393c14.862 18.581 42.046 20.28 65.936 20.28 43.111 0.105 86.217 0.213 129.328 0.318 14.44 0.105 29.412 0 42.792-5.414 18.371-7.434 31.959-25.377 34.403-45.022s-6.583-40.239-22.615-51.923c-18.581-13.589-43.429-14.335-66.362-12.529 115.206-68.911 266.086-73.688 385.431-12.106 119.346 61.476 203.016 187.302 213.634 321.088 1.911 24.527 2.335 51.177 17.624 70.399 20.705 26.014 66.786 24.527 85.899-2.653 12.425-17.624 13.061-40.773 11.892-62.432-9.767-179.55-121.68-349.969-282.437-430.344-160.86-80.376-364.407-67.637-513.908 32.278 7.539-27.925-2.444-60.735-26.65-76.664-24.104-15.928-61.053-10.404-76.664 14.017-10.086 15.819-10.3 35.781-10.3 54.47 0.213 45.126 0.318 90.252 0.422 135.273 0 17.839 0.532 37.056 11.574 50.968z" />
<glyph unicode="&#xe906;" glyph-name="origin" d="M507.67 960c2.388 0 4.776 0 7.355-0.287 11.272-0.955 22.257-1.815 33.242-2.579 10.699-0.669 21.493-0.86 32.096-2.006 12.513-1.433 25.122-2.77 37.254-5.827 21.11-5.349 41.934-11.654 62.663-18.054 27.51-8.406 53.493-20.442 78.233-34.675 18.149-10.412 35.63-22.066 52.919-33.719 22.066-14.806 41.743-32.478 60.466-51.009 12.131-11.94 23.307-24.836 34.197-37.922 10.316-12.418 20.251-25.122 29.421-38.4 17.29-24.931 31.904-51.391 43.94-79.188 6.209-14.424 12.227-29.039 17.099-44.036 5.54-17.29 10.125-35.057 14.424-52.728 3.439-14.615 6.209-29.421 8.501-44.227 1.433-8.979 1.337-18.245 2.101-27.319 0.382-4.49 1.242-8.884 1.91-13.278 0-17.672 0-35.343-0.287-53.301-1.337-11.845-2.101-23.594-3.63-35.248-1.815-13.946-3.725-27.893-6.782-41.648-4.012-18.245-8.597-36.394-14.042-54.257-4.49-14.615-10.507-28.752-16.048-43.081-7.928-20.346-17.958-39.833-29.23-58.46-10.89-17.958-22.925-35.343-35.725-52.060-12.513-16.239-25.982-32-40.215-46.71-12.704-13.278-26.746-25.313-40.788-37.254-11.176-9.457-22.734-18.531-34.77-26.842-21.97-15.188-44.896-29.039-69.349-40.024-16.812-7.642-34.006-14.901-51.391-21.015-16.334-5.731-33.146-10.316-49.958-14.328-17.767-4.299-35.821-7.546-53.875-10.507-9.17-1.528-18.531-1.337-27.797-2.197-4.107-0.287-8.215-1.146-12.322-1.815-16.716 0-33.433 0-50.436 0.191-4.49 0.764-8.693 1.337-12.991 1.719-6.209 0.382-12.418 0.573-18.627 0.955-3.916 0.287-7.737 0.382-11.558 1.051-8.597 1.337-17.194 3.057-25.696 4.681-10.221 2.006-20.537 3.439-30.472 6.209-15.379 4.107-30.758 8.597-45.755 14.042-15.57 5.54-31.14 11.654-46.137 18.627-28.848 13.278-56.549 28.752-81.767 48.143-16.812 12.896-33.242 26.269-49.29 40.024-8.884 7.546-16.907 16.239-24.931 24.74-8.788 9.361-17.672 18.627-25.6 28.561-10.89 13.851-21.397 27.988-31.045 42.603-8.884 13.469-16.907 27.606-24.645 41.743-5.54 10.030-10.221 20.633-14.901 31.045-4.394 9.839-8.788 19.678-12.322 29.803-5.254 15.188-10.030 30.567-14.328 46.137-3.725 13.755-6.973 27.797-9.552 41.839-2.197 12.609-3.725 25.313-4.776 38.113-1.146 14.042-1.624 28.084-1.91 42.221-0.191 8.693 0.478 17.481 0.86 26.269 0.573 12.991 1.051 25.982 2.006 38.878 0.573 8.693 1.433 17.385 2.866 25.982 2.197 13.851 4.394 27.701 7.833 41.17 3.63 14.901 8.024 29.803 13.278 44.131 6.496 17.958 13.755 35.725 21.779 53.015 7.164 15.284 15.57 29.994 23.976 44.609 14.806 25.791 32.764 49.385 52.251 71.833 8.884 10.221 18.627 19.773 28.275 29.325 8.119 8.024 16.43 15.952 25.218 23.212 13.278 11.081 26.555 22.161 40.693 32 25.027 17.481 51.391 32.478 79.188 45.182 20.633 9.361 41.743 17.672 63.618 23.881 17.003 4.776 34.293 8.788 51.678 12.418 14.233 2.866 28.561 5.158 43.081 6.591 12.131 1.242 24.549 0.669 36.776 1.242 4.585 0.191 9.17 1.146 13.755 1.815zM929.402 488.12c2.388 0 4.776 0 7.26 0 4.585 0 5.445 1.146 4.681 5.731-1.91 11.272-3.439 22.639-5.827 33.815-3.343 15.666-6.496 31.331-11.272 46.519-4.872 15.666-11.463 30.854-17.29 46.233-7.355 19.678-17.576 37.922-28.943 55.403-10.221 15.666-21.493 30.663-32.955 45.469-8.501 10.89-17.767 21.301-27.415 31.14-8.884 9.075-18.627 17.481-28.37 25.696-9.361 7.737-19.009 15.379-29.039 22.257-12.513 8.597-25.313 16.812-38.591 24.263-14.042 7.833-28.37 15.475-43.176 21.397-18.149 7.355-36.776 13.755-55.594 19.009-15.761 4.394-32 6.782-48.048 9.839-5.636 1.146-11.558 1.242-17.194 2.293-5.445 1.051-6.018 0.955-6.018-4.394 0-33.91 0.191-67.821-0.096-101.731-0.096-10.89-5.063-20.442-13.373-27.224-9.266-7.546-19.869-11.558-32.669-9.457-18.34 3.057-33.624 19.009-33.91 37.54-0.573 33.719-0.191 67.439-0.191 101.254 0 4.49-1.242 5.445-5.158 4.681-7.928-1.337-15.857-2.484-23.785-3.821-10.603-1.91-21.397-3.343-31.904-6.113-13.564-3.439-27.033-7.546-40.31-12.131-13.278-4.681-26.46-9.934-39.26-15.857-24.454-11.176-48.048-24.167-69.636-40.501-14.424-10.89-28.848-21.97-42.125-34.197-12.991-11.845-24.836-25.027-36.49-38.304-9.075-10.221-17.576-21.11-25.504-32.382-12.991-18.531-24.74-37.827-34.006-58.46-6.973-15.57-13.564-31.331-19.487-47.284-4.585-12.227-8.215-24.74-11.463-37.349-2.866-11.463-4.681-23.212-6.782-34.866-1.242-7.26-1.815-14.519-2.961-21.779-1.051-6.687-1.146-6.687 5.254-6.687 32 0 64 0 96 0 3.439-0.096 6.878-0.191 10.125-1.051 19.964-4.872 30.663-19.2 31.904-38.878 0.382-7.833-2.197-15.379-6.591-22.066-7.355-11.272-17.863-17.863-31.14-18.054-33.91-0.478-67.821-0.191-101.731-0.191-4.681 0-5.636-1.242-4.394-5.636 0.287-0.669 0.573-1.337 0.669-2.101 1.624-10.507 2.675-21.015 4.872-31.427 3.534-16.621 7.069-33.242 11.94-49.481 7.164-23.881 16.812-46.806 28.466-68.967 10.030-19.009 21.11-37.254 33.719-54.734 13.469-18.722 28.084-36.203 44.609-52.251 9.266-8.979 18.722-18.054 28.561-26.364 8.979-7.642 18.531-14.424 27.893-21.397 21.397-15.857 44.513-28.561 68.585-39.737 11.558-5.445 23.403-10.412 35.534-14.615 18.34-6.304 36.776-12.418 56.167-15.475 14.519-2.197 29.039-4.967 43.654-7.546 3.63-0.669 4.872 0.764 4.872 4.585-0.191 31.904 0.096 63.713-0.191 95.522-0.191 14.137 4.585 25.696 15.188 34.866 10.125 8.788 22.161 9.934 34.484 7.642 8.597-1.624 16.048-6.304 21.493-13.564 5.254-6.973 9.075-14.519 9.17-23.403 0-33.433 0-66.866 0-100.299 0-5.445 1.051-6.304 6.496-5.349 11.463 1.91 23.021 3.439 34.388 5.827 14.233 3.057 28.561 6.113 42.507 10.412 15.857 4.967 31.522 10.603 46.806 17.29 16.143 6.973 32.191 14.71 47.475 23.594 14.71 8.693 28.561 18.818 42.412 28.943 10.412 7.546 20.442 15.857 30.090 24.358 7.546 6.687 14.519 14.137 21.588 21.493 6.304 6.591 12.896 13.182 18.531 20.537 11.558 15.093 22.925 30.472 33.719 46.137 13.755 19.773 24.645 41.17 33.815 63.331 10.507 25.6 19.678 51.773 24.263 79.284 2.388 14.519 5.063 29.039 7.642 43.654 0.573 3.439-0.478 4.967-4.49 4.967-32.191-0.191-64.382 0.096-96.478-0.191-13.278-0.096-23.976 4.107-32.955 13.946-9.457 10.316-11.749 22.925-8.884 35.343 4.107 18.531 20.728 31.331 40.597 31.14 29.803-0.382 59.51-0.096 90.269-0.096zM502.13 497.386c8.979-0.096 17.672 0.86 26.364-2.388 16.716-6.304 27.319-17.958 31.522-34.77 4.394-18.149 0.096-34.961-13.564-48.239-18.245-17.672-47.761-18.627-66.961-2.388-14.615 12.418-19.773 28.37-17.481 46.519 2.293 17.863 18.054 36.012 36.203 39.642 1.337 0.287 2.484 0.955 3.916 1.624z" />
<glyph unicode="&#xe907;" glyph-name="lock" d="M238.925 785.003c19.915 46.246 52.661 86.844 93.068 117.004 98.717 73.535 243.775 77.556 346.417 9.671 51.417-33.991 92.11-84.354 113.27-142.282 22.118-60.417 22.884-126.388 19.725-190.635 19.725-0.479 39.448-0.957 59.173-1.436 6.128-0.192 12.543-0.479 17.522-3.926 8.139-5.745 9-17.331 9-27.289-0.096-167.080-0.192-334.162-0.287-501.242 0-27.671-0.862-57.832-18.479-79.28-22.501-27.479-63.099-29.682-98.621-29.586-183.55 0.096-367.099 0.192-550.553 0.287-21.83 0-44.906 0.287-63.577 11.681-34.853 21.256-38.682 69.417-38.682 110.207 0.192 164.017 0.287 328.034 0.383 492.051 0 7.947 0.479 16.947 6.511 22.118 4.787 4.022 11.394 4.405 17.618 4.596 20.394 0.671 40.884 1.34 61.278 1.915-3.83 69.801-1.436 141.899 26.235 206.146zM681.473 578.57c1.436 1.244 1.628 3.351 1.723 5.17 0.383 16.468 0.575 32.938 0.671 49.406 0 22.022-0.383 44.14-4.883 65.587-11.107 52.374-48.448 98.621-97.376 120.451s-108.292 18.767-154.634-7.947c-46.438-26.81-78.896-76.598-84.45-129.835-1.34-12.638-1.34-25.374-1.244-38.108 0.192-20.777 0.287-41.651 0.383-62.524 0.096-0.766 0.096-1.532 0.479-2.107 0.671-0.957 2.011-1.053 3.255-1.053 110.589 0 221.179 0 331.768 0 1.532 0 3.159 0 4.309 0.957zM478.392 107.489c21.64-0.096 43.278-0.192 65.014-0.287 9.958-0.096 21.352 0.479 27.671 8.139 5.841 7.085 5.074 17.235 4.022 26.235-3.926 33.607-7.852 67.215-11.777 100.823-0.479 4.501-0.766 9.767 2.777 12.638 26.618 21.83 37.725 60.896 26.618 93.546-11.202 32.555-43.949 56.587-78.417 57.544-34.47 0.862-68.365-21.448-81.195-53.428-12.926-31.98-3.83-71.524 21.64-94.791 6.989-6.32 6.416-17.235 5.266-26.522-3.638-31.023-7.373-62.045-11.107-92.972-0.957-7.564-1.628-15.99 2.777-22.213 5.649-7.947 16.947-8.713 26.714-8.713z" />
<glyph unicode="&#xe908;" glyph-name="edit" d="M893.575 771.873c24.464-2.237 39.003-5.872 53.54-13.001 39.003-19.291 63.324-50.464 73.391-94.078 3.357-13.979 3.495-26.559 3.495-217.093s-0.141-203.113-3.495-217.093c-6.571-28.378-17.755-49.065-36.625-67.939-19.011-19.011-39.56-30.195-67.939-36.766-14.397-3.357-31.314-3.495-404.551-3.495h-389.454l-16.634 4.335c-20.828 5.312-35.787 12.44-52.281 25.022-23.206 17.755-39.84 43.613-47.948 74.37-4.193 15.518-4.193 15.935-4.894 209.406-0.558 195.845-0.141 214.298 6.151 238.48 11.462 43.613 49.906 81.915 93.797 93.239 6.29 1.678 18.732 3.636 27.817 4.473 24.603 2.378 740.607 2.515 765.628 0.141zM520.758 679.891c-206.049 0.28-380.368-0.28-387.356-1.12-24.603-2.936-35.646-15.097-38.723-42.355-2.936-26.279-1.258-383.303 1.816-392.529s16.217-22.366 25.58-25.722c10.903-3.773 769.681-3.773 780.584 0 10.066 3.636 22.647 16.776 25.722 26.7 3.636 11.882 3.636 393.786 0 405.668-3.074 10.066-15.935 23.344-25.862 26.7-5.73 1.957-79.26 2.515-381.767 2.657zM852.057 631.526c11.324-3.357 20.97-11.044 27.121-21.527 4.193-7.268 5.032-10.624 5.032-22.506s-0.7-15.239-5.172-22.784c-5.872-9.925-14.818-17.475-25.163-21.107-10.345-3.773-672.668-3.773-683.013 0-10.345 3.636-19.291 11.183-25.163 21.107-4.473 7.549-5.172 10.903-5.172 22.784s0.838 15.239 5.032 22.506c6.010 10.204 15.796 18.033 26.421 21.388 11.741 3.773 667.774 3.773 680.077 0.141zM852.057 491.734c11.324-3.357 20.97-11.044 27.121-21.527 4.193-7.268 5.032-10.624 5.032-22.506s-0.7-15.239-5.172-22.784c-5.872-9.925-14.818-17.475-25.163-21.107-10.345-3.773-672.668-3.773-683.013 0-10.345 3.636-19.291 11.183-25.163 21.107-4.473 7.549-5.172 10.903-5.172 22.784s0.838 15.239 5.032 22.506c6.010 10.204 15.796 18.033 26.421 21.388 11.741 3.773 667.774 3.773 680.077 0.141zM246.349 351.945c11.324-3.357 20.97-11.044 27.121-21.527 4.193-7.268 5.032-10.624 5.032-22.506s-0.838-15.239-5.172-22.784c-5.872-9.925-14.818-17.475-25.163-21.107-9.645-3.495-67.66-3.495-77.305 0-10.345 3.636-19.291 11.183-25.163 21.107-4.473 7.549-5.172 10.903-5.172 22.784s0.838 15.239 5.032 22.506c6.010 10.204 15.796 18.033 26.421 21.388 10.903 3.495 63.184 3.495 74.37 0.141zM665.718 351.945c11.324-3.357 20.97-11.044 27.121-21.527 4.193-7.268 5.032-10.624 5.032-22.506s-0.838-15.239-5.172-22.784c-5.872-9.925-14.818-17.475-25.163-21.107-10.345-3.773-299.989-3.773-310.334 0-10.345 3.636-19.291 11.183-25.163 21.107-4.335 7.549-5.172 10.903-5.172 22.784s0.838 15.239 5.032 22.506c6.010 10.204 15.796 18.033 26.421 21.388 11.741 3.636 295.236 3.773 307.397 0.141zM852.057 351.945c11.324-3.357 20.97-11.044 27.121-21.527 4.193-7.268 5.032-10.624 5.032-22.506s-0.7-15.239-5.172-22.784c-5.872-9.925-14.818-17.475-25.163-21.107-9.645-3.495-67.66-3.495-77.305 0-10.345 3.636-19.291 11.183-25.163 21.107-4.335 7.549-5.172 10.903-5.172 22.784s0.838 15.239 5.032 22.506c6.010 10.204 15.796 18.033 26.421 21.388 10.903 3.495 63.184 3.495 74.37 0.141z" />
<glyph unicode="&#xe909;" glyph-name="font-size" d="M265.422 186.675l-54.067-180.225h-211.354l294.912 883.098h255.591l294.912-883.098h-216.269l-54.067 180.225zM322.766 381.645l-9.831-31.13h212.992l-9.831 31.13q-37.683 127.795-62.259 217.907-22.937 91.751-29.491 117.964l-4.916 26.214q-9.831-72.090-96.666-362.086zM866.715 889.549h73.728v-88.474h83.558v-68.813h-83.558v-88.474h-73.728v88.474h-81.92v68.813h81.92zM789.71 524.186h229.375v-68.813h-229.375z" />
<glyph unicode="&#xe90a;" glyph-name="text-background" d="M0 960h1024v-1024h-1024zM648.96 206.080l49.92-167.68h200.96l-273.92 819.2h-235.52l-273.92-819.2h195.84l49.92 167.68zM505.6 721.92l5.12-24.32q5.12-24.32 26.88-108.8 23.040-83.2 57.6-202.24l8.96-29.44h-197.12l8.96 29.44q80.64 267.52 89.6 335.36z" />
<glyph unicode="&#xe90b;" glyph-name="layer" d="M764.589 839.766c189.611-94.549 237.056-119.296 243.712-126.123 20.992-21.845 20.309-57.173-1.195-78.336-7.68-7.509-54.613-31.744-244.395-126.464l-234.837-117.248h-31.744l-234.837 117.248c-189.781 94.72-236.715 118.955-244.395 126.464-21.504 21.163-22.187 56.491-1.195 78.336 6.656 6.827 53.419 31.232 239.104 124.075 127.147 63.488 235.179 116.907 240.128 118.613 22.528 7.509 13.653 11.435 269.653-116.565zM511.49 838.742c-3.072-0.683-324.949-162.987-324.949-163.84 0-0.512 73.216-37.717 162.816-82.432l162.645-81.408 162.645 81.408c89.6 44.715 162.816 81.92 162.816 82.432 0 0.683-73.216 37.888-162.816 82.603-89.429 44.715-162.987 81.237-163.157 81.237zM60.247 503.382c12.8-0.853 28.501-8.363 232.789-110.421l218.965-109.397 218.965 109.397c177.835 88.747 221.355 109.568 230.741 110.592 32.256 3.584 62.293-23.552 62.293-56.149 0-13.824-6.827-29.696-16.896-39.595-7.68-7.509-54.613-31.915-244.395-126.464l-234.837-117.248h-31.744l-234.837 117.248c-189.781 94.549-236.715 118.955-244.395 126.464-10.069 9.899-16.896 25.771-16.896 39.595 0 21.845 16.384 45.739 36.523 53.077 6.656 2.389 14.848 3.413 23.723 2.901zM60.247 275.712c12.8-0.853 28.501-8.192 232.789-110.251l218.965-109.397 218.965 109.397c177.835 88.747 221.355 109.568 230.741 110.592 32.256 3.584 62.293-23.552 62.293-56.149 0-13.824-6.827-29.696-16.896-39.765-7.68-7.509-54.613-31.744-244.395-126.464l-234.837-117.077h-31.744l-234.837 117.077c-189.781 94.72-236.715 118.955-244.395 126.464-10.069 10.069-16.896 25.941-16.896 39.765 0 21.845 16.384 45.568 36.523 53.077 6.656 2.389 14.848 3.413 23.723 2.731z" />
<glyph unicode="&#xe90c;" glyph-name="back" d="M527.822 957.935c12.184-3.378 479.345-248.784 484.566-254.62 13.411-14.743 13.411-33.786 0-48.631-5.221-5.733-472.383-251.139-484.669-254.517-10.34-2.866-21.193-2.866-31.533 0-4.505 1.229-114.564 57.947-244.484 126.030-249.398 130.74-242.436 126.85-248.579 142.207-3.685 9.214-1.331 22.524 5.529 31.328 5.221 6.757 26.721 18.428 241.72 131.457 129.818 68.185 239.672 125.006 244.177 126.338 10.545 3.173 22.934 3.276 33.274 0.41zM511.441 871.731c-2.458-0.512-364.372-191.451-364.781-192.373-0.307-0.717 81.699-44.535 182.339-97.261l182.954-95.828 182.851 95.828c100.64 52.726 182.954 96.34 182.954 96.954s-82.314 44.229-182.954 96.954c-100.538 52.726-183.056 95.828-183.363 95.726zM67.929 556.297c4.505-1.229 106.271-53.648 226.159-116.509l163.604-85.795v-95.419c-43.922 22.422-120.604 62.247-205.989 106.987-188.994 99.104-237.215 125.006-241.208 129.921-18.735 22.934-7.269 51.395 24.469 60.506 10.443 2.969 22.831 3.071 32.967 0.307zM729.818 439.789c119.887 62.862 221.653 115.28 226.159 116.509 38.7 10.75 77.604-20.066 63.783-50.678-1.638-3.685-4.914-8.907-7.372-11.569-4.402-4.812-330.075-176.401-445.15-235.065v95.521zM524.751-61.875c5.324 1.843 18.633 14.538 95.316 91.017 50.473 50.268 90.812 91.528 92.859 95.009 3.071 5.221 3.685 7.781 3.685 16.381 0 8.804-0.614 11.16-3.89 16.791-4.505 7.577-12.593 14.026-20.578 16.176-6.962 1.843-18.122 0.819-24.264-2.253-2.458-1.229-30.816-28.462-62.862-60.506l-58.357-58.152-0.41 168.621-0.307 138.009-4.095 6.655c-2.355 3.788-7.065 8.702-10.648 11.057-16.074 10.852-37.574 5.836-48.017-11.057l-4.095-6.655-0.41-138.009-0.307-168.621-58.357 58.152c-32.148 32.045-60.506 59.279-63.169 60.711-3.378 1.741-7.781 2.458-14.947 2.56-8.804 0-11.16-0.512-16.791-3.89-16.279-9.521-22.114-30.714-12.798-46.378 1.843-3.173 43.512-45.661 92.552-94.6 80.88-80.676 89.788-89.071 95.931-91.119 8.19-2.764 15.869-2.661 23.957 0.102z" />
<glyph unicode="&#xe90d;" glyph-name="layer-backward" d="M10.088 548.436c-13.45 14.786-13.45 33.883 0 48.771 5.236 5.749 473.745 251.862 486.066 255.251 10.37 2.875 21.254 2.875 31.727 0 4.415-1.232 114.791-58.114 245.086-126.393 250.117-131.117 243.135-127.215 249.296-142.616 3.696-9.241 1.335-22.589-5.545-31.418-5.236-6.776-26.798-18.482-242.416-131.836-66.739-35.115-128.344-67.15-173.008-90.252v95.899c108.22 56.883 276.812 146.005 277.018 146.62 0.308 0.719-81.935 44.664-182.864 97.542l-183.481 96.104-183.378-96.104c-100.93-52.878-183.481-96.617-183.481-97.234s82.551-44.356 183.481-97.234c33.883-17.763 65.712-34.396 93.023-48.669v-96.309c-135.326 69.819-407.519 213.462-411.523 217.877zM500.261 43.376c-6.161 2.054-15.093 10.575-96.207 91.381-49.182 49.079-90.97 91.792-92.819 94.975-9.343 15.709-3.491 36.861 12.732 46.512 5.647 3.286 8.008 3.799 16.839 3.799 7.29 0 11.705-0.719 15.093-2.567 2.669-1.335 31.11-28.749 63.248-60.784l58.525-58.423 0.719 338.315 4.209 6.776c10.37 16.941 32.035 21.87 48.155 11.089 3.594-2.465 8.316-7.393 10.575-11.089l4.209-6.776 0.719-338.315 58.525 58.423c32.137 32.035 60.578 59.346 63.043 60.578 6.161 3.080 17.353 4.107 24.334 2.259 8.008-2.156 16.12-8.522 20.637-16.223 3.286-5.545 3.799-8.008 3.799-16.736s-0.513-11.294-3.594-16.428c-2.156-3.491-42.508-44.869-93.127-95.386-76.904-76.595-90.252-89.43-95.59-91.279-8.112-2.772-15.812-2.772-24.026-0.102z" />
<glyph unicode="&#xe90e;" glyph-name="layer-forward" d="M1013.913 347.563c13.45-14.786 13.45-33.883 0-48.771-5.236-5.749-473.745-251.863-486.066-255.251-10.37-2.875-21.254-2.875-31.624 0-4.518 1.232-114.894 58.114-245.189 126.393-250.117 131.117-243.135 127.215-249.296 142.617-3.696 9.241-1.335 22.589 5.545 31.418 5.236 6.776 26.798 18.482 242.416 131.836 66.739 35.012 128.344 67.15 173.008 90.252v-95.899c-108.22-56.883-276.813-146.005-277.018-146.62-0.308-0.719 81.935-44.664 182.865-97.542l183.481-96.104 183.378 96.104c100.93 52.878 183.481 96.617 183.481 97.234s-82.551 44.356-183.481 97.234c-33.883 17.763-65.712 34.396-93.024 48.669v96.309c135.326-69.819 407.519-213.463 411.523-217.878zM523.74 852.624c6.161-2.054 15.093-10.575 96.207-91.381 49.182-49.079 90.97-91.792 92.819-94.975 9.343-15.709 3.491-36.861-12.732-46.512-5.647-3.286-8.008-3.799-16.839-3.799-7.29 0-11.705 0.719-15.093 2.567-2.669 1.335-31.11 28.749-63.248 60.784l-58.525 58.423-0.719-338.316-4.209-6.776c-10.37-16.941-32.035-21.87-48.155-11.089-3.594 2.465-8.316 7.393-10.575 11.089l-4.209 6.776-0.719 338.213-58.525-58.319c-32.137-32.035-60.579-59.346-63.043-60.579-6.161-3.080-17.353-4.107-24.334-2.259-8.008 2.156-16.12 8.522-20.637 16.12-3.286 5.647-3.799 8.112-3.799 16.839s0.513 11.294 3.594 16.428c2.156 3.491 42.508 44.869 93.127 95.386 76.904 76.595 90.252 89.43 95.59 91.279 8.112 2.772 15.812 2.772 24.026 0.102z" />
<glyph unicode="&#xe90f;" glyph-name="front" d="M67.891 255.181c4.506-1.229 106.291-53.658 226.202-116.531l217.907-114.278 217.907 114.278c119.91 62.874 221.696 115.302 226.202 116.531 38.707 10.752 77.619-20.070 63.795-50.688-1.638-3.686-4.915-8.909-7.373-11.571-5.222-5.837-472.474-251.187-484.762-254.669-10.342-2.867-21.197-2.867-31.539 0-4.506 1.331-114.586 58.061-244.531 126.157-189.030 99.123-237.261 125.030-241.254 129.946-18.739 22.938-7.27 51.405 24.474 60.518 10.445 2.97 22.835 3.072 32.973 0.307zM1012.531 403.251c13.414-14.746 13.414-33.792 0-48.64-5.222-5.734-472.474-251.187-484.762-254.566-10.342-2.867-21.197-2.867-31.539 0-4.506 1.229-114.586 57.958-244.531 126.054-249.446 130.765-242.483 126.874-248.627 142.234-3.686 9.216-1.331 22.528 5.53 31.334 5.222 6.758 26.726 18.432 241.766 131.482 66.56 34.918 128 66.97 172.544 90.010v-95.642c-107.93-56.73-276.070-145.613-276.275-146.227-0.307-0.717 81.715-44.544 182.374-97.28l182.989-95.846 182.886 95.846c100.659 52.736 182.989 96.358 182.989 96.973s-82.33 44.237-182.989 96.973c-33.792 17.715-65.536 34.304-92.774 48.538v96.051c134.963-69.632 406.426-212.89 410.419-217.293zM523.674 906.957c6.144-2.048 15.053-10.547 95.949-91.136 49.050-48.947 90.726-91.546 92.57-94.72 9.318-15.667 3.482-36.762-12.698-46.387-5.632-3.277-7.987-3.789-16.794-3.789-7.27 0-11.674 0.717-15.053 2.56-2.662 1.331-31.027 28.672-63.078 60.621l-58.368 58.163-0.717-337.306-4.198-6.758c-10.342-16.896-31.949-21.811-48.026-11.059-3.584 2.458-8.294 7.373-10.547 11.059l-4.198 6.758-0.717 337.306-58.368-58.163c-32.051-31.949-60.416-59.187-62.874-60.416-6.144-3.072-17.306-4.096-24.269-2.253-7.987 2.15-16.077 8.499-20.582 16.077-3.277 5.632-3.789 8.090-3.789 16.794s0.512 11.264 3.584 16.384c2.15 3.482 42.394 44.749 92.877 95.13 76.698 76.39 90.010 89.19 95.334 91.034 8.090 2.765 15.77 2.765 23.962 0.102z" />
<glyph unicode="&#xe910;" glyph-name="border" d="M65.188 920h876.103v-2.191h-876.103zM69.569 764.493h876.103v-21.904h-876.103zM73.951 589.274h876.103v-43.807h-876.103zM78.328 392.15h876.103v-87.61h-876.103zM82.709 151.22h876.103v-175.22h-876.103z" />
<glyph unicode="&#xe911;" glyph-name="first" d="M890 880v-864l-648 432zM134 880h86.4v-864h-86.4z" />
<glyph unicode="&#xe912;" glyph-name="last" d="M134 16v864l648-432zM890 16h-86.4v864h86.4z" />
<glyph unicode="&#xe913;" glyph-name="previous" d="M830.001 872v-848l-636.001 424z" />
<glyph unicode="&#xe914;" glyph-name="next" d="M187.999 16v864l648.001-432z" />
</font>
</defs>
</svg>
