<svg version="1.2" xmlns="http://www.w3.org/2000/svg" viewBox="0 0 1000 1000" width="1000" height="1000">
	<title>auth-back-svg</title>
	<style>
		.s0 { fill: #60a0d2 } 
		.s1 { fill: #4081B4 } 
		.s2 { fill: #d9effb } 
		.s3 { fill: #ffffff } 
		.s4 { fill: #b8d8ed } 
	</style>
	<g id="Folder 1">
		<path id="Layer" class="s0" d="m830.9 604.4q0.5 0 0.9-0.2l28-16.6c1.9-1.1 2.9-3 2.9-5.1 0-2.2-1.1-4.1-3-5.1l-204.4-114c-6.7-3.7-10.8-10.8-10.8-18.4v-109.1c0-1.9-1-3.5-2.6-4.4-1.5-0.9-3.4-0.9-5 0l-19.3 11.1c-0.9 0.6-1.3 1.7-0.7 2.6 0.5 0.9 1.6 1.2 2.5 0.7l19.4-11.1c0.5-0.4 1.1-0.2 1.3 0 0.2 0.1 0.6 0.4 0.6 1.1v109.1c0 9 4.9 17.3 12.8 21.7l204.4 114c0.9 0.5 1 1.4 1.1 1.8 0 0.4-0.1 1.3-1.1 1.8l-28 16.6c-0.9 0.5-1.2 1.7-0.7 2.6 0.4 0.6 1 0.9 1.7 0.9z"/>
		<path id="Layer" class="s0" d="m846.2 602.5l-7.8-13.5-29.1 16.7 7.7 13.5z"/>
		<path id="Layer" class="s0" d="m847.8 599c0-3.5-2.5-7.8-5.5-9.6-3-1.7-5.5-0.3-5.5 3.2 0 3.5 2.4 7.8 5.5 9.5 3 1.8 5.5 0.4 5.5-3.1z"/>
		<path id="Layer" class="s0" d="m824.5 620.5l-12.5-21.9-45.7 26.2 12.5 21.9z"/>
		<path id="Layer" class="s1" d="m814.1 603l9.8-5.7c4.1 3 7.3 8.5 7.8 13.5l-9.9 5.7c-4.1-2.9-7.2-8.5-7.7-13.5z"/>
		<path id="Layer" class="s0" d="m827.2 614.7c0-5.6-4-12.6-8.9-15.4-4.9-2.9-8.9-0.6-8.9 5.1-0.1 5.7 3.9 12.6 8.8 15.5 4.9 2.8 8.9 0.5 9-5.2z"/>
		<path id="Layer" class="s2" d="m838.6 595.4c1.4-0.8 1.4-2.2 0-3-1.4-0.8-3.7-0.8-5.2 0-1.4 0.8-1.4 2.1 0 3 1.5 0.8 3.8 0.8 5.2 0z"/>
		<path id="Layer" class="s0" d="m625 349.5l-7.8-13.5-29.1 16.7 7.8 13.5z"/>
		<path id="Layer" class="s0" d="m626.6 345.9c0-3.5-2.4-7.8-5.5-9.5-3-1.8-5.5-0.4-5.5 3.1 0 3.5 2.5 7.8 5.5 9.6 3 1.7 5.5 0.3 5.5-3.2z"/>
		<path id="Layer" class="s0" d="m603.4 367.4l-12.6-21.8-45.7 26.2 12.6 21.8z"/>
		<path id="Layer" class="s1" d="m592.9 349.9l9.9-5.6c4 2.9 7.2 8.5 7.7 13.5l-9.8 5.6c-4.1-2.9-7.3-8.5-7.8-13.5z"/>
		<path id="Layer" class="s0" d="m606 361.7c0-5.7-4-12.6-8.9-15.5-4.9-2.8-8.9-0.6-8.9 5.1 0 5.7 3.9 12.6 8.8 15.5 5 2.9 9 0.6 9-5.1z"/>
		<path id="Layer" class="s2" d="m617.4 342.3c1.4-0.8 1.5-2.1 0-3-1.4-0.8-3.7-0.8-5.1 0-1.5 0.8-1.5 2.2 0 3 1.4 0.8 3.7 0.8 5.1 0z"/>
		<path id="Layer" class="s0" d="m504.7 412.1c0.6 0 1.3-0.4 1.6-1 0.5-0.9 0.2-2-0.7-2.5l-70.4-40.7c-6-3.4-9.6-9.8-9.6-16.7v-106.2c0-2.1-1.1-4-2.9-5-1.8-1.1-4-1.1-5.8 0l-113.9 66v-88.7c0-1.1-0.8-1.9-1.9-1.9-1 0-1.9 0.8-1.9 1.9v91.9c0 0.7 0.4 1.3 1 1.7 0.6 0.3 1.3 0.3 1.9 0l116.7-67.7c0.9-0.5 1.7-0.2 2 0 0.3 0.2 1 0.7 1 1.8v106.2c0 8.2 4.4 15.8 11.5 19.9l70.4 40.7q0.5 0.3 1 0.3z"/>
		<path id="Layer" class="s0" d="m363.7 491.3c0.7 0 1.3-0.4 1.7-1 0.5-0.9 0.2-2-0.7-2.5l-87.6-50.6c-6-3.5-9.6-9.8-9.6-16.7v-183c0-1-0.9-1.9-1.9-1.9-1.1 0-1.9 0.9-1.9 1.9v183c0 8.2 4.4 15.8 11.5 19.9l87.6 50.6q0.5 0.3 0.9 0.3z"/>
		<path id="Layer" class="s0" d="m206.6 579.3c0.7 0 1.4-0.4 1.8-1.1 0.5-0.9 0.2-2.2-0.8-2.7l-79.4-45.9c-5.9-3.4-9.6-9.8-9.6-16.6l0.3-85.4c0-6.8 3.7-13.1 9.6-16.5l102.5-59.1c0.6-0.3 1-1 1-1.7v-92.6c0-1.1-0.9-2-2-2-1.1 0-2 0.9-2 2v91.4l-101.6 58.5c-7.1 4.1-11.5 11.8-11.5 20l-0.3 85.4c0 8.3 4.4 16 11.6 20.1l79.4 45.9q0.5 0.3 1 0.3z"/>
		<path id="Layer" class="s0" d="m222.2 252.1h15.6v33.6h-15.6z"/>
		<path id="Layer" class="s0" d="m224.5 288.9c3 1.7 8 1.7 11 0 3-1.8 3-4.6 0-6.4-3-1.7-8-1.7-11 0-3 1.8-3 4.6 0 6.4z"/>
		<path id="Layer" class="s0" d="m217.4 205.3h25.2v52.7h-25.2z"/>
		<path id="Layer" class="s1" d="m237.8 257.6v11.4c-4.6 2.1-11 2.1-15.6 0v-11.4c4.6-2.1 11-2.1 15.6 0z"/>
		<path id="Layer" class="s0" d="m221.1 263.1c4.9 2.9 12.9 2.9 17.8 0 4.9-2.8 4.9-7.4 0-10.3-4.9-2.8-12.9-2.8-17.8 0-4.9 2.9-4.9 7.5 0 10.3z"/>
		<path id="Layer" class="s0" d="m257.8 231.9h15.5v33.5h-15.5z"/>
		<path id="Layer" class="s0" d="m260.1 268.6c3 1.8 7.9 1.8 11 0 3-1.7 3-4.6 0-6.3-3.1-1.8-8-1.8-11 0-3.1 1.7-3.1 4.6 0 6.3z"/>
		<path id="Layer" class="s0" d="m253 185.1h25.2v52.6h-25.2z"/>
		<path id="Layer" class="s1" d="m273.3 237.4v11.4c-4.5 2-10.9 2-15.5 0v-11.4c4.6-2.1 11-2.1 15.5 0z"/>
		<path id="Layer" class="s0" d="m256.7 242.9c4.9 2.8 12.9 2.8 17.8 0 4.9-2.9 4.9-7.5 0-10.3-4.9-2.9-12.9-2.9-17.8 0-5 2.8-5 7.4 0 10.3z"/>
		<path id="Layer" class="s0" d="m293.3 211.6h15.6v33.6h-15.6z"/>
		<path id="Layer" class="s0" d="m295.6 248.4c3.1 1.7 8 1.7 11 0 3.1-1.8 3.1-4.6 0-6.4-3-1.7-7.9-1.7-11 0-3 1.8-3 4.6 0 6.4z"/>
		<path id="Layer" class="s0" d="m288.5 164.8h25.2v52.7h-25.2z"/>
		<path id="Layer" class="s1" d="m308.9 217.2v11.3c-4.6 2.1-11 2.1-15.6 0v-11.3c4.6-2.1 11-2.1 15.6 0z"/>
		<path id="Layer" class="s0" d="m292.2 222.6c4.9 2.9 12.9 2.9 17.8 0 5-2.8 5-7.4 0-10.3-4.9-2.8-12.9-2.8-17.8 0-4.9 2.9-4.9 7.5 0 10.3z"/>
		<path id="Layer" class="s0" d="m134.1 298.7l-33.8-19.9 32.2-40.2 8.4 13.8z"/>
		<path id="Layer" class="s0" d="m379.5 78.2l-53.9-31.1 2 31.1 31 9.6z"/>
		<path id="Layer" class="s0" d="m124.7 197.6c4.1-2.3 8-3.7 11.7-4.3 5.4-28.6 25.3-58.9 49-72.6 7.2-4.1 13.9-6.3 20.1-6.8 3.2-34.7 27.3-74 56.6-90.9 15.3-8.9 29.1-9.9 39.4-4.5l0.5 0.3 0.7 0.4 31.8 18.8-10.5 8.3c9.5 4.2 15.5 14.8 15.5 30.6 0 29-20.4 64.3-45.5 78.8l-169.3 120.8c-18.9 10.9-34.2 2.1-34.2-19.7 0-21.8 15.3-48.3 34.2-59.2z"/>
		<path id="Layer" class="s0" d="m337.9 64.1l-73-42.7c14.2-7.4 27-8 36.6-2.9l0.5 0.3 0.7 0.4 31.8 18.8-10.5 8.3c6.6 2.9 11.5 9 13.9 17.8z"/>
		<path id="Layer" class="s0" d="m203 189.6l-53.2-31.3c9.1-15.8 21.7-29.6 35.6-37.6q2.8-1.6 5.5-2.8l67.7 39.6z"/>
		<path id="Layer" class="s2" d="m319.5 41.5l-23.7 13.7-43.5-25.6c3.2-2.5 6.4-4.7 9.8-6.6 5.2-3.1 10.3-5.2 15.2-6.4z"/>
		<path id="Layer" class="s2" d="m155.6 149.1l42.6 25.1-14.8 16.5-38.6-22.8c3-6.5 6.7-12.9 10.8-18.8z"/>
		<path id="Layer" class="s2" d="m158.1 217.3c4.1-2.4 8-3.7 11.7-4.3 5.4-28.6 25.3-59 49-72.6 7.2-4.2 13.9-6.4 20.1-6.8 3.2-34.7 27.3-74.1 56.6-91 31.4-18.1 57-3.4 57 32.9q0 1.9-0.1 3.8c23-10.7 40.9 1.3 40.9 28.6 0 29-20.3 64.2-45.4 78.8l-189.8 109.5c-18.9 10.9-34.2 2.1-34.2-19.7 0-21.8 15.3-48.3 34.2-59.2z"/>
		<path id="Layer" class="s3" d="m352.4 79.3q0.1-1.9 0.1-3.8v-0.1c12.7-5 23.6-2.8 30.4 5.1-7.4-6.1-18.2-7-30.5-1.2z"/>
		<path id="Layer" class="s3" d="m155.3 214.6c4.1-2.4 8-3.7 11.7-4.3 5.4-28.6 25.3-59 49-72.7 7.2-4.1 14-6.3 20.1-6.7 3.3-34.7 27.3-74.1 56.6-91 19.6-11.3 36.9-9.8 47.1 1.7-10.4-9-26.4-9.3-44.3 1-29.3 16.9-53.4 56.3-56.6 91-6.2 0.4-12.9 2.6-20.1 6.8-23.7 13.6-43.6 44-49 72.6-3.7 0.6-7.6 1.9-11.7 4.3-18.9 10.9-34.2 37.4-34.2 59.2 0 7.9 2.1 14 5.5 18.2-5.1-4-8.2-11.1-8.2-20.9 0-21.8 15.3-48.3 34.1-59.2z"/>
		<path id="Layer" class="s1" d="m356.4 87.9l-14.3 6.6 0.7-15.7q0.1-1.6 0.1-3.3c0-14-4.2-24.2-11.9-28.6-7.7-4.4-18.6-3-30.7 4-26.2 15.1-48.9 51.8-51.9 83.5l-0.8 8.1-8 0.6c-4.9 0.3-10.3 2.2-16 5.5-20.8 12-39.4 39.8-44.5 66.2l-1.2 6.6-6.7 1c-2.6 0.4-5.4 1.5-8.3 3.2-16 9.2-29.4 32.5-29.4 50.9 0 6.9 1.9 11.9 5.2 13.8 3.3 2 8.7 1.1 14.6-2.3l189.8-109.6c22.1-12.7 40.7-45.1 40.7-70.5 0-10-2.9-17.7-8.1-20.9-2.1-1.4-4.7-2.1-7.5-2.1-3.6 0-7.6 1-11.8 3z"/>
		<path id="Layer" class="s0" d="m261.7 206.8l-5-2.5 4.9-3.7z"/>
		<path id="Layer" class="s0" d="m276.7 139.2l-4.9-2.4v2.5z"/>
		<path id="Layer" class="s0" d="m247.4 191l-5.1-2.5 9.8-9.3z"/>
		<path id="Layer" class="s0" d="m258.1 204.2l23.7-14c1.2-0.7 2.2-2.5 2.2-4l-0.1-27.4-28 16.5v27.4c0 1.5 1 2.2 2.2 1.5z"/>
		<path id="Layer" class="s0" d="m271.9 136.8l25.6 16.5c1.1 0.7 0.2 3.3-1.5 4.2l-26.1 15.4-26.1 15.4c-1.7 1-2.6-0.6-1.5-2.5l25.4-46.6c1.1-2 3.1-3.1 4.2-2.4z"/>
		<path id="Layer" class="s2" d="m263.2 206.7l23.7-13.9c1.2-0.7 2.2-2.5 2.2-4l-0.1-27.5-28.1 16.6 0.1 27.4c0 1.5 1 2.1 2.2 1.4z"/>
		<path id="Layer" class="s2" d="m277 139.3l25.6 16.5c1.1 0.7 0.2 3.3-1.5 4.3l-26.1 15.4-26.2 15.4c-1.6 1-2.5-0.6-1.4-2.6l25.4-46.5c1.1-2 3.1-3.2 4.2-2.5z"/>
		<path id="Layer" class="s2" d="m303.3 242.2c0 1.6 1.2 2.3 2.6 1.5 1.4-0.8 2.6-2.8 2.6-4.5 0-1.6-1.2-2.3-2.6-1.5-1.4 0.9-2.6 2.9-2.6 4.5z"/>
		<path id="Layer" class="s4" d="m513 609.8l-71.2-41.1c-4.4-2.5-3.8-6.9 1.2-9.8l68.7-39.7c5.1-2.9 12.7-3.2 17.1-0.7l71.1 41.1c4.4 2.5 3.8 6.9-1.2 9.9l-68.7 39.6c-5 2.9-12.7 3.2-17 0.7z"/>
		<path id="Layer" class="s1" d="m623.5 528.3v-30.7l-68.9-0.1-23.8-13.7c-5.5-3.2-15.1-2.8-21.4 0.9l-22.2 12.8h-69v31.6c-0.1 2.1 1 4.2 3.7 5.7l89.1 51.4c5.4 3.2 15 2.8 21.3-0.8l86-49.7c3.7-2.1 5.4-4.8 5.2-7.4z"/>
		<path id="Layer" class="s1" d="m520.9 481.7c-4 0.1-8.2 1.1-11.5 3l-22.2 12.8h-69v31.6c-0.2 2.1 1 4.2 3.7 5.7l89.1 51.4c2.6 1.6 6.2 2.2 9.9 2.2z"/>
		<path id="Layer" class="s0" d="m426 497.5h-7.8v31.6c-0.1 2.1 1 4.2 3.7 5.7l4.1 2.4z"/>
		<path id="Layer" class="s0" d="m512.3 586.9c4.8 2 11.6 1.9 17.1-0.2v-35.9h-17.1z"/>
		<path id="Layer" class="s2" d="m511 554.7l-89.1-51.4c-5.5-3.2-4.8-8.7 1.5-12.3l86-49.7c6.3-3.6 15.9-4 21.4-0.9l89.1 51.5c5.4 3.1 4.7 8.6-1.6 12.3l-86 49.7c-6.3 3.6-15.9 4-21.3 0.8z"/>
		<path id="Layer" class="s0" d="m512.6 545.5l-74.7-43.1c-4.6-2.7-4-7.3 1.3-10.3l72.1-41.7c5.3-3 13.3-3.4 17.9-0.7l74.6 43.1c4.6 2.6 4 7.3-1.3 10.3l-72.1 41.6c-5.2 3.1-13.3 3.4-17.8 0.8z"/>
		<path id="Layer" class="s2" d="m590.8 536.4c0 2.3-1.7 5.1-3.6 6.3-2 1.1-3.6 0.2-3.6-2.1 0-2.3 1.6-5.1 3.6-6.2 1.9-1.2 3.6-0.3 3.6 2z"/>
		<path id="Layer" class="s2" d="m602.3 529.8c0 2.2-1.6 5-3.6 6.2-2 1.1-3.6 0.2-3.6-2.1 0-2.3 1.6-5.1 3.6-6.2 2-1.2 3.6-0.2 3.6 2.1z"/>
		<path id="Layer" class="s2" d="m613.9 523.1c0 2.3-1.6 5.1-3.6 6.2-2 1.1-3.6 0.2-3.6-2.1 0-2.3 1.6-5.1 3.6-6.2 2-1.2 3.6-0.2 3.6 2.1z"/>
		<path id="Layer" class="s1" d="m623.5 479.2v-30.7l-68.9-0.1-23.8-13.7c-5.5-3.2-15.1-2.8-21.4 0.8l-22.2 12.9-69-0.1v31.7c-0.1 2.1 1 4.2 3.7 5.7l89.1 51.4c5.4 3.2 15 2.8 21.3-0.9l86-49.6c3.7-2.1 5.4-4.9 5.2-7.4z"/>
		<path id="Layer" class="s1" d="m520.9 432.5c-4 0.1-8.2 1.2-11.5 3l-22.2 12.9-69-0.1v31.7c-0.2 2.1 1 4.2 3.7 5.7l89.1 51.4c2.6 1.5 6.2 2.2 9.9 2.1z"/>
		<path id="Layer" class="s0" d="m426 448.3h-7.8v31.7c-0.1 2.1 1 4.2 3.7 5.7l4.1 2.4z"/>
		<path id="Layer" class="s0" d="m512.3 537.8c4.8 2 11.6 1.9 17.1-0.2v-35.9h-17.1z"/>
		<path id="Layer" class="s2" d="m511 505.6l-89.1-51.4c-5.5-3.2-4.8-8.7 1.5-12.3l86-49.7c6.3-3.7 15.9-4.1 21.4-0.9l89.1 51.4c5.4 3.2 4.7 8.7-1.6 12.4l-86 49.6c-6.3 3.7-15.9 4.1-21.3 0.9z"/>
		<path id="Layer" class="s0" d="m512.6 496.4l-74.7-43.2c-4.6-2.6-4-7.2 1.3-10.3l72.1-41.6c5.3-3.1 13.3-3.4 17.9-0.7l74.6 43.1c4.6 2.6 4 7.2-1.3 10.3l-72.1 41.6c-5.2 3.1-13.3 3.4-17.8 0.8z"/>
		<path id="Layer" class="s2" d="m590.8 487.3c0 2.3-1.7 5.1-3.6 6.2-2 1.2-3.6 0.3-3.6-2 0-2.3 1.6-5.1 3.6-6.3 1.9-1.1 3.6-0.2 3.6 2.1z"/>
		<path id="Layer" class="s0" d="m602.3 480.6c0 2.3-1.6 5.1-3.6 6.3-2 1.1-3.6 0.2-3.6-2.1 0-2.3 1.6-5.1 3.6-6.3 2-1.1 3.6-0.2 3.6 2.1z"/>
		<path id="Layer" class="s0" d="m613.9 473.9c0 2.3-1.6 5.1-3.6 6.3-2 1.1-3.6 0.2-3.6-2.1 0-2.3 1.6-5.1 3.6-6.2 2-1.2 3.6-0.3 3.6 2z"/>
		<path id="Layer" class="s1" d="m623.5 430.1v-30.8h-68.9l-23.8-13.8c-5.5-3.1-15.1-2.7-21.4 0.9l-22.2 12.9-69-0.1v31.6c-0.1 2.2 1 4.2 3.7 5.7l89.1 51.5c5.4 3.1 15 2.7 21.3-0.9l86-49.7c3.7-2.1 5.4-4.8 5.2-7.3z"/>
		<path id="Layer" class="s1" d="m520.9 383.4c-4 0.1-8.2 1.1-11.5 3l-22.2 12.9-69-0.1v31.6c-0.2 2.2 1 4.2 3.7 5.7l89.1 51.5c2.6 1.5 6.2 2.2 9.9 2.1z"/>
		<path id="Layer" class="s0" d="m426 399.2h-7.8v31.6c-0.1 2.2 1 4.2 3.7 5.7l4.1 2.4z"/>
		<path id="Layer" class="s0" d="m512.3 488.7c4.8 2 11.6 1.9 17.1-0.2v-35.9h-17.1z"/>
		<path id="Layer" class="s2" d="m511 456.5l-89.1-51.5c-5.5-3.1-4.8-8.6 1.5-12.3l86-49.6c6.3-3.7 15.9-4.1 21.4-0.9l89.1 51.4c5.4 3.2 4.7 8.7-1.6 12.3l-86 49.7c-6.3 3.6-15.9 4-21.3 0.9z"/>
		<path id="Layer" class="s3" d="m618.3 399.9l-86 49.7c-6.3 3.6-15.9 4-21.3 0.8l-89.1-51.4c-1.2-0.7-2.1-1.5-2.8-2.4-1.8 3-1 6.3 2.8 8.4l89.1 51.5c5.4 3.1 15 2.7 21.3-0.9l86-49.7c4.9-2.8 6.4-6.8 4.3-9.9-0.9 1.4-2.3 2.7-4.3 3.9z"/>
		<path id="Layer" class="s0" d="m590.8 438.2c0 2.3-1.7 5.1-3.6 6.2-2 1.2-3.6 0.2-3.6-2.1 0-2.3 1.6-5 3.6-6.2 1.9-1.1 3.6-0.2 3.6 2.1z"/>
		<path id="Layer" class="s2" d="m602.3 431.5c0 2.3-1.6 5.1-3.6 6.2-2 1.2-3.6 0.3-3.6-2 0-2.3 1.6-5.1 3.6-6.3 2-1.1 3.6-0.2 3.6 2.1z"/>
		<path id="Layer" class="s2" d="m613.9 424.8c0 2.3-1.6 5.1-3.6 6.2-2 1.2-3.6 0.3-3.6-2 0-2.3 1.6-5.1 3.6-6.3 2-1.1 3.6-0.2 3.6 2.1z"/>
		<path id="Layer" class="s0" d="m516.2 424.6l-41.7-24.1c-2.5-1.5-2.2-4 0.8-5.7l40.2-23.3c3-1.7 7.4-1.9 10-0.4l41.7 24.1c2.5 1.5 2.2 4-0.7 5.7l-40.3 23.3c-2.9 1.7-7.4 1.9-10 0.4z"/>
		<path id="Layer" class="s2" d="m520.2 404.4l-5.7-3.3c-0.4-0.2-0.4-0.6 0.1-0.8l5.5-3.2c0.4-0.2 1-0.3 1.4-0.1l5.8 3.4c0.3 0.2 0.3 0.5-0.1 0.8l-5.6 3.2c-0.4 0.2-1 0.2-1.4 0z"/>
		<path id="Layer" class="s1" d="m474.5 400.5l0.2 0.1 0.6-0.4 40.2-23.3c3-1.7 7.4-1.9 10-0.4l41.6 24c2.3-1.7 2.5-4 0.1-5.3l-41.7-24.1c-2.6-1.5-7-1.3-10 0.4l-40.2 23.3c-3 1.7-3.3 4.2-0.8 5.7z"/>
		<path id="Layer" class="s4" d="m355.8 698.2l-71.1-41.1c-4.4-2.5-3.8-6.9 1.2-9.8l68.7-39.7c5.1-2.9 12.7-3.2 17.1-0.7l71.1 41.1c4.4 2.5 3.8 6.9-1.2 9.8l-68.7 39.7c-5.1 2.9-12.7 3.2-17.1 0.7z"/>
		<path id="Layer" class="s1" d="m466.4 616.7v-30.7l-68.9-0.1-23.9-13.7c-5.4-3.2-15-2.8-21.3 0.9l-22.2 12.8h-69v31.6c-0.2 2.1 1 4.2 3.7 5.7l89 51.4c5.5 3.2 15.1 2.8 21.4-0.8l86-49.7c3.7-2.1 5.4-4.8 5.2-7.4z"/>
		<path id="Layer" class="s1" d="m363.7 570.1c-4 0.1-8.1 1.1-11.4 3l-22.2 12.8h-69v31.6c-0.2 2.1 1 4.2 3.7 5.7l89.1 51.4c2.6 1.6 6.1 2.2 9.8 2.1z"/>
		<path id="Layer" class="s0" d="m268.9 585.9h-7.8v31.6c-0.2 2.1 1 4.2 3.7 5.7l4.1 2.4z"/>
		<path id="Layer" class="s0" d="m355.2 675.3c4.7 2 11.6 1.9 17.1-0.2v-35.9h-17.1z"/>
		<path id="Layer" class="s2" d="m353.8 643.1l-89-51.4c-5.5-3.2-4.8-8.7 1.5-12.3l86-49.7c6.3-3.6 15.9-4 21.3-0.9l89.1 51.5c5.5 3.1 4.8 8.6-1.5 12.3l-86 49.6c-6.3 3.7-15.9 4.1-21.4 0.9z"/>
		<path id="Layer" class="s0" d="m355.5 633.9l-74.7-43.1c-4.6-2.7-4-7.3 1.3-10.4l72.1-41.6c5.3-3 13.3-3.4 17.8-0.7l74.7 43.1c4.6 2.6 4 7.3-1.3 10.3l-72.1 41.6c-5.3 3.1-13.3 3.4-17.8 0.8z"/>
		<path id="Layer" class="s2" d="m433.6 624.8c0 2.3-1.6 5.1-3.6 6.3-2 1.1-3.6 0.2-3.6-2.1 0-2.3 1.6-5.1 3.6-6.2 2-1.2 3.6-0.3 3.6 2z"/>
		<path id="Layer" class="s0" d="m445.2 618.1c0 2.3-1.6 5.1-3.6 6.3-2 1.1-3.6 0.2-3.6-2.1 0-2.3 1.6-5.1 3.6-6.2 2-1.2 3.6-0.2 3.6 2z"/>
		<path id="Layer" class="s2" d="m456.8 611.5c0 2.3-1.6 5-3.6 6.2-2 1.1-3.6 0.2-3.6-2.1 0-2.3 1.6-5.1 3.6-6.2 2-1.2 3.6-0.2 3.6 2.1z"/>
		<path id="Layer" class="s1" d="m466.4 567.6v-30.7l-68.9-0.1-23.9-13.7c-5.4-3.2-15-2.8-21.3 0.8l-22.2 12.9-69-0.1v31.7c-0.2 2.1 1 4.2 3.7 5.7l89 51.4c5.5 3.2 15.1 2.8 21.4-0.9l86-49.6c3.7-2.2 5.4-4.9 5.2-7.4z"/>
		<path id="Layer" class="s1" d="m363.7 520.9c-4 0.1-8.1 1.1-11.4 3l-22.2 12.9-69-0.1v31.7c-0.2 2.1 1 4.2 3.7 5.7l89.1 51.4c2.6 1.5 6.1 2.2 9.8 2.1z"/>
		<path id="Layer" class="s0" d="m268.9 536.7h-7.8v31.7c-0.2 2.1 1 4.2 3.7 5.7l4.1 2.4z"/>
		<path id="Layer" class="s0" d="m355.2 626.2c4.7 2 11.6 1.9 17.1-0.2v-35.9h-17.1z"/>
		<path id="Layer" class="s2" d="m353.8 594l-89-51.4c-5.5-3.2-4.8-8.7 1.5-12.3l86-49.7c6.3-3.7 15.9-4.1 21.3-0.9l89.1 51.4c5.5 3.2 4.8 8.7-1.5 12.4l-86 49.6c-6.3 3.7-15.9 4.1-21.4 0.9z"/>
		<path id="Layer" class="s0" d="m355.5 584.7l-74.7-43.1c-4.6-2.6-4-7.2 1.3-10.3l72.1-41.6c5.3-3.1 13.3-3.4 17.8-0.7l74.7 43.1c4.6 2.6 4 7.2-1.3 10.3l-72.1 41.6c-5.3 3.1-13.3 3.4-17.8 0.7z"/>
		<path id="Layer" class="s2" d="m433.6 575.7c0 2.3-1.6 5.1-3.6 6.2-2 1.2-3.6 0.3-3.6-2 0-2.3 1.6-5.1 3.6-6.3 2-1.1 3.6-0.2 3.6 2.1z"/>
		<path id="Layer" class="s2" d="m445.2 569c0 2.3-1.6 5.1-3.6 6.3-2 1.1-3.6 0.2-3.6-2.1 0-2.3 1.6-5.1 3.6-6.3 2-1.1 3.6-0.2 3.6 2.1z"/>
		<path id="Layer" class="s0" d="m456.8 562.3c0 2.3-1.6 5.1-3.6 6.3-2 1.1-3.6 0.2-3.6-2.1 0-2.3 1.6-5.1 3.6-6.2 2-1.2 3.6-0.3 3.6 2z"/>
		<path id="Layer" class="s1" d="m466.4 518.5v-30.8h-68.9l-23.9-13.8c-5.4-3.1-15-2.7-21.3 0.9l-22.2 12.9-69-0.1v31.6c-0.2 2.2 1 4.2 3.7 5.7l89 51.5c5.5 3.1 15.1 2.7 21.4-0.9l86-49.7c3.7-2.1 5.4-4.8 5.2-7.3z"/>
		<path id="Layer" class="s1" d="m363.7 471.8c-4 0.1-8.1 1.1-11.4 3l-22.2 12.9-69-0.1v31.6c-0.2 2.2 1 4.2 3.7 5.7l89.1 51.5c2.6 1.5 6.1 2.2 9.8 2.1z"/>
		<path id="Layer" class="s0" d="m268.9 487.6h-7.8v31.6c-0.2 2.2 1 4.2 3.7 5.7l4.1 2.4z"/>
		<path id="Layer" class="s0" d="m355.2 577.1c4.7 2 11.6 1.9 17.1-0.2v-35.9h-17.1z"/>
		<path id="Layer" class="s2" d="m353.8 544.9l-89-51.5c-5.5-3.1-4.8-8.6 1.5-12.3l86-49.6c6.3-3.7 15.9-4.1 21.3-0.9l89.1 51.4c5.5 3.2 4.8 8.7-1.5 12.3l-86 49.7c-6.3 3.6-15.9 4-21.4 0.9z"/>
		<path id="Layer" class="s3" d="m461.2 488.3l-86 49.6c-6.3 3.7-15.9 4.1-21.4 0.9l-89-51.4c-1.3-0.7-2.2-1.5-2.8-2.4-1.9 3-1 6.3 2.8 8.4l89 51.5c5.5 3.1 15.1 2.7 21.4-0.9l86-49.7c4.9-2.8 6.4-6.8 4.3-9.9-0.9 1.4-2.3 2.7-4.3 3.9z"/>
		<path id="Layer" class="s0" d="m433.6 526.6c0 2.3-1.6 5.1-3.6 6.2-2 1.2-3.6 0.2-3.6-2.1 0-2.3 1.6-5.1 3.6-6.2 2-1.1 3.6-0.2 3.6 2.1z"/>
		<path id="Layer" class="s0" d="m445.2 519.9c0 2.3-1.6 5.1-3.6 6.2-2 1.2-3.6 0.2-3.6-2.1 0-2.2 1.6-5 3.6-6.2 2-1.1 3.6-0.2 3.6 2.1z"/>
		<path id="Layer" class="s2" d="m456.8 513.2c0 2.3-1.6 5.1-3.6 6.2-2 1.2-3.6 0.3-3.6-2 0-2.3 1.6-5.1 3.6-6.3 2-1.1 3.6-0.2 3.6 2.1z"/>
		<path id="Layer" class="s0" d="m359.1 513l-41.7-24.1c-2.5-1.5-2.2-4 0.7-5.7l40.3-23.3c3-1.7 7.4-1.9 10-0.4l41.7 24.1c2.5 1.4 2.2 4-0.7 5.7l-40.3 23.3c-3 1.7-7.4 1.9-10 0.4z"/>
		<path id="Layer" class="s2" d="m363.1 492.8l-5.8-3.3c-0.3-0.2-0.3-0.6 0.1-0.8l5.6-3.2c0.4-0.2 1-0.3 1.4-0.1l5.8 3.4c0.3 0.2 0.3 0.5-0.1 0.8l-5.6 3.2c-0.4 0.2-1 0.2-1.4 0z"/>
		<path id="Layer" class="s1" d="m317.4 488.9l0.1 0.1 0.6-0.4 40.3-23.3c3-1.7 7.4-1.9 10-0.4l41.6 24c2.3-1.7 2.4-4 0.1-5.3l-41.7-24.1c-2.6-1.5-7-1.3-10 0.4l-40.3 23.3c-2.9 1.7-3.2 4.2-0.7 5.7z"/>
		<path id="Layer" class="s2" d="m345.9 601.3c0 1.7-1.1 2.3-2.5 1.5-1.5-0.8-2.6-2.8-2.6-4.4 0-1.7 1.1-2.4 2.6-1.5 1.4 0.8 2.5 2.8 2.5 4.4z"/>
		<path id="Layer" class="s2" d="m337.9 596.7c0 1.7-1.1 2.4-2.6 1.5-1.4-0.8-2.5-2.8-2.5-4.4 0-1.7 1.1-2.3 2.5-1.5 1.5 0.8 2.6 2.8 2.6 4.4z"/>
		<path id="Layer" class="s2" d="m345.9 611c0 1.6-1.1 2.3-2.5 1.5-1.5-0.8-2.6-2.8-2.6-4.5 0-1.6 1.1-2.3 2.6-1.5 1.4 0.8 2.5 2.8 2.5 4.5z"/>
		<path id="Layer" class="s0" d="m337.9 606.4c0 1.6-1.1 2.3-2.6 1.5-1.4-0.8-2.5-2.8-2.5-4.5 0-1.6 1.1-2.3 2.5-1.5 1.5 0.9 2.6 2.9 2.6 4.5z"/>
		<path id="Layer" class="s4" d="m198.7 786.6l-71.1-41.1c-4.4-2.5-3.8-6.9 1.2-9.8l68.7-39.7c5-2.9 12.7-3.2 17-0.7l71.2 41.1c4.4 2.5 3.8 6.9-1.2 9.8l-68.7 39.7c-5.1 2.9-12.7 3.2-17.1 0.7z"/>
		<path id="Layer" class="s1" d="m309.3 705.1v-30.7l-68.9-0.1-23.9-13.7c-5.4-3.2-15-2.8-21.3 0.9l-22.2 12.8h-69v31.6c-0.2 2.1 1 4.2 3.6 5.7l89.1 51.4c5.5 3.2 15.1 2.8 21.4-0.9l86-49.6c3.6-2.1 5.4-4.9 5.2-7.4z"/>
		<path id="Layer" class="s1" d="m206.6 658.5c-4 0.1-8.1 1.1-11.4 3l-22.2 12.8h-69v31.6c-0.2 2.1 1 4.2 3.6 5.7l89.1 51.4c2.7 1.5 6.2 2.2 9.9 2.1z"/>
		<path id="Layer" class="s0" d="m111.8 674.3h-7.8v31.6c-0.2 2.1 1 4.2 3.6 5.7l4.2 2.4z"/>
		<path id="Layer" class="s0" d="m198.1 763.7c4.7 2 11.5 1.9 17.1-0.2v-35.9h-17.1z"/>
		<path id="Layer" class="s2" d="m196.7 731.5l-89.1-51.4c-5.4-3.2-4.7-8.7 1.6-12.3l86-49.7c6.3-3.6 15.9-4 21.3-0.9l89.1 51.5c5.5 3.1 4.8 8.6-1.5 12.3l-86 49.6c-6.3 3.7-15.9 4.1-21.4 0.9z"/>
		<path id="Layer" class="s0" d="m198.3 722.3l-74.6-43.1c-4.6-2.7-4-7.3 1.3-10.4l72.1-41.6c5.2-3 13.2-3.4 17.8-0.7l74.7 43.1c4.6 2.6 4 7.2-1.3 10.3l-72.1 41.6c-5.3 3.1-13.3 3.4-17.9 0.8z"/>
		<path id="Layer" class="s2" d="m276.5 713.2c0 2.3-1.6 5.1-3.6 6.3-2 1.1-3.6 0.2-3.6-2.1 0-2.3 1.6-5.1 3.6-6.3 2-1.1 3.6-0.2 3.6 2.1z"/>
		<path id="Layer" class="s0" d="m288.1 706.5c0 2.3-1.6 5.1-3.6 6.3-2 1.1-3.6 0.2-3.6-2.1 0-2.3 1.6-5.1 3.6-6.2 2-1.2 3.6-0.3 3.6 2z"/>
		<path id="Layer" class="s2" d="m299.7 699.9c0 2.3-1.6 5-3.6 6.2-2 1.1-3.6 0.2-3.6-2.1 0-2.3 1.6-5.1 3.6-6.2 2-1.2 3.6-0.2 3.6 2.1z"/>
		<path id="Layer" class="s1" d="m309.3 656v-30.8h-68.9l-23.9-13.7c-5.4-3.2-15-2.8-21.3 0.8l-22.2 12.9-69-0.1v31.6c-0.2 2.2 1 4.2 3.6 5.8l89.1 51.4c5.5 3.2 15.1 2.8 21.4-0.9l86-49.7c3.6-2.1 5.4-4.8 5.2-7.3z"/>
		<path id="Layer" class="s1" d="m206.6 609.3c-4 0.1-8.1 1.1-11.4 3l-22.2 12.9-69-0.1v31.6c-0.2 2.2 1 4.2 3.6 5.8l89.1 51.4c2.7 1.5 6.2 2.2 9.9 2.1z"/>
		<path id="Layer" class="s0" d="m111.8 625.1h-7.8v31.6c-0.2 2.2 1 4.2 3.6 5.8l4.2 2.4z"/>
		<path id="Layer" class="s0" d="m198.1 714.6c4.7 2 11.5 1.9 17.1-0.2v-35.9h-17.1z"/>
		<path id="Layer" class="s2" d="m196.7 682.4l-89.1-51.4c-5.4-3.2-4.7-8.7 1.6-12.4l86-49.6c6.3-3.7 15.9-4.1 21.3-0.9l89.1 51.4c5.5 3.2 4.8 8.7-1.5 12.3l-86 49.7c-6.3 3.7-15.9 4.1-21.4 0.9z"/>
		<path id="Layer" class="s0" d="m198.3 673.1l-74.6-43.1c-4.6-2.6-4-7.2 1.3-10.3l72.1-41.6c5.2-3.1 13.2-3.4 17.8-0.8l74.7 43.2c4.6 2.6 4 7.2-1.3 10.3l-72.1 41.6c-5.3 3.1-13.3 3.4-17.9 0.7z"/>
		<path id="Layer" class="s0" d="m276.5 664.1c0 2.3-1.6 5.1-3.6 6.2-2 1.2-3.6 0.2-3.6-2 0-2.3 1.6-5.1 3.6-6.3 2-1.1 3.6-0.2 3.6 2.1z"/>
		<path id="Layer" class="s0" d="m288.1 657.4c0 2.3-1.6 5.1-3.6 6.2-2 1.2-3.6 0.3-3.6-2 0-2.3 1.6-5.1 3.6-6.3 2-1.1 3.6-0.2 3.6 2.1z"/>
		<path id="Layer" class="s2" d="m299.7 650.7c0 2.3-1.6 5.1-3.6 6.3-2 1.1-3.6 0.2-3.6-2.1 0-2.3 1.6-5.1 3.6-6.2 2-1.2 3.6-0.3 3.6 2z"/>
		<path id="Layer" class="s1" d="m309.3 606.9v-30.8h-68.9l-23.9-13.8c-5.4-3.1-15-2.7-21.3 0.9l-22.2 12.8h-69v31.6c-0.2 2.2 1 4.2 3.6 5.7l89.1 51.5c5.5 3.1 15.1 2.7 21.4-0.9l86-49.7c3.6-2.1 5.4-4.8 5.2-7.3z"/>
		<path id="Layer" class="s1" d="m206.6 560.2c-4 0.1-8.1 1.1-11.4 3l-22.2 12.8h-69v31.6c-0.2 2.2 1 4.2 3.6 5.7l89.1 51.5c2.7 1.5 6.2 2.2 9.9 2.1z"/>
		<path id="Layer" class="s0" d="m111.8 576h-7.8v31.6c-0.2 2.2 1 4.2 3.6 5.7l4.2 2.4z"/>
		<path id="Layer" class="s0" d="m198.1 665.4c4.7 2.1 11.5 2 17.1-0.1v-35.9h-17.1z"/>
		<path id="Layer" class="s2" d="m196.7 633.3l-89.1-51.5c-5.4-3.1-4.7-8.6 1.6-12.3l86-49.6c6.3-3.7 15.9-4.1 21.3-0.9l89.1 51.4c5.5 3.2 4.8 8.7-1.5 12.3l-86 49.7c-6.3 3.6-15.9 4-21.4 0.9z"/>
		<path id="Layer" class="s3" d="m304.1 576.7l-86 49.6c-6.3 3.7-15.9 4.1-21.4 0.9l-89.1-51.4c-1.2-0.7-2.1-1.5-2.7-2.4-1.9 3-1 6.3 2.7 8.4l89.1 51.5c5.5 3.1 15.1 2.7 21.4-0.9l86-49.7c4.9-2.8 6.4-6.8 4.3-9.9-0.9 1.4-2.3 2.7-4.3 3.9z"/>
		<path id="Layer" class="s2" d="m276.5 615c0 2.3-1.6 5.1-3.6 6.2-2 1.2-3.6 0.2-3.6-2.1 0-2.3 1.6-5.1 3.6-6.2 2-1.2 3.6-0.2 3.6 2.1z"/>
		<path id="Layer" class="s2" d="m288.1 608.3c0 2.3-1.6 5.1-3.6 6.2-2 1.2-3.6 0.2-3.6-2.1 0-2.3 1.6-5 3.6-6.2 2-1.1 3.6-0.2 3.6 2.1z"/>
		<path id="Layer" class="s0" d="m299.7 601.6c0 2.3-1.6 5.1-3.6 6.2-2 1.2-3.6 0.3-3.6-2 0-2.3 1.6-5.1 3.6-6.3 2-1.1 3.6-0.2 3.6 2.1z"/>
		<path id="Layer" class="s0" d="m202 601.4l-41.7-24.1c-2.5-1.5-2.2-4 0.7-5.8l40.3-23.2c2.9-1.7 7.4-1.9 10-0.4l41.7 24.1c2.5 1.4 2.2 4-0.8 5.7l-40.2 23.3c-3 1.7-7.4 1.9-10 0.4z"/>
		<path id="Layer" class="s2" d="m206 581.2l-5.8-3.3c-0.3-0.2-0.3-0.6 0.1-0.8l5.6-3.2c0.4-0.3 1-0.3 1.4-0.1l5.7 3.4c0.4 0.2 0.4 0.5-0.1 0.8l-5.5 3.2c-0.4 0.2-1.1 0.2-1.4 0z"/>
		<path id="Layer" class="s1" d="m160.3 577.3l0.1 0.1 0.6-0.4 40.3-23.3c2.9-1.7 7.4-1.9 10-0.4l41.5 24c2.4-1.7 2.5-4 0.2-5.3l-41.7-24.1c-2.6-1.5-7.1-1.3-10 0.4l-40.3 23.2c-2.9 1.8-3.2 4.3-0.7 5.8z"/>
		<path id="Layer" class="s2" d="m190 641.3c0 1.6-1.2 2.3-2.6 1.5-1.5-0.8-2.6-2.8-2.6-4.5 0-1.6 1.1-2.3 2.6-1.5 1.4 0.9 2.6 2.9 2.6 4.5z"/>
		<path id="Layer" class="s2" d="m181.9 636.7c0 1.7-1.1 2.3-2.5 1.5-1.5-0.8-2.6-2.8-2.6-4.5 0-1.6 1.1-2.3 2.6-1.5 1.4 0.9 2.5 2.9 2.5 4.5z"/>
		<path id="Layer" class="s2" d="m190 651c0 1.6-1.2 2.3-2.6 1.5-1.5-0.9-2.6-2.9-2.6-4.5 0-1.7 1.1-2.3 2.6-1.5 1.4 0.8 2.6 2.8 2.6 4.5z"/>
		<path id="Layer" class="s0" d="m181.9 646.4c0 1.6-1.1 2.3-2.5 1.5-1.5-0.9-2.6-2.9-2.6-4.5 0-1.7 1.1-2.3 2.6-1.5 1.4 0.8 2.5 2.8 2.5 4.5z"/>
		<path id="Layer" class="s0" d="m190 690.4c0 1.7-1.2 2.3-2.6 1.5-1.5-0.8-2.6-2.8-2.6-4.4 0-1.7 1.1-2.4 2.6-1.5 1.4 0.8 2.6 2.8 2.6 4.4z"/>
		<path id="Layer" class="s2" d="m181.9 685.8c0 1.7-1.1 2.3-2.5 1.5-1.5-0.8-2.6-2.8-2.6-4.4 0-1.7 1.1-2.4 2.6-1.5 1.4 0.8 2.5 2.8 2.5 4.4z"/>
		<path id="Layer" class="s0" d="m190 700.1c0 1.6-1.2 2.3-2.6 1.5-1.5-0.8-2.6-2.8-2.6-4.5 0-1.6 1.1-2.3 2.6-1.5 1.4 0.8 2.6 2.8 2.6 4.5z"/>
		<path id="Layer" class="s2" d="m181.9 695.5c0 1.6-1.1 2.3-2.5 1.5-1.5-0.8-2.6-2.8-2.6-4.5 0-1.6 1.1-2.3 2.6-1.5 1.4 0.9 2.5 2.9 2.5 4.5z"/>
		<path id="Layer" class="s2" d="m190 739.6c0 1.6-1.2 2.3-2.6 1.4-1.5-0.8-2.6-2.8-2.6-4.4 0-1.7 1.1-2.3 2.6-1.5 1.4 0.8 2.6 2.8 2.6 4.5z"/>
		<path id="Layer" class="s0" d="m181.9 735c0 1.6-1.1 2.3-2.5 1.5-1.5-0.9-2.6-2.9-2.6-4.5 0-1.7 1.1-2.3 2.6-1.5 1.4 0.8 2.5 2.8 2.5 4.5z"/>
		<path id="Layer" class="s2" d="m190 749.2c0 1.7-1.2 2.3-2.6 1.5-1.5-0.8-2.6-2.8-2.6-4.5 0-1.6 1.1-2.3 2.6-1.5 1.4 0.9 2.6 2.9 2.6 4.5z"/>
		<path id="Layer" class="s2" d="m181.9 744.6c0 1.7-1.1 2.3-2.5 1.5-1.5-0.8-2.6-2.8-2.6-4.5 0-1.6 1.1-2.3 2.6-1.4 1.4 0.8 2.5 2.8 2.5 4.4z"/>
		<path id="Layer" class="s0" d="m192.5 485l-5.8-2.3 4.5-3.5z"/>
		<path id="Layer" class="s0" d="m195.4 422.4l-5.6-2.3 0.4 2.4z"/>
		<path id="Layer" class="s0" d="m174.3 470.4l-5.8-2.4 8.5-8.6z"/>
		<path id="Layer" class="s0" d="m188.2 482.5l22.4-12.9c1.2-0.6 1.8-2.3 1.5-3.7l-5.3-25.4-26.5 15.3 5.3 25.4c0.3 1.4 1.5 2 2.6 1.3z"/>
		<path id="Layer" class="s0" d="m189.8 420.1l30.3 15.3c1.3 0.6 0.8 3.1-0.7 4l-24.7 14.2-24.7 14.3c-1.6 0.9-2.8-0.6-2.1-2.4l18-43.1c0.8-1.8 2.6-2.9 3.9-2.3z"/>
		<path id="Layer" class="s2" d="m194.1 484.9l22.4-12.9c1.1-0.7 1.8-2.3 1.5-3.7l-5.3-25.4-26.6 15.3 5.4 25.4c0.3 1.4 1.5 2 2.6 1.3z"/>
		<path id="Layer" class="s2" d="m195.7 422.5l30.3 15.3c1.2 0.6 0.8 3-0.8 3.9l-24.6 14.3-24.7 14.3c-1.6 0.8-2.8-0.6-2.1-2.4l18-43.1c0.7-1.9 2.6-2.9 3.9-2.3z"/>
		<path id="Layer" class="s0" d="m347.9 395.9l-5.8-2.3 4.5-3.5z"/>
		<path id="Layer" class="s0" d="m350.7 333.3l-5.6-2.3 0.4 2.4z"/>
		<path id="Layer" class="s0" d="m329.7 381.3l-5.9-2.4 8.6-8.6z"/>
		<path id="Layer" class="s0" d="m343.6 393.4l22.4-12.9c1.1-0.7 1.8-2.3 1.5-3.7l-5.4-25.4-26.5 15.3 5.4 25.4c0.3 1.4 1.5 2 2.6 1.3z"/>
		<path id="Layer" class="s0" d="m345.2 331l30.2 15.3c1.3 0.6 0.9 3-0.7 3.9l-24.7 14.3-24.7 14.3c-1.5 0.9-2.8-0.6-2-2.4l17.9-43.1c0.8-1.9 2.7-2.9 4-2.3z"/>
		<path id="Layer" class="s2" d="m349.5 395.8l22.3-12.9c1.2-0.7 1.9-2.3 1.6-3.7l-5.4-25.4-26.5 15.3 5.4 25.4c0.3 1.4 1.4 1.9 2.6 1.3z"/>
		<path id="Layer" class="s2" d="m351.1 333.4l30.2 15.2c1.3 0.7 0.9 3.1-0.7 4l-24.7 14.3-24.7 14.2c-1.5 0.9-2.8-0.5-2-2.3l17.9-43.1c0.8-1.9 2.6-3 4-2.3z"/>
		<path id="Layer" class="s4" d="m886.6 747.6l-168.3-96.7c-13.2-7.6-36.4-6.6-51.7 2.3l-345.1 200.2c-15.2 8.8-16.9 22.2-3.6 29.8l168.3 96.7c13.2 7.6 36.4 6.6 51.7-2.2l345.1-200.2c15.3-8.9 16.9-22.3 3.6-29.9z"/>
		<path id="Layer" class="s1" d="m479.5 948l-172.4-99c-7.5-4.4-11.3-10.2-11.5-16.2l-0.1-29.7 5.5 9.5c2.7-3.1 6.3-6 10.8-8.7l347-201.3c19.7-11.4 49.5-12.7 66.5-2.9l172.3 99q2.8 1.6 4.9 3.4l6.6-8.4 0.1 27.8c0.2 7.7-5.3 15.9-16.2 22.3l-347 201.3c-19.7 11.4-49.5 12.7-66.5 2.9z"/>
		<path id="Layer" class="s2" d="m897.5 676.7l-172.3-99c-17.1-9.8-46.8-8.5-66.5 2.9l-347 201.3c-19.7 11.4-21.8 28.6-4.7 38.4l172.3 99c17.1 9.8 46.9 8.5 66.5-2.9l347-201.3c19.7-11.4 21.8-28.6 4.7-38.4z"/>
		<path id="Layer" class="s3" d="m307 820.3l172.3 99c17.1 9.8 46.9 8.5 66.5-2.9l347-201.3c9.5-5.5 14.9-12.4 16-19.2 1.4 8.3-4 17.3-16 24.3l-347 201.3c-19.6 11.4-49.4 12.7-66.5 2.9l-172.3-99c-8.8-5.1-12.5-12.1-11.3-19.3 0.9 5.4 4.6 10.4 11.3 14.2z"/>
		<path id="Layer" class="s3" d="m886.6 680.7l-168.3-96.7c-13.2-7.6-36.4-6.6-51.7 2.2l-345.1 200.3c-15.2 8.8-16.9 22.2-3.6 29.8l168.3 96.7c13.2 7.6 36.4 6.6 51.7-2.3l345.1-200.2c15.3-8.8 16.9-22.2 3.6-29.8z"/>
		<path id="Layer" class="s2" d="m267.7 261.5c0 1.6 1.1 2.3 2.5 1.5 1.5-0.9 2.6-2.9 2.6-4.5 0-1.7-1.1-2.3-2.6-1.5-1.4 0.8-2.5 2.8-2.5 4.5z"/>
		<path id="Layer" class="s2" d="m232 280.7c0 1.7 1.1 2.3 2.6 1.5 1.4-0.8 2.5-2.8 2.5-4.4 0-1.7-1.1-2.4-2.5-1.5-1.5 0.8-2.6 2.8-2.6 4.4z"/>
		<path id="Layer" class="s4" d="m615.5 715.8l62.3-35.9c2.3-1.4 2-3.7-0.6-5.2-2.7-1.6-6.7-1.7-9-0.4l-62.3 36c-2.3 1.3-2.1 3.6 0.6 5.2 2.7 1.5 6.7 1.7 9 0.3z"/>
		<path id="Layer" class="s4" d="m674.6 703.7l22.2-12.9c2.3-1.3 2-3.6-0.7-5.2-2.6-1.5-6.7-1.7-9-0.3l-22.2 12.8c-2.3 1.3-2 3.7 0.7 5.2 2.6 1.5 6.7 1.7 9 0.4z"/>
		<path id="Layer" class="s1" d="m637.3 725.2l22.2-12.8c2.3-1.4 2-3.7-0.7-5.2-2.6-1.6-6.7-1.7-9-0.4l-22.2 12.8c-2.3 1.4-2 3.7 0.7 5.2 2.6 1.6 6.7 1.7 9 0.4z"/>
		<path id="Layer" class="s4" d="m561.9 768.7l60.3-34.8c2.3-1.3 2-3.7-0.6-5.2-2.7-1.5-6.7-1.7-9.1-0.4l-60.3 34.9c-2.3 1.3-2 3.6 0.7 5.2 2.6 1.5 6.7 1.7 9 0.3z"/>
		<path id="Layer" class="s4" d="m637.9 746.7l77.9-44.9c2.3-1.3 2-3.7-0.7-5.2-2.7-1.6-6.7-1.7-9-0.4l-77.8 44.9c-2.3 1.4-2.1 3.7 0.6 5.3 2.7 1.5 6.7 1.7 9 0.3z"/>
		<path id="Layer" class="s1" d="m544.3 822.7l190.4-110c2.3-1.3 2-3.6-0.6-5.2-2.7-1.5-6.7-1.7-9-0.3l-190.4 109.9c-2.3 1.3-2.1 3.7 0.6 5.2 2.7 1.6 6.7 1.7 9 0.4z"/>
		<path id="Layer" class="s4" d="m488.8 789l109.5-63.2c2.3-1.4 2-3.7-0.6-5.2-2.7-1.6-6.7-1.7-9-0.4l-109.6 63.3c-2.3 1.3-2 3.6 0.7 5.2 2.6 1.5 6.7 1.7 9 0.3z"/>
		<path id="Layer" class="s2" d="m677.6 892.3l16-9.2c1.6-0.9 2.9-3.4 2.9-5.5 0-2.2-1.3-3.1-2.9-2.2l-16 9.2c-1.6 0.9-2.9 3.4-2.9 5.5 0 2.2 1.3 3.1 2.9 2.2z"/>
		<path id="Layer" class="s2" d="m652.4 906.9l16-9.2c1.6-0.9 2.9-3.4 2.9-5.5 0-2.2-1.3-3.1-2.9-2.2l-16 9.2c-1.6 0.9-2.9 3.4-2.9 5.5 0 2.2 1.3 3.1 2.9 2.2z"/>
		<path id="Layer" class="s4" d="m333.7 852.6c0 3.4 2.4 7.4 5.3 9.1 2.9 1.7 5.2 0.3 5.2-3 0-3.4-2.3-7.4-5.2-9.1-2.9-1.7-5.3-0.3-5.3 3z"/>
		<path id="Layer" class="s1" d="m469.2 416.6l-5.8-3.3c-0.3-0.2-0.3-0.6 0.1-0.8l5.6-3.3c0.4-0.2 1-0.2 1.4 0l5.8 3.3c0.3 0.2 0.3 0.6-0.1 0.8l-5.6 3.2c-0.4 0.3-1 0.3-1.4 0.1z"/>
		<path id="Layer" class="s1" d="m482.5 424.3l-5.8-3.4c-0.3-0.2-0.3-0.5 0.1-0.8l5.6-3.2c0.4-0.2 1-0.2 1.4 0l5.8 3.3c0.3 0.2 0.3 0.6-0.1 0.8l-5.6 3.2c-0.4 0.2-1 0.3-1.4 0.1z"/>
		<path id="Layer" class="s1" d="m495.8 431.9l-5.8-3.3c-0.3-0.2-0.3-0.6 0.1-0.8l5.6-3.2c0.4-0.2 1-0.3 1.4-0.1l5.8 3.4c0.3 0.2 0.3 0.5-0.1 0.8l-5.6 3.2c-0.4 0.2-1 0.2-1.4 0z"/>
		<path id="Layer" class="s1" d="m545.4 370.9l-5.8-3.3c-0.3-0.2-0.3-0.6 0.1-0.8l5.6-3.2c0.4-0.2 1-0.3 1.4-0.1l5.7 3.4c0.4 0.2 0.4 0.5-0.1 0.8l-5.5 3.2c-0.4 0.2-1.1 0.2-1.4 0z"/>
		<path id="Layer" class="s1" d="m558.7 378.6l-5.8-3.3c-0.3-0.2-0.3-0.6 0.1-0.8l5.6-3.2c0.4-0.3 1-0.3 1.4-0.1l5.7 3.3c0.4 0.2 0.3 0.6-0.1 0.8l-5.5 3.3c-0.4 0.2-1.1 0.2-1.4 0z"/>
		<path id="Layer" class="s1" d="m572 386.3l-5.8-3.3c-0.3-0.2-0.3-0.6 0.1-0.8l5.6-3.3c0.4-0.2 1-0.2 1.4 0l5.7 3.3c0.4 0.2 0.3 0.6-0.1 0.8l-5.5 3.2c-0.4 0.3-1.1 0.3-1.4 0.1z"/>
	</g>
</svg>