<svg version="1.2" xmlns="http://www.w3.org/2000/svg" viewBox="0 0 43 43" width="43" height="43"><style>.a{fill:#408253}.b{fill:#fff}</style><path class="a" d="m21.5 43c-11.9 0-21.5-9.6-21.5-21.5 0-11.9 9.6-21.5 21.5-21.5 11.9 0 21.5 9.6 21.5 21.5 0 11.9-9.6 21.5-21.5 21.5z"/><path fill-rule="evenodd" class="b" d="m31.6 34.2h-2.4v-5.4h-12v-2.4h12v-0.7q0-0.3 0-0.6 0-0.3 0-0.5 0-0.3-0.1-0.6 0-0.3-0.1-0.5 0-0.3-0.1-0.5 0-0.3-0.1-0.5 0-0.2-0.2-0.5 0-0.2-0.1-0.5l-3.2-7.6q-0.1-0.3-0.2-0.5-0.1-0.3-0.3-0.5-0.2-0.2-0.3-0.5-0.1-0.3-0.3-0.5-0.1-0.1-0.3-0.2-0.1-0.1-0.2-0.1-0.2-0.1-0.4-0.1-0.2 0-0.3 0h-3.6q-0.2 0-0.3 0-0.2 0-0.4 0.1-0.1 0-0.3 0.1-0.1 0.1-0.3 0.2-0.2 0.2-0.3 0.5-0.1 0.2-0.3 0.5-0.1 0.2-0.2 0.4-0.1 0.3-0.2 0.6l-3 7.6q-0.1 0.3-0.2 0.5-0.1 0.3-0.1 0.5-0.1 0.2-0.1 0.5-0.1 0.2-0.1 0.5-0.1 0.2-0.1 0.5-0.1 0.3-0.1 0.6 0 0.2 0 0.5 0 0.3 0 0.6v8.5h-2.4v-8.5q0-0.4 0-0.7 0.1-0.3 0.1-0.6 0-0.4 0.1-0.7 0-0.3 0.1-0.6 0-0.4 0.1-0.7 0-0.2 0.1-0.5 0.1-0.3 0.2-0.6 0.1-0.3 0.2-0.6l3-7.7q0.1-0.3 0.3-0.7 0.1-0.3 0.3-0.6 0.2-0.3 0.4-0.6 0.1-0.3 0.3-0.6 0.3-0.3 0.7-0.6 0.4-0.3 0.8-0.5 0.4-0.1 0.8-0.2 0.5-0.1 0.9 0h3.6q0.4-0.1 0.9 0 0.4 0.1 0.8 0.3 0.4 0.1 0.8 0.4 0.3 0.3 0.6 0.6 0.2 0.3 0.4 0.6 0.2 0.4 0.3 0.7 0.2 0.3 0.3 0.6 0.2 0.3 0.4 0.6l3.2 7.7q0.1 0.3 0.2 0.6 0.1 0.3 0.1 0.6 0.1 0.3 0.2 0.5 0 0.3 0.1 0.7 0.1 0.3 0.1 0.6 0.1 0.3 0.1 0.7 0 0.3 0.1 0.6 0 0.3 0 0.7z"/></svg>