<svg version="1.2" xmlns="http://www.w3.org/2000/svg" viewBox="0 0 43 43" width="43" height="43">
	<title>compact-logo-svg</title>
	<style>
		.s0 { fill: #2196f3 } 
		.s1 { fill: #ffffff } 
	</style>
	<path id="Layer" class="s0" d="m0.8 21.8c0 11.6 9.4 21 21 21 11.6 0 21-9.4 21-21 0-11.6-9.4-21-21-21-11.6 0-21 9.4-21 21z"/>
	<path id="Layer" fill-rule="evenodd" class="s1" d="m15.5 33.1h-0.2-0.1-0.1-0.1-0.1-0.1-0.1-0.1v-0.1h-0.1-0.1-0.1-0.1-0.1-0.1v-0.1h-0.1-0.1-0.1-0.1-0.1v-0.1h-0.1-0.1-0.1v-0.1h-0.1-0.1-0.1v-0.1h-0.1-0.1-0.1v-0.1h-0.1-0.1v-0.1h-0.1-0.1-0.1v-0.1h-0.1-0.1v-0.1h-0.1-0.1v-0.1h-0.1v-0.1h-0.1-0.1v-0.1h-0.1-0.1v-0.1h-0.1v-0.1h-0.1-0.1v-0.1h-0.1v-0.1h-0.1v-0.1h-0.1-0.1v-0.1h-0.1v-0.1h-0.1v-0.1h-0.1v-0.1h-0.1v-0.1h-0.1v-0.1h-0.1v-0.1h-0.1v-0.1h-0.1v-0.1h-0.1v-0.1h-0.1v-0.1h-0.1v-0.1h-0.1v-0.1h-0.1v-0.1-0.1h-0.1v-0.1h-0.1v-0.1h-0.1v-0.1-0.1h-0.1v-0.1h-0.1v-0.1-0.1h-0.1v-0.1-0.1h-0.1v-0.1-0.1h-0.1v-0.1-0.1h-0.1v-0.1-0.1h-0.1v-0.1-0.1h-0.1v-0.1-0.1-0.1h-0.1v-0.1-0.1h-0.1v-0.1-0.1-0.1h-0.1v-0.1-0.1-0.1-0.1h-0.1v-0.1-0.1-0.1-0.1-0.1h-0.1v-0.1-0.1-0.1-0.1-0.1-0.1-0.1-0.1h-0.1v-0.1-0.1-0.1-0.1-0.1-0.2-0.1-0.1-0.1-0.1-0.1h0.1v-0.1-0.1-0.1-0.1-0.1-0.1-0.1-0.1h0.1v-0.1-0.1-0.1-0.1-0.1h0.1v-0.1-0.1-0.1-0.1h0.1v-0.1-0.1-0.1h0.1v-0.1-0.1-0.1h0.1v-0.1-0.1h0.1v-0.1-0.1h0.1v-0.1-0.1-0.1h0.1v-0.1-0.1h0.1v-0.1h0.1v-0.1-0.1h0.1v-0.1-0.1h0.1v-0.1h0.1v-0.1-0.1h0.1v-0.1h0.1v-0.1h0.1v-0.1-0.1h0.1v-0.1h0.1v-0.1h0.1v-0.1h0.1v-0.1h0.1v-0.1h0.1v-0.1-0.1h0.1v-0.1h0.1 0.1v-0.1h0.1v-0.1h0.1v-0.1h0.1v-0.1h0.1v-0.1h0.1v-0.1h0.1 0.1v-0.1h0.1v-0.1h0.1 0.1v-0.1h0.1v-0.1h0.1 0.1v-0.1h0.1v-0.1h0.1 0.1v-0.1h0.1 0.1v-0.1h0.1 0.1v-0.1h0.1 0.1v-0.1h0.1 0.1 0.1v-0.1h0.1 0.1v-0.1h0.1 0.1 0.1v-0.1h0.1 0.1 0.1 0.1v-0.1h0.1 0.1 0.1v-0.1-0.1h0.1v-0.1-0.1-0.1-0.1-0.1h0.1v-0.1-0.1-0.1h0.1v-0.1-0.1-0.1-0.1h0.1v-0.1-0.1h0.1v-0.1-0.1-0.1h0.1v-0.1-0.1h0.1v-0.1-0.1h0.1v-0.1-0.1h0.1v-0.1-0.1h0.1v-0.1-0.1h0.1v-0.1-0.1h0.1v-0.1h0.1v-0.1-0.1h0.1v-0.1h0.1v-0.1h0.1v-0.1-0.1h0.1v-0.1h0.1v-0.1h0.1v-0.1h0.1v-0.1h0.1v-0.1-0.1h0.1v-0.1h0.1v-0.1h0.1v-0.1h0.1 0.1v-0.1h0.1v-0.1h0.1v-0.1h0.1v-0.1h0.1v-0.1h0.1 0.1v-0.1h0.1v-0.1h0.1v-0.1h0.1 0.1v-0.1h0.1 0.1v-0.1h0.1v-0.1h0.1 0.1v-0.1h0.1 0.1v-0.1h0.1 0.1v-0.1h0.1 0.1v-0.1h0.1 0.1v-0.1h0.1 0.1 0.1v-0.1h0.1 0.1 0.1v-0.1h0.1 0.1 0.1v-0.1h0.1 0.1 0.1 0.1v-0.1h0.1 0.1 0.1 0.1 0.1 0.1v-0.1h0.1 0.1 0.1 0.1 0.1 0.1 0.1 0.1 0.1 0.1 0.3 0.1 0.1 0.1 0.1 0.1 0.1 0.1 0.1 0.1 0.1v0.1h0.1 0.1 0.1 0.1 0.1 0.1v0.1h0.1 0.1 0.1 0.1v0.1h0.1 0.1 0.1v0.1h0.1 0.1 0.1v0.1h0.1 0.1 0.1v0.1h0.1 0.1v0.1h0.1 0.1v0.1h0.1 0.1v0.1h0.1 0.1v0.1h0.1 0.1v0.1h0.1 0.1v0.1h0.1v0.1h0.1 0.1v0.1h0.1v0.1h0.1v0.1h0.1 0.1v0.1h0.1v0.1h0.1v0.1h0.1v0.1h0.1v0.1h0.1 0.1v0.1h0.1v0.1h0.1v0.1h0.1v0.1 0.1h0.1v0.1h0.1v0.1h0.1v0.1h0.1v0.1h0.1v0.1h0.1v0.1 0.1h0.1v0.1h0.1v0.1 0.1h0.1v0.1h0.1v0.1 0.1h0.1v0.1 0.1h0.1v0.1h0.1v0.1 0.1h0.1v0.1 0.1 0.1h0.1v0.1 0.1h0.1v0.1 0.1h0.1v0.1 0.1 0.1h0.1v0.1 0.1 0.1h0.1v0.1 0.1 0.1 0.1h0.1v0.1 0.1 0.1 0.1 0.1h0.1v0.1 0.1h0.1 0.1 0.1 0.1v0.1h0.1 0.1 0.1v0.1h0.1 0.1 0.1v0.1h0.1 0.1 0.1v0.1h0.1 0.1v0.1h0.1 0.1v0.1h0.1 0.1v0.1h0.1 0.1v0.1h0.1 0.1v0.1h0.1v0.1h0.1 0.1v0.1h0.1 0.1v0.1h0.1v0.1h0.1v0.1h0.1 0.1v0.1h0.1v0.1h0.1v0.1h0.1v0.1h0.1v0.1h0.1 0.1v0.1h0.1v0.1h0.1v0.1h0.1v0.1h0.1v0.1 0.1h0.1v0.1h0.1v0.1h0.1v0.1h0.1v0.1h0.1v0.1 0.1h0.1v0.1h0.1v0.1 0.1h0.1v0.1h0.1v0.1 0.1h0.1v0.1 0.1h0.1v0.1h0.1v0.1 0.1h0.1v0.1 0.1h0.1v0.1 0.1 0.1h0.1v0.1 0.1h0.1v0.1 0.1 0.1h0.1v0.1 0.1 0.1h0.1v0.1 0.1 0.1 0.1h0.1v0.1 0.1 0.1 0.1 0.1h0.1v0.1 0.1 0.1 0.1 0.1 0.1 0.1h0.1v0.1 0.1 0.1 0.1 0.1 0.3 0.1 0.1 0.1 0.1 0.1 0.1h-0.1v0.1 0.1 0.1 0.1 0.1 0.1 0.1h-0.1v0.1 0.1 0.1 0.1 0.1h-0.1v0.1 0.1 0.1 0.1h-0.1v0.1 0.1 0.1h-0.1v0.1 0.1 0.1h-0.1v0.1 0.1h-0.1v0.1 0.1h-0.1v0.1 0.1h-0.1v0.1 0.1h-0.1v0.1 0.1h-0.1v0.1 0.1h-0.1v0.1 0.1h-0.1v0.1h-0.1v0.1 0.1h-0.1v0.1h-0.1v0.1h-0.1v0.1 0.1h-0.1v0.1h-0.1v0.1h-0.1v0.1h-0.1v0.1h-0.1v0.1h-0.1v0.1h-0.1v0.1h-0.1v0.1h-0.1v0.1h-0.1v0.1h-0.1v0.1h-0.1v0.1h-0.1v0.1h-0.1-0.1v0.1h-0.1v0.1h-0.1v0.1h-0.1-0.1v0.1h-0.1v0.1h-0.1-0.1v0.1h-0.1-0.1v0.1h-0.1v0.1h-0.1-0.1v0.1h-0.1-0.1v0.1h-0.1-0.1-0.1v0.1h-0.1-0.1v0.1h-0.1-0.1-0.1v0.1h-0.1-0.1-0.1v0.1h-0.1-0.1-0.1v0.1h-0.1-0.1-0.1-0.1-0.1v0.1h-0.1-0.1-0.1-0.1-0.1-0.1v0.1h-0.1-0.1-0.1-0.1-0.1-0.1-0.1-0.2-1.8-0.1-0.1-0.1-0.1v-0.1h-0.1-0.1v-0.1h-0.1-0.1v-0.1h-0.1v-0.1h-0.1v-0.1h-0.1v-0.1h-0.1v-0.1h-0.1v-0.1-0.1h-0.1v-0.1-0.1-0.1h-0.1v-0.1-8.2-0.1-0.1h0.1v-0.1-0.1-0.1h0.1v-0.1-0.1h0.1v-0.1-0.1h0.1v-0.1h0.1v-0.1h0.1 0.1v-0.1h0.1v-0.1h0.1 0.1 0.1v-0.1h0.1 0.1 0.1 0.1 0.1 0.1 0.1 0.1 0.1v0.1h0.1 0.1v0.1h0.1 0.1v0.1h0.1v0.1h0.1v0.1h0.1v0.1h0.1v0.1h0.1v0.1 0.1h0.1v0.1 0.1 0.1 0.1 0.1h0.1v6.5h0.2 0.1 0.1 0.1v-0.1h0.1 0.1 0.1 0.1 0.1 0.1 0.1v-0.1h0.1 0.1 0.1 0.1v-0.1h0.1 0.1 0.1v-0.1h0.1 0.1 0.1v-0.1h0.1 0.1v-0.1h0.1 0.1v-0.1h0.1v-0.1h0.1 0.1v-0.1h0.1v-0.1h0.1 0.1v-0.1h0.1v-0.1h0.1v-0.1h0.1v-0.1h0.1v-0.1h0.1v-0.1h0.1v-0.1h0.1v-0.1h0.1v-0.1h0.1v-0.1h0.1v-0.1-0.1h0.1v-0.1h0.1v-0.1-0.1h0.1v-0.1-0.1h0.1v-0.1-0.1h0.1v-0.1-0.1h0.1v-0.1-0.1h0.1v-0.1-0.1-0.1h0.1v-0.1-0.1-0.1-0.1-0.1h0.1v-0.1-0.1-0.1-0.1-0.1-0.1-0.1-0.1-0.2-0.1-0.1-0.1-0.1-0.1-0.1-0.1-0.1h-0.1v-0.1-0.1-0.1-0.1-0.1h-0.1v-0.1-0.1-0.1h-0.1v-0.1-0.1h-0.1v-0.1-0.1-0.1h-0.1v-0.1-0.1h-0.1v-0.1h-0.1v-0.1-0.1h-0.1v-0.1h-0.1v-0.1-0.1h-0.1v-0.1h-0.1v-0.1h-0.1v-0.1-0.1h-0.1v-0.1h-0.1v-0.1h-0.1v-0.1h-0.1-0.1v-0.1h-0.1v-0.1h-0.1v-0.1h-0.1v-0.1h-0.1-0.1v-0.1h-0.1v-0.1h-0.1-0.1v-0.1h-0.1-0.1v-0.1h-0.1-0.1v-0.1h-0.1-0.1v-0.1h-0.1-0.1-0.1v-0.1h-0.1-0.1-0.1-0.1v-0.1h-0.1-0.1-0.1-0.1v-0.1h-0.1-0.1-0.1-0.1-0.1v-0.1h-0.1-0.1-0.1-0.1-0.1v-0.1h-0.1-0.1-0.1-0.1v-0.1h-0.1-0.1-0.1v-0.1-0.1h-0.1v-0.1-0.1-0.1-0.1-0.1-0.1-0.1h-0.1v-0.1-0.1-0.1-0.1-0.1-0.1-0.1h-0.1v-0.1-0.1-0.1-0.1-0.1-0.1h-0.1v-0.1-0.1-0.1-0.1h-0.1v-0.1-0.1-0.1-0.1h-0.1v-0.1-0.1h-0.1v-0.1-0.1-0.1h-0.1v-0.1-0.1h-0.1v-0.1h-0.1v-0.1-0.1h-0.1v-0.1h-0.1v-0.1-0.1h-0.1v-0.1h-0.1v-0.1h-0.1v-0.1-0.1h-0.1v-0.1h-0.1v-0.1h-0.1v-0.1h-0.1-0.1v-0.1h-0.1v-0.1h-0.1v-0.1h-0.1v-0.1h-0.1-0.1v-0.1h-0.1v-0.1h-0.1-0.1v-0.1h-0.1-0.1v-0.1h-0.1-0.1v-0.1h-0.1-0.1v-0.1h-0.1-0.1-0.1v-0.1h-0.1-0.1-0.1v-0.1h-0.1-0.1-0.1-0.1-0.1-0.1v-0.1h-0.1-0.1-0.1-0.1-0.1-0.1-0.1-0.1-0.1-0.1-0.1-0.1-0.1v0.1h-0.1-0.1-0.1-0.1-0.1v0.1h-0.1-0.1-0.1-0.1v0.1h-0.1-0.1-0.1v0.1h-0.1-0.1v0.1h-0.1-0.1v0.1h-0.1-0.1v0.1h-0.1-0.1v0.1h-0.1v0.1h-0.1-0.1v0.1h-0.1v0.1h-0.1v0.1h-0.1v0.1h-0.1-0.1v0.1h-0.1v0.1h-0.1v0.1 0.1h-0.1v0.1h-0.1v0.1h-0.1v0.1h-0.1v0.1 0.1h-0.1v0.1h-0.1v0.1 0.1h-0.1v0.1 0.1h-0.1v0.1 0.1h-0.1v0.1 0.1h-0.1v0.1 0.1 0.1h-0.1v0.1 0.1 0.1h-0.1v0.1 0.1 0.1 0.1h-0.1v0.1 0.1 0.1 0.1 0.1 0.1 0.1h-0.1v0.1 0.1 0.1 0.1 0.1 0.1h-0.1v0.1 0.1 0.1 0.1 0.1 0.1 0.1h-0.1v0.1 0.1h-0.1-0.1-0.1v0.1h-0.1-0.1-0.1-0.1v0.1h-0.1-0.1-0.1-0.1-0.1v0.1h-0.1-0.1-0.1-0.1-0.1v0.1h-0.1-0.1-0.1-0.1v0.1h-0.1-0.1-0.1-0.1v0.1h-0.1-0.1-0.1v0.1h-0.1-0.1v0.1h-0.1-0.1v0.1h-0.1-0.1v0.1h-0.1-0.1v0.1h-0.1v0.1h-0.1-0.1v0.1h-0.1v0.1h-0.1v0.1h-0.1v0.1h-0.1v0.1h-0.1-0.1v0.1h-0.1v0.1 0.1h-0.1v0.1h-0.1v0.1h-0.1v0.1h-0.1v0.1 0.1h-0.1v0.1h-0.1v0.1 0.1h-0.1v0.1 0.1h-0.1v0.1 0.1h-0.1v0.1 0.1h-0.1v0.1 0.1h-0.1v0.1 0.1 0.1 0.1h-0.1v0.1 0.1 0.1 0.1h-0.1v0.1 0.1 0.1 0.1 0.1 0.1 0.1 0.1 0.2 0.1 0.1 0.1 0.1 0.1 0.1 0.1 0.1h0.1v0.1 0.1 0.1 0.1h0.1v0.1 0.1 0.1h0.1v0.1 0.1 0.1h0.1v0.1 0.1h0.1v0.1 0.1h0.1v0.1 0.1h0.1v0.1 0.1h0.1v0.1h0.1v0.1 0.1h0.1v0.1h0.1v0.1h0.1v0.1h0.1v0.1h0.1v0.1h0.1v0.1h0.1v0.1h0.1v0.1h0.1v0.1h0.1v0.1h0.1 0.1v0.1h0.1v0.1h0.1 0.1v0.1h0.1v0.1h0.1 0.1v0.1h0.1 0.1v0.1h0.1 0.1 0.1v0.1h0.1 0.1 0.1v0.1h0.1 0.1 0.1 0.1v0.1h0.1 0.1 0.1 0.1 0.1 0.1 0.1v0.1h0.1 0.1 0.1 0.2v-6.4h0.1v-0.1-0.1-0.1-0.1-0.1h0.1v-0.1-0.1-0.1h0.1v-0.1h0.1v-0.1h0.1v-0.1h0.1v-0.1h0.1v-0.1h0.1 0.1v-0.1h0.1 0.1v-0.1h0.1 0.1 0.1 0.1 0.1 0.1 0.1 0.1 0.1 0.1v0.1h0.1 0.1v0.1h0.1v0.1h0.1 0.1v0.1h0.1v0.1h0.1v0.1 0.1h0.1v0.1 0.1h0.1v0.1 0.1h0.1v0.1 0.1 0.1 8.2 0.1h-0.1v0.1 0.1 0.1h-0.1v0.1 0.1h-0.1v0.1h-0.1v0.1 0.1h-0.1-0.1v0.1h-0.1v0.1h-0.1-0.1v0.1h-0.1-0.1v0.1h-0.1-0.1-0.1-0.1zm6.2 0h-0.1-0.1-0.1v-0.1h-0.1-0.1-0.1v-0.1h-0.1-0.1v-0.1h-0.1v-0.1h-0.1v-0.1h-0.1v-0.1h-0.1v-0.1-0.1h-0.1v-0.1-0.1h-0.1v-0.1-0.1-0.1-0.1-11.4-0.1-0.1-0.1-0.1h0.1v-0.1-0.1h0.1v-0.1-0.1h0.1v-0.1h0.1v-0.1h0.1v-0.1h0.1v-0.1h0.1 0.1v-0.1h0.1 0.1 0.1v-0.1h0.1 0.1 0.1 0.1 0.1 0.1 0.1 0.1v0.1h0.1 0.1v0.1h0.1 0.1v0.1h0.1v0.1h0.1 0.1v0.1 0.1h0.1v0.1h0.1v0.1 0.1h0.1v0.1 0.1 0.1h0.1v0.1 0.1 0.1 11.2 0.1 0.1 0.1h-0.1v0.1 0.1 0.1h-0.1v0.1 0.1h-0.1v0.1h-0.1v0.1 0.1h-0.1-0.1v0.1h-0.1v0.1h-0.1-0.1v0.1h-0.1-0.1v0.1h-0.1-0.1-0.1-0.1"/>
</svg>