<svg version="1.2" xmlns="http://www.w3.org/2000/svg" viewBox="0 0 1000 1000" width="1000" height="1000">
	<title>Gujarat_map_for_WLM-IN-svg</title>
	<style>
		.s0 { fill: #ffffff } 
		.s1 { fill: #ff6c00 } 
	</style>
	<path id="Shape 1" class="s0" d="m500 1000c-276.5 0-500-223.5-500-500 0-276.5 223.5-500 500-500 276.5 0 500 223.5 500 500 0 276.5-223.5 500-500 500z"/>
	<path id="rect1486" fill-rule="evenodd" class="s1" d="m586.6 200.8c1.2 0.3 2.5 0.3 3.5 1q0.4 1.5 0.8 2.9c-0.6 0.5-1.5 0.8-0.9 1.7 0.1 0.8-0.1 1.5 0.9 1.8 1.2 0.4 2.1 1.5 3.3 2 1 0.3 2-0.3 3-0.3 1.2-0.2 1.5 1.3 2 2 0 0.9 1.2 0.7 1.8 0.9 1.2 1.1 2.4-0.7 3.4-0.2 1 0.7 0.6-1 1.9-1.2 0.8-1.4 1.9-1.2 2.7 0 1.3 0.7 2.8 0.1 4.1 0.3 1.2 0.8 2.2 1.1 3.5 0.8 0.9 1.1 2.9 1.2 3.6-0.2 0.2-1.5 3.2-0.4 1.8 0.4 0.1 1.2-0.4 2.4-1.5 2.9-1 0.4-2.7 1.5-3.4 0.1-0.5-1.8-1.8-0.6-3-1.1-1.3-0.5-2.1 1.3-3.2 1.8-1.7 0.7 0.3 1.9 0.6 2.9 0.6 1.6 1.5 1.9 2.7 0.7 1.3-0.4 0.7 1.8 1.1 2.4 1.6-0.5 3.5-0.1 5.2-0.6-0.8-1.4-0.2-2.5 1.1-1.3 1.5-0.3 1.5 1 2.3 1.9 1.3 0.2 1.1 1 0.8 1.7 0.8 1.1 1 2.8 2.1 3.5 1.9 0 3.7-1.9 5.6-0.8 1.4 0 1.9 2 0.8 2.8-0.7 0.9-1 2.6-0.4 3.6 0.8 1.2 2.1 2 2.4 3.4 1 0.8-0.1 3 1.3 3.1 1.5 0.2 3.1 0.3 4.6-0.4 0.7-1.5-0.8-2.7-0.7-4.2-1-2.1 1.9 0.3 1.3-2 0.2-2.3 2.2-3.9 3.3-5.9 0.8-1.5 1.5 0.9 2.4 1.1 1.3 0.3 2.1 1.2 2.8 2.3 1.3 1.1 3.3 0.9 4.9 1.5 2.4 0.5 4.8 1.7 7.3 0.7 1.7-0.7 1.8 1.2 1 2.2-0.1 1.8 0.1 3.6 1 5.1 0.9 2.2 2.2 4.4 4.2 5.7 2 0.8 4.2-0.5 6.3-0.1 1.6 0 3.2 0.8 4.6-0.4 1.1-0.3 2.5-0.1 3.7-0.3 2.8-0.1 5.5 1.6 6.9 4 0.8 1.8 1.6 0.6 2.6-0.2 1.4-0.2 2.4-1.1 3.6-1.9q1.4-1.1 3.1-1.6c0.2-1.5-1.6-2.9-3-2.5-0.9-0.6 0.3-2.2 1.1-2.7 0.8-0.5 1.6-1.7 1.8-2.6 0.2-1.3-1.1-1.9-1-3.1-0.1-1.1 1.5-1.6 1.9-2.7 0.6-0.4 1.6-2.5 2-1.4 0.5 1.2 0.9 2 2.3 1.9 1-0.2 2.5 0.2 2.9-1.1 1.3 0.1 1.4-1.2 2.5-1.7 0.6-0.6 2.4-1.9 2.5-0.4-0.1 1.3-0.1 2.5 0.7 3.6 0.7 1.1 0 2.4 0.5 3.6 0.2 1.2-0.5 2-1.6 2.3-0.8 0.7-0.6 2-1.3 2.6 0.5 0.8 1.7 1.7 2.7 1.1 1.1 0.3 1.3 1.9 2.4 2.4 1.1 0.7 2.4 0.6 3.3 1.6 1.5 1.2 3.9 1.1 5-0.6 0.7-0.7 1.6-2.4 2.6-1.4 1.4 0.5 2.1 1.4 0.7 2.3-1.3 0.3-0.9 2.1-1.7 2.6-1.2 0.9-1.5-2-2.3-0.7-1 1.5 0 3.5-1.2 5-1.3 0.4-2.4-1.1-3.7-1.1-1.1 0.4-0.6 2.1-1.1 3.1-0.2 1.4-1.9 2-2.8 3-1 0.9-1.2 2.3-2 3.3 0.7 0.9 1.8 1 0.2 1.9-1.5-0.1-1.5 1.3-1.7 2.4-0.4 0.9-1.4 1.9-0.4 2.9 0.9 1.5 2.6 2.4 3.7 3.7 0.1 1.2-0.6 2.4 1.1 2 1.2 0.9 2.2 2.4 3.9 2.3 1.2 0.2 1.6 1.6 2.9 1.6 1.2 0.9 1.7-0.3 2.5 0.2 0.8 0.4 2.5 0.7 2.6 1.6-0.3 1-1.2 1.7-1.2 2.7-0.4 1.4-2.3 2.3-1.5 3.8 0.9 1.2 2.7 1.3 3.4 2.5 0.4 0.9 1.6 1.1 2 2 1.9 0.2 2.6-2.7 4.7-2.3 1.2 0.6 1.5-1.3 2.2-2.1 0.4-1.7 2.7-1.3 3.2-3 1.3-1.8-0.2-4.1 0.7-6 0.8-0.7 2.3 0.2 3.2-0.2 0.8-0.9 1.9-2.5 1.1-0.4-0.3 1.3-0.1 2.7-0.1 4 1.3 0.2 2.4 1.2 3.5 1.8 0.8 0.8 1.4 2.1 1.8 3.2-0.3 1.6-0.3 3.2-0.5 4.8 0.5 1-0.2 2.3-0.4 2.9 1.8 0.1 2 2.2 1.6 3.6 0 1.3-0.3 3 0.6 4.1-0.3 1-1.5 2-2.4 1.8-1.1-0.4-1.6 0.9-2.2 1.5q-0.4 1.4-1.2 2.4c-0.4 1.6-1.7 2.7-2 4.3 0.8 1.5 2 3.2 1.3 5-0.2 1.2-1.3 2.3-1 3.6 0.5 0.6 1.1 1.2 1.3 2 0 1.2 1 0.8 1.8 0.6 0.6-0.5 0.6-1.5 1.4-1.9 0.9-0.3 1.6 0.4 2.5 0.5 0.5 1.2 1.1 2.4 2.4 2.8 0.8 0.4 1.4 0.8 1.5 1.7 0.2 1.1 1.4 1.4 2 2.2 0.9 0.5 1 1.6 1.2 2.5 0.7 0.8 1.8 0.3 2.7 0.3 1 0.2 1.1 1.2 1.1 2 0.1 1.3 0 2.6-0.4 3.9 0.1 0.9-1.6 1.5-0.1 1.8 1.2 0.3 0 1.4-0.7 1.6 0.3 0.7 0.9 1.3 1.2 2 0.5 0.6 1.5 1.2 2.1 1.1 1.1-0.6 1.7-1.7 2.8-2.4 0.9-0.9 1.5-2.2 2.5-3.1 1.4-0.4 2.9 0 4.4-0.1 0.9 0.2 1.6 0.6 2.1 1.3 1.2 1.3 2.5 2.3 4.2 2.8-0.8 1.2-1.8 2.4-1.5 3.9 0.1 1 0.7 2.2-0.4 2.8-1.3 1.1-0.9 2.9-1 4.4-0.3 1 0.7 1.4 1.4 1.9 0.8 0.4 1.4 1.2 1.2 2.2 0 0.9-1.5 0.6-1.8 1.3-0.2 1.7-0.3 3.5-1.1 5.1q-0.1 0.3-0.2 0.7c0.9 0.3 1.6 1 2.5 1.5 1.2-1.4 3.1-2.3 5-2.3 1 0 1.4 0.8 1.7 1.6 0.6 1.2 0.6 2.6 1.2 3.8 0.7 1.1 1.1 0.1 1.5-0.6 1.2-1.6 2.8-2.8 3.5-4.6 0.8-0.6 1.4 0.8 1.6 1.4 0.8 0.4 0.8 1.9 1.8 1.4 1.7-0.1 3.2-1.2 4.9-1.5 0.9 0.1 1 1.3 0.9 2 1.1 1.6 2.2 3.3 3.6 4.7 0.6 1.1 1.5 2.2 1.6 3.6 0.7 0.9 1.5 2.9 1.9 3.6 0.5 0 2 0.4 2.5 0.6 1.3 0 1.6-0.2 2.8-0.8 1.1-1.2-0.1-3.1 1.1-4.2 0.8-0.1 1.5-1.4 2.3-0.6 0.9 0.5 1.5 1.6 1.9 2.6 0.2 1 0 2.5 1.2 2.8 1.6 0.1 3.1 0.6 4.8 0.6-0.2 0.9-0.6 1.8 0.2 2.5 0.1 1.1 0.7 1.1 1.5 0.4 0.9 0.4-0.9 1.8 0.1 2 2.3-0.2 4.8-0.8 7.1 0.1 0.4 0.7 0.6 1.7 1 2.3 0.9 0.4 2.3 0.3 2.5 1.6 0.1 1.3 0 2.6 0.4 3.8 0.1 0.9-0.2 1.5-0.6 2.3-0.1 0.9-1.4 1.2-1.3 2.2q-0.1 0.6-0.1 1.2c0.4 0.1 0.2 0.6 0.4 1 0.1 0.3 0 0.8 0.5 0.8 0.4 0.1 0.9 0 1.3 0.2 0.4 0.1 0.7 0.2 0.9 0.5 0.3 0.6 0.6 1.3 0.8 1.9 0.4 0.2 0.7 0.4 1.1 0.2 0.7 0.1 1.4 0.3 2.1 0.5 0.3 0.1 0.8 0.1 0.8-0.4 0.3-0.5 0.1-1.2 0.2-1.8-0.1-0.5 0.4-0.8 0.6-1.2 0.5-0.4 0.8-0.9 1.2-1.4 0.2-0.4 0.6-0.3 0.9-0.1 1 0.3 1.6 1.2 2.7 1.3 0.3-0.2 0.5-0.5 0.9-0.7 0.1 0.6 0.3 1.2 0.4 1.4 0.2 0.5 1.1 1 1.6 1.1 0.4 0.1 1.5 1.1 1.6 1.5 0.1 0.4 0.4 2.8 0.8 3.7 0.5 0.9 1.1 0.8 1.2 1.4 0.1 0.7-0.6 1.2-1.1 1.8-0.5 0.6 0.2 1.3 0.7 1.6 0.6 0.4 2.3 0.9 3 1.3 0.4 0.2 0.8 1.3 1.1 2.3 0.3 0.9 0.5 1.8 0.4 2.2 0 0.7 0.4 0.8 1 1.2 0.7 0.5 1.2 0.4 1.8 0.6 0.6 0.2 0.3 1.5 0.3 2.2 0.1 0.5 1.6 3.5 2.2 4.9-0.3 0.6-1.4-0.6-1.7 0.7-0.8 0.7-1.7 1.1-0.6 2.2 0.6 1 1.9 1.5 1.8 2.8 0.7 0.8 1.7 1.2 1.9 2.3 0.4 1 1.5 1.2 2.1 1.9 1.1 0.6 1.8-0.9 2.2-1.6 0.5-0.9 1.7-0.8 2.4-1.1 0.7 1.2 0.5-0.3 1.7-0.1 0.2 0.3 0.4 0.6 0.6 0.8 0.6 0.6 0.8 0.8 1.2 1.4 0.3 0.6 0.3 1.1 0.1 1.7-0.2 0.6 0.4 1.1 0.9 1.7 0.5 0.7-0.2 0.8-0.2 1.4-0.1 0.6 1.2 1.9 1.6 1.7-0.5 1.9-1.2 3.8-2.2 5.4-0.9 0.6-2 0.4-3 0.7 0 1 0.4 1.9 0 2.9-0.7 1.4-1.1 3.1-2.3 4-0.5 1.2-1.2 2.4-2.1 3.3-0.5 1.3 0.2 2.8-0.7 4 0.4 2.1-1.9 3.5-1.5 5.6 0.1 1 0.2 2.7-1.2 2.7-1.4 0.3-2.6-0.5-3.8-0.7-1.2 0.3-1.9-0.7-2.5 0.7-0.9 0-1.8-0.5-2.8-0.5-0.9 0-2-1.3-2.7-0.6-0.3 1.4-1.7-0.8-1.7 0.8-1.5 0.3 0.1 1.8-1.1 2.1-0.7 0.4-1.3 1.4-2.1 1.5-0.4 1.2-1 2.4-1.3 3.6-1.1 0.2-1.1 1.4-1.6 2.2-0.9 0.1-1.7-0.8-2.6 0 1 0.5 0.6 1.9-0.5 2.1-1.4 0.4-2.5 1.4-3.5 2.4 0.3 0.9-0.1 2.4-1.3 1.9-0.9-0.4-2 0.2-2.4-1-0.3-0.7-0.8-2.5-1.9-1.8-0.9 0.6-1.7-0.7-2.6-0.9-0.8-0.7-1.7-0.8-2.7-0.6-1.2 0.4-3 0.7-3.1 2.3-0.2 0.8 0.9 2.1-0.3 2.5-0.9 0.8-0.3 2-0.2 3 1.3 0.5 0.9-1.3 2-1.3 0.3-0.9 0.8-1.7 1.9-1.2 0.7 0 2.1 0 2 0.9-0.3 1.1 1 2 0.3 3.1-0.9-1.3-1.4-0.5-1.2 0.8-0.5 1.7 1.1 0.5 1.9 0.6 1.4-0.4 1.8 1.6 1 2.3-0.4 1.1 0.1 2.6 1.3 3 0.5 0.4 1.9 1.8 2 0.4 0-1.5 0.6-3 1.7-4.1 1.2-0.3 1.9 0.2 1.4 1.5-0.2 0.9 0.7 2.2 1.7 1.6 0.1-1.2 0.8-1.3 1.9-1.4 0.8-0.9-1.1-2.2-0.1-3.2 0.3-1.1 1.1-1.5 2-0.6 0.8 1.2 0.3 2.9 0.4 4.3 0.4 1.1 1.8 0.8 1.7-0.4 1 0.7 2.3 0.2 3.4 0.8 1.1 0.5 2.1 1.3 2.5 2.5 0.5 0.7 0.1 2 1.4 2 0.4 0.4 2.6 0.9 1.3 1.3-1.1-0.4-2.4 0.2-3.3-0.7-1.2-1-0.2 1.6-1.1 1.8-1.2-0.2-0.8 1.5-2.2 0.7-1.3-0.6-1.1 0.5-1 1.4 0.3 1.1-0.5 1.7-1.6 1.1-0.4-1-1.1-1.4-1 0.1 0.4 0.6-0.3 2.8-0.9 1.7-0.2-1.6-0.6 0.6-0.2 1.2 0.3 1-0.3 2.3-1.5 1.8-1.9-0.6-4-0.8-6-1.3-0.7-1-0.1-2.5-1.2-3.4-1.4 0.7-0.6-1.4-1.6-1.7-1.3-0.8-1.5 0.6-2 1.2-1 0.1-2.8-0.5-2.8 1 0 0.9 1.1 1.8 0.1 2.6-0.8 0.7-0.4 1.9-0.6 2.8 0.5 1.5-1.4 0.4-1.1 1.9 0.2 1 0.1 2 0.7 2.8 0.4 0.9 1.7 0.9 1.9 1.7 0.1 0.9-0.3 2.2 1.1 2.2 1.1 0.8-0.7 1.4-1.3 1.4-0.8 0.5-0.6 2.2 0.5 2.1 1.6 0 3.7-0.5 4.9 1-0.2 0.9 0 1.9 0.1 2.8-0.3 1.1 0.2 2.2 0.4 3.2 1.4 0.2 0.7 1.3 0.8 2.3 0 0.8-1.1 1.5-0.7 2.6 0.7 0.7 0.4 1.7 0.2 2.7-0.3 1 0.4 2.1 1.4 1.2 0.8-0.6 1.7-0.8 2.5-0.4 1.1-0.3 1.5 0.8 1.6 1.4 1.5 0.6 0 1-0.8 1.2-0.2 0.8-1 1.5-0.6 2.4-0.1 1-1.6 0.8-2.3 1.2-1.9 0.1 1.1 1.2-0.3 1.8-0.9 0.3-2.2 0.5-2.6 1.6-0.5 1-2 0.9-2.7 1.8 0.7 0.7-0.2 2.2 1.3 2.2 1.3-0.3 2.2 0.8 3.5 0.8 0.7 0.2 2.5 0.4 1.7 1.5 0.8 1.1-1.8 0.6-0.8 2 1.1 0.7-0.3 0.8 0.1 1.5 0 0-4 1.1-4.5 1.4-0.5 0.3-2.3 0.7-2.9 0.8-0.5 0.2-2.5 0.7-3.1 0.9-0.7 0.2-3.3 1.9-3.9 2.3-0.6 0.4-3.8 1.9-4.1 2.1-0.4 0.2-5.3 2.7-5.3 2.7 0 0-2.1 1.4-2.7 1.8-0.6 0.3-2.9 0.6-3.5 0.7-0.6 0.2-1.5 1.1-1.8 1.4-0.4 0.4-1.8 0.6-2.2 0.5-0.5-0.2-4.5-0.5-5.1-0.3-0.6 0.1-2.2 1.5-2.3 1.6-0.2 0.1-0.2 0.9-0.2 1.4 0.1 0.4 0.9 1.1 1 1.3 0.2 0.2 1-0.1 1.3-0.1 0.2 0 1 0.4 1 0.4 0 0 0 0.5 0.2 0.7 0.2 0.2 0.5 0.2 0.4 0.4-0.1 0.2-0.3 0.2-0.6 0.3-0.3 0.1-0.1 0.5 0 0.6 0 0.2 0.7 0.2 0.9 0 0.2-0.1 0.4 0.2 0.4 0.6 0 0.3-0.7 0.2-0.9 0.2-0.1 0-0.1 1.3 0 1.5 0.1 0.3 0.4-0.3 0.6-0.2 0.1 0.1-0.4 0.8-0.8 0.9-0.5 0.2-0.6 0.8-0.6 1.3 0 0.4 0.5 0.3 0.8 0.8 0.3 0.5 0.9 1 1 1.3 0.2 0.3 1 0.8 1.4 1.1 0.4 0.3 1.1 0.7 1.2 1.2 0.1 0.5 0.9 1 1.3 1.1 0.5 0 0.9 0.5 1 1 0.2 0.5 1.3 1.1 1.3 1.7 0 0.5 0.4 1.1 0.2 1.7-0.2 0.6 0.1 0.6 0.5 1.1 0.4 0.5-0.3 0.9-0.6 1.3-0.2 0.4-0.3 1.4-0.2 1.5 0 0.2-0.5 1.3-0.6 1.3q-0.9 0.4-1.8 0.8-0.6-0.2-1.3-0.4c-0.4 0.4-0.8 0.9-1.4 1-0.4 0.3-0.8-0.1-1.2-0.2-0.4-0.1-0.8-0.4-1.2-0.5-1.1 0.2-2.2 0.5-3.4 0.6-0.5 0.4-1.2 0.7-1.5 1.3 0.2 0.5 0.4 1 0.8 1.4q0.8 0.7 1.5 1.5c0.7 0.1 1.4-0.1 2 0.3 0.3 0.7 0.3 1.6 0.5 2.3q0.3 2.1 0.9 4.1c0.5 1.3 0.8 2.7 1.3 4 0.3 0.6 0.4 1.3 1 1.7 0.3 0.5 0.5 1 0.8 1.5 0.6-0.1 1.2 0 1.6-0.4 0.6-0.3 0.5-1.1 1-1.4 0.3 0.3 0.4 0.9 0.8 0.7 0.6-0.1 1.2-0.2 1.7-0.5 0.3-0.2 0.7-0.4 0.9-0.7 0.1-0.3-0.2-1 0.3-0.8 0.6 0 1.2 0.1 1.8 0 0.3-0.2 0.6-0.7 0.9-0.4 0.5 0.4 0.3 1 0.5 1.5 0.1 0.4 0.6-0.2 0.9-0.2 0.4-0.2 0.8-0.4 1.2-0.4 0.4-0.2 0.6-0.5 0.6-1q0-0.9 0.1-1.8c0.3-0.2 0.9-0.3 1 0.1 0.3 0.5 0.4 1.1 0.4 1.7 0.5 0.1 1 0.3 1.4 0.3q0.1-0.1 0.2-0.1c-0.2-0.8-0.7-1.6-0.6-2.4 0.4-0.4 1.2 0 1.8-0.1 0.6 0.2 1.2 0 1.7-0.5 0.7-0.6 1.6-1.2 2.5-0.9 0.7 0 1.3 0.2 1.9 0.3 0.9-0.2 1.4-0.9 2.2-1.2 0.8-0.2 1.6-0.1 2.3 0.1 0.8 0.5 1.8 0 2.7 0 0.5-0.1 1 0.1 1.4 0.3 0.7 0.1 1.4-0.3 2.1 0 0.1 0.4 0.4 0.8 0.9 0.7 0.7 0 1.5 0 1.7-0.7 0.6-0.8 1.7-0.7 2.5-0.8 0.5-0.1 1.1 0.3 1 0.9 0.1 1.1 1.5 1.6 1.4 2.7-0.1 0.7 0.9 1 1.2 0.4 0.4-0.1 0.7-0.3 0.8-0.7 0.5-0.1 1.3 0.2 1.6-0.4-0.1-0.6 0.7-0.3 0.4-0.9 0.3-0.4 1.2-0.7 1.3-0.1 0.1 0.4 0.7 0.1 0.8 0.7 0.3 0.6 0.9 0.9 1.5 0.9 0.6 0.1 1.4 0 1.4-0.7 0.1-0.4 0.2-1.2 0.9-1 0.4-0.1 0.2-0.9 0.8-0.9 0.4 0 0.5-0.7 0.9-0.5 0.5 0 1.2 0.1 1.2-0.5 0-0.6 0.8-0.8 0.9-0.2 0.4 0.9 0 1.9 0.4 2.8 0.7 0.5 1.6 0 2.4 0.4q-0.2 2.8-0.9 5.6c-0.4 0.8-1.8 0.4-2 1.4-0.1 1.1-1.4 1-2.2 1.1-1.1 0.1-2.2 0.1-3.2 0.5-0.5 0.3 0 1.1-0.7 1.2-0.7 0.3-2 0.5-2.2-0.5-0.1-0.6-0.4-1.6-1.3-1.5-0.6-0.1-1.3 0.4-1.1 1.1 0.1 0.5 0.3 1.2 0 1.7-0.8 0-1.5-0.4-2.3-0.1-0.6 0.1-0.8-0.7-1.4-0.9-0.4-0.2-1.1-0.1-1.3 0.4-0.4 0.7-0.8-0.2-1.3 0-0.5 0.1-0.4 0.9-1.1 0.8 0.1 0.8-0.8 0.5-1.3 0.4-0.6 0.1-1.1-0.2-1.1-0.9-0.3-0.5-1.2-0.4-1.8-0.3-0.8 0.1-0.3 1.1-0.5 1.6-0.6 0.3-1.3 0.4-1.9 0.4-0.2-0.5-0.3-1-1-0.9-0.8-0.1-1.8-0.1-2.5-0.5-0.2-0.6 0.2-1.4-0.3-2-0.3-0.3-0.6-1-1.1-1 0 0.5 0.1 1.2-0.3 1.7-0.5 1.2-1.3 2.3-1.2 3.7-0.1 0.9-0.1 2-0.7 2.8-0.8 0.2-1.6-0.4-2.4 0-0.5 0.4-1 0.1-1.4 0.1-0.6 0.3-0.9 0.8-1.5 0.9-1 0.5-2.2 0.8-2.7 1.8-0.5 0.5-1.2 0.1-1.6 0.7-0.7 0.1-1.1-0.5-1.4-1.1q-0.1-0.1-0.2-0.3c-0.6 0.1 0.2 1.2 0 1.8-0.1 2 0.3 3.9 0.2 5.9-0.4 1-0.7 2-0.6 3-0.1 1.1-0.2 2.1-0.5 3.1-0.9 0.8-1.7 1.7-2.9 2.1-1.3 0.8-2.6 1.7-3.9 2.4-1.2 0.1-2.2-0.8-3.4-0.8-1.2-0.3-2.5 0.1-3.7 0.1-0.2 1.1 0.2 2 0.5 3 0 0.7-0.9 1-1.2 1.6-1.1 1.3-1.2 3.1-0.7 4.6 0.2 0.6 1.3-0.3 1.7 0.2 0 0.5-0.1 1.3-0.6 1.6-0.4 0.4-0.5 1.3-1.1 1.5-1 0.3-1.7-0.4-2.4-1-0.6-0.6-1.2 0.3-1.3 0.9 0.1 1.1-1.3 1.2-2 0.9-1.3-0.1-2.6-0.4-3.9-0.2-0.3 0.8 0.3 1.3 0.7 1.8 0.3 0.8-0.8 0.8-0.8 1.6-0.4 0.7-1.5 0.2-2.2 0.3-0.7-0.2-1-0.8-1.1-1.5-1.3 0.1-2.6 0-3.9-0.2-1-0.2-0.8 1-1.5 1.1l-3.9 1.4c0.1-0.9 0.5-1.8 0.2-2.6-0.8-0.3-1.7-0.4-2.3-0.8-0.6-0.5-0.6-1.2-0.6-1.9-0.1-0.6-1-0.8-1.5-0.3l-0.4 0.1c-0.3 0.5-1.3 0.6-1.1 1.3 0.2 0.5-0.5 1.3 0.3 1.5 0.7 0.3 1.4-0.4 2.1-0.1 0.8-0.1 0.4 1 1 1.2 0.3 0.4 1.8 0.2 1.2 0.6-0.7 0.3-0.1 1.1-0.1 1.6 0.1 0.7 0.3 1.3 1.1 0.9 0.9-0.2 1.9-0.3 2.7 0 0.2 0.5 0 1.5 0.5 1.7 1 0 2.1-0.3 3 0.2 0.6 0.1 0.7 1.3 1.3 0.4 0.7-0.5 1.1-1.3 1.6-2-0.3 0.7-0.1 1.2 0.5 1.6 0.9 0.2 2 0.2 2.9 0.7 0.3-0.7 0.8-1.2 1.5-1.5 0.3-0.2-0.4 1-0.6 1.3-0.4 0.5-1.1 0.9-0.8 1.7-0.2 0.7 0.7 1 0.4 1.5-0.4 0.6-0.1 1.2 0.1 1.8 0 0.6-0.4 1.3 0 1.9 0.3 0.5 0.2 1.5 1 1.4 0.5 0 1.2 0.2 1.7-0.1 0.3 0.6 0.9 1.1 1.1 1.7 0 0.7-0.6 1.2-0.6 1.7 0.5 0.8 0.9 0.2 1.3-0.3 0.5-0.7 1.4-0.2 2-0.5 0.6-0.2 1.4-0.6 1.4 0.4 0.5 0.8 0.4 1.9 0.9 2.7 0.7 0.3 1.4-0.1 2.1 0.2 0.5 0 1.1 0.5 1.6 0 0.1-0.8 0.4-1 1.1-0.4 0.9 0.4 2 0.9 2.8 1.5 1.1 0.2 2.1 0.7 3.2 0.4 0.4 0.8 1 1.6 1.1 2.4-0.4 0.5-1.2 0.2-1.7 0.5-0.3 0.6-0.6 1.3-0.7 1.9q-0.1 1 0.1 1.8c0 0 0.6 0.3 1 0.5 0.3 0.2 1.5 1.6 1.5 2.4 0.1 0.7 0.9 1.6 1 2.1 0.2 0.6 0.4 2.7 0.3 3.3-0.1 0.5-0.2 1.9 0 2.3 0.2 0.5 1.7 0.9 1.7 0.9 0 0-0.2 0.6-0.3 0.8-0.1 0.3 0.4 1.7 0.4 1.9 0 0.1-0.5 1.2-1 1.6-0.6 0.5 0 0.7 0.3 1 0.3 0.3-0.3 1-0.5 1.3-0.3 0.3 0.2 2.1 0.1 2.8-0.1 0.8 0.2 1.6 0.2 1.6 0 0 0.7 0.7 0.6 1.1-0.2 0.4-0.1 0.4 0.3 0.9 0.4 0.4-0.2 0.6-0.6 1-0.4 0.5-1.6 0.9-2.2 1-0.5 0.1-0.2 0.5-0.7 0.6-0.5 0-1-0.5-1.3-0.5-0.3-0.1-1.8-0.2-2.3-0.5-0.5-0.3-0.5 0.4-0.7 0.5-0.3 0.1-0.4 1.9-0.6 2.4-0.3 0.5-0.8 1-1.1 1.3-0.2 0.4-0.9 0.2-1.3 0.1-0.4 0-1.8-0.3-2.3-0.3-0.6 0-1.3 0.5-1.9 0.7-0.6 0.2-0.6 0.8-0.3 1.4 0.2 0.6 0.1 1.3 0.1 1.8 0.1 0.5 1.3 0.1 1.5 0.1 0.2 0 0.7 0.7 1 0.8 0.3 0.2 0.2 1.3-0.2 1.7-0.3 0.4-0.4 1.2-0.3 1.7 0.1 0.6 0.6 1.8 0.6 2.2 0 0.3-0.6 0.6-0.9 0.9-0.4 0.4-0.9 0.3-1.4 0.3-0.5 0-1.1 0.5-1.4 0.9-0.4 0.3-0.9 0.2-1.4 0.1-0.5-0.1-2 0.7-2.4 0.9-0.4 0.2-0.6 1.4-0.6 1.4 0 0-1.4 0.1-2.1 0.3-0.8 0.2-1.2 0.9-2 1.2-0.8 0.4-1.4 0.3-2.1 0.1-0.6-0.2-0.3 0.1-1.5 0.1-0.4 0-0.9-0.6-1.2-0.7-0.3-0.2-1 0.2-1.4 0.5-0.4 0.3-0.8 1.5-1.5 1.5-0.6 0-1.2-0.6-1.8-1.2-0.5-0.5-0.6-0.3-0.9-0.3-0.3-0.1-1.5-0.1-2-0.5-0.5-0.5-0.3-1.2-0.2-1.6 0.1-0.4-0.1-1.2-0.1-1.2-0.1-0.6-0.4-1.2-0.4-1.4 0-0.2-0.9-1.1-1.1-1.5-0.3-0.4-2.1-1.6-2.5-1.9-0.4-0.3-0.9-1.1-0.9-1.1-0.1-0.1-1.7-0.5-1.8-0.5-0.1 0-0.8 0.3-1.1 0.4-0.2 0-2-0.7-2-1.2 0-0.4-0.6-1.5-0.8-1.7-0.1-0.2-0.8-0.7-1.2-0.4-0.5 0.3-0.9 1-1.2 1-0.3 0.1-2 0-2.4-0.1-0.3-0.1-1.6-1-1.5-1.5 0.1-0.5-1-1.9-1.3-2.1-0.2-0.3-0.3-1.1-0.2-1.8 0.1-0.7-0.5-1.9-0.5-1.9-0.7 0.4-1.8 0.5-2.4 0.9-0.3 0.2-0.8 0.4-0.9 0.8-0.2 0.3-0.7 0.5-0.9 0.8 0.4 0.3 0.9 0.6 1.2 0.9-0.1 0.5-0.3 0.9-0.6 1.3-0.3 0.3-1.9 0.9-2.2 1.1 0 0.3 1 0.6 0.9 0.9-0.2 1.3-1.8 1.2-2.7 1.3-0.3 0.5-0.9 0.6-1.4 0.8-0.5 0.2-0.7 0.4-0.7 0.9 0.1 0.2 0.1 0.4 0.1 0.6 0.4 0.2 0.8 0.3 1.1 0.6 0.2 0.1 0.9 0.4 1.1 0.7-0.4 0.4 0.1 0.6 0.3 0.9 0.9 0 1.8 0.3 2 1.3 0.2 0.8 1 1.6 0.5 2.4 0.8 0.8 2 0.1 2.8 0.7 1 0.7 2.8 0.6 2.9 2.1 0.3 1.5-0.1 2.9-0.3 4.3 0.6 0.2 2.3 0 2.1 0.7-0.8 0.8-1.6 1.6-2.7 2.1-0.5 0.8-0.6 1.6-0.4 2.5 0.7 1.1-0.4 1.1-0.8 1.9-0.2 1-1 1.4-1.6 2-0.8 1.2-1.5 2.6-2 4-0.1 1.1-1.1 1.9-0.9 3.1 0.4 1-1.7 0.2-1.6 1.3-0.4 0.3-1.1 0.4-1 1.5-0.7-0.2-1.8-0.6-1.9 0.7-0.2 0.7-0.4 1.9 0 2.4 1.1 0 1.1-1.8 2.4-1.3 0.7 0.6 0.6 1.9 0.9 2.8 0.4 0.9 0.5 1.8 0.5 2.7 0.4 1.3-0.2 2.8 0.6 3.9 0 1.4 0.7 2.7 0.9 3.9-0.3 0.7-2.2 0.2-1.4 1.6-0.5 0.8-0.5 1.8-0.3 2.7-0.4 0.8 0.2 1.6 0.1 2.4 0.4 0.8 0.4 1.8 0.8 2.6-0.1-0.1-1 0.4-0.9 0.6 0 0.1 0.8 0.9 0.6 1.3-0.2 0.3-0.5 0.8-1 0.5-0.5-0.3-2.8-0.9-3-0.8-0.2 0.2 0 0.8-0.3 0.7-0.4-0.1-0.3-2.3-0.7-2.4-0.3-0.2-0.8-0.2-0.8 0-0.1 0.2-0.3 0.9-0.6 0.8-0.4 0-0.9 0-0.8 0.2 0.1 0.2 0.2 1.2-0.1 1-0.4-0.1-1.6-0.7-1.5-0.9 0-0.1 0.9-0.4 1-0.6 0.3-0.6-0.7-1.1-1.7-0.6-0.2 0.1-0.1 1.2-0.4 1.5-0.3 0.2-2-1-2.4-0.9-0.3 0-1.2 0.7-1.4 0.4-0.2-0.7-2.2-1.5-2.6 0.6 0.1 1.1-0.6 2.8-0.1 3.9 0.1 0.9 0.6 2.2-0.4 2.7-0.9 0.9-2.6 0.8-2.9 2.2-0.2 1.3-0.8 0.5-1.5 0.4-0.5-0.8-0.9 0-1.6 0.4-0.2 0.1-0.7-0.3-1 0.4-1.3-0.8-0.9 0.5-1.6 0.1q0 0 0 0c-0.5-0.1-1-0.4-1.4-0.7-0.6-0.2-0.8-0.9-1-1.5-0.2-0.9-0.3-2.1 0.2-2.9 0.8-0.5 1.9-0.6 2.6-1.2 0.6-0.5 0.5-1.2 0-2-0.6-0.3-1.1-1-1.6-1.5-0.8-0.9-1.4 0.4-2.2-0.5-0.7 0-1.1-0.3-1-1-0.4 0.4-0.7 1-1.4 1.1-0.5-0.3-1.2-0.2-1.8-0.3-0.4-0.4-1-0.9-1.4-0.3 0 0.6-0.9 0.8-0.9 1.1-0.5 0.8-0.5 2-0.9 2.5 0.1 0.3-1.1-1-1.3-0.4-1.1 0.2-3.1-0.5-2.8-0.6 0-0.8-2.2-0.5-2.4-1.3-0.2-0.6-1.1-0.2-1.1-1 0.1-0.8 0.5-1.5 0.7-2.3 0.4-0.8 1-1.7 2-1.8 0.7 0 1.3 0.6 2 0.6 0.7-0.2 1.1-0.5 0.6-1.2 0.6-0.8 1.2-1.5 1.8-2.2 0.5-0.7 1.7-0.3 2-1.2 0.6-0.4 0.2-1.2 0.5-1.7 0.3-0.9 0.9-0.1 1.2 0.1 0.2-0.6 0.1-1.3 0.6-1.8 0.5-0.4 0.8 0.5 1 0.9 0.5 0.4 1.4-0.1 1.5-0.6 0-0.9-0.5-1.8-0.2-2.8 0.2-0.8-1 0.4-1.1-0.5-0.7-0.8-2-0.4-2.9-0.5-0.8-0.2-0.4 1-0.9 1.2-0.4 0.6-1.1 0.2-1.6 0.4-0.5 0.1-1.6 0.4-1.2-0.4 0.3-0.5 0.5-1.1 0.5-1.7-0.1-0.7 0.6-1.2 0.4-1.9-0.3-0.7-0.6-1.5-0.9-2.3-0.4-0.3-0.6-1.2-1.3-0.9-0.5 0.9-0.2 2.1-0.6 3.1-0.3 0.5-0.6 1.2-1.2 1.3-0.5 0-0.9-0.6-1.6-0.4-0.8 0.8-2 0.2-2.9 0.8-0.6 0.7-0.3 1.7-0.4 2.6-0.2 0.5 0.1 1.4-0.5 1.7-0.7 0.1-1.5-0.1-2-0.5 0-0.6 0.1-1.3-0.2-1.9 0-0.5-0.5-1.4-0.9-0.9 0.2 0.6 0.4 1.2 0.3 1.8 0.2 0.4 0.5 1.4-0.3 1.5-0.8-0.2-1.7-0.5-2.6-0.3-0.9-0.2-0.7 0.6-0.8 1.2 0.1 0.7-0.3 1.6-1.1 1.6-1.1 0.1-1.7-1-2.5-1.8-0.5-0.6-1.4-1.3-2.2-0.9-0.4 0.8-1.4 0.8-1.8 1.5-0.6 0.5-0.6 1.3-0.2 1.8 0.7 0.9 1.3 2 2.2 2.8 0.7 0.2 1.4 0.3 2.1 0.7 0.8 0.3 1.3 1 1.6 1.7 0.2 0.7 0.4 1.6-0.4 1.9l-0.1 0.1c-0.3 0.1-0.6-0.2-0.9-0.3-1.1-0.3-2.3-0.3-3.3-0.9-0.4-0.2-0.8-0.4-1.3-0.4-0.8 0-1.6-0.5-2.3-0.3-0.3 0.2-0.6 0.8-1 0.4-0.7-0.3-1.4-0.6-2.1-0.4-0.4-0.1-0.8 0.1-0.9 0.5 0 0.6 0.2 1.2 0 1.8-0.7 0-1.5-0.1-2.2 0-0.5 0-0.7 0.4-0.9 0.7-0.2 0.4-0.4 0.7-0.1 1.1 0.1 0.2 0.8 0.7 0.3 0.7-0.4-0.2-0.6 0.1-1.1 0.1-0.5-0.1-0.6 0.7-0.7 1.1q-0.2 1.5-0.5 3.1c0.3 0.4 0.7 0.8 0.8 1.4-0.2 0.4-0.7 0.1-1 0-0.5-0.3-0.9-0.7-1.4-1-0.6 0.1-1.1 0.3-1.6 0.6-0.3 0.5-0.2 1-0.1 1.5 0.2 0.5 0.4 0.9 0.4 1.3-0.6 0.2-1.1 0.1-1.4-0.1-0.4-0.2-0.9-0.6-1.4-0.5-0.6 0-1-0.1-1.4 0.2-0.2 0.2-0.2 1.1 0.3 2-0.3 0.1-1.7 0.4-2.3 0-0.6-0.5-1.8-0.3-1.8-0.3 0-0.8-0.2-1.7-0.2-2.1 0-0.8 0.6-2.8 0.6-2.8 0 0 0-1.9 0.3-3.7 0.2-1.3 0.7-2.4 0.5-3.3-0.3-2.1-2.1-4.6-0.9-5 1.2-0.5 1.1-5 1.9-6.2 0.6-0.9 2.6-1 2.2-2.9-0.3-1.2 0.9-3 1.4-4.1 0.6-1.1 3.2-1 4.4-2.4q0.1-0.1 0.2-0.3c0.4 0.6 1-0.3 1.3-0.6q1.2-0.1 2.3-0.1c0.8-0.1 1.5 0.4 2.4 0.2 0.6 0.3 1.4 0.3 2.1 0.1 0.5-0.2 0.8-0.9 0.3-1.2-0.7-0.2-1.1-1.5-0.9-2.2 0.2-0.7 1-1.2 1.5-1.6 1.2-0.5 0.5-1.3-0.4-1.7-0.6-0.2-0.7 0.5-1.1 0.6-0.7 0.1-1.1 0-1.7 0.2-0.6 0.3-1.3 0-1.5-0.5-0.3-0.5 0.1-1 0.5-1.3 0.5-0.4 0.7-1 1-1.6 0.3-0.5 0.9 0 1.2 0.2 0.5 0.1 1.1-0.1 1.3-0.5-0.1-0.3-0.3-0.2-0.5-0.7-0.4-0.5 0.2-1.3-0.2-1.5-0.6 0.1-1.5-0.1-2-0.2-0.2-0.1-1.2 0-1.6-0.3 0 0 0.4-1.8 1.2-2.8 0.8-1.1 1.4-0.8 2.2-1.9 0.8-1.1-0.2-3.9-0.1-5.2 0.1-1.3 1.4-3.6 1.6-4.3 0.1-0.7-0.4-5.8-1.1-6.9-0.7-1.1-0.9-2-1.8-3.6-0.9-1.5-2.2-8.9-2.2-8.9-0.2-1-0.2-2.6-0.2-2.6 0 0 1.6 1.1 1.5 0.6-0.1-0.5-0.8-1.9-1.6-2-0.9-0.1-1.2-1.8-1.9-3-0.7-1.3-0.3-3.4-0.9-4.2-0.5-0.9-4.1-10.6-4.8-11.7 0-0.9 0.4-2.1-0.4-2.7-0.8-0.7 0-1.4 0.2-1.5 0.1-0.1 3-0.2 3.4-0.9 0.4-0.6 0.6-2.4 0.6-2.4 0 0-1.3 2.3-2.4 2.4-1.1 0.1-1.6-0.2-2.4-0.5-0.9-0.2-1.5 0.6-1.5 1.4 0.1 0.8 0.6 1.6 0.4 2 0 0-2.6-4.3-3-5.3-0.4-1.1-1.5-5.6-2-7.1-0.5-1.5-0.6-3.1-1-3.5-0.3-0.5 0.1-2.3 0.1-2.5 0-0.3 0.9 0.8 1.6 1.2 0.8 0.4 3.6-1.6 4.4-2.2 0.9-0.5 2.8 0.6 2.8 0.6 0 0-1.9-1.2-2.7-1.6-0.7-0.4-1.1 0.1-1.8 0.9-0.7 0.8-1.5-0.1-2.3-0.8-0.9-0.6-2.8-0.6-3.6-0.9-0.8-0.2-0.6-2.4-0.8-2.7-0.2-0.4 0.8-1.2 0.4-2.2-0.3-0.9 0.2-1.9 0.7-2.9 0.6-0.9 2.3-0.1 2.3-0.1 0 0-0.2-0.2-1.5-0.7-1.2-0.4-2.2-1.1-3.1-1.6-0.8-0.5-2.1-0.4-2.9-0.1-0.7 0.3-1.5 2-1.4 3 0.1 1 0.4 2.3 0.1 3.1-0.4 0.8-0.1 6.5-0.2 6.8-0.1 0.4-0.6 0.6-1 0.6-0.4 0-1.4-1.8-2.1-2.3-0.6-0.4-1.5-2.2-1.5-2.2 0 0 1.4 1.3 1.6 1.4 0.1 0.1 0.5-0.4 0.5-0.4 0 0-0.9-0.5-1.6-1.4-0.7-0.9-0.3-3.3-0.2-4.3 0-1 0-2.3-0.6-3-0.5-0.8 0.6-2.7 0.6-3.9-0.1-1.3-0.2-3.6-0.1-4.5 0.1-0.8 1.6-1.9 1.6-1.9 0 0-1.1-0.7-2.2-0.9-1.2-0.2-0.6-0.1-1.4-1.2-0.9-1-0.9-2.9-0.9-2.9-0.1-0.6 0.8-1.5 1-2.1 0.1-0.5-1.9-0.6-2.1-1.7-0.1-1.1 1.8-3.3 2.7-4.3 0.8-1.1 2.1-3.3 2.8-4.3 0.7-1-0.1-2.8 0-3.2 0.2-0.5 2.3-4.3 3.3-4.7 1-0.4 2.3-2.4 2.3-2.4 0 0-3.2 1.2-3.5 1.2-0.4 0-1-2.4-0.3-3.5 0.6-1.1 0.1-2.5-0.2-3.2-0.3-0.8 0.6-1.1 1.2-2 0.6-0.9 0-2.6-0.1-3.3-0.2-0.7 1.7-1.7 1.8-2 0-0.3-1.7-0.3-2.9-1.3-1.3-1-2.3 0.3-3-0.4-0.8-0.7-0.5-2.2-0.4-2.7 0-0.5-0.9-1.5-1.2-1.8 0.1-0.2 1.7-1.4 2.5-1.6 0.7-0.3 0.8-1.6 1.3-2.2 0.5-0.7 1.7-0.7 2.4-0.5 0.8 0.1 2.1-1.1 3-1.6 1-0.5 1.8-1.7 1.9-1.8 0.1-0.2 0.3 0.1 0.5 0.6 0.2 0.5 2.6 1.3 3.6 1.2 1-0.1 0.5-0.8 1.2-1.6 0.6-0.7 3.5-0.1 4.3-0.1 0.7 0.1 3-0.7 3.8-1.3 0.8-0.5 2.1-1.5 3.2-1.7 1.2-0.1 2 0.3 2.5 0 0.6-0.2 2.3 1 3.2 1.2 0.9 0.3 3.8-1 4.4-1.7 0.6-0.8 1.5-0.4 2.4-0.1 0.9 0.2 4.1-0.4 5.1-0.5 1.1-0.2 2.4-2.1 3.4-2.8 1-0.7 3.8-2.2 4.6-2.5 0.8-0.4 4.1 0.4 4.9 0.5 0.8 0.1 3.8-2.1 4.5-2.9 0.7-0.7 1.5-2.3 1.5-3.8-0.1-1.5 1-4.5 1.3-5.3 0.3-0.7-0.2-1.1-0.4-1.5 0 0-0.5-1.4-0.9-2.4-0.4-1-0.2-2.4 0.4-2.6 0.5-0.2 5.1 2.8 5.7 3.6 0.5 0.8 3.1 0.3 4.1 0.1 1-0.2 3.2-3.2 3.2-4 0-0.9-1.4-3.3-2-4.2-0.6-1-0.1-3.2 0.3-4.2 0.3-1 1.4-1.1 2.6-0.9 1.2 0.2 1.7 2.2 2.7 3.1 1.1 0.9 6 4 7 3.8 1.1-0.2 1.5-2.7 1.2-3.8-0.2-1.1 0.8-2.6 2.4-2.9 1.7-0.2 3.7 1.4 4.6 2.2 0.8 0.8 3.6-1.8 4.1-3.2 0.4-1.4 0-4 0.1-4.6 0 0 0.3-0.7 0.9-1.2 0.6-0.5 2.7 0.6 3.3 0.9 0.6 0.3 3.7 1.2 4.5 0.9 0.2-0.1 1.1-1.1 1.2-1.2-0.5 0.1-2.4 0.7-2.9 0.6-0.5 0-2.2-0.6-2.6-0.9-0.5-0.4-1.6-1.2-1.9-1.3-0.3 0-1.8 0.2-2.2 0.4-0.5 0.1-0.7 0.7-0.5 1-0.2 0.5-0.9 3.5-1 4.6 0 1.2-1.2 2.9-2.6 2.8-1.4-0.1-2.8-1.3-4-1.9-1.2-0.5-3.7-0.2-4.1 1.4-0.4 1.7 0.6 4.2 0.1 4.9-0.5 0.7-2.6 0.2-4-0.8-1.4-1-4.9-4.7-6.1-6.1-1.3-1.3-2.1 0-3.3 0.3-1.3 0.3-1.2 1.8-1.5 2.9-0.3 1 1.3 4.1 2 5.3 0.8 1.1 0.1 4-0.8 4.8-0.9 0.9-3.7 0.9-5.3 0-1.6-0.9-4.2-4.4-5.4-4.3-1.2 0.1-1.3 1.3-1.6 2.4-0.3 1.2 1 3.4 1.2 4.2 0.2 0.8-0.7 6.9-1 8.3-0.2 1.4-1.2 2.1-1.8 2.6-0.7 0.5-3.2 1.9-4.2 1.9-1.1 0-3.7-0.4-4.2 0-0.5 0.3-2.7 1.2-3.9 1.8-1.1 0.6-2.3 2.2-3.4 3.1-1 0.8-5 0.7-6.6 0.5-1.7-0.2-5.8-1.8-6.9-1.7-1.2 0-3 0.9-4.1 1.5-1 0.7-5.3 2.1-6.7 2-1.4 0-4.3-1.8-4.3-2.9-0.1-1.1-1-1.3-2.4-0.3-1.4 1-2.5 1.2-4.5 0.8-2.1-0.4-2.3-0.8-3.1-0.3-0.9 0.4-4.6 0.7-5.9 0.3-1.3-0.4-2.3 0-3.6 0.6-1.4 0.6-3.7 2.8-5.1 2.5-1.3-0.3-2.6-3.4-3.1-4.4-0.4-1 1.1-4.5 1.6-5.5 0 0 1.5-7.7 2.7-9.5 1.2-1.8 4.2-3.2 5.6-4.9 1.4-1.6 3.2-6.6 3.6-7.8 0.4-1.2-0.1-4.6-0.1-4.9 0 0 3.1-0.8 4-1.6 0.9-0.9 3.3-0.7 4.1-0.6 0.7 0.2 1.7 1.8 2.6 1.9 0.9 0.1 0.5-0.7 1.2-0.7 0.7 0.1 1.3-0.7 1.4-0.9 0.1-0.1-2.9 1-3.1 0.5-0.3-0.5-1-1.9-1.7-2.4-0.8-0.4-1.8 0.5-3.3 0.8-1.5 0.4-3.2 0.2-4.6 0.8-1.4 0.7-5.5 4.3-6.3 5-0.9 0.7-0.3 1.6-0.3 2.6-0.3 0.8-3 1.7-3.5 2.2-0.5 0.5-2.7 1.7-3.6 1.4-0.9-0.2-1.5-5.6-2.2-7.3-0.7-1.8 0.2-7.6 1-9.2 0.7-1.7 2.6-12 2.8-13 0 0 0.9-4.7 1.6-7.5 0.7-2.8 4.4-6.2 6.4-7.5 2-1.3 3.8-0.5 5.3-0.5 1.4-0.1 4.6 3.3 5.9 4 1.2 0.7 3.3 0.5 4.4 0.9 1 0.3 3.5-3.3 5-3.4 1.5-0.2 3.1-2.2 4.7-2.7 1.7-0.4 3.4-0.9 4.9-0.1 1.5 0.9 3.3 0.6 4.1-0.2 0.8-0.7 1.8 0 3.1-0.4 1.3-0.4 1.5-1.6 1.7-2.8-0.2-0.9-0.8-1.7-0.9-2.7-0.1-0.3 0.3-1.1 0.7-1.7 0.4-0.6 0.8-1.8 1.4-2 0.6-0.2 1 1.3 1.2 2 0.2 0.7 0.3 2.9 0.5 3.5 0.2 0.6 0.8 0.9 0.8 0.9 0 0-0.1-0.4-0.3-0.9-0.3-0.5-0.3-2.2-0.2-2.8 0.1-0.7-0.4-2.4-0.8-3.1-0.4-0.6-1-0.7-1.5-0.7-0.5 0-2 0.9-2.5 1.2-0.5 0.3-0.5 1.3-0.7 2-0.2 0.7 0.3 0.7 0.7 1.3 0.1 0.6 0.1 3.7-0.8 4.3-0.7 0.7-3.9 1-5.2 0.3-1.3-0.7-7.2-1.7-8.5-1.4-1.2 0.3-3.2 2.4-4.3 2.6-1.1 0.2-5-3.4-6.2-4.1-1.1-0.7-2.7 0.5-4.3-0.1-1.6-0.6-1.7-1.8-2.1-1.9-0.3-0.1-5.1-1-6.9-1.9-1.8-0.9-5.2-0.7-6.2 0-0.9 0.7-2.3 1-3.4 0.9-1 0-3.9 1.3-4.1 2.6-0.2 1.3-1.1 3-2 3-0.9 0.1-1.9-0.2-2.4-0.4-0.4-0.3-2-3.9-2.8-4.3-0.8-0.4-3.4-2.3-4-3.4-0.6-1.1 1.8-3.6 2.5-4.5 0.7-0.9 0.7-2.7-0.3-3.3-0.9-0.7-1.5-3.4-2.4-3.5 0 0-0.8-0.6-1.3-0.7-0.4-0.1-1.8 0.6-1.8 0.6 0 0 0.5 1 0.9 1.2 0.4 0.2 1.1-0.3 1.5-0.2 0.3 0.2 0.8 0.4 1.8 1.8 1 1.1 1.2 2.3 0.4 3.2-0.8 1-4 2.2-5 3.4-1.1 1.2-1.7 3.3-1.8 4.6-0.2 1.3-2 4.5-2.3 6.3-0.3 1.7 3.3 2.5 4.5 2.6 1.2 0.2 2 1.2 2.5 2.5 0.5 1.2-2.1 2.3-3.1 2.7-1 0.5-2 2.5-2 2.5 0 1.2-1.6 3.1-2 2.9-0.5-0.2-0.4-3.2-0.8-3.8-0.5-0.6 0.6-1.3 0.6-1.3 0 0-0.6 0.1-1.2 0.6-0.5 0.5 0.6 1.4 0.6 2.1 0.1 0.8-1.2 0.4-0.7 1.6 0.5 1.2 0.2 4.7-0.6 5.4-0.9 0.6-1.8 3.4-2.4 4.1-0.5 0.7-1.6 3.4-2.7 6.2-1.1 2.8-0.8 8.4-0.8 8.4 0 0-0.7-0.8-1.2-1.8-0.5-0.9 0.3-3.3 0.3-3.8 0-0.6-0.4-1.2-0.9-1.1-0.5 0.1-2 2.5-2.5 3.6-0.6 1.1-1.9 2.9-2.4 3.6-0.6 0.8-2.4 1.4-2.6 1.4-0.2 0 1.4 0.6 2.4 0.7 1.1 0 1.6-1.2 2.1-1.3 0.4-0.1 1.4 2.7 2.2 3.6 0.8 1 1.9 2.8 2.6 4.1 0.7 1.3-0.3 4.4-0.3 5.7 0.1 1.4 0.3 2.6 0.1 3.9-0.3 1.2 0.6 3.7 0.9 4.7 0.3 1 0.1 4.2-0.4 4.6-0.6 0.4-1.8-4.3-1.8-4.3 0 0 0.8 3.3 0.9 4.4 0.1 1 1.3 2.6 1.8 3.3 0 0 1.4 2.7 2.5 5.2 1 2.6 1.8 4.1 2.4 5.4 0.7 1.3-1.6 3.7-2.7 4.8-1.1 1-2.5 5.7-2.4 7.1 0 1.4-2.7 9.7-3.5 11.6-0.8 1.8-5 6.7-6.7 8.2-1.7 1.4-6 7.1-7.1 8.8-0.5 0.8-0.7 1.5-0.8 2.3-0.7-0.1-1.1-0.1-1.6-0.6-0.4-0.1-1.9-1.1-2.3-1.5-0.4-0.5-1-0.4-1.2-0.4-0.3 0 1 0.9 1.3 1.4 0.2 0.5 0.7 0.6 1.2 0.7 0.5 0 0.7 0.8 0.9 1.3 0.2 0.4 1.2 0.6 1.4 0.6-0.1 0.6-0.2 1.1-0.4 1.7-0.8 1.8-1.7 3.1-2.8 4.5-1.2 1.3 1.3 3.2 2 3.9 0.8 0.8 1.1 2.3 1.4 2.6 0.2 0.3-4.3 1.2-5.9 2.7-1.7 1.4-4.5 2.9-5.6 3-1 0-0.8 2.2-1.1 2.6-0.4 0.3-1.5-1.1-2.8-0.6-1.2 0.5-1.2 2.3-1.2 2.3 0 0-1.9-0.1-3.2 0-1.2 0.2-1.7 1.2-1.7 1.2 0 0-3.6 0.7-4.8 1-1.2 0.2-1.7 1.6-1.8 1.9-0.1 0.4-1.9 0.5-2.5 0.8-0.6 0.3-3.3 2.2-4.2 2.2-0.9 0-2.7 1-3.3 1.5-0.5 0.5 1 2 1 2.1 0 0.2-1.6-0.1-2.2-0.3-0.5-0.2-0.8 0.7-1.2 1.3-0.4 0.5-1.9 1.6-2.8 1.6-0.9-0.1-3.5-0.4-4.2-0.3-0.8 0.1-2.6 1.9-3.5 1.9-1-0.1-1.1 0.7-1.4 1.3-0.2 0.6 0 0.2-1.2 0.1-1.2-0.1-3.4 0.9-4.2 1.4-0.8 0.5 0.2 1.6 0.3 1.9 0.1 0.2-1.6 0.5-1.6 0.5 0 0-0.2-0.5-0.3-1.4-0.2-0.9-1.1-0.3-1.7 0.2-0.7 0.5 0.5 1.2 0.5 1.2 0 0-2.2 0.6-3.2 1.2-1.1 0.6-5.4 1.9-5.9 1.7-0.6-0.1-0.1-0.5-0.1-0.5 0 0-2.1-0.2-3.1 0.5-1.1 0.6-0.2 1.2 0.6 2.2 0.7 1.1-0.4 1.1-1.3 1.5-0.8 0.3-1.4 1.1-2 1.1-0.5 0-1.9 3.2-2.3 3.5-0.4 0.2-2.8 0.3-3.3 1.3-0.5 1-3.9 0.8-5.1 0.8-1.2-0.1-2.1 0.9-2.1 0.9 0 0-5 1.3-6.7 1.9-1.7 0.5-6.5 2.6-7.8 3.3-1.4 0.7-4.7 2.1-5.8 2.3-1.2 0.2-0.5 1-0.5 1.1 0.1 0.2-2.6 1.2-3.6 1.3-1.1 0.1-2.2 0-3.1 1.3-0.9 1.4 0.2 1.4 0.3 1.7 0 0-4 0.9-4.9 0.5-1-0.5-3.3 0.1-4.1 0.5-0.7 0.3-0.4 1-0.2 1.9 0.1 0.8-0.5 0.5-1.5 0.3-1.1-0.1-2.4 0.6-3 0.2-0.7-0.4-3.8-0.7-4.5-0.3 0 0-0.2-0.6-0.4-0.7-0.3 0-0.8-0.1-0.8-0.1-0.4-0.2-2.2 0.7-2.9 0.6-0.6 0-1.8 0.2-2.7 0.4-0.9 0.1-1.5-0.6-2.3-0.9-0.9-0.3-2.6 0.7-3.5 0.9-0.8 0.2-2.2 0.4-2.5 0.5-0.4 0.2-1.3 2-1.4 2.3-0.1 0.3 0.8 1.2 0.8 1.2 0 0-1.6 0-2.3-0.3-0.8-0.2-1.9 0.3-2.5 0.6-0.7 0.4 0.3 1.3 0.3 1.4 0.1 0.2-0.5 0.4-1.1 0.2 0 0-3.5-1.5-4.2-2.2-0.6-0.7-2.4-1.2-3.1-1.9-0.8-0.6-2.1 0.3-2.7 0.1-0.7-0.1-5.7-2.7-6.3-3.1-0.6-0.3-2.8-1.9-3.3-2-0.5-0.1-1.3 0.2-2.1-0.1-0.8-0.4-2.3-1.1-2.9-1.1-0.7 0-4.1-1.3-4.8-1.7-0.8-0.5-1.8-1.2-2.6-1.3-0.7-0.2-0.6-0.6-1.2-1.4-0.6-0.7-1.3 0-1.7 0-0.3-0.1-2.1-1.7-3.7-2.2-1.6-0.5-5.9-3.2-6.6-3.5-0.7-0.3-3.5-1.8-4.1-2.9-0.6-1.2-3.4-3.3-4.5-3.8-1.1-0.6-2.2-0.2-2.8-0.8-0.7-0.7-3.2-2.1-4.2-2.8-1-0.8-5.2-4.1-6.3-4.9-1.2-0.8-9.7-7.7-11.3-9.2-1.5-1.4-16.5-16.5-18.1-18.1-1.6-1.6-20.3-24.9-21.1-25.8-0.7-0.9-7.4-9.1-8.9-10.8-1.5-1.6-5.9-7-6.5-7.6-0.6-0.6-2-2.6-2.1-2.7 0-0.1 1.5-1 1.6-1.1 0.1-0.1 0.8 0.8 1.1 0.9 0.3 0.2-0.4-1.3-0.7-1.9-0.3-0.5-0.2-0.9 0.1-1.3 0.3-0.4 1.2 0.4 1.3 0.5 0.1 0 0.7-0.6 1.1-0.8 0.5-0.1 0.6-1.5 0.4-1.9-0.1-0.5 0.7-0.4 1.1-0.3 0.4 0.2 0.3 0.6 0.2 1.2-0.1 0.6 0.5 0.3 0.9 0.5 0.5 0.1-0.3 0.2-0.6 0.4-0.4 0.2 0.9 0.6 1.3 0.8 0.4 0.1 2 1.9 2.5 2.1 0.5 0.2 0.2-2.8 0.4-3.5 0.2-0.6-0.6-1.8-1-2.3-0.4-0.6-1.8-1.1-2.1-0.8-0.4 0.2-1.1-0.4-1.2-0.8 0-0.5-0.7 0.4-0.9 0.5-0.3 0.1 0.1-1.5-0.3-2.2-0.5-0.6-1-1.3-1-1.9 0-0.7-0.3-2.1-1-2.1-0.7 0-0.9 0.6-1.2 0.9-0.4 0.3-0.6-0.4-0.8-0.6-0.2-0.2-0.5 0.6-0.8 0.5-0.4 0-1-1.4-1.5-1.5-0.5-0.1-0.3 0.7-0.8 0.8-0.4 0.2-0.4 0.6-0.4 1.3 0 0.6 1.7 1.9 2.4 2.4 0.7 0.6 1.6 1.8 1.6 1.8 0 0-1.5-0.3-2.2-0.6-0.7-0.3-0.4 0.5-0.8 1-0.3 0.5-0.5-0.4-0.6-0.7 0-0.4 0.5-0.5 0.5-0.9-0.1-0.4-1.7-2.1-2.6-2.4-0.8-0.2-2.4-0.1-3.2-0.9-0.9-0.8-2.8-2.1-2.8-2.1 0 0 1.9 1.7 2.2 2.3 0.3 0.6 1.9 1 2.6 1.2 0.6 0.3 0.7 1 0.9 1.8 0.3 0.8 2.2 2 3.1 2 1 0.1 2.4 1.7 2.9 2.3 0.4 0.7-0.4 1.3-0.9 1.6-0.5 0.4 0.5 1.5 0.6 2 0.1 0.5-1.6 1-1.9 1-0.2-0.1-2.2-1.6-2.8-2.3-0.5-0.8-3.2-3.5-3.6-3.9-0.3-0.4-4.5-5.3-5.2-6.1-0.7-0.8-1.9-0.9-2.1-0.8-0.2 0.1 0.1 1 0.1 1 0 0-1.9-1.4-2.7-2.1-0.8-0.8-5.3-5.4-6.3-6.4-1-0.9-5.8-5.5-6.6-6.1-0.8-0.5-6.5-5.9-7.5-6.7-0.9-0.9-3.5-4.6-3.6-4.8-0.1-0.3-1.4-0.4-1.9-0.9-1.4-1.3-8.9-7.3-10.8-9.6-2-2.4-14.8-15.1-17.3-19.2-0.9-1.3-7-7.6-7.9-8.7-0.8-1.2-8.1-9.4-8.9-10.5-0.8-1.1-2.2-3.9-2.9-4-0.7-0.1-0.7-0.9-0.9-1.7-0.2-0.8 0.6-0.8 0.6-0.9 0-0.2-2.2-5.8-2.6-6.5-0.4-0.6 0.5-2 0.5-2.7 0.1-0.7 0.4-0.5 1.1-0.6 0.7 0 0.6-1.2 0.5-2-0.1-0.9 0.4-1.1 0.4-1.9 0-0.8 0.7-1.9 0.7-1.9 0 0 3.4-5.7 3.9-6.6 0.5-1 4-3.7 4.7-3.9 0.8-0.2 3.9-2.8 3.9-2.8 0 0 1.5 0 1.8 0.2 0.3 0.2-0.7 2.1-1 2.9-0.4 0.7-3.1 1.8-3.4 1.9-0.3 0-0.2 0.3 0.1 1.3 0.2 1 1.1 2.3 1.8 2.5 0.7 0.2-0.1 0.9-0.1 1.2-0.1 0.4 1.7 1.2 1.7 1.2 0.1 0.1 1.3-0.1 2-0.2 0.8 0 1.1-1.6 1.1-1.9 0-0.3 0.7-0.4 1.3-0.3 0.6 0 2 1.8 2.5 1.2 0.6-0.7 2.1-0.3 2.8-0.7 0.8-0.4 0.4-1.1 1.4-1 1 0 0.5-0.7 0.9-1.1 0.4-0.4 2.4 0.1 2.4 0.1q0 0 0 0c0 0-0.1 0.1-0.1 1.3 0.1 1.2 1.9 1.2 1.9 1.2 0 0-0.3 0.2-0.9 0.3-0.6 0.1-0.2 1.1-0.5 1.5-0.3 0.3-1.4 0.4-1.7 1.2-0.2 0.8 0 1.5-0.7 1.9-0.6 0.4 0.1 1.2-0.2 2-0.4 0.9-0.7 1.2-0.8 2.4-0.1 1.2-1.1 1.6-1.3 2.2-0.1 0.6 3.4 4.5 4.4 5.4 1.1 0.8 3.9 2 4.7 2 0.9-0.1 1-0.9 1.7-1.2 0.7-0.3 3.6-0.6 4.4-0.7 0.8 0 1-1 1-1.4 0-0.4 1.1-0.5 1.7-0.6 0.6 0 0.7-0.6 1.4-0.8 0.7-0.2 1.1-1.2 1.1-1.4 0-0.2 0.9-0.3 1.1-1 0.2-0.8-0.6-1.8-0.7-2.2-0.1-0.4 1.7 0.2 2.4 0.3 0.6 0.2 0.5 0.3 0.8 0.7 0.4 0.4 1.3 0.4 1.8 0.2 0.5-0.3 4.5 0.3 5.3 0.4 0.8 0.1 2.6-1.2 3.3-1.8 0.6-0.5 1.1-1.3 1.5-1.6 0.5-0.2 0.7 0.2 1.3 0.7 0.5 0.5 2.4 0 2.8-0.3 0.5-0.3 0.4-2.6 1-3 0.5-0.5 2.8-1.8 3.1-2.4 0.4-0.6-0.2-1.8-0.5-2.5-0.4-0.8 0.1-1 0.1-1.6 0-0.5-1.5-1.1-1.8-1.7-0.2-0.5 1.5-0.2 2.3-0.1 0.8 0.1 1.5 1.1 1.6 1.8 0.2 0.6 1.4 0.6 1.8 0.9 0.4 0.2 0 1.3-0.4 1.5-0.4 0.2 0.6 0.4 1 0.6 0.2 0.7-0.1 1.5-0.5 1.8-0.4 0.3 0.9 2.2 1.1 2.4 0.2 0.2 1-0.9 1.5-1.4 0.4-0.5 1.4 0.3 2.2 1.3 0.7 1.1 1.7 1.5 2.6 2 0.8 0.6 0.5-2.8 0.5-3.2 0-0.5 3.6 1.5 4 1.4 0.5 0 0.7-0.5 0.6-1.7 0-1.1 0.8-2.5 1-2.9 0 0 1-0.5 1.6-0.3 0.6 0.2 2.3-0.2 2.5-0.5 0.1-0.2 0.2-1 0.2-1.4 0.1-0.4-0.3-0.6-0.3-1.2 0-0.6 0.4-1.5 0.8-1.9 0.4-0.5-0.5-1.6-0.5-1.6 0 0 1-1.8 1.2-2.2 0.1-0.4 0.7-0.6 1.1-0.5 0.4 0 0.6-0.9 1.2-0.7 0.6 0.2 0.4 1 0.4 1 0 0 0.4 0.5 0.6 1.1 0.2 0.6-0.2 1.7 0.3 2.2 0.4 0.5 1.5 1.3 1.8 1.3 0.3 0 0.3-1.5 0.4-1.7 0.1-0.1 0.5 1.3 1.1 1.9 0.7 0.6 0.9 0.8 1 1.4 0.2 0.5 2.5 1.9 3.2 1.9 0.7 0 1.4-1.8 1.8-2.1 0.3-0.4-1.2-0.1-1.5-0.1-0.3-0.1-0.2-0.6-0.2-0.9 0.1-0.2 1.7 0.1 2.1 0.1 0.3 0 0.9-1.7 1.4-2.3 0.5-0.7-0.7-0.6-0.9-0.9-0.2-0.3 1.4-2.1 1.3-1.6 0 0.4 3.1 1.7 4.1 2.1 1.1 0.3 2.8-1.9 3.2-2.5 0.4-0.6 1.4-0.4 1.7-0.4 0.3-0.1 0.1-1.2 0.2-2 0.1-0.8 1.3-1.6 1.6-2.5 0.3-0.9 1.2-0.9 1.8-1.3 0.7-0.3 1.3-1.9 1.2-2.2-0.1-0.3 2.5-1.3 3.5-1.9 1-0.6 3.2-0.7 4.2-1.1 1-0.4 2.1 0 2.3-0.7 0.2-0.6 1.4-0.4 1.4-0.4 0 0 1.2 1.2 2.2 1.2 1 0.1 1.8 0.1 2.4 0.6 0.5 0.4 5.8 0.3 7-0.3 1.1-0.5 2.3-0.4 3.2-0.6 0.9-0.3 2.8-2.8 3-3.8 0.3-1 1.2-3.1 0.9-4.1-0.2-1 2.3-2 2.6-3.4 0.3-1.4 1.6-1.8 2.2-2.4 0.6-0.6 0.4-3.2 0.6-3.9 0.2-0.7 2.2-0.6 1.7-0.7-0.4-0.1-2-0.9-2-1.6 0-0.7 1.3-0.6 1.4-1.5 0-1 2.5-1.9 3.7-3.5 1.3-1.5 2.2-2.4 2.2-3.9 0.1-1.5 1.9-3.9 2.6-4.5 0.5-0.3 2.1-1.7 2.3-1.9 0.3-0.3-0.1-0.7-0.3-1.7-0.1-1 1.6-4.7 2.5-5.2 0.9-0.6 2.5-3.4 2.6-3.8 0-0.4 0.1-0.2 0.5 0.1 0.3 0.2 2.2-1.3 2.6-1.8 0.4-0.4 1.6 0.4 1.8 0.4 0.2 0-0.6-1.4-0.4-1.8 0.2-0.4 1.3 0.5 1.4-0.1 0.1-0.6-0.3-2.1 0.1-3.2 0.5-1.2 0.8-0.7 1.5-0.7 0.8 0 1-0.9 1-1.2-0.1-0.4 0.5-0.7 1.8-1.1 1.3-0.4 1.3-1.8 1.8-2.4 0.4-0.6 2.7-2.5 2.7-2.5 0 0-1.3 0.4-2 0.8-0.7 0.5-1.7 1.9-2.2 2.4-0.4 0.5-1.4 0.7-1.6 0.7-0.2 0 0.8-2.1 1.8-3.3 1.1-1.3 1-2.7 1-2.7 0.2-0.6 1.4-3 1.7-4 0.3-1.1 0.5-4 1.1-5.2 0.6-1.3 1.8-2.4 2.8-2.9 0.9-0.5 2.4-1.5 2.8-2.2 0.4-0.7 1-2.2 1.2-2.7 0.3-0.6 1.6-0.7 2.3-0.6 0.7 0.2 2.8-0.4 3.4-0.4 0.7 0 2.7-0.2 3.5-0.1 0.8 0.2 1.8-0.7 2.2-1.5 0.4-0.7 0.9-2.3 0.9-2.3 0 0-1.3 1.3-1.9 1.9-0.6 0.6-2.4 0.9-3.4 1.2-1.1 0.2-5.2-0.1-5.9 0-0.6 0.2-1.6 0.7-1.8 0.9-0.2 0.3-0.3 0.9-0.7 1.5-0.3 0.6-1.3 0.5-1.8 1-0.6 0.5-1.1 1.8-1.4 2.4-0.2 0.6-1 0.6-2 1.6-1 1-1.4 2.3-1.9 2.9-0.4 0.5-0.4 2.4-0.7 2.7-0.3 0.4-2.9 1.3-4.1 1.1-1.3-0.2-2.1 0.8-2.5 1.1-0.4 0.4-2.7 3.3-2.9 3.4-0.2 0.1-0.5-0.4-0.7-0.6-0.2-0.3 0.1-0.3 0.5-0.9 0.5-0.7 0.2-0.9 0.2-1.4 0.1-0.4-0.3-1.3-0.8-1.3-0.5-0.1-1 0.3-1.3 0.6-0.3 0.2-1 0-1.4-0.4-0.4-0.4 0-0.6 0-1.1 0-0.6 0.7-1.1 0.8-1.5 0.2-0.3-0.3-1.4-0.8-1.5-0.4-0.2-0.8-1-1-1.4-0.3-0.4-1.5-0.3-1.8-0.5-0.3-0.2 0.3-1.9 0.5-2.1 0.1-0.2 1.4-2.1 1.5-2.6 0.1-0.4 0.4-0.9 0.7-1.1 0.2-0.1 1.2 0.2 2 0.1 0.7-0.1 0.5-0.2 1-0.5 0.5-0.2 1.9-0.1 2.5-0.1 0.6 0 1.4-0.8 1.8-1.2 0.3-0.5 1-0.3 1.4-0.4 0.5-0.1 1 0.7 1.3 1.1 0.4 0.4 2.5 1.2 2.9 1.2 0.5 0 1.3 0.5 1.6 0.4 0.4-0.1 0.6-0.6 0.4-0.9-0.2-0.3 0.1-1.4 0.1-1.4 0 0-0.5 0.9-0.4 1.2 0 0.4-0.2 0.5-0.8 0.5-0.6 0-1.6-0.3-2.2-0.7-0.6-0.4-1-0.7-1.4-1.2-0.3-0.5-1.7-0.9-2.2-0.7-0.5 0.3-2.4 1.4-2.8 1.5-0.5 0.1-1.1-0.2-1.8-0.2-0.7 0-1.5 0.4-2.1 0.6-0.5 0.3-1.4-0.2-1.9 0.2-0.4 0.4-1.2 2.3-1.4 2.8-0.2 0.4-0.6 1.1-1.1 1.6-0.4 0.6-1.2 0.7-1.7 0.8-0.4 0-1.4-0.2-1.7-0.1-0.4 0-1.4 0.3-1.7 0.5-0.4 0.2-1.4 0.3-1.8 0.3-0.4 0-1.5 1.2-1.7 1.1-0.2 0 0.1-1.1 0.1-1.4 0.1-0.3 0.3-0.4 0.7-0.4 0.4-0.1 1.2-0.8 1.4-1.3 0.3-0.4 1.1-0.9 1.1-0.9 0 0-1.3 0.4-1.6 0.6-0.4 0.3-0.8 1.3-1.4 1.3-0.5 0.1-1.1 0.1-1.5 0.2-0.3 0.1-0.3 0.7-0.4 1-0.1 0.4-0.7 0.4-1.1 0.7-0.3 0.2-0.8 0.8-1.4 0.8-0.5 0-1.2 0.3-1.6 0.6-0.4 0.3-1 0.3-1 0.2 0-0.1 0.6-1.3 1-1.7 0.3-0.4 0.5-0.6 0.9-0.8 0.4-0.2 0.9-1.6 0.9-1.6 0 0-0.5 0.4-0.7 0.7-0.1 0.3-1.3 0.9-1.5 1.5-0.2 0.5-0.8 0.8-1.3 1-0.5 0.1-0.7 0.6-0.9 1-0.3 0.4 0 0.8 0.2 1 0.2 0.3 0 0.9 0 1.4 0 0.4 0.5 0.8 0.7 1.1 0.3 0.2 0.2 1.3 0.2 2 0 0.6 0.5 1.6 0.6 1.9 0.2 0.2-0.3 0.7-0.4 1.3-0.1 0.6 0.7 2.9 0.5 3.7-0.1 0.7 0.7 2.1 1 2.7 0.3 0.7-0.3 1.5-0.9 0.9-0.6-0.5-1.9-1.2-2.4-1.7-0.4-0.5-1-1.9-1-1.9 0 0 0.3 1 0.3 1.4 0 0.4 0.9 1.3 1.5 1.6 0.7 0.3 1.4 1.1 1.4 1.5 0 0.3-1.5 0.8-2.3 1-0.7 0.3-2.2 0.1-3 0.2-0.8 0-1.5 1.2-1.6 1.2-0.2 0-1.7-0.9-2.2-1-0.6 0-1.3-0.8-1.4-1.1-0.1-0.4-1.2-0.2-1.7-0.2-0.4 0-0.1-1.2 0.2-1.5 0.3-0.3 0.7-2.3 0.7-2.3 0 0-0.7 1.6-1.1 1.9-0.4 0.2-0.9 0.8-0.9 1.6 0.1 0.9 1 1 1.3 1.5 0.4 0.6 1.7 1.4 1.7 1.4 0 0 0 1-0.1 1.4-0.1 0.4-0.6 0.7-1.2 0.8-0.6 0-0.6 0.5-1 0.9-0.5 0.5-1.3 1-1.4 1.2-0.2 0.1-1.1-0.1-2-0.3-0.9-0.2-3.1 0.4-3.6 0.6-0.6 0.1-0.4 0.8-0.4 0.9 0 0.1-1.9 0.6-2.4 0.5-0.6-0.2-0.2-0.5-0.3-0.7-0.1 0.1-2.4-0.1-3-0.1-0.7 0-1.8 0.7-2.5 0.6-0.7-0.1-1.4 0.5-1.8 0.6-0.4 0.1-1.2 0.2-1.8 0-0.7-0.3-1.7 0.3-2.3 1-0.6 0.7-3 2.4-3.3 2.5-0.2 0.1-1.9 0.1-2.7-0.3-0.8-0.4-2.1 0.8-2.5 0.7-0.4 0-0.2-0.8-1.1-0.9-0.8-0.1-4.7 2-5.1 2.2-0.5 0.3-0.6 1-1.1 1.3-0.5 0.3-1 0.1-1 0.1-0.3 0-1 0.5-1.1 0.9-0.1 0.4-1.3 1.3-1.8 1.3-0.4 0.1-1.6 1-2 1.3-0.4 0.3-0.3 1.1-0.3 1.5 0 0.3-0.9 0.4-1.2 0.4-0.3-0.1-0.5 1.3-0.5 1.7 0 0.3-0.8 0.8-1 0.9-0.3 0.1-0.5 1-0.7 1.4-0.3 0.4-1 0.9-1.3 1.4-0.4 0.5-0.4 1.3-0.6 1.5-0.1 0.3-1.5-0.5-1.5-0.5 0 0 2.1 1.6 2.1 1.9 0 0.2-1.9 0.8-2.2 0.8-0.2 0 0.2-0.8 0.2-0.9 0-0.1-1.8-0.1-2.1-0.1-0.3 0.1-0.6 1.1-0.8 1.1-0.2 0-1.6-0.6-1.8-0.8-0.1-0.2 0.9-2.3 0.9-2.3 0 0-0.6-0.1-0.8-0.2-0.2 0 0 0.4 0 0.7 0 0.3-2.6-0.7-3.2-1-0.7-0.4-0.5-0.7-0.5-0.8-0.1-0.1-0.7-0.1-0.9 0.1-0.3 0.2-0.8 0-0.9 0-0.2 0 0.4 0.6 0 0.7-0.3 0.1-0.5 1-0.6 1.2-0.1 0.1-0.2-0.1-0.2-0.1-0.1-0.1 0.2-0.7 0.2-0.9-0.1-0.2-0.3 0-0.3 0-0.5 0.1-0.5 0.9-0.5 1.3-0.1 0.4-2.6 0.4-3 0.1-0.4-0.3 1.2-0.2 1.2-0.2 0 0 0.4-1.4 0.4-1.6-0.1-0.1-2.2-0.9-2.7-0.9-0.4 0.1-0.7 1.9-1 2.4-0.2 0.5-1.6-0.5-1.7-0.6-0.2-0.2 1.3-3.3 1.3-3.5 0-0.3-1.5 0.1-1.8 0.1-0.3 0.1-1.1-0.9-1.3-1.1-0.3-0.3-1.3 0.3-2 0.3-0.6 0-2 0.1-2.8 0.3-0.8 0.2-1.9 1.5-2.7 1.1-0.9 0.1-3.3-0.7-3.8-0.8-0.4-0.2-3.1-2.6-4.3-3.3-1.1-0.6-4.1-1.9-5.1-2.1-0.9-0.2-1.3 0.4-1.6 0.5-0.3 0.1-3-1.6-3.6-1.8-0.6-0.1-2-0.2-2.8 0.2-0.9 0.5-2.9 0.5-3.6 0.5-0.7 0-3-0.6-3.8-1.1-0.9-0.5-4-0.3-4.6-0.4-0.7-0.1-1.2-0.5-2.6-1.8-1.4-1.3-3.7-1.8-4.5-2.2-0.7-0.4-1.9-1.2-2.8-2.2-0.9-1-13.5-8.2-14.1-8.6-0.6-0.3-8-4.7-8.8-5.5-0.7-0.8-3.4-2-4.1-2.4-0.7-0.4-11.3-6.3-13.3-8.2-0.1 0-1.7-0.2-2-0.4-0.4-0.2-2.4-1.7-2.7-2.2-0.2-0.4-3.8-3.3-4.4-3.7-0.7-0.5-4.5-2.7-5-3-0.5-0.3-2-1.7-2.3-2.2-0.3-0.4-1.7-1-2.1-1.7-0.4-0.7 0-0.6 0.3-0.7 0.2-0.2 0.2 0.6 0.5 1 0.2 0.4 1.1 0.8 1.5 1.3 0.3 0.5 1 1.4 1.5 1.5 0.5 0.1 1.3 0.7 1.8 1.1 0.4 0.3 1.7 0.8 2.3 0.9 0.6 0.2 1.8 0.2 1.8 0.2 0 0-0.4-0.5-0.8-0.4-0.4 0.1-1.3-0.5-1.7-0.6-0.5-0.2-1.2-0.3-1.4-0.4-0.2-0.1-0.1-0.3 0.3-0.2 0.4 0.1 0.5-0.3 0.6-0.5 0-0.2-1.8-0.3-2.3-0.4-0.6 0-1.2-0.3-1.3-0.8-0.2-0.6-0.6-1.4-1.1-1.7-0.4-0.2-0.5-0.5-0.5-0.8 0-0.4 1-0.3 1.3-0.3 0.3 0.1-0.4-0.7-0.6-0.9-0.2-0.2-1.1 0.4-1.5 0.3-0.3-0.1-1.4-0.1-1.9-0.3-0.5-0.3-1.4-1.7-1.8-2.1-0.2-0.3-1.4-1-1.5-1-0.1-0.1-0.5-0.6-0.9-0.9-0.3-0.3-0.5-1.7-0.2-2.1 0.3-0.5 1.3-0.7 1.5-0.8 0.2-0.1 0.1 0.5 0.1 0.7 0 0.2 0.4 0.7 0.3 1.1-0.1 0.4 0.4 0.7 0.5 0.8 0.1 0 0.1-1 0.3-1.3 0.2-0.2 0.6 0.4 0.8 0.7 0.2 0.3 0.1 0.9 0.1 1.1-0.1 0.2 0.1 0 0.5 0.1 0.5 0.1 0.2 1 0.2 1.1 0.1 0.1 0.2-0.5 0.4-0.8 0.2-0.3 0.6 0.2 0.8 0.3 0.1 0.1-0.1-0.3-0.1-0.6-0.1-0.3 0.5-0.5 0.6-0.8 0-0.3-1.2 0.3-1.6 0.5-0.5 0.3-0.5-0.6-0.6-1-0.1-0.3-1.4-1.9-1.5-2-0.1 0 0.1-0.1 0.2-0.2 0.2-0.1 1.5 0.1 1.9 0.1 0.5-0.1 1.7-0.5 2-0.6 0.3 0 0.5-0.6 0.6-0.9 0.1-0.2 0.6 0.1 0.7 0 0.1-0.1 0.1-0.5 0.5-0.6 0.4 0 1-0.6 1.2-0.8 0.1-0.2-0.4-0.4-0.5-0.6 0-0.3 0.3-0.5 0-0.6-0.4-0.2-0.7 0.3-1.1 0.3-0.4 0-0.5 0.4-0.7 0.5-0.1 0.1-0.6-0.2-0.8-0.5-0.3-0.4 0-1.2-0.3-1.6-0.3-0.4-0.5-1.2-0.5-1.4 0-0.2 0.7-0.1 1-0.2 0.4-0.1 1.3 0 1.8 0.1 0.4 0-0.3 0.4-0.3 0.4 0 0 1.5-0.1 2.1-0.7 0.5-0.5 0.7-0.1 1.2-0.2 0.4-0.1 1.5-0.5 1.5-0.7 0.4-0.3 1.1-0.5 1.4-0.2 0.3 0.3 0.8 0.3 0.9 0.4 0.1 0-0.1-0.4-0.4-0.6-0.2-0.3-0.6-0.6-0.8-0.4-0.2 0.2-1.1 0.1-1.4 0.4-0.3 0.3-1.1 0.4-1.5 0.4-0.3 0.1-1.1-0.1-1.2-0.2 0 0-0.3-1.1-0.2-1.5 0-0.4 0.5-0.3 0.9-0.4 0.4 0 0.7-0.7 0.5-0.7-0.1 0-0.8 0.2-1.1 0.3-0.2 0-0.4-0.4-0.4-0.4 0 0-0.7 0.1-1 0.2-0.2 0.1 0.1 0.9 0.2 1.1 0.1 0.2 0.4 0.7 0.2 0.9-0.1 0.2-0.2 0.9-0.2 0.9-0.1 0.1-0.3-0.1-0.5-0.2-0.2-0.1-0.8-1.3-0.8-1.5 0-0.3-0.1-0.6-0.4-0.6-0.4 0-0.7 0.7-0.8 0.6 0 0-0.3-0.8-0.3-1.1 0-0.3 0.6-0.7 0.6-1-0.1-0.3-0.9-0.3-1.3-0.4-0.5-0.2-0.3-0.8-0.3-1.1 0-0.3 0.4-0.4 0.5-0.7 0.1-0.2-0.2-0.3-0.4-0.6-0.2-0.4-0.1-1-0.3-1.3-0.3-0.3-0.9-0.3-1.2-0.5-0.3-0.3-0.6-1.1-0.9-1.6-0.2-0.5-1.9-1.6-2-1.7-0.2-0.1 0.1 0.7 0.5 1.1 0.3 0.4 0.8 1.4 1.1 1.9 0.2 0.4 0.5 0.7 0.5 0.9-0.1 0.2-0.5 0.1-0.6 0-0.1 0-0.1-0.4-0.1-0.6-0.1-0.2-0.6-0.7-1.1-1-0.5-0.3-1-1.5-1.7-2.1-0.6-0.6-0.9-1-1.3-1.2-0.4-0.3-0.5-1.7-0.6-2 0-0.4-0.7 0.3-1 0.4-0.2 0-0.8-0.5-1-0.9-0.2-0.5-0.7-1.1-1.1-1.7-0.4-0.6-0.6-1.9-0.9-2.5-0.4-0.7-1.1-1.5-1-2.1 0.1-0.5-0.6-1.2-0.8-1.3-0.3-0.2-0.2 1.2-0.2 1.2 0 0-0.4-0.6-0.9-0.6-0.5 0-0.6-0.5-0.7-0.6 0 0-1.6 0.6-1.7 0.9-0.1 0.4 1 1.2 1.2 1.6 0.2 0.4-0.2 1.3-0.5 1.9-0.3 0.6 0.1 1.3-0.2 2.6-0.2 1.3-0.5 2.5-0.7 2.6-0.2 0.1-1.2 0.6-1.5 0.3-0.3-0.4-1.3-1-1.4-1.2-0.2-0.1 0.5-2 0.3-2.5-0.2-0.5-0.3-0.7 0-1.1 0.4-0.5 0.1-1.9 0.1-1.9 0 0-0.7 0.3-1.1 0.4-0.4 0.1-1.3 1.2-1.8 1.9-0.4 0.6-1.2 1-1.4 1.7-0.3 0.6 0.3 1.2 0.4 1.3 0 0.1-0.8 0.1-1 0.4-0.3 0.3 1.7 1.6 1.7 1.7-0.1 0.2-1.7-0.2-2.1-0.4-0.4-0.2-0.9-0.8-1-1.4-0.1-0.5 0.3-0.6 0.4-0.7 0-0.2-1-0.3-1.1-0.6-0.2-0.2 0.6-0.6 0.4-1-0.2-0.5-0.7 0.2-0.7 0.2 0 0-0.2-0.3-0.4-0.6-0.2-0.3-0.3-2 0-2.6 0.3-0.5 1.7-1.2 2.1-1.4 0.3-0.2 0.9-0.2 1 0 0.1 0.1-1.7 0.7-1.9 0.7-0.2 0.1 0 1-0.2 1.3-0.1 0.4 0.6 0.4 1.2 0.3 0.6-0.1 1.2-0.8 1.8-0.9 0.6-0.1 1.4-1.1 1.5-1.6 0.2-0.4 1.4-0.6 1.9-0.8 0.5-0.3 0-1.5-0.2-2-0.3-0.6 0-1.5 0-1.8 0.1-0.3 1.3 0.3 2 0.4 0.7 0.2 0.5-0.2 0.7-0.6 0.2-0.4 0.8 0.6 1.1 1 0.2 0.5 1.2 0.1 1.4-0.1 0.2-0.2-0.3-0.9-0.4-1.2-0.2-0.4 0.1-1.5-0.2-1.8-0.3-0.2 0-1-0.1-1.2-0.1-0.3-0.6-0.9-0.9-1.2 0 0 0-0.1 0.1-0.6 0.2-0.4-0.4-0.8-0.6-1.1-0.1-0.2 0.8-0.3 1.3-0.3 0.5 0-0.1-1.8-0.2-2.5 0-0.6-0.3-0.9-0.6-1-0.3-0.2-0.1-2.2-0.1-2.2 0 0-0.4 2.3-0.6 2.7-0.2 0.3-0.2 1.5-0.4 1.2-0.3-0.3-0.6 0-0.7 0.4-0.2 0.3-1.1 1.3-1.1 1.3-0.4 0.1-1.3 0.8-1.8 1-0.4 0.3-0.7 0.8-0.7 0.8-0.1 0.7-0.9 2-1.1 1.8-0.2-0.2-0.1-1.8 0.1-2.4 0.3-0.5 1.2-3 1.9-3.3 0.7-0.2 1.1-0.6 1.4-0.8 0.3-0.2-0.9-0.1-1.2-0.2-0.3 0-0.5-1.1-0.6-1.7 0-0.6 0.6-1 1.1-1.6 0.5-0.5 1.5 0.2 1.6 0 0.1-0.3-0.2-1.2 0.1-1.9 0.3-0.7 0.8-0.2 1.5-0.6 0.7-0.4 1-2 1.6-2.4 0.5-0.3 0.7-1.6 0.9-2 0.1-0.4 1.2-0.7 1.7-0.7 0.5 0 0.3-1 0.4-1.9 0.2-0.9 0.6-1.7 1-1.8 0.4-0.2 2.2-3.1 2.8-3.9 0.7-0.9 3.4-1.4 4.6-1.9 1.2-0.5 0.7-0.7 1.2-1.8 0.4-1.1 2.1-0.6 3-1.7 0.8-1.1 0.8-1.4 2.1-2.4 1.2-1.1 1.1-2.5 1.7-3.2 0.3-0.6 1-1 1.7-1.3 0.7-0.2 1.2-0.9 1.4-1.2 0.2-0.3 0.8-0.3 1.5-0.3 0.8 0 1.5-0.5 2.4-0.7 1-0.2 1.8-0.7 1.9-1.4 0-0.6 0.8-0.9 1.3-1 0.5-0.1 1.1-0.6 1.1-0.9-0.1-0.4-0.7 0.3-1 0.3-0.3 0-1.8-0.2-2.3-0.2-0.4 0-1.6-0.5-2.2-0.5-0.5 0.1-1.7 1-2.2 1.3-0.5 0.2-2.1 0.7-2.3 0.7-0.2-0.1-1.7-0.7-1.7-0.7 0 0 0.3-0.4 0.6-0.7 0.3-0.3 1.5-0.4 1.5-0.4 0 0 0-0.1-0.3-0.4-0.3-0.3-1.1-0.1-1.6 0.1-0.5 0.1-1 0.8-1.2 1.3-0.3 0.5-2 0.7-2.6 1.3-0.6 0.6-1.4 0.5-1.9 1-0.5 0.4-1.6 2.2-1.7 2.7-0.1 0.6-0.7 1.9-0.7 1.9 0 0-0.4-2.3-0.6-2.8-0.1-0.5-0.1-2-0.1-2 0 0-0.3 0.3-0.4 0.5-0.1 0.2 0 1.2 0.1 1.7 0.1 0.4-0.4 1.6-0.9 2-0.6 0.3-1.5 1.1-2.2 1.4-0.7 0.2-1.3 1.1-1.5 1.7-0.2 0.7-0.7 0.7-0.9 0.2-0.1-0.5-1.7-1.6-1.7-1.6 0 0 1.2-2.4 1.1-3 0-0.6-0.5-2-0.6-2.3-0.2-0.3 1.4-0.3 2.1-0.9 0.7-0.5 1.2-0.9 1.5-1.6 0.3-0.7 1-1.2 1.8-1.3 0.8-0.1 1.3-0.7 1.9-1.2 0.5-0.5 2.3-3.6 2.6-4.1 0.2-0.5 0.7-1.1 1.2-1.2 0.5 0 1.4 1 2.1 1 0.8 0 1.2-0.6 2-1.4 0.8-0.9 0.8-1.3 0.8-1.3 0 0-1 0.9-1.1 1.2-0.2 0.4-1.7 1-2 0.9-0.3-0.1-1.5-0.6-1.8-1.3-0.3-0.8-0.4-1.8-0.4-2 0-0.2-1.1-1.4-1.4-1.6-0.3-0.3-0.3-0.5-0.4-1-0.1-0.4 0.1-1.5 0.4-2.3l18 0.4c0.2-2.6 0.1-5.3 0.9-7.8q0.1-1.4 0.2-2.7c0.7 0.8 1.3 1.5 1.5 1.9 0.6 1 3.5 1.4 4.5 1.1 1-0.2 3-1.9 3.4-1.9 0.4 0 2.1 0.2 3.5-0.4 1.4-0.6 2-2.5 2.8-3.4 0.8-0.9 2.5-0.2 3.6-0.6 1-0.3 2.1-1.1 2.1-1.1 0 0-0.9-0.1-1.7 0.3-0.9 0.3-2.4 0.3-3.5 0.3-1.2 0-2.6 1-2.8 2-0.2 0.9-0.4 1.5-1.5 1.6-1.2 0.1-2.9 0-3.7-0.2-0.8-0.1-1.9 1-1.9 1 0 0-0.4-2-0.5-2.7-0.1-0.7-1.2-2-1.3-2.2-0.1-0.2 0.6-1.7 0.7-2.2 0.2-0.4-0.7-1.2-1.4-1.3-0.7-0.2-1.5 0.2-2.2-0.4-0.7-0.6 0.4-1.5 0.6-2.1 0.3-0.6-0.4-1.5-0.4-1.5 0 0-0.2 1.4-0.5 2-0.3 0.5-0.4 1.6-0.1 2.2 0.3 0.6 2.4 0.6 2.6 0.6 0.1 0 0.1 0.4 0 1-0.2 0.6-0.3 1.9 0.1 2.8 0.3 0.9 0.7 2 1.1 2.3 0.4 0.4 0.3 1.7 0.3 1.9 0 0.2-1.3 0.6-1.9 0.3-0.6-0.2-2-1.5-2.3-1.8-0.1-0.2-0.5-1.2-0.9-2 0.5-8.8 0.2-17.8 0.6-26.6-1.3-4.7 4.5-4.5 7.5-5.6 1.3 4.1 0.5 9.1 2.6 13.1 2.8-0.3 2.4 1.4 5.2 1.6 3.2-2 1.4-7.5 5.1-9.5 3.2-2.9 2.9 4.4 5.8 5.2 4.7 1.4 8.4-3.4 12.5-5.1 4.8 0.2 8.5 3.5 13.2 4.2 3-1.1 5.9-3 9.2-3.7 3.8-3.4 9 0 13.4-0.3 3.8-1.7 8.1-0.9 11.8 0.9 4.8 1.3 10-1 14.6-2.4 4.5 4.9 9.7 9.5 14.9 13.4 10.8 0.9 21.3 1.7 32.1 1.2 7.1 0.5 11.2-6.5 13.3-12.4 0.4-4.4 5.1-4.9 8.5-5.7 6.4-0.7 12.1-3.5 18.1-5.4 5.7-0.5 10.9-3 16.2-5.1 5.2-0.4 9.8-5 15-4.3 2.1 0.9 2.1 2.9 0 6.4-1.1 1.4-1.5 0.7-2.4 2 0 0.1 0.5 2.3 0.8 2.7 0.3 0.4 0.8 1.8 1 2.3 0.2 0.4 0.7 0.9 0.5 1.4-0.1 0.5-0.4 0.9-0.1 1.2 0.3 0.4 0.6 1.1 0.6 1.6-0.1 0.5 0 0.7-0.4 1-0.4 0.3-1.2 1.4-1.2 1.7 0 0.3-0.2 1.3-0.1 1.4 0.1 0.1 1.4 1.2 1.8 1.2 0.4-0.1 1.3 0 1.9 0.4 0.7 0.3 4.6 1.8 4.9 1.9 0.3 0.2 3.4 0.8 4 0.8 0.6 0 3-0.1 3.5 0.2 0.6 0.4 1.7 0.5 1.8 0.5 0.2-0.1 1.9-0.5 2.4-0.6 0.6 0 7.5-0.1 7.9-0.2 0.3 0 3.4-1 4.1-1.5 0.7-0.4 1.3-1.5 2.1-1.5 0.7-0.1 2-0.1 2.6-0.3 0.2 0 4.5-2.1 4.3-2.4-0.1-0.2-1.7-0.9-2.2-1.1-0.5-0.2-1.3-0.4-1.7-1.2-0.5-0.7-0.3-2.2 0.1-2.4 0.3-0.2 2.1-1.3 2.8-1.7 0.1-0.1 2.9-1.9 3.5-2.5 0.6-0.6 1.2-2.1 2.1-2.2 0.9 0 1.5-0.4 2.1-0.8 0.6-0.3 2.2-1.3 2.4-1.2 0.3 0.1 1.4 1.6 2 2 0.6 0.3 4 0.3 4.7-0.1 0.7-0.4 2.5-1.9 2.6-2.5 0.1-0.5 2.2-3 2.6-3.1 0.4-0.2 2.6-0.6 3.3-0.8 0.7-0.1 1.7-1.5 1.7-2-0.3-0.4-1.6-2.4-2.2-2.8-0.5-0.3-4.4-0.5-4.9-0.5-0.5 0-3.5 0.8-3.8 0.7-0.3-0.2-1.9-1.3-2.5-1.5-0.7-0.3-2-0.5-2-0.9 0-0.4-0.1-3 0.1-3.6 0.1-0.7 0.7-1.7 0.8-2.3 0.1-0.6 0.2-2.4 0.1-2.9 0-0.6-0.2-3.2-0.3-3.3 0-0.1-0.8-2.1-0.8-2.1 0 0-0.6-3.6-0.5-4 0.1-0.4 0.8-3 1-3.2 0.1-0.2 2.5-2.7 2.7-3 0.3-0.2 3.1-1.4 3.8-1.6 0.8-0.1 3.3-2 3.5-2.3 0.3-0.4 1.5-2.3 1.5-2.3q-0.1 0-0.1 0h0.1q0.3 0.4 0.8 0.6c0.6 0.2 0.8 0.8 1.2 1.2 0.4 0.3 0.7 0.6 1.2 0.7 5.2 2.8 11.1 3.4 16.1 5.9 1.8 0.7 3.2 1 4.9 1.9 0.5-0.6 0.8-1.4 1.5-1.9 0.6-1 0.9-2.5 2.2-2.8 0.9-0.3 1.9-0.6 2.7-1.3 0.7-0.3 0.9 0.3 1 0.9 0.3 0.8 1 1.6 1 2.5 0.6 0 0.8 0.7 1.4 0.7 0.5 0.1 1.2-0.1 1.2-0.7 0.3-0.3 1.2 0.4 1.4-0.2 0.3-0.5 0.8-0.9 1.5-0.8 0.9-0.3 1.7-0.7 2.3-1.5q1.3-0.7 2.4-1.6c0.6-0.3 1.1-0.4 1.8-0.3 1-0.2 1.7-1.1 2.6-1.7 1 0.1 2.1 0.1 3.1-0.3 0.5 0 1.1 0.3 1.5-0.1 0.5 0 1.2-0.5 1.6 0.1 0.4 0.4 1 0.7 1.5 0.7 1.1-0.2 2.1-0.3 3-0.8 0.6-0.1 1 0.4 1.4 0.8 0.2 0.5 0.5 1 1.2 0.9 0.8-0.1 1.3-0.7 2.1-0.9 0.3 0.5 0.7 0.8 1.2 1.1 0.6-0.2 0.7 0.5 1.3 0.7 1 0.2 1.1 1.2 1.7 1.8-0.4 0.7 0.6 0.8 1 1.1l0.3 0.2c1.3-0.7 2.9-0.6 4.2-1.5 0.9-0.3 1.7-1.1 2.6-1.2 1.5 0 3.2 0.4 4.5-0.6 1.4-0.6 2.9-1.2 4.4-1.5 1.3-0.3 2.6 0.7 2.8 2 0.2 0.7 0.3 1.4-0.1 2.2-0.2 0.8-0.8 2.1 0.3 2.6 1.2 0.5 2.7-0.2 3.8 0.6 0.4 0.3 1.2 1.8 1.3 0.7 0.1-0.8 0.6-1.5 1.1-2 0-1.7-1.1-3.3-0.5-4.9 0.4-0.9 1-2 2.1-1.9 0.7 0.2 1.2 1.1 1.7 1.2 1.2-0.6 2.8-0.6 3.7 0.6 0.2 0.8-0.7 1.3-1.1 1.6 0.4 1.1 1.3 2 2.1 3 0.7-0.3 1.6 0.3 1.9-0.7 0.6-0.4 1.3-1 2.1-0.8 0.7-0.5 1.3-1.2 1.9-1.7 1 0.2 1.5-0.5 1-1.3-0.5-0.8 0.1-1.4 0.3-2.1 1.5-1.7 3.9-1.3 5.7-2.5 0.5-0.3 0.9-1.2 1.5-1.2q0.2 0 0.3 0.1zm-444.1 94.9c0.1 0.3 0.4 0.9 0.7 1.2 0.3 0.2 1.7 0.6 2 0.6 0.2-0.1 0.4-0.4 0.4-0.7l3.2 0.1q0.1 0.2 0.2 0.3c0.3 0.3-0.4 1.2-0.7 1.6-0.3 0.4-0.4 1.2-0.5 1.7-0.1 0.4-0.8 1.5-1.2 1.8-0.3 0.3-2.5 1.3-3 1.2-0.4 0-1 0-1.6 0.1-0.5 0.2-0.7 0-1.2-0.1-0.5-0.1-1.5 0.5-1.9 0.9-0.5 0.3-0.6 1.6-0.7 2.2 0 0.6 0.5 1.4 0.7 1.7 0.2 0.4 0.1 1.4 0.1 1.9 0 0.5-1.3 3.2-1.4 3.6-0.1 0.5-0.1 1.3-0.2 1.7 0 0.3-1.3 2.1-1.7 2.7-0.3 0.7-0.8 2.3-0.8 3-0.1 0.6 0.3 2.9 0.5 3.4 0.2 0.4 0.6 2.1 0.4 2.5-0.2 0.4-0.5 0.5-0.9 0.7-0.3 0.2-0.8 1.2-1 1.4-0.3 0.3-0.8-0.1-0.8-0.1-0.1-0.1-0.2 1-0.4 1.3-0.3 0.4-0.8 1.5-1 1.8-0.2 0.3-1 0.1-1.4-0.1-0.4-0.1-1.5-1.3-1.8-1.6-0.4-0.3-0.5-0.9-0.3-1.1 0.2-0.2 0.7-0.8 0.8-1.3 0.1-0.4-0.2-1.3-0.3-1.4-0.1 0 0.1 1.4 0 1.6-0.1 0.1-0.9 0.8-0.9 1.2 0 0.4 0.4 1.3 0.8 1.7 0.4 0.5 0.6 1 0.7 1.5 0.1 0.5 0.1 1.2-0.2 1.4-0.2 0.3-1.3 0.4-1.6 0.4-0.3-0.1-1 0-1.4-0.3-0.4-0.3-1.1-0.9-1.5-1.1-0.4-0.1-0.7-0.9-1.2-1.4-0.4-0.6-0.8-0.7-1.1-1.2-0.3-0.4-1-1.8-1.4-2-0.4-0.3-0.3-0.5-0.3-0.8 0-0.4 0.6-0.8 0.7-1.3 0.1-0.5 0.4-0.9 0.7-1.5 0.3-0.6 0.5-1 0.8-1.1 0.2-0.1 0.2-0.9 0.2-1.4 0-0.5 0.4-1.2 0.4-1.6 0.1-0.5-0.1-0.8-0.4-1.2-0.2-0.4-0.7-2.1-0.7-2.7 0-0.6 0.4-2.3 0.5-2.5 0.1-0.1 1.3-0.3 1.8-0.4 0.5 0 1.1-0.5 1.3-1 0.2-0.4 0.6-1.1 0.9-1.2 0.3-0.1 0.9-0.9 1.3-1.4 0.3-0.5 0.1-1.6 0.1-1.9 0.1-0.3 1-1.8 1.1-2.1 0-0.3 0.9-1.9 1.1-2.3 0.1-0.4 1-1 1.3-1.1 0.3-0.1 1.3 0.2 1.7 0.4 0.5 0.2 2.5 0.1 3.1 0 0.6-0.1 1.7-0.9 2-1.4 0.3-0.5 0.5-1 0.8-1.4 0.2-0.4-0.1-0.7-0.3-0.9-0.3-0.2-0.1-1 0-1.4 0.1-0.4 1-1.9 1.2-2.2 0.3-0.4 1.3-1.3 1.8-1.3 0.5-0.1 0.5 0.5 0.5 0.9zm14.4 1.4c-0.2 0.6-0.3 1.2-0.3 1.3 0.1 0.3 0.7 1.1 1 1.2 0.3 0.1 1.1 0.3 1.4 0.6 0.2 0.2 1 0.3 1.2 0.6 0.3 0.4-0.5 1.7-0.8 1.9-0.3 0.2-1.3 1.2-1.7 1.4-0.4 0.1-1.5 0.6-1.8 1-0.4 0.5-1.2 1.9-1.2 2.3 0 0.3-0.4 2.4-0.7 2.7-0.3 0.3-1.2 0.9-1.8 1-0.5 0.1-1 0.3-1.3 0.7-0.3 0.4-0.3 0.6-0.7 0.4-0.3-0.2-0.8-0.4-1.1-0.4-0.3 0-0.5-0.9-0.4-1.1 0.2-0.2 1.5-0.8 1.8-1 0.4-0.3 0.2-0.7 0.5-0.9 0.4-0.2 0.7-0.6 0.6-1 0-0.4-0.3-1.3-0.1-1.6 0.1-0.4 0.2-1.6 0.2-1.9 0-0.3-0.2-0.9-0.2-0.9 0 0 0.1 1.3-0.1 1.7-0.1 0.5-0.4 2-0.2 2.2 0.2 0.2 0.3 0.7 0.1 0.9-0.3 0.2-0.8 0.6-0.8 1 0 0.3-0.9 0.8-1.3 0.9-0.5 0-0.9 0.1-0.9 0.2 0 0.1-0.4 0.7-0.2 1 0.2 0.3 1.3 1.3 1.5 1.4 0.1 0 0.4 0.9 0.2 1.2-0.1 0.2-0.5 1.4-0.8 1.7-0.2 0.3-0.8 0.9-0.9 1.2-0.1 0.4-0.7 1.2-0.7 1.4 0 0.2-0.2 0.9-0.6 1.1-0.4 0.2-0.5 0.5-0.7 0.4-0.3-0.1-1.2-1-1.3-1.2-0.1-0.3-0.7-1.2-0.7-1.1 0 0.1 0.4 0.9 0.5 1.2 0.2 0.2 1.2 1.2 1 1.4-0.1 0.1-0.5 0.4-0.8 0.3-0.4-0.1-1.9-1-1.9-1 0 0-0.1-1-0.4-1.3-0.4-0.4-1.3-0.7-1.7-0.7-0.5 0-1 0-1.4 0.2-0.4 0.2-0.5 0.3-0.9 0.3-0.5 0-0.9-0.1-0.8-0.2 0.2-0.2 0.7-0.8 0.8-1 0.1-0.2 0.3-1.2 0.2-1.5 0-0.3-0.1-0.9 0-1.1 0.1-0.2 0.6-0.8 0.6-1 0-0.1 0.5-1.2 0.5-1.4 0.1-0.2 0.5-1 0.5-1 0 0 0.1-0.8 0-0.9 0-0.1-0.4-2-0.6-2.3-0.2-0.3-0.6-0.9-0.3-1.2 0.3-0.4 0.7-1 1.3-1.1 0.7-0.2 2.2-0.2 2.6-0.2 0.5 0 0.8-0.1 1.4 0 0.6 0.1 1.7-0.1 2.2-0.3 0.5-0.3 1.8-2.1 2-2.4 0.3-0.2 0.3-1.4 0.6-1.9 0.4-0.4 0.4-0.9 0.3-1.2-0.1-0.3 0.1-1.1 0.4-1.3 0.1-0.1 0.3-0.5 0.4-0.9zm5.5 0.1q0 0.1 0 0.1c-0.4 0.3-0.8 1.4-0.9 1.7-0.1 0.4-0.8-0.2-1.1 0-0.3 0.2-1.2 0.2-1.9 0.2-0.6-0.1-0.9-0.9-0.9-1.4 0-0.2 0.1-0.4 0.2-0.6zm4 0c0.1 0.2 0.2 0.4 0.2 0.5 0.3 0.3 0.3 0.9 0.4 1.6 0.1 0.6 0.6 2.7 0.8 3.2 0.2 0.5 0.1 3.2-0.1 4-0.2 0.8-2.1 2.2-2.4 2.7-0.4 0.5-1.7 1.3-2.2 1.4-0.5 0.1-2.5 0.7-3.1 0.5-0.5-0.2-1-0.8-1.3-1.4-0.3-0.6-1-0.5-1.4-0.6-0.3-0.1-0.4-0.4-0.1-0.9 0.3-0.5 0.3-1.4 0.2-1.9-0.2-0.5 0.8-0.8 1.4-1 0.6-0.1 1.7-0.8 2.1-1 0.5-0.1 1.5-1.6 1.3-2.2-0.2-0.6 0.5-1.2 0.5-1.8 0-0.6 0.3-2.6 0.3-2.8-0.1-0.2 0.9-0.1 1.3-0.2q0.2 0 0.4-0.1zm-9.5 17.9c0.3 0.3 1.4 0.5 1.4 0.5 0 0 0.3 0.5 0.3 1 0.1 0.5 1.2 1.3 1.3 1.4 0 0-0.7 0.6-0.9 0.9-0.3 0.3-0.5 1.4-0.3 2.1 0.2 0.8 1.3 1.2 1.5 1.6 0.2 0.5-0.9 1.7-1 2.1-0.1 0.4-1.1 0.7-1.3 1.1-0.3 0.4-1.8 0.9-1.8 0.9 0 0 0.2-0.9 0-1.1-0.2-0.3-1.1-0.1-1.3-0.1-0.2 0 0.6 0.3 0.9 0.5 0.3 0.3-0.2 0.4-0.5 0.6-0.2 0.2 0.2 1.1 0.2 1.1 0 0-0.5 0-0.8 0-0.3 0-1.8 0.4-1.8 0.4 0 0-0.3-0.6-0.4-0.8 0-0.1-0.9-0.3-1.3-0.7-0.4-0.4-0.5-1-0.5-1.4 0-0.3 0.2-1.5 0.1-1.9-0.1-0.3 0-2.3 0.2-2.6 0.3-0.3 0.4-0.7 0.6-1.2 0.1-0.5-0.4-1.3-0.2-1.4 0.2-0.2 0.3-0.7 0.6-1.2 0.3-0.5 1.7-0.9 2.4-0.8 0.7 0.1 1-0.7 1.4-1 0.1-0.2 0.4-0.2 0.6-0.2 0.3 0 0.5 0.1 0.6 0.2zm18.8 0.5c0.1 0-0.1 0.4-0.7 0.4-0.4 0-1 1.1-1.2 1.2-0.2 0.1-0.3 0-0.3-0.2 0.1-0.2 0.7-1 1.1-1.3 0.1-0.1 0.4-0.1 0.6-0.2 0.2 0 0.4 0.1 0.5 0.1zm-2.6 2c-0.1 0.2-0.2 0.9-0.2 0.9 0 0.1-0.8 0-0.9-0.1-0.1-0.1-0.1-1-0.1-1.1 0-0.1 0.2-0.2 0.4-0.2 0.3-0.1 0.7-0.3 0.9-0.3 0 0 0.1 0.6-0.1 0.8zm-32.5 0.3c0.4 0.2 1.4 1.1 1.6 1.5 0.2 0.3 0.9 0.8 1.2 0.9 0.3 0 0.9-0.2 1.2 0.1 0.3 0.4 0.9 0.6 1.2 0.4 0.2-0.3 0.9-0.6 0.9-0.9 0.1-0.3 0-0.4 0.2-0.4 0.1 0 0.8-0.3 0.8-0.2 0.1 0.1 0.2 1 0.3 1.3 0.1 0.3-0.5 1.4-0.7 1.8-0.1 0.4 0.2 1.1 0 1.2-0.2 0-0.7 0.4-0.7 0.4 0.1 0 0.6 0 0.6 0 0 0 0 2.1 0 2.4 0.1 0.4 0.4 2 0.3 2.1-0.1 0.2-0.7 0.8-0.8 1.2 0 0.3-0.1 0.8-0.5 1.1-0.3 0.3-0.4 1.2-0.6 1.6-0.2 0.3-0.5 0.6-0.5 0.9 0 0.3-0.4 0.8-0.4 1-0.1 0.2-0.3 0.8-0.2 1.1 0.1 0.4-0.3 1.4-0.4 1.4-0.1 0.1-0.6 1.2-0.9 1.1-0.3 0-0.6-0.2-0.8-0.1-0.2 0.2-0.3 0.7-0.5 1-0.1 0.4-0.7 0.4-0.7 0.7 0 0.4 0.2 0.7-0.1 1-0.4 0.3-0.9 0.5-0.9 0.8-0.1 0.2-0.2 0.6-0.4 0.6-0.1 0-0.7 0.2-0.7 0.2 0 0 0.3 0.2 0.2 0.4-0.1 0.1 0.2 0.8 0 1.1-0.1 0.3-0.4 0.9-0.5 1.1 0 0.2-0.3 0.8-0.6 0.9-0.3 0.1-1 0.4-1.3 0.3-0.3-0.1-1.2-0.1-1.4 0-0.2 0.1-0.6 0.4-0.4 0.6 0.2 0.1-0.3 0.5-0.3 0.7-0.1 0.2-0.3 0.5-0.2 0.5 0.1 0 0.5-0.2 0.7 0 0.2 0.1 0.1 0.3 0.1 0.5 0 0.1 0.1 0.4 0 0.4-0.1 0-1.1 0.1-1.4 0-0.3-0.1-0.8-0.2-0.7-0.4 0.1-0.1 0.9-0.4 0.8-0.6 0-0.3-0.1-0.5-0.1-0.5 0 0-0.2 0.6-0.5 0.6-0.4 0.1-1.5 0-1.6-0.1-0.1-0.1-0.7-0.9-0.9-0.8-0.2 0-0.6 0-0.8-0.2-0.2-0.1-0.3-0.6-0.2-0.8 0.1-0.2 0.1-0.4 0.1-0.4-0.1 0.1-0.4 0.2-0.4 0.4 0 0.3-0.1 1 0.1 1.3 0.3 0.3 0.8 0.7 1 0.7 0.2 0 0.3 0.1 0.6 0.4 0.2 0.2 0.6 0.2 0.5 0.3-0.1 0.1-0.6 0.5-0.9 0.3-0.4-0.1-1.5-0.4-2-0.7-0.5-0.3-1.5-0.6-1.7-0.6-0.3-0.1-1.9-0.6-2.1-0.9-0.2-0.2-0.9-0.4-1.2-0.4-0.3 0-1.1-0.5-1.4-0.8-0.2-0.4-1.4-1.8-1.4-2.1-0.1-0.3 0.2-1.5 0.2-1.8 0-0.3 0.1-1.3 0.2-1.6 0.2-0.3 0.4-0.4 0.5-0.7 0.1-0.2 0.5-0.6 0.8-0.6 0.2 0 0.9 0 1.6 0.6 0.8 0.6 1.5 0.4 1.8 0.2 0.4-0.2 1.1-0.3 1.4-0.2 0.4 0 1.5-0.2 1.7-0.3 0.1-0.1 1.7-0.5 1.9-0.4 0.3 0 0.7 0.1 0.7 0 0 0 0-0.5-0.3-0.5-0.2-0.1-1.2 0.1-1.5 0.3-0.4 0.3-1.3 0.3-1.2 0.2 0.1-0.1 0.9-0.6 1.2-1 0.2-0.3 0.8-1.3 1.1-1.6 0.2-0.3 0.6-0.5 0.9-0.7 0.3-0.3 0.8-0.7 0.9-0.7 0.1 0.1 0.3 0 0.3 0 0 0 0.1-0.6 0.4-0.9 0.3-0.3 1.1-1.4 1.3-1.7 0.2-0.3 0.7-1.3 0.7-1.6 0-0.3 0.5-1.3 0.7-1.4 0.2-0.1 0.3 0 0.6-0.2 0.4-0.2 0.9-0.6 1-0.9 0-0.3-0.2-1.1 0-1.3 0.2-0.2 0.5-0.3 0.6-0.1 0.1 0.3 0.3 1.1 0.4 1.1 0.1-0.1 0.2-1 0-1.2-0.1-0.2-0.6-0.2-0.8-0.6-0.2-0.3 0.1-0.8 0-0.9 0 0-0.3 0-0.4-0.3-0.2-0.3-0.3-0.6 0-0.8 0.2-0.3 0.2-0.4 0.4-0.9 0.3-0.5 0.2-2.9 0.1-3.3q-0.1-0.6-0.2-1.2c0.3-0.1 0.9-0.2 1.3-0.2 0.2 0 0.6-0.2 0.8-0.2q0.2-0.1 0.3 0zm12.5 24.2c0 0.2 0.2 2.1 0.2 2.4 0 0-1.5-0.4-1.9-0.1-0.4 0.3-0.6 1.4-0.7 1.5-0.1 0.1 0-0.4-0.1-0.7-0.1-0.3 0-1-0.1-1.4-0.1-0.4 0.1-1 0.1-1.2 0-0.2 0.5-0.5 1.1-0.7q0.2 0 0.5 0c0.4 0 0.9 0.1 0.9 0.2zm2 9.5c-0.1 0.2-0.4 0.9-0.7 1-0.2 0.2-0.8 0.4-1.3 0.3-0.5-0.2-0.6-0.3-0.9-0.5-0.2-0.2 0.6-0.3 1-0.5 0.4-0.2 0.5-0.6 0.6-0.8 0.1-0.1 1.1-0.4 1.2-0.4 0 0 0.2 0.7 0.1 0.9zm3 13.7c0.1 0.3 0.1-0.4 0.2-0.5 0 0 0.3 0 0.3 0.2-0.1 0.2-0.2 0.9 0.1 1.3 0.2 0.4 0.6 0.7 0.5 0.7-0.1 0-0.5-0.1-0.5-0.1-0.1-0.1-0.7-0.5-0.7-0.8-0.1-0.2-0.2-1.5-0.2-1.5 0 0 0.1 0.4 0.3 0.7zm2.2 5.6c-0.2 0.3 0.5 1.4 0.6 1.5 0 0-0.2 0.3-0.5 0.2-0.3-0.1-0.7-1.3-0.7-1.6 0-0.4 0.9-0.8 1-0.7 0.1 0-0.3 0.2-0.4 0.6zm3 0c0.2 0.2 0.5 0.1 0.6 0.1 0 0 0 0.7-0.1 0.8-0.1 0.2 0.3 0.6 0.4 0.8 0.1 0.2 0.3 0.7 0.3 0.7-0.1 0-0.5-0.2-0.7-0.4-0.1-0.2-0.3-0.4-0.4-0.4-0.1-0.1-0.1-0.5-0.2-0.7-0.2-0.3-0.5-0.3-0.7-0.4-0.2-0.1 0-0.3 0.1-0.4 0-0.1-0.3-0.3-0.3-0.4-0.1-0.1 0-0.1 0.2-0.2q0-0.1 0-0.1c0.2 0 0.5 0.4 0.8 0.6zm1.8 1.3c0.3 0.3 0.6 0.1 0.9 0.4 0.2 0.3 0.8 1 0.8 1.2 0 0.2-0.1 0.3-0.1 0.3 0 0-0.5 0-0.8-0.2-0.3-0.2-0.8-0.6-1.1-0.8-0.2-0.3-0.6-0.8-0.6-1.1 0-0.2 0.2-0.6 0.2-0.6 0 0 0.4 0.6 0.7 0.8zm-3.4 1c0.4 0 0.6 0 1 0.2 0 0-0.4 0.7-0.7 0.8-0.3 0.1-0.1 0.5-0.4 0.5-0.4 0-0.3-0.4-0.5-0.7-0.3-0.3-0.1-1-0.1-1.1 0-0.1 0.3 0.2 0.7 0.3zm6.1 1.6c0.1 0.3 0.3 0.3 0.4 0.4 0 0 0.4 0.3 0.4 0.6 0 0.3 0.1 0.6 0.2 0.8 0.1 0.2 0.3 1 0.7 1.3 0.4 0.4 0.4 0.8 0.5 1 0.2 0.3 0.7 1 0.7 1 0 0-2-1.1-2.2-1.3-0.2-0.2-1.4-1.2-1.7-1.5-0.3-0.3-0.6-1.2-0.9-1.5-0.3-0.3-0.2-1.2-0.2-1.2 0 0 0.6 0.1 1 0.1 0.3 0 1-0.2 1.1-0.2 0 0 0 0.3 0 0.5zm-9.7 3.8c-0.1 0.1 1.1 0.2 1.6 0.1 0.4-0.1 0.6-0.4 0.9-0.4 0.3 0 1 0.5 1.2 0.5 0.1 0.1-0.2 0.4-0.5 0.6-0.3 0.3-0.7 0.5-1 0.5 0 0 0.8 0.6 1.2 0.9 0.4 0.2 0.4 0.8 0.4 0.9 0 0.2-0.6 0.2-1 0.2-0.4 0-1.9 0.2-2.1 0.1-0.2-0.1-0.7-1.1-0.8-1.5-0.1-0.4-0.6-2-0.5-2.2 0.2-0.2 0.7-0.1 0.9-0.2q0 0 0 0c0 0.1-0.3 0.4-0.3 0.5zm10.2 3.1c0.1 0.2 0.6 0.3 0.8 0.2 0.2-0.1 0.7 0.2 0.9 0.2 0.1 0.1 0.2-0.4 0.7-0.4 0.4 0 0.5 0.3 0.6 0.6 0.1 0.4 0.9 0.4 1.1 0.7 0.1 0 0 0.5-0.3 0.5-0.3 0-0.5 0-0.6 0-0.1 0 0.2 0.5 0 0.6-0.1 0.1-0.3 0-0.5-0.1-0.2-0.1-0.5 0.1-0.8-0.1-0.2-0.2-0.5-0.2-0.7-0.2-0.3 0-0.6-0.3-0.7-0.5-0.2-0.1 0-0.2 0.1-0.4 0-0.1-0.2-0.1-0.4-0.1-0.2-0.1-0.8-0.6-1-0.8-0.2-0.1 0.5-0.4 0.5-0.4 0 0 0.1 0 0.3 0.2zm-3.9 0.3q0 0 0 0zm0 0c0 0 0.1 0.7 0.1 1 0 0.3 0.3 0.9 0.5 1 0.2 0.1 0.5 0.1 0.6 0.4 0.2 0.2 0.5 0.2 0.7 0.5 0.2 0.2 0.4 0.6 0.6 0.7 0.1 0-0.1-0.3-0.2-0.4-0.2-0.1 0-0.6-0.3-0.8-0.3-0.3-0.4-0.7-0.4-0.8 0 0 0.2-0.1 0.4-0.1 0.3 0 0.7 0.2 0.9 0.5 0.2 0.2 0.3 0.1 0.5 0.1 0.1-0.1 0-0.4-0.2-0.5-0.1-0.1-0.5-0.4-0.5-0.4-0.1-0.1 0.1-0.3 0.2-0.5 0.1-0.1 0.4 0.2 0.7 0.4 0.3 0.3 0.4 0.4 0.6 0.5 0.3 0.1 0.8 0.5 1 0.4 0.1 0 0.5 0 0.7 0.3 0.2 0.3 0.3 0.6 0.4 0.6 0 0-0.2 0.9 0 1.2 0.1 0.3 0.6 1.5 0.5 1.5-0.2 0-0.6-0.2-0.8-0.2-0.2 0.1 0 0.4 0 0.5-0.1 0.2-1 0.1-1.2 0.1-0.2 0-1.1 0.4-1.4 0.4-0.3 0.1-0.7 0.4-0.9 0.6-0.3 0.1-1.1 0.1-1.1 0.1 0 0 0 0.1 0.3 0.3 0.2 0.3 0.6 0 0.8 0.1 0.2 0.1 0.7 0.6 0.7 0.6 0 0.1-0.4 0.1-0.6 0.1-0.1 0.1-0.7 0-0.8 0-0.1 0.1 0.8 0.6 0.9 0.7 0 0.1-0.4 0-0.8 0-0.3 0-0.3-0.1-0.6-0.3-0.2-0.1-1-0.2-1.3-0.4-0.4-0.1-0.7-0.5-0.8-0.7-0.1-0.3-0.7-0.5-1-0.6-0.2-0.1 0-0.4 0-0.7 0-0.4-0.5-1.2-0.6-1.6-0.2-0.5 0.2-1.2 0.2-1.2 0 0 0.3 0.6 0.3 0.8 0.1 0.3 0.7 0.5 0.9 0.7 0.2 0.3 0.4 0.5 0.5 0.6 0.1 0 0-0.4 0-0.4 0-0.1 0.4-0.4 0.6-0.4 0.2 0 0.3 0.2 0.4 0.3 0 0 0.4 0 0.6 0.1 0.1 0 0.3 0 0.3 0 0 0-0.3-0.2-0.4-0.2-0.1 0 0-0.3 0.1-0.5 0-0.1 0.1-0.5 0.3-0.5 0.2-0.1 0.8-0.1 0.8-0.1 0 0-0.5-0.2-0.6-0.2-0.1-0.1-0.8 0.1-0.9 0.1-0.1 0.1-0.4-0.1-0.5-0.2-0.1-0.2-0.3-0.3-0.4-0.4-0.1 0 0-0.2 0-0.4-0.1-0.2-0.2-0.2-0.2-0.2 0 0-0.1-0.5 0-0.7 0-0.2 0.1-1.1 0.1-1.3 0-0.3 0.3-0.5 0.3-0.5zm216.1 25.8c0.3 0.1 0 1.2 0 1.3q-0.2 0.2-0.4 0.3c-0.1 0.2-0.6 0.2-0.9 0.1-0.3-0.1-1.1-0.2-1.6-0.1-0.5 0.1-1.2 0.2-1.4 0.2-0.2 0-1 0.6-1 0.6 0 0-0.2-0.1-0.5-0.2-0.2-0.2-0.3-1.1-0.3-1.2 0 0 0.9 0 1.2-0.2 0.4-0.1 0.3-0.3 0.5-0.4 0.1-0.2 1.7-0.3 2.2-0.2 0.4 0.1 0.9 0.2 1.2 0 0.3-0.1 0.5-0.2 0.8-0.2q0.1 0 0.2 0zm1.2 1.7c0.2 0 0.6 0 0.8 0.3 0.2 0.3 0.5 1.1 0.8 1.3 0.4 0.2 0.7 0.6 0.8 0.9 0.1 0.2-0.2 0.9-0.4 1.1-0.3 0.2-0.7 0.7-0.7 1.1 0.1 0.4 0.6 1 0.7 1.3 0.1 0.3-0.1 0.9-0.5 0.9-0.3 0-0.9 0.8-0.9 1.1 0 0.3 0.3 1.1 0.6 1.3 0.2 0.2 1.3-0.2 1.6 0 0.3 0.2 0.7 0.4 0.9 0.4 0.3 0 0.7 0.1 0.7 0.1 0 0-0.1 1.4-0.1 1.7 0 0.4-0.1 1.6-0.3 1.8-0.1 0.1-0.2 0.3-0.4 0.4-0.2 0.1-0.9 0.2-1.1 0.1-0.3-0.1-0.6-0.3-0.6-0.3 0 0.1 0.7 0.8 1 0.7 0.3 0 0.7-0.3 1-0.2 0.3 0.1 0.4 0.6 0.3 0.8 0 0.3 0.1 1.7 0.1 2.1-0.1 0.3 0 1.3-0.3 1.8-0.3 0.4-0.7 1.7-0.9 1.9-0.2 0.2-2.8 1.5-3.3 1.6-0.4 0.1-2.4-0.4-2.9-0.6-0.4-0.1-2.2-0.7-2.3-0.9-0.1-0.2 0.5-0.6 0.1-0.7-0.4-0.1-1.1-0.3-1.4 0-0.2 0.2-1.4 0.1-2-0.2-0.6-0.2-1.6-0.8-1.9-1.2-0.3-0.3-1-0.4-1.4-0.9-0.4-0.5-0.8-0.8-1.2-0.8-0.3-0.1-0.4-0.5-0.7-0.6-0.3-0.1-0.5 0-0.8-0.3-0.2-0.3-0.6-1.2-0.5-1.6 0.1-0.4 0.3-1.7 0.2-2.8-0.2-1.1-0.3-1.4-0.2-1.8 0.1-0.5 0-1.1-0.4-1.6-0.3-0.4-0.6-0.9-0.5-1.3 0.2-0.4 0-2.5 0.1-2.7 0.1-0.1 0.9-1.2 1.1-1.2 0.2-0.1 0.9-0.1 1.2-0.3 0.4-0.2 2.5-1.3 2.8-1.4 0.4-0.2 1-0.2 1.3-0.4 0.2-0.1 0.7-0.4 0.8-0.6 0.1-0.2 0.3-0.5 0.5-0.3 0.2 0.1 0.7 0.7 1 0.7 0.3 0 0.7 0.4 0.9 0.3 0.2-0.1 0.5-0.5 0.8-0.5 0.4 0 1.3 0 1.6-0.1 0.3-0.1 1.9 0.2 2.2 0.1 0.6-0.1 0.7-0.4 0.9-0.8 0.2 0.1 0.7 0.3 0.9 0.3zm14.8 5.3c0 0 0 0.2 0 0.3-0.1 0.1-0.6 0.5-0.8 0.7-0.2 0.2-0.6 0.6-0.9 0.7-0.2 0.2-1.2 1.5-1.4 1.8-0.1 0.3-0.8 1-0.8 1 0 0 0-0.2 0.2-0.4 0.2-0.3 0.3-1.2 0.5-1.5 0.2-0.3 0.8-1.2 1.5-1.6 0.6-0.4 1.5-0.8 1.7-1zm-10 0.3c0 0 0 0.5-0.2 0.6-0.2 0.1-0.5 0.5-0.6 0.7 0 0.3 0.1 0.9 0.2 1 0.1 0.1 0.1 1.3 0.1 1.3 0 0-0.3 0-0.5 0-0.3 0-0.5-0.2-0.8-0.2-0.2 0.1-1.1 0-1.2-0.1-0.2 0-0.7-0.5-0.7-0.5 0 0 0.1-0.5 0.3-0.7 0.1-0.2 0.3-0.5 0.6-0.6 0.3-0.1 0.5-0.8 0.8-0.9 0.3 0 1.1-0.2 1.3-0.5q0.2-0.2 0.3-0.2 0.2 0 0.4 0.1zm5.4 3.4c-0.1 0.4-1.3 2.9-1.5 3.3-0.2 0.4-1.5 1.9-1.5 1.9 0 0-0.5-0.5-0.7-0.7-0.1-0.3 0.1-1.4 0.1-1.7 0-0.3 0.6-1.2 0.8-1.6 0.3-0.3 1.8-1.3 1.9-1.6 0.2-0.3 1.2-1.5 1.4-1.6 0 0-0.5 1.6-0.5 2zm-0.5-1.2c-0.1 0.1-0.4 0-0.5 0.3-0.2 0.3-0.7 0.9-1 1.1-0.4 0.3-1.1 1-1.2 1.1 0 0 0.3-0.9 0.5-1.3 0.2-0.4 1-1.2 1.1-1.5 0.2-0.3 0.8-0.2 1.3-0.3 0 0-0.2 0.4-0.2 0.6zm-51.1 59.2c0.5 0.1 0.7 0.1 1 0.2 0.2 0.2 0.5 1.9 0.5 2.3-0.1 0.3-1.7 1.7-2 1.9-0.3 0.3-0.8 0.2-1.2 0.2-0.3-0.1-0.9 0.6-1.2 0.8-0.4 0.2-0.9 0.2-1.1 0.2 0 0-0.6 0.1-0.9-0.1-0.3-0.1-0.8 0.3-1.3 0.3-0.5 0-0.9-0.4-1-0.7-0.2-0.3 0.5-2.7 0.7-3.2 0.2-0.4 0.7-0.4 0.9-0.2 0.3 0.2 1.4-0.6 2.1-0.8 0.6-0.1 1.5-0.9 1.9-1.2q0.1-0.2 0.3-0.2c0.4 0 0.8 0.4 1.3 0.5zm-10.8 5.5c0 0 0.5 0.3 0.6 0.4 0.1 0 0.2 0.5 0.2 0.9 0.1 0.3 0.9 1 1.1 1.2 0.2 0.2 0.2 1-0.2 1.3-0.3 0.3-0.5 0-0.8-0.1-0.3-0.1-0.5 0.3-0.6 0.3-0.1 0-1.5 0.7-1.6 0.8-0.1 0-1.7-0.3-2.1-0.3-0.3 0-0.3 0.2-0.3 0.2 0 0-0.8-0.5-1-0.7-0.2-0.2-0.9-0.4-1.4-0.4-0.6-0.1-1.5-0.6-1.7-0.7-0.2-0.1 0.1-0.7 0.4-0.6 0.4 0 2.8 0.7 3.2 0.9 0.5 0.1 1-0.2 1-0.5 0-0.3-0.3-0.8-0.1-1.2 0.2-0.5 0.3-1.1 0.5-1.5 0.2-0.4 0.5-0.2 0.4 0 0 0.2 0.2 0.3 0.5 0.1 0.2-0.2-0.2-0.3-0.4-0.4-0.3-0.1 0.3-0.3 0.7-0.4q0.1 0 0.2 0c0.4 0 1 0.4 1.4 0.7zm2.7-0.4c0.3 0 0.9 0.7 1 0.8 0 0-0.5 1-0.8 1.2-0.3 0.2-1.3-0.3-1.6-0.4-0.3-0.2 0.1-0.7 0.3-1.3 0.1-0.2 0.3-0.3 0.5-0.3 0.2 0 0.4 0 0.6 0zm-74.6 3.5c0.4-0.1 0.7 0 1.1 0 0.4 0 1.4-0.3 1.8 0 0.4 0.3 1 1.4 1 1.5 0 0-0.5 0.4-0.6 0.6-0.2 0.2-1.1 0.6-1.4 0.5-0.4-0.2-1.3-0.2-1.6-0.4-0.2-0.1-2.2-1.6-2.2-1.9 0.1-0.4 0.5-0.6 0.8-0.8q0.1 0 0.1 0c0.3 0 0.8 0.5 1 0.5zm-22.8 6.2c0.4 0.2 1 0.9 1.1 1 0.1 0-0.3 0.4-0.4 0.4-0.1 0.1-0.2 0.6-0.4 0.7 0 0-0.5-0.3-0.7-0.2-0.2 0.1-0.5-0.2-0.6-0.5-0.1-0.2-0.6 0.2-0.8 0.1-0.2 0-1-0.3-1.3-0.2-0.4 0.1-0.9 0.8-1 0.9 0 0 0.1 0.5 0.3 0.7 0.2 0.3-0.3 1.1-0.4 1.4-0.1 0.3 0.1 0.5 0.1 0.7 0.1 0.2-0.1 0.6-0.3 0.7-0.3 0.2-1.4 0.3-1.6 0.4-0.2 0.1-0.2 0.7-0.2 1-0.1 0.3-0.6 0-0.6 0 0 0 0.1-1.2 0-1.3q0-0.1 0.4-0.1c0.3 0 0.3-0.3 0.3-0.5 0-0.3 0.6-0.5 0.5-0.6 0-0.1-0.2-0.9-0.1-1.1 0.1-0.2-0.2-0.9-0.3-1.2-0.1-0.3 0.3-0.2 0.6-0.2 0.3 0 0.7-0.5 1-0.6 0.3-0.1 2.1-1 2.6-1.3 0.4-0.2 1-0.2 1.4-0.2q0.3 0 0.4 0zm20 0.6c0.3 0.1 1.5-0.1 1.9 0.2 0.4 0.4 0.6 1.2 0.6 1.5l-0.8 1c0 0-1.4 0.1-1.8 0-0.3-0.1-0.9-0.2-1-0.5-0.1-0.3-0.6-0.3-0.7-0.4-0.1 0 0.8-1.8 1-2q0 0 0 0c0.2 0 0.5 0.2 0.8 0.2zm40.3 2.6c0.3 0.1 0.7 1.3 0.7 1.5 0 0.2-0.2 0.7-0.3 0.8-0.1 0.1 0.9 0.4 1.3 0.6 0.3 0.3-0.2 1-0.8 1.3-0.6 0.4-1.2 1.5-1.5 1.8 0 0-1.9-0.6-2.4-1.2-0.6-0.5-2.5-1.3-2.9-1.6-0.4-0.4-0.5-1-0.7-1.2-0.2-0.3 0.8-0.9 1.3-1.3 0.6-0.5 1.5-0.4 1.7-0.4 0.2 0.1 0.9-1.2 1.6-1.3 0.7 0 1.8 1 2 1zm397.6 19c0 0-0.3 0.5-0.6 0.6-0.3 0.1-0.7 0.7-0.9 1.2-0.2 0.4-0.8 1.7-0.8 1.9-0.1 0.2-0.6-1-0.6-1-0.1-0.1 0-0.9 0.3-1.2 0.2-0.4 0.3-0.6 0.7-0.9 0.4-0.2 1.4-0.6 1.8-0.6q0.1 0 0.1 0zm-5.7 81.8c0.3 0.2 1.2 0.2 1.5 0.2 0.3 0 0.7 0.1 1 0.3 0.3 0.2 0.9 0.2 1 0.2 0 0-0.9 0.8-1.2 1.1-0.4 0.2-1.3 0.3-1.8 0.3-0.4 0-1.1-0.4-1.6-0.8-0.5-0.4-1.1-0.1-1.6-0.3-0.5-0.1-1.4-0.5-1.4-0.5 0 0 0.3-0.8 0.6-0.9 0.4-0.2 1.2-0.3 1.6-0.4 0.4 0 1.6 0.5 1.9 0.8zm-18.5 1.8c0.4 0.1 1.1 0.7 1.1 0.7 0 0 0.1 0.6 0.1 0.9 0 0.3-0.7 0.6-0.9 0.8-0.2 0.2-1.2 0.2-1.4 0.1-0.3 0-0.7-0.7-1-0.8-0.3-0.1-1.2-0.3-1.4-0.4-0.2-0.1 0.5-0.1 0.7-0.3 0.2-0.2 0.7-0.4 1-0.5 0.3-0.2 1.2-0.5 1.6-0.5q0.1 0 0.2 0zm-45.9 7.8c0.2 0.4 0.7 0.4 0.8 0.7 0.1 0.5 0.2 1.1-0.5 1.4 0 0-0.2-0.4-0.2-0.7 0-0.2-0.4-0.8-0.5-1.1-0.1-0.2-0.1-0.9-0.1-0.9 0 0 0.2 0.2 0.5 0.6zm40.2 59.1c0.5 0 1.1 0.4 1.6 0.5 0.4 0.1 1 0.7 1.1 0.9 0 0-0.7 1-0.9 1.4-0.2 0.4 0.1 1.6 0.1 2.1-0.1 0.5-0.9 1.6-1 1.9-0.2 0.3-0.9 0.6-1.3 0.4-0.4-0.2-0.7-0.7-0.8-1.1 0-0.4-0.3-0.5-0.6-0.9-0.3-0.3-0.6-2-0.8-2.6-0.1-0.5 0-1.6 0.2-2 0.2-0.4 0.8-0.8 1.2-0.9 0.3 0 0.8 0.3 1.2 0.3zm30.9 105.7c-0.2 0.3-0.5 1.3-0.5 1.3 0 0-0.3 0.6-0.5 0.8-0.2 0.2-0.7 0.6-0.7 0.6 0.9 0.2 1 0.7 1.6 0.8 0.6 0.1 0.9-0.5 1.3 0 0.3 0.5 0.3 0.8 0.9 0.9 0 0 0.8-0.5 1.3-0.5 0.4 0 0.7-0.1 1-0.5 0.2-0.4 0.9-1.1 0.4-1.7-0.5-0.6-0.5-1.6-1.2-2.1-0.2-0.1-0.5-0.2-0.8-0.2-1.1 0-2.6 0.4-2.8 0.6z"/>
</svg>