<?xml version="1.0" encoding="utf-8"?>
<!-- Generator: Adobe Illustrator 27.5.0, SVG Export Plug-In . SVG Version: 6.00 Build 0)  -->
<svg version="1.1" id="Layer_1" xmlns="http://www.w3.org/2000/svg" xmlns:xlink="http://www.w3.org/1999/xlink" x="0px" y="0px"
	 viewBox="0 0 2000 2000" style="enable-background:new 0 0 2000 2000;" xml:space="preserve">
<rect style="fill:#060C19;" width="2000" height="2000"/>
<g>
	<g>
		<path style="opacity:0.5;fill:#FFFFFF;" d="M1614.262,418.378c-46.745,0-90.691-18.204-123.744-51.256
			c-33.053-33.054-51.256-77-51.256-123.744c0-46.745,18.203-90.691,51.256-123.744c33.053-33.054,76.999-51.256,123.744-51.256
			c46.744,0,90.69,18.203,123.743,51.256c33.053,33.053,51.256,76.999,51.256,123.744c0,46.744-18.203,90.69-51.256,123.744
			C1704.952,400.174,1661.006,418.378,1614.262,418.378z M1614.262,91.03c-39.031,0-78.063,14.857-107.776,44.571
			c-59.429,59.428-59.429,156.125,0,215.553c59.428,59.428,156.124,59.428,215.552,0c59.429-59.428,59.429-156.126,0-215.553
			C1692.323,105.887,1653.292,91.03,1614.262,91.03z"/>
		<path style="fill:#FFFFFF;" d="M1730.021,387.364c-7.225,0-14.447-2.756-19.959-8.267c-11.022-11.023-11.022-28.895,0-39.918
			c25.59-25.59,39.683-59.613,39.683-95.801c0-36.19-14.093-70.212-39.683-95.802c-11.022-11.023-11.022-28.895,0-39.918
			c11.023-11.022,28.894-11.022,39.918,0c74.835,74.836,74.835,196.602,0,271.438
			C1744.468,384.608,1737.245,387.364,1730.021,387.364z"/>
	</g>
	<g>
		<path style="opacity:0.5;fill:#FFFFFF;" d="M1608.145,1931.622c-96.495,0-175-78.505-175-175s78.505-175,175-175
			s175,78.505,175,175S1704.64,1931.622,1608.145,1931.622z M1608.145,1604.203c-84.045,0-152.419,68.375-152.419,152.419
			c0,84.045,68.374,152.419,152.419,152.419s152.42-68.374,152.42-152.419C1760.564,1672.578,1692.189,1604.203,1608.145,1604.203z"
			/>
		<path style="fill:#FFFFFF;" d="M1812.224,1692.08c0,29.929-24.262,54.191-54.19,54.191s-54.191-24.263-54.191-54.191
			s24.263-54.19,54.191-54.19S1812.224,1662.151,1812.224,1692.08z"/>
	</g>
	<g>
		<path style="fill:#FFFFFF;" d="M1000,166.243c-14.213,0-25.735-11.522-25.735-25.735V94.113c0-14.213,11.522-25.735,25.735-25.735
			c14.213,0,25.735,11.522,25.735,25.735v46.395C1025.735,154.721,1014.213,166.243,1000,166.243z"/>
		<path style="opacity:0.2;fill:#FFFFFF;" d="M1072.791,196.322c-6.587,0-13.173-2.513-18.198-7.538
			c-10.05-10.05-10.05-26.345,0-36.395l32.756-32.756c10.051-10.05,26.345-10.05,36.396,0c10.05,10.05,10.05,26.345,0,36.396
			l-32.756,32.755C1085.963,193.81,1079.377,196.322,1072.791,196.322z"/>
		<path style="opacity:0.4;fill:#FFFFFF;" d="M1149.265,269.113h-46.323c-14.213,0-25.735-11.523-25.735-25.735
			c0-14.213,11.522-25.735,25.735-25.735h46.323c14.213,0,25.735,11.522,25.735,25.735
			C1175,257.591,1163.478,269.113,1149.265,269.113z"/>
		<path style="opacity:0.5;fill:#FFFFFF;" d="M1105.547,374.659c-6.587,0-13.173-2.513-18.198-7.538l-32.756-32.756
			c-10.05-10.05-10.05-26.345,0-36.395c10.051-10.05,26.345-10.05,36.396,0l32.756,32.756c10.05,10.05,10.05,26.345,0,36.396
			C1118.719,372.147,1112.133,374.659,1105.547,374.659z"/>
		<path style="opacity:0.6;fill:#FFFFFF;" d="M1000,418.378c-14.213,0-25.735-11.522-25.735-25.735v-46.324
			c0-14.213,11.522-25.735,25.735-25.735c14.213,0,25.735,11.522,25.735,25.735v46.324
			C1025.735,406.855,1014.213,418.378,1000,418.378z"/>
		<path style="opacity:0.7;fill:#FFFFFF;" d="M894.454,374.659c-6.586,0-13.172-2.513-18.198-7.538
			c-10.05-10.051-10.05-26.345,0-36.396l32.807-32.807c10.051-10.05,26.344-10.05,36.395,0c10.051,10.05,10.051,26.345,0,36.396
			l-32.806,32.807C907.626,372.147,901.04,374.659,894.454,374.659z"/>
		<path style="opacity:0.8;fill:#FFFFFF;" d="M897.059,269.113h-46.323c-14.213,0-25.735-11.523-25.735-25.735
			c0-14.213,11.522-25.735,25.735-25.735h46.323c14.213,0,25.735,11.522,25.735,25.735
			C922.794,257.591,911.272,269.113,897.059,269.113z"/>
		<path style="opacity:0.85;fill:#FFFFFF;" d="M927.21,196.322c-6.587,0-13.172-2.513-18.198-7.538l-32.756-32.755
			c-10.05-10.05-10.05-26.345,0-36.396c10.051-10.05,26.345-10.05,36.396,0l32.755,32.756c10.051,10.05,10.051,26.345,0,36.395
			C940.382,193.81,933.796,196.322,927.21,196.322z"/>
	</g>
	<g>
		<path style="opacity:0.8;fill:#FFFFFF;" d="M885.553,753.152c2.693-20.583,10.833-39.474,22.916-55.184l-42.8-42.8
			c-22.729,26.967-37.5,60.843-40.669,97.983H885.553z"/>
		<path style="opacity:0.1;fill:#FFFFFF;" d="M1015.056,593.208v60.553c20.583,2.693,39.474,10.832,55.184,22.916l42.8-42.8
			C1086.071,611.148,1052.196,596.375,1015.056,593.208z"/>
		<path style="opacity:0.7;fill:#FFFFFF;" d="M908.469,838.447c-12.083-15.709-20.223-34.601-22.916-55.183H825
			c3.168,37.14,17.94,71.016,40.669,97.983L908.469,838.447z"/>
		<path style="fill:#FFFFFF;" d="M929.761,676.676c15.709-12.083,34.6-20.223,55.183-22.916v-60.553
			c-37.14,3.168-71.015,17.94-97.982,40.669L929.761,676.676z"/>
		<path style="opacity:0.3;fill:#FFFFFF;" d="M1114.447,783.264c-2.693,20.583-10.833,39.474-22.916,55.183l42.8,42.8
			c22.729-26.967,37.501-60.843,40.669-97.982H1114.447z"/>
		<path style="opacity:0.2;fill:#FFFFFF;" d="M1091.531,697.968c12.083,15.709,20.223,34.6,22.916,55.184H1175
			c-3.168-37.14-17.94-71.016-40.669-97.983L1091.531,697.968z"/>
		<path style="opacity:0.5;fill:#FFFFFF;" d="M984.944,882.654c-20.583-2.693-39.474-10.833-55.183-22.916l-42.8,42.8
			c26.967,22.729,60.843,37.501,97.983,40.669V882.654z"/>
		<path style="opacity:0.4;fill:#FFFFFF;" d="M1070.239,859.738c-15.71,12.083-34.601,20.223-55.184,22.916v60.553
			c37.141-3.168,71.016-17.94,97.983-40.669L1070.239,859.738z"/>
	</g>
	<g>
		<path style="opacity:0.9;fill:#FFFFFF;" d="M263.457,709.456c2.369-3.99,4.971-7.825,7.789-11.488l-42.8-42.8
			c-7.912,9.387-14.86,19.61-20.691,30.518L263.457,709.456z"/>
		<path style="opacity:0.85;fill:#FFFFFF;" d="M248.33,753.152c0.715-5.468,1.815-10.815,3.271-16.016l-55.699-23.768
			c-4.181,12.689-6.95,26.012-8.125,39.785H248.33z"/>
		<path style="opacity:0.95;fill:#FFFFFF;" d="M292.538,676.676c4.308-3.313,8.854-6.331,13.61-9.02l-22.581-56.198
			c-12.155,6.167-23.498,13.711-33.829,22.419L292.538,676.676z"/>
		<path style="opacity:0.1;fill:#FFFFFF;" d="M377.832,653.761c5.468,0.715,10.815,1.815,16.017,3.271l23.768-55.7
			c-12.69-4.181-26.012-6.95-39.785-8.124V653.761z"/>
		<path style="opacity:0.2;fill:#FFFFFF;" d="M421.528,668.888c3.99,2.369,7.825,4.971,11.487,7.789l42.8-42.8
			c-9.387-7.912-19.61-14.86-30.518-20.691L421.528,668.888z"/>
		<path style="fill:#FFFFFF;" d="M334.074,656.392c4.451-1.144,9.006-2.024,13.646-2.631v-60.553
			c-12.49,1.065-24.612,3.439-36.226,6.992L334.074,656.392z"/>
		<path style="opacity:0.8;fill:#FFFFFF;" d="M250.961,796.91c-1.144-4.451-2.025-9.006-2.632-13.647h-60.553
			c1.065,12.49,3.439,24.612,6.992,36.226L250.961,796.91z"/>
		<path style="opacity:0.35;fill:#FFFFFF;" d="M497.107,655.169l-42.8,42.8c3.314,4.308,6.331,8.854,9.02,13.611l56.199-22.581
			C513.358,676.842,505.815,665.5,497.107,655.169z"/>
		<path style="opacity:0.5;fill:#FFFFFF;" d="M462.096,826.959c-2.369,3.99-4.971,7.825-7.788,11.487l42.8,42.8
			c7.912-9.387,14.86-19.609,20.69-30.518L462.096,826.959z"/>
		<path style="opacity:0.55;fill:#FFFFFF;" d="M433.016,859.738c-4.308,3.314-8.854,6.331-13.61,9.02l22.581,56.199
			c12.155-6.168,23.498-13.711,33.829-22.419L433.016,859.738z"/>
		<path style="opacity:0.45;fill:#FFFFFF;" d="M477.224,783.264c-0.716,5.467-1.816,10.815-3.272,16.016l55.699,23.768
			c4.181-12.69,6.95-26.012,8.125-39.785H477.224z"/>
		<path style="opacity:0.4;fill:#FFFFFF;" d="M474.592,739.504c1.144,4.452,2.024,9.007,2.632,13.648h60.553
			c-1.065-12.491-3.439-24.612-6.991-36.226L474.592,739.504z"/>
		<path style="opacity:0.65;fill:#FFFFFF;" d="M347.72,882.654c-5.467-0.715-10.815-1.816-16.016-3.271l-23.769,55.7
			c12.689,4.181,26.012,6.95,39.784,8.125V882.654z"/>
		<path style="opacity:0.7;fill:#FFFFFF;" d="M304.025,867.527c-3.99-2.369-7.825-4.971-11.487-7.789l-42.8,42.8
			c9.387,7.912,19.609,14.86,30.518,20.69L304.025,867.527z"/>
		<path style="opacity:0.75;fill:#FFFFFF;" d="M271.246,838.446c-3.314-4.308-6.331-8.854-9.02-13.61l-56.199,22.581
			c6.168,12.156,13.711,23.498,22.419,33.829L271.246,838.446z"/>
		<path style="opacity:0.6;fill:#FFFFFF;" d="M391.479,880.023c-4.452,1.143-9.007,2.025-13.647,2.632v60.553
			c12.491-1.065,24.612-3.439,36.227-6.992L391.479,880.023z"/>
	</g>
	<g>
		<path style="fill:#FFFFFF;" d="M467.748,1117.543c0,16.749-13.578,30.326-30.326,30.326s-30.326-13.577-30.326-30.326
			c0-16.748,13.577-30.325,30.326-30.325S467.748,1100.795,467.748,1117.543z"/>
		<path style="opacity:0.9;fill:#FFFFFF;" d="M412.982,1099.594c-4.587-1.124-9.206-2.062-13.843-2.792
			c-13.019-2.057-26.163-2.553-39.075-1.57c-12.914,0.97-25.62,3.437-37.763,7.314c-12.145,3.872-23.726,9.146-34.449,15.628
			c11.564-4.828,23.594-8.251,35.749-10.217c12.156-1.974,24.434-2.484,36.51-1.597c12.078,0.876,23.938,3.136,35.269,6.706
			c3.977,1.252,7.885,2.673,11.72,4.239C407.153,1110.679,409.328,1104.56,412.982,1099.594z"/>
		<path style="opacity:0.6;fill:#FFFFFF;" d="M257.806,1406.892c0-16.749,13.577-30.326,30.326-30.326
			c16.749,0,30.326,13.577,30.326,30.326c0,16.748-13.578,30.326-30.326,30.326C271.383,1437.218,257.806,1423.64,257.806,1406.892z
			"/>
		<path style="opacity:0.5;fill:#FFFFFF;" d="M401.951,1416.479c-12.156,1.973-24.434,2.484-36.51,1.596
			c-12.078-0.876-23.938-3.135-35.27-6.705c-3.978-1.252-7.885-2.674-11.72-4.24c-0.051,6.627-2.226,12.746-5.88,17.713
			c4.587,1.123,9.206,2.061,13.843,2.792c13.018,2.056,26.163,2.552,39.075,1.569c12.914-0.97,25.62-3.436,37.762-7.314
			c12.145-3.871,23.726-9.146,34.449-15.628C426.136,1411.09,414.106,1414.512,401.951,1416.479z"/>
		<path style="opacity:0.4;fill:#FFFFFF;" d="M507.451,1367.188c-16.749,0-30.326-13.577-30.326-30.326
			c0-16.748,13.578-30.326,30.326-30.326c16.748,0,30.326,13.578,30.326,30.326C537.776,1353.611,524.199,1367.188,507.451,1367.188
			z"/>
		<path style="opacity:0.3;fill:#FFFFFF;" d="M518.634,1259.553c-0.877,12.078-3.136,23.938-6.706,35.27
			c-1.252,3.978-2.673,7.885-4.239,11.721c6.626,0.051,12.746,2.227,17.712,5.88c1.123-4.587,2.062-9.206,2.792-13.843
			c2.057-13.019,2.552-26.163,1.57-39.075c-0.97-12.914-3.436-25.62-7.314-37.763c-3.872-12.145-9.146-23.726-15.628-34.448
			c4.828,11.563,8.251,23.594,10.217,35.749C519.011,1235.198,519.521,1247.477,518.634,1259.553z"/>
		
			<ellipse transform="matrix(0.1484 -0.9889 0.9889 0.1484 -988.6855 1227.0613)" style="opacity:0.8;fill:#FFFFFF;" cx="218.102" cy="1187.572" rx="30.326" ry="30.326"/>
		<path style="opacity:0.7;fill:#FFFFFF;" d="M206.919,1264.882c0.877-12.078,3.135-23.938,6.706-35.27
			c1.252-3.978,2.674-7.885,4.239-11.72c-6.626-0.052-12.745-2.227-17.712-5.881c-1.124,4.587-2.061,9.206-2.792,13.843
			c-2.057,13.019-2.552,26.163-1.57,39.075c0.97,12.914,3.436,25.62,7.315,37.763c3.871,12.145,9.146,23.726,15.627,34.448
			c-4.829-11.563-8.251-23.594-10.217-35.749C206.542,1289.236,206.031,1276.958,206.919,1264.882z"/>
	</g>
	<g>
		<polygon style="opacity:0.05;fill:#FFFFFF;" points="1676.528,1099.762 1670.087,1114.979 1675.903,1129.332 1661.551,1135.147 
			1655.109,1150.365 1691.121,1135.773 		"/>
		<polygon style="opacity:0.45;fill:#FFFFFF;" points="1568.84,1424.673 1575.281,1409.455 1569.465,1395.103 1583.817,1389.287 
			1590.259,1374.069 1554.247,1388.662 		"/>
		<polygon style="opacity:0.25;fill:#FFFFFF;" points="1785.14,1316.062 1769.922,1309.62 1755.569,1315.437 1749.754,1301.084 
			1734.536,1294.643 1749.128,1330.654 		"/>
		<polygon style="opacity:0.7;fill:#FFFFFF;" points="1460.229,1208.373 1475.446,1214.814 1489.799,1208.998 1495.614,1223.351 
			1510.832,1229.792 1496.239,1193.781 		"/>
		<polygon style="opacity:0.15;fill:#FFFFFF;" points="1775.631,1185.418 1760.316,1191.624 1754.279,1205.885 1740.019,1199.849 
			1724.703,1206.055 1760.485,1221.199 		"/>
		<polygon style="opacity:0.55;fill:#FFFFFF;" points="1469.737,1339.018 1485.052,1332.812 1491.088,1318.55 1505.35,1324.586 
			1520.664,1318.38 1484.883,1303.235 		"/>
		<polygon style="opacity:0.35;fill:#FFFFFF;" points="1699.483,1415.164 1693.277,1399.85 1679.017,1393.813 1685.053,1379.552 
			1678.847,1364.237 1663.702,1400.02 		"/>
		<polygon style="opacity:0.9;fill:#FFFFFF;" points="1545.885,1109.271 1552.09,1124.586 1566.352,1130.622 1560.315,1144.883 
			1566.521,1160.197 1581.666,1124.416 		"/>
	</g>
	<g>
		<path style="fill:#FFFFFF;" d="M1017.986,1105.204c0,9.934-8.053,17.987-17.986,17.987c-9.934,0-17.987-8.054-17.987-17.987
			s8.053-17.986,17.987-17.986C1009.934,1087.218,1017.986,1095.271,1017.986,1105.204z"/>
		<path style="opacity:0.65;fill:#FFFFFF;" d="M1017.986,1419.23c0,9.934-8.053,17.987-17.986,17.987
			c-9.934,0-17.987-8.054-17.987-17.987s8.053-17.986,17.987-17.986C1009.934,1401.244,1017.986,1409.297,1017.986,1419.23z"/>
		<path style="opacity:0.45;fill:#FFFFFF;" d="M1157.014,1280.204c-9.935,0-17.987-8.053-17.987-17.986
			c0-9.935,8.053-17.987,17.987-17.987c9.934,0,17.986,8.053,17.986,17.987C1175,1272.151,1166.947,1280.204,1157.014,1280.204z"/>
		<path style="opacity:0.8;fill:#FFFFFF;" d="M842.987,1280.204c-9.934,0-17.987-8.053-17.987-17.986
			c0-9.935,8.053-17.987,17.987-17.987s17.987,8.053,17.987,17.987C860.974,1272.151,852.92,1280.204,842.987,1280.204z"/>
		<path style="opacity:0.35;fill:#FFFFFF;" d="M1123.744,1163.911c-7.024,7.024-18.413,7.024-25.438,0s-7.024-18.413,0-25.438
			s18.413-7.024,25.438,0C1130.768,1145.498,1130.768,1156.887,1123.744,1163.911z"/>
		<path style="opacity:0.7;fill:#FFFFFF;" d="M901.693,1385.961c-7.024,7.024-18.413,7.024-25.437,0
			c-7.024-7.024-7.024-18.413,0-25.438c7.024-7.023,18.413-7.023,25.437,0C908.718,1367.548,908.718,1378.937,901.693,1385.961z"/>
		<path style="opacity:0.55;fill:#FFFFFF;" d="M1098.307,1385.961c-7.024-7.024-7.024-18.413,0-25.438
			c7.024-7.023,18.413-7.023,25.438,0c7.023,7.024,7.023,18.413,0,25.438C1116.72,1392.985,1105.331,1392.985,1098.307,1385.961z"/>
		<circle style="opacity:0.9;fill:#FFFFFF;" cx="888.975" cy="1151.192" r="17.987"/>
		<path style="opacity:0.2;fill:#FFFFFF;" d="M1076.321,1123.828c-3.775,9.188-14.285,13.575-23.474,9.799
			c-9.188-3.775-13.575-14.285-9.799-23.474c3.775-9.188,14.285-13.575,23.474-9.8
			C1075.711,1104.13,1080.098,1114.64,1076.321,1123.828z"/>
		<path style="opacity:0.7;fill:#FFFFFF;" d="M956.952,1414.281c-3.776,9.188-14.286,13.576-23.474,9.8
			c-9.188-3.776-13.575-14.286-9.799-23.474c3.776-9.188,14.286-13.576,23.474-9.8
			C956.34,1394.584,960.727,1405.094,956.952,1414.281z"/>
		<path style="opacity:0.5;fill:#FFFFFF;" d="M1138.39,1338.539c-9.188-3.776-13.575-14.285-9.8-23.474
			c3.776-9.188,14.286-13.575,23.475-9.8c9.188,3.776,13.575,14.286,9.799,23.475
			C1158.087,1337.928,1147.578,1342.315,1138.39,1338.539z"/>
		<path style="opacity:0.85;fill:#FFFFFF;" d="M847.936,1219.169c-9.188-3.776-13.576-14.286-9.799-23.474
			c3.776-9.188,14.286-13.576,23.474-9.8c9.188,3.776,13.576,14.286,9.799,23.474
			C867.634,1218.558,857.124,1222.945,847.936,1219.169z"/>
		<path style="opacity:0.4;fill:#FFFFFF;" d="M1151.824,1218.329c-9.168,3.826-19.701-0.503-23.528-9.67s0.503-19.7,9.67-23.527
			s19.7,0.502,23.527,9.669C1165.32,1203.969,1160.991,1214.502,1151.824,1218.329z"/>
		<path style="opacity:0.75;fill:#FFFFFF;" d="M862.035,1339.303c-9.167,3.827-19.701-0.502-23.528-9.669
			c-3.827-9.167,0.503-19.701,9.669-23.527c9.167-3.827,19.701,0.502,23.528,9.669
			C875.531,1324.942,871.202,1335.477,862.035,1339.303z"/>
		<path style="opacity:0.6;fill:#FFFFFF;" d="M1043.889,1414.041c-3.827-9.167,0.502-19.7,9.669-23.527s19.701,0.502,23.528,9.669
			c3.826,9.167-0.503,19.701-9.67,23.528C1058.249,1427.537,1047.715,1423.208,1043.889,1414.041z"/>
		<path style="opacity:0.95;fill:#FFFFFF;" d="M922.914,1124.252c-3.827-9.167,0.502-19.701,9.669-23.527
			c9.167-3.827,19.701,0.502,23.528,9.669c3.827,9.167-0.502,19.701-9.669,23.527
			C937.275,1137.748,926.741,1133.419,922.914,1124.252z"/>
	</g>
	<g>
		<polygon style="fill:#FFFFFF;" points="368.672,1663.762 322.246,1663.762 356.88,1581.622 403.307,1581.622 		"/>
		<polygon style="opacity:0.4;fill:#FFFFFF;" points="368.672,1931.622 322.246,1931.622 356.88,1849.482 403.307,1849.482 		"/>
		<polygon style="opacity:0.2;fill:#FFFFFF;" points="455.637,1762.519 455.637,1716.092 537.776,1750.727 537.776,1797.153 		"/>
		<polygon style="opacity:0.7;fill:#FFFFFF;" points="187.776,1762.519 187.776,1716.092 269.916,1750.727 269.916,1797.153 		"/>
		<polygon style="opacity:0.1;fill:#FFFFFF;" points="432.608,1695.129 399.779,1662.301 482.351,1628.709 515.18,1661.538 		"/>
		<polygon style="opacity:0.5;fill:#FFFFFF;" points="243.202,1884.535 210.373,1851.706 292.945,1818.115 325.774,1850.943 		"/>
		<polygon style="opacity:0.3;fill:#FFFFFF;" points="424.27,1826.453 457.098,1793.625 490.689,1876.197 457.86,1909.025 		"/>
		<polygon style="opacity:0.8;fill:#FFFFFF;" points="234.864,1637.048 267.692,1604.219 301.283,1686.791 268.455,1719.62 		"/>
	</g>
	<g>
		<path style="fill:#FFFFFF;" d="M1582.153,675.347L1582.153,675.347l16.597-39.36c10.932-25.925,36.329-42.779,64.465-42.779l0,0
			l-16.597,39.36C1635.687,658.493,1610.289,675.347,1582.153,675.347z"/>
		<path style="opacity:0.4;fill:#FFFFFF;" d="M1582.153,943.208L1582.153,943.208l16.597-39.36
			c10.932-25.925,36.329-42.779,64.465-42.779l0,0l-16.597,39.36C1635.687,926.353,1610.289,943.208,1582.153,943.208z"/>
		<path style="opacity:0.2;fill:#FFFFFF;" d="M1715.544,727.677L1715.544,727.677l39.36,16.597
			c25.926,10.931,42.779,36.329,42.779,64.465l0,0l-39.36-16.597C1732.398,781.21,1715.544,755.812,1715.544,727.677z"/>
		<path style="opacity:0.7;fill:#FFFFFF;" d="M1447.684,727.677L1447.684,727.677l39.361,16.597
			c25.925,10.931,42.779,36.329,42.779,64.465l0,0l-39.361-16.597C1464.538,781.21,1447.684,755.812,1447.684,727.677z"/>
		<path style="opacity:0.1;fill:#FFFFFF;" d="M1659.687,673.886L1659.687,673.886l39.567-16.097
			c26.062-10.602,55.938-4.561,75.833,15.334l0.001,0l-39.568,16.096C1709.458,699.822,1679.581,693.78,1659.687,673.886z"/>
		<path style="opacity:0.5;fill:#FFFFFF;" d="M1470.281,863.292L1470.281,863.292l39.567-16.096
			c26.062-10.603,55.938-4.561,75.833,15.334l0,0l-39.567,16.096C1520.053,889.227,1490.176,883.187,1470.281,863.292z"/>
		<path style="opacity:0.3;fill:#FFFFFF;" d="M1717.006,805.21L1717.006,805.21l16.097,39.567
			c10.602,26.062,4.561,55.939-15.334,75.833h-0.001l-16.096-39.568C1691.069,854.981,1697.111,825.105,1717.006,805.21z"/>
		<path style="opacity:0.8;fill:#FFFFFF;" d="M1527.6,615.804L1527.6,615.804l16.097,39.567
			c10.603,26.062,4.561,55.939-15.334,75.833l0,0l-16.097-39.568C1501.664,665.576,1507.705,635.699,1527.6,615.804z"/>
	</g>
	<g>
		<path style="opacity:0.25;fill:#FFFFFF;" d="M1007.316,1659.335c10.602,0.786,20.729,3.27,30.117,7.174l1.919-1.919
			c14.547-14.547,38.133-14.547,52.68,0l0,0c14.547,14.547,14.547,38.133,0,52.68l-1.919,1.919
			c3.904,9.388,6.388,19.516,7.174,30.117H1175c-3.737-90.918-76.766-163.946-167.684-167.684V1659.335z"/>
		<path style="fill:#FFFFFF;" d="M902.713,1749.306c0.786-10.602,3.269-20.729,7.174-30.117l-1.919-1.919
			c-14.547-14.547-14.547-38.133,0-52.68l0,0c14.547-14.547,38.132-14.547,52.679,0l1.919,1.919
			c9.388-3.904,19.516-6.388,30.118-7.174v-77.713c-90.918,3.737-163.946,76.766-167.684,167.684H902.713z"/>
		<path style="opacity:0.75;fill:#FFFFFF;" d="M992.684,1853.909c-10.602-0.786-20.729-3.269-30.118-7.174l-1.919,1.919
			c-14.547,14.547-38.132,14.547-52.679,0l0,0c-14.547-14.547-14.547-38.132,0-52.68l1.919-1.918
			c-3.905-9.389-6.388-19.517-7.174-30.118H825c3.737,90.918,76.766,163.946,167.684,167.684V1853.909z"/>
		<path style="opacity:0.5;fill:#FFFFFF;" d="M1097.287,1763.938c-0.786,10.602-3.27,20.729-7.174,30.118l1.919,1.918
			c14.547,14.548,14.547,38.133,0,52.68l0,0c-14.547,14.547-38.133,14.547-52.68,0l-1.919-1.919
			c-9.388,3.905-19.516,6.388-30.117,7.174v77.713c90.918-3.737,163.946-76.766,167.684-167.684H1097.287z"/>
	</g>
	<g>
		<defs>
			<filter id="Adobe_OpacityMaskFilter" filterUnits="userSpaceOnUse" x="211.088" y="68.378" width="143.747" height="324.344">
				<feFlood  style="flood-color:white;flood-opacity:1" result="back"/>
				<feBlend  in="SourceGraphic" in2="back" mode="normal"/>
			</filter>
		</defs>
		<mask maskUnits="userSpaceOnUse" x="211.088" y="68.378" width="143.747" height="324.344" id="SVGID_1_">
			<g style="filter:url(#Adobe_OpacityMaskFilter);">
				<defs>
					
						<filter id="Adobe_OpacityMaskFilter_00000177474047359653328150000000289338280723443635_" filterUnits="userSpaceOnUse" x="211.088" y="68.378" width="143.747" height="324.344">
						<feFlood  style="flood-color:white;flood-opacity:1" result="back"/>
						<feBlend  in="SourceGraphic" in2="back" mode="normal"/>
					</filter>
				</defs>
				<mask maskUnits="userSpaceOnUse" x="211.088" y="68.378" width="143.747" height="324.344" id="SVGID_1_">
					<g style="filter:url(#Adobe_OpacityMaskFilter_00000177474047359653328150000000289338280723443635_);">
					</g>
				</mask>
				
					<linearGradient id="SVGID_00000157289669929918335240000001228959460544338567_" gradientUnits="userSpaceOnUse" x1="333.4451" y1="91.4371" x2="264.1306" y2="347.0348">
					<stop  offset="0" style="stop-color:#FFFFFF"/>
					<stop  offset="1" style="stop-color:#000000"/>
				</linearGradient>
				<path style="mask:url(#SVGID_1_);fill:url(#SVGID_00000157289669929918335240000001228959460544338567_);" d="M326.646,70.607
					c-2.973-2.972-7.792-2.972-10.764,0l-0.371,0.372c-2.973,2.972-2.973,7.791,0,10.764l13.573,13.573
					c-67.549,15.264-117.996,75.632-117.996,147.795c0,75.472,55.177,138.047,127.389,149.612v-23.281
					C278.996,358.14,234.02,305.882,234.02,243.11c0-59.829,40.858-110.107,96.191-124.475l-14.328,14.328
					c-2.973,2.972-2.973,7.792,0,10.764l0,0c2.972,2.972,7.792,2.972,10.764,0l22.27-22.271c7.892-7.892,7.892-20.688,0-28.58
					L326.646,70.607z"/>
			</g>
		</mask>
		
			<linearGradient id="SVGID_00000122694176650384804650000004824254504511032211_" gradientUnits="userSpaceOnUse" x1="333.4451" y1="91.4371" x2="264.1306" y2="347.0348">
			<stop  offset="0" style="stop-color:#FFFFFF"/>
			<stop  offset="1" style="stop-color:#FFFFFF"/>
		</linearGradient>
		<path style="fill:url(#SVGID_00000122694176650384804650000004824254504511032211_);" d="M326.646,70.607
			c-2.973-2.972-7.792-2.972-10.764,0l-0.371,0.372c-2.973,2.972-2.973,7.791,0,10.764l13.573,13.573
			c-67.549,15.264-117.996,75.632-117.996,147.795c0,75.472,55.177,138.047,127.389,149.612v-23.281
			C278.996,358.14,234.02,305.882,234.02,243.11c0-59.829,40.858-110.107,96.191-124.475l-14.328,14.328
			c-2.973,2.972-2.973,7.792,0,10.764l0,0c2.972,2.972,7.792,2.972,10.764,0l22.27-22.271c7.892-7.892,7.892-20.688,0-28.58
			L326.646,70.607z"/>
		<defs>
			
				<filter id="Adobe_OpacityMaskFilter_00000167390814848670016160000011648179689478993293_" filterUnits="userSpaceOnUse" x="370.717" y="94.033" width="143.747" height="324.345">
				<feFlood  style="flood-color:white;flood-opacity:1" result="back"/>
				<feBlend  in="SourceGraphic" in2="back" mode="normal"/>
			</filter>
		</defs>
		
			<mask maskUnits="userSpaceOnUse" x="370.717" y="94.033" width="143.747" height="324.345" id="SVGID_00000159451814776593219210000009066623017397531825_">
			<g style="filter:url(#Adobe_OpacityMaskFilter_00000167390814848670016160000011648179689478993293_);">
				<defs>
					
						<filter id="Adobe_OpacityMaskFilter_00000110444787443512323060000014500891287533829814_" filterUnits="userSpaceOnUse" x="370.717" y="94.033" width="143.747" height="324.345">
						<feFlood  style="flood-color:white;flood-opacity:1" result="back"/>
						<feBlend  in="SourceGraphic" in2="back" mode="normal"/>
					</filter>
				</defs>
				
					<mask maskUnits="userSpaceOnUse" x="370.717" y="94.033" width="143.747" height="324.345" id="SVGID_00000159451814776593219210000009066623017397531825_">
					<g style="filter:url(#Adobe_OpacityMaskFilter_00000110444787443512323060000014500891287533829814_);">
					</g>
				</mask>
				
					<linearGradient id="SVGID_00000017489310951783235670000011459477998801486002_" gradientUnits="userSpaceOnUse" x1="-2921.3655" y1="389.787" x2="-2990.6799" y2="645.3849" gradientTransform="matrix(-1 0 0 -1 -2529.2578 785.1055)">
					<stop  offset="0" style="stop-color:#FFFFFF"/>
					<stop  offset="1" style="stop-color:#000000"/>
				</linearGradient>
				
					<path style="mask:url(#SVGID_00000159451814776593219210000009066623017397531825_);fill:url(#SVGID_00000017489310951783235670000011459477998801486002_);" d="
					M398.907,416.148c2.972,2.973,7.792,2.973,10.764,0l0.372-0.371c2.972-2.972,2.972-7.792,0-10.764l-13.574-13.573
					c67.549-15.264,117.996-75.631,117.996-147.794c0-75.472-55.177-138.048-127.389-149.612v23.281
					c59.482,11.301,104.458,63.559,104.458,126.331c0,59.829-40.857,110.107-96.19,124.475l14.328-14.328
					c2.973-2.973,2.973-7.792,0-10.764l0,0c-2.972-2.973-7.792-2.973-10.764,0l-22.27,22.27c-7.892,7.892-7.892,20.688,0,28.58
					L398.907,416.148z"/>
			</g>
		</mask>
		
			<linearGradient id="SVGID_00000083071531448377077190000007587259231884678544_" gradientUnits="userSpaceOnUse" x1="-2921.3655" y1="389.787" x2="-2990.6799" y2="645.3849" gradientTransform="matrix(-1 0 0 -1 -2529.2578 785.1055)">
			<stop  offset="0" style="stop-color:#FFFFFF"/>
			<stop  offset="1" style="stop-color:#FFFFFF"/>
		</linearGradient>
		<path style="fill:url(#SVGID_00000083071531448377077190000007587259231884678544_);" d="M398.907,416.148
			c2.972,2.973,7.792,2.973,10.764,0l0.372-0.371c2.972-2.972,2.972-7.792,0-10.764l-13.574-13.573
			c67.549-15.264,117.996-75.631,117.996-147.794c0-75.472-55.177-138.048-127.389-149.612v23.281
			c59.482,11.301,104.458,63.559,104.458,126.331c0,59.829-40.857,110.107-96.19,124.475l14.328-14.328
			c2.973-2.973,2.973-7.792,0-10.764l0,0c-2.972-2.973-7.792-2.973-10.764,0l-22.27,22.27c-7.892,7.892-7.892,20.688,0,28.58
			L398.907,416.148z"/>
	</g>
</g>
</svg>
