<svg version="1.2" xmlns="http://www.w3.org/2000/svg" viewBox="0 0 315 43" width="315" height="43">
	<title>logo-svg</title>
	<style>
		.s0 { fill: #2196f3 } 
		.s1 { fill: #ffffff } 
	</style>
	<path id="Layer" class="s0" d="m0.8 21.8c0 11.6 9.4 21 21 21 11.6 0 21-9.4 21-21 0-11.6-9.4-21-21-21-11.6 0-21 9.4-21 21z"/>
	<path id="Layer" fill-rule="evenodd" class="s1" d="m15.5 33.1h-0.2-0.1-0.1-0.1-0.1-0.1-0.1-0.1v-0.1h-0.1-0.1-0.1-0.1-0.1-0.1v-0.1h-0.1-0.1-0.1-0.1-0.1v-0.1h-0.1-0.1-0.1v-0.1h-0.1-0.1-0.1v-0.1h-0.1-0.1-0.1v-0.1h-0.1-0.1v-0.1h-0.1-0.1-0.1v-0.1h-0.1-0.1v-0.1h-0.1-0.1v-0.1h-0.1v-0.1h-0.1-0.1v-0.1h-0.1-0.1v-0.1h-0.1v-0.1h-0.1-0.1v-0.1h-0.1v-0.1h-0.1v-0.1h-0.1-0.1v-0.1h-0.1v-0.1h-0.1v-0.1h-0.1v-0.1h-0.1v-0.1h-0.1v-0.1h-0.1v-0.1h-0.1v-0.1h-0.1v-0.1h-0.1v-0.1h-0.1v-0.1h-0.1v-0.1h-0.1v-0.1h-0.1v-0.1-0.1h-0.1v-0.1h-0.1v-0.1h-0.1v-0.1-0.1h-0.1v-0.1h-0.1v-0.1-0.1h-0.1v-0.1-0.1h-0.1v-0.1-0.1h-0.1v-0.1-0.1h-0.1v-0.1-0.1h-0.1v-0.1-0.1h-0.1v-0.1-0.1-0.1h-0.1v-0.1-0.1h-0.1v-0.1-0.1-0.1h-0.1v-0.1-0.1-0.1-0.1h-0.1v-0.1-0.1-0.1-0.1-0.1h-0.1v-0.1-0.1-0.1-0.1-0.1-0.1-0.1-0.1h-0.1v-0.1-0.1-0.1-0.1-0.1-0.2-0.1-0.1-0.1-0.1-0.1h0.1v-0.1-0.1-0.1-0.1-0.1-0.1-0.1-0.1h0.1v-0.1-0.1-0.1-0.1-0.1h0.1v-0.1-0.1-0.1-0.1h0.1v-0.1-0.1-0.1h0.1v-0.1-0.1-0.1h0.1v-0.1-0.1h0.1v-0.1-0.1h0.1v-0.1-0.1-0.1h0.1v-0.1-0.1h0.1v-0.1h0.1v-0.1-0.1h0.1v-0.1-0.1h0.1v-0.1h0.1v-0.1-0.1h0.1v-0.1h0.1v-0.1h0.1v-0.1-0.1h0.1v-0.1h0.1v-0.1h0.1v-0.1h0.1v-0.1h0.1v-0.1h0.1v-0.1-0.1h0.1v-0.1h0.1 0.1v-0.1h0.1v-0.1h0.1v-0.1h0.1v-0.1h0.1v-0.1h0.1v-0.1h0.1 0.1v-0.1h0.1v-0.1h0.1 0.1v-0.1h0.1v-0.1h0.1 0.1v-0.1h0.1v-0.1h0.1 0.1v-0.1h0.1 0.1v-0.1h0.1 0.1v-0.1h0.1 0.1v-0.1h0.1 0.1 0.1v-0.1h0.1 0.1v-0.1h0.1 0.1 0.1v-0.1h0.1 0.1 0.1 0.1v-0.1h0.1 0.1 0.1v-0.1-0.1h0.1v-0.1-0.1-0.1-0.1-0.1h0.1v-0.1-0.1-0.1h0.1v-0.1-0.1-0.1-0.1h0.1v-0.1-0.1h0.1v-0.1-0.1-0.1h0.1v-0.1-0.1h0.1v-0.1-0.1h0.1v-0.1-0.1h0.1v-0.1-0.1h0.1v-0.1-0.1h0.1v-0.1-0.1h0.1v-0.1h0.1v-0.1-0.1h0.1v-0.1h0.1v-0.1h0.1v-0.1-0.1h0.1v-0.1h0.1v-0.1h0.1v-0.1h0.1v-0.1h0.1v-0.1-0.1h0.1v-0.1h0.1v-0.1h0.1v-0.1h0.1 0.1v-0.1h0.1v-0.1h0.1v-0.1h0.1v-0.1h0.1v-0.1h0.1 0.1v-0.1h0.1v-0.1h0.1v-0.1h0.1 0.1v-0.1h0.1 0.1v-0.1h0.1v-0.1h0.1 0.1v-0.1h0.1 0.1v-0.1h0.1 0.1v-0.1h0.1 0.1v-0.1h0.1 0.1v-0.1h0.1 0.1 0.1v-0.1h0.1 0.1 0.1v-0.1h0.1 0.1 0.1v-0.1h0.1 0.1 0.1 0.1v-0.1h0.1 0.1 0.1 0.1 0.1 0.1v-0.1h0.1 0.1 0.1 0.1 0.1 0.1 0.1 0.1 0.1 0.1 0.3 0.1 0.1 0.1 0.1 0.1 0.1 0.1 0.1 0.1 0.1v0.1h0.1 0.1 0.1 0.1 0.1 0.1v0.1h0.1 0.1 0.1 0.1v0.1h0.1 0.1 0.1v0.1h0.1 0.1 0.1v0.1h0.1 0.1 0.1v0.1h0.1 0.1v0.1h0.1 0.1v0.1h0.1 0.1v0.1h0.1 0.1v0.1h0.1 0.1v0.1h0.1 0.1v0.1h0.1v0.1h0.1 0.1v0.1h0.1v0.1h0.1v0.1h0.1 0.1v0.1h0.1v0.1h0.1v0.1h0.1v0.1h0.1v0.1h0.1 0.1v0.1h0.1v0.1h0.1v0.1h0.1v0.1 0.1h0.1v0.1h0.1v0.1h0.1v0.1h0.1v0.1h0.1v0.1h0.1v0.1 0.1h0.1v0.1h0.1v0.1 0.1h0.1v0.1h0.1v0.1 0.1h0.1v0.1 0.1h0.1v0.1h0.1v0.1 0.1h0.1v0.1 0.1 0.1h0.1v0.1 0.1h0.1v0.1 0.1h0.1v0.1 0.1 0.1h0.1v0.1 0.1 0.1h0.1v0.1 0.1 0.1 0.1h0.1v0.1 0.1 0.1 0.1 0.1h0.1v0.1 0.1h0.1 0.1 0.1 0.1v0.1h0.1 0.1 0.1v0.1h0.1 0.1 0.1v0.1h0.1 0.1 0.1v0.1h0.1 0.1v0.1h0.1 0.1v0.1h0.1 0.1v0.1h0.1 0.1v0.1h0.1 0.1v0.1h0.1v0.1h0.1 0.1v0.1h0.1 0.1v0.1h0.1v0.1h0.1v0.1h0.1 0.1v0.1h0.1v0.1h0.1v0.1h0.1v0.1h0.1v0.1h0.1 0.1v0.1h0.1v0.1h0.1v0.1h0.1v0.1h0.1v0.1 0.1h0.1v0.1h0.1v0.1h0.1v0.1h0.1v0.1h0.1v0.1 0.1h0.1v0.1h0.1v0.1 0.1h0.1v0.1h0.1v0.1 0.1h0.1v0.1 0.1h0.1v0.1h0.1v0.1 0.1h0.1v0.1 0.1h0.1v0.1 0.1 0.1h0.1v0.1 0.1h0.1v0.1 0.1 0.1h0.1v0.1 0.1 0.1h0.1v0.1 0.1 0.1 0.1h0.1v0.1 0.1 0.1 0.1 0.1h0.1v0.1 0.1 0.1 0.1 0.1 0.1 0.1h0.1v0.1 0.1 0.1 0.1 0.1 0.3 0.1 0.1 0.1 0.1 0.1 0.1h-0.1v0.1 0.1 0.1 0.1 0.1 0.1 0.1h-0.1v0.1 0.1 0.1 0.1 0.1h-0.1v0.1 0.1 0.1 0.1h-0.1v0.1 0.1 0.1h-0.1v0.1 0.1 0.1h-0.1v0.1 0.1h-0.1v0.1 0.1h-0.1v0.1 0.1h-0.1v0.1 0.1h-0.1v0.1 0.1h-0.1v0.1 0.1h-0.1v0.1 0.1h-0.1v0.1h-0.1v0.1 0.1h-0.1v0.1h-0.1v0.1h-0.1v0.1 0.1h-0.1v0.1h-0.1v0.1h-0.1v0.1h-0.1v0.1h-0.1v0.1h-0.1v0.1h-0.1v0.1h-0.1v0.1h-0.1v0.1h-0.1v0.1h-0.1v0.1h-0.1v0.1h-0.1v0.1h-0.1-0.1v0.1h-0.1v0.1h-0.1v0.1h-0.1-0.1v0.1h-0.1v0.1h-0.1-0.1v0.1h-0.1-0.1v0.1h-0.1v0.1h-0.1-0.1v0.1h-0.1-0.1v0.1h-0.1-0.1-0.1v0.1h-0.1-0.1v0.1h-0.1-0.1-0.1v0.1h-0.1-0.1-0.1v0.1h-0.1-0.1-0.1v0.1h-0.1-0.1-0.1-0.1-0.1v0.1h-0.1-0.1-0.1-0.1-0.1-0.1v0.1h-0.1-0.1-0.1-0.1-0.1-0.1-0.1-0.2-1.8-0.1-0.1-0.1-0.1v-0.1h-0.1-0.1v-0.1h-0.1-0.1v-0.1h-0.1v-0.1h-0.1v-0.1h-0.1v-0.1h-0.1v-0.1h-0.1v-0.1-0.1h-0.1v-0.1-0.1-0.1h-0.1v-0.1-8.2-0.1-0.1h0.1v-0.1-0.1-0.1h0.1v-0.1-0.1h0.1v-0.1-0.1h0.1v-0.1h0.1v-0.1h0.1 0.1v-0.1h0.1v-0.1h0.1 0.1 0.1v-0.1h0.1 0.1 0.1 0.1 0.1 0.1 0.1 0.1 0.1v0.1h0.1 0.1v0.1h0.1 0.1v0.1h0.1v0.1h0.1v0.1h0.1v0.1h0.1v0.1h0.1v0.1 0.1h0.1v0.1 0.1 0.1 0.1 0.1h0.1v6.5h0.2 0.1 0.1 0.1v-0.1h0.1 0.1 0.1 0.1 0.1 0.1 0.1v-0.1h0.1 0.1 0.1 0.1v-0.1h0.1 0.1 0.1v-0.1h0.1 0.1 0.1v-0.1h0.1 0.1v-0.1h0.1 0.1v-0.1h0.1v-0.1h0.1 0.1v-0.1h0.1v-0.1h0.1 0.1v-0.1h0.1v-0.1h0.1v-0.1h0.1v-0.1h0.1v-0.1h0.1v-0.1h0.1v-0.1h0.1v-0.1h0.1v-0.1h0.1v-0.1h0.1v-0.1-0.1h0.1v-0.1h0.1v-0.1-0.1h0.1v-0.1-0.1h0.1v-0.1-0.1h0.1v-0.1-0.1h0.1v-0.1-0.1h0.1v-0.1-0.1-0.1h0.1v-0.1-0.1-0.1-0.1-0.1h0.1v-0.1-0.1-0.1-0.1-0.1-0.1-0.1-0.1-0.2-0.1-0.1-0.1-0.1-0.1-0.1-0.1-0.1h-0.1v-0.1-0.1-0.1-0.1-0.1h-0.1v-0.1-0.1-0.1h-0.1v-0.1-0.1h-0.1v-0.1-0.1-0.1h-0.1v-0.1-0.1h-0.1v-0.1h-0.1v-0.1-0.1h-0.1v-0.1h-0.1v-0.1-0.1h-0.1v-0.1h-0.1v-0.1h-0.1v-0.1-0.1h-0.1v-0.1h-0.1v-0.1h-0.1v-0.1h-0.1-0.1v-0.1h-0.1v-0.1h-0.1v-0.1h-0.1v-0.1h-0.1-0.1v-0.1h-0.1v-0.1h-0.1-0.1v-0.1h-0.1-0.1v-0.1h-0.1-0.1v-0.1h-0.1-0.1v-0.1h-0.1-0.1-0.1v-0.1h-0.1-0.1-0.1-0.1v-0.1h-0.1-0.1-0.1-0.1v-0.1h-0.1-0.1-0.1-0.1-0.1v-0.1h-0.1-0.1-0.1-0.1-0.1v-0.1h-0.1-0.1-0.1-0.1v-0.1h-0.1-0.1-0.1v-0.1-0.1h-0.1v-0.1-0.1-0.1-0.1-0.1-0.1-0.1h-0.1v-0.1-0.1-0.1-0.1-0.1-0.1-0.1h-0.1v-0.1-0.1-0.1-0.1-0.1-0.1h-0.1v-0.1-0.1-0.1-0.1h-0.1v-0.1-0.1-0.1-0.1h-0.1v-0.1-0.1h-0.1v-0.1-0.1-0.1h-0.1v-0.1-0.1h-0.1v-0.1h-0.1v-0.1-0.1h-0.1v-0.1h-0.1v-0.1-0.1h-0.1v-0.1h-0.1v-0.1h-0.1v-0.1-0.1h-0.1v-0.1h-0.1v-0.1h-0.1v-0.1h-0.1-0.1v-0.1h-0.1v-0.1h-0.1v-0.1h-0.1v-0.1h-0.1-0.1v-0.1h-0.1v-0.1h-0.1-0.1v-0.1h-0.1-0.1v-0.1h-0.1-0.1v-0.1h-0.1-0.1v-0.1h-0.1-0.1-0.1v-0.1h-0.1-0.1-0.1v-0.1h-0.1-0.1-0.1-0.1-0.1-0.1v-0.1h-0.1-0.1-0.1-0.1-0.1-0.1-0.1-0.1-0.1-0.1-0.1-0.1-0.1v0.1h-0.1-0.1-0.1-0.1-0.1v0.1h-0.1-0.1-0.1-0.1v0.1h-0.1-0.1-0.1v0.1h-0.1-0.1v0.1h-0.1-0.1v0.1h-0.1-0.1v0.1h-0.1-0.1v0.1h-0.1v0.1h-0.1-0.1v0.1h-0.1v0.1h-0.1v0.1h-0.1v0.1h-0.1-0.1v0.1h-0.1v0.1h-0.1v0.1 0.1h-0.1v0.1h-0.1v0.1h-0.1v0.1h-0.1v0.1 0.1h-0.1v0.1h-0.1v0.1 0.1h-0.1v0.1 0.1h-0.1v0.1 0.1h-0.1v0.1 0.1h-0.1v0.1 0.1 0.1h-0.1v0.1 0.1 0.1h-0.1v0.1 0.1 0.1 0.1h-0.1v0.1 0.1 0.1 0.1 0.1 0.1 0.1h-0.1v0.1 0.1 0.1 0.1 0.1 0.1h-0.1v0.1 0.1 0.1 0.1 0.1 0.1 0.1h-0.1v0.1 0.1h-0.1-0.1-0.1v0.1h-0.1-0.1-0.1-0.1v0.1h-0.1-0.1-0.1-0.1-0.1v0.1h-0.1-0.1-0.1-0.1-0.1v0.1h-0.1-0.1-0.1-0.1v0.1h-0.1-0.1-0.1-0.1v0.1h-0.1-0.1-0.1v0.1h-0.1-0.1v0.1h-0.1-0.1v0.1h-0.1-0.1v0.1h-0.1-0.1v0.1h-0.1v0.1h-0.1-0.1v0.1h-0.1v0.1h-0.1v0.1h-0.1v0.1h-0.1v0.1h-0.1-0.1v0.1h-0.1v0.1 0.1h-0.1v0.1h-0.1v0.1h-0.1v0.1h-0.1v0.1 0.1h-0.1v0.1h-0.1v0.1 0.1h-0.1v0.1 0.1h-0.1v0.1 0.1h-0.1v0.1 0.1h-0.1v0.1 0.1h-0.1v0.1 0.1 0.1 0.1h-0.1v0.1 0.1 0.1 0.1h-0.1v0.1 0.1 0.1 0.1 0.1 0.1 0.1 0.1 0.2 0.1 0.1 0.1 0.1 0.1 0.1 0.1 0.1h0.1v0.1 0.1 0.1 0.1h0.1v0.1 0.1 0.1h0.1v0.1 0.1 0.1h0.1v0.1 0.1h0.1v0.1 0.1h0.1v0.1 0.1h0.1v0.1 0.1h0.1v0.1h0.1v0.1 0.1h0.1v0.1h0.1v0.1h0.1v0.1h0.1v0.1h0.1v0.1h0.1v0.1h0.1v0.1h0.1v0.1h0.1v0.1h0.1v0.1h0.1 0.1v0.1h0.1v0.1h0.1 0.1v0.1h0.1v0.1h0.1 0.1v0.1h0.1 0.1v0.1h0.1 0.1 0.1v0.1h0.1 0.1 0.1v0.1h0.1 0.1 0.1 0.1v0.1h0.1 0.1 0.1 0.1 0.1 0.1 0.1v0.1h0.1 0.1 0.1 0.2v-6.4h0.1v-0.1-0.1-0.1-0.1-0.1h0.1v-0.1-0.1-0.1h0.1v-0.1h0.1v-0.1h0.1v-0.1h0.1v-0.1h0.1v-0.1h0.1 0.1v-0.1h0.1 0.1v-0.1h0.1 0.1 0.1 0.1 0.1 0.1 0.1 0.1 0.1 0.1v0.1h0.1 0.1v0.1h0.1v0.1h0.1 0.1v0.1h0.1v0.1h0.1v0.1 0.1h0.1v0.1 0.1h0.1v0.1 0.1h0.1v0.1 0.1 0.1 8.2 0.1h-0.1v0.1 0.1 0.1h-0.1v0.1 0.1h-0.1v0.1h-0.1v0.1 0.1h-0.1-0.1v0.1h-0.1v0.1h-0.1-0.1v0.1h-0.1-0.1v0.1h-0.1-0.1-0.1-0.1zm6.2 0h-0.1-0.1-0.1v-0.1h-0.1-0.1-0.1v-0.1h-0.1-0.1v-0.1h-0.1v-0.1h-0.1v-0.1h-0.1v-0.1h-0.1v-0.1-0.1h-0.1v-0.1-0.1h-0.1v-0.1-0.1-0.1-0.1-11.4-0.1-0.1-0.1-0.1h0.1v-0.1-0.1h0.1v-0.1-0.1h0.1v-0.1h0.1v-0.1h0.1v-0.1h0.1v-0.1h0.1 0.1v-0.1h0.1 0.1 0.1v-0.1h0.1 0.1 0.1 0.1 0.1 0.1 0.1 0.1v0.1h0.1 0.1v0.1h0.1 0.1v0.1h0.1v0.1h0.1 0.1v0.1 0.1h0.1v0.1h0.1v0.1 0.1h0.1v0.1 0.1 0.1h0.1v0.1 0.1 0.1 11.2 0.1 0.1 0.1h-0.1v0.1 0.1 0.1h-0.1v0.1 0.1h-0.1v0.1h-0.1v0.1 0.1h-0.1-0.1v0.1h-0.1v0.1h-0.1-0.1v0.1h-0.1-0.1v0.1h-0.1-0.1-0.1-0.1"/>
	<path id="Layer" fill-rule="evenodd" class="s0" d="m66.9 28.5q-2.2 0-3.8-0.9-1.6-0.9-2.4-2.5-0.9-1.7-0.9-3.9 0-2.2 0.9-3.8 0.8-1.6 2.4-2.5 1.6-0.9 3.8-0.9 1.4 0 2.6 0.4 1.3 0.5 2.1 1.3l-0.8 2q-0.9-0.7-1.8-1.1-1-0.3-2.1-0.3-2.1 0-3.2 1.3-1.1 1.2-1.1 3.6 0 2.4 1.1 3.7 1.1 1.3 3.2 1.3 1.1 0 2.1-0.3 0.9-0.4 1.8-1.2l0.8 2.1q-0.8 0.8-2.1 1.2-1.2 0.5-2.6 0.5zm10.1 0q-1.7 0-2.6-1-0.8-0.9-0.8-2.8v-10.5h2.5v10.4q0 1.8 1.5 1.8 0.3 0 0.5 0 0.2 0 0.4-0.1v2q-0.8 0.2-1.5 0.2zm7.4 0q-1.5 0-2.7-0.6-1.1-0.7-1.7-1.8-0.6-1.2-0.6-2.7 0-1.6 0.6-2.7 0.6-1.2 1.7-1.8 1.2-0.6 2.7-0.6 1.5 0 2.6 0.6 1.1 0.6 1.8 1.8 0.6 1.1 0.6 2.7 0 1.5-0.6 2.7-0.7 1.1-1.8 1.8-1.1 0.6-2.6 0.6zm0-1.9q1.1 0 1.8-0.8 0.7-0.8 0.7-2.4 0-1.6-0.7-2.4-0.7-0.8-1.8-0.8-1.1 0-1.8 0.8-0.7 0.8-0.7 2.4 0 1.6 0.7 2.4 0.7 0.8 1.8 0.8zm10.6 1.9q-3.6 0-3.6-4.1v-5.9h2.5v6q0 1 0.4 1.5 0.4 0.5 1.3 0.5 1 0 1.7-0.7 0.6-0.7 0.6-1.8v-5.5h2.5v9.8h-2.4v-1.5q-1 1.7-3 1.7zm11.8 0q-1.3 0-2.3-0.6-0.9-0.7-1.5-1.8-0.5-1.2-0.5-2.7 0-1.6 0.5-2.7 0.6-1.2 1.5-1.8 1-0.6 2.3-0.6 1 0 1.9 0.5 0.8 0.4 1.2 1.2v-5.8h2.5v14.1h-2.4v-1.6q-0.4 0.8-1.3 1.3-0.8 0.5-1.9 0.5zm0.7-1.9q1.1 0 1.8-0.8 0.7-0.8 0.7-2.4 0-1.6-0.7-2.4-0.7-0.8-1.8-0.8-1.1 0-1.8 0.8-0.7 0.8-0.7 2.4 0 1.6 0.7 2.4 0.7 0.8 1.8 0.8zm13.2 1.7v-14.1h2.1l5 9.2 5-9.2h2.1v14.1h-2.3v-9.5l-4.1 7.3h-1.5l-4-7.3v9.5zm20.3 0.2q-1.1 0-1.9-0.4-0.8-0.4-1.3-1.1-0.5-0.7-0.5-1.6 0-1.1 0.6-1.7 0.6-0.7 1.8-0.9 1.3-0.3 3.4-0.3h0.7v-0.4q0-1-0.4-1.5-0.5-0.4-1.5-0.4-0.8 0-1.7 0.2-0.9 0.3-1.7 0.8l-0.8-1.7q0.6-0.4 1.3-0.6 0.7-0.3 1.5-0.4 0.8-0.2 1.5-0.2 2.1 0 3.1 1 1.1 1 1.1 3.1v5.9h-2.4v-1.6q-0.3 0.8-1 1.3-0.8 0.5-1.8 0.5zm0.5-1.7q1 0 1.6-0.7 0.7-0.7 0.7-1.7v-0.5h-0.7q-1.9 0-2.6 0.3-0.7 0.3-0.7 1.1 0 0.6 0.4 1 0.5 0.5 1.3 0.5zm7.2 1.5v-9.8h2.5v1.5q0.5-0.8 1.3-1.3 0.9-0.4 1.9-0.4 3.5 0 3.5 4v6h-2.5v-5.9q0-1.1-0.5-1.6-0.4-0.5-1.3-0.5-1.1 0-1.7 0.7-0.7 0.6-0.7 1.8v5.5zm14.9 0.2q-1 0-1.9-0.4-0.8-0.4-1.3-1.1-0.4-0.7-0.4-1.6 0-1.1 0.5-1.7 0.6-0.7 1.9-0.9 1.2-0.3 3.3-0.3h0.7v-0.4q0-1-0.4-1.5-0.4-0.4-1.5-0.4-0.8 0-1.7 0.2-0.8 0.3-1.7 0.8l-0.7-1.7q0.5-0.4 1.2-0.6 0.7-0.3 1.5-0.4 0.8-0.2 1.5-0.2 2.1 0 3.2 1 1 1 1 3.1v5.9h-2.3v-1.6q-0.4 0.8-1.1 1.3-0.7 0.5-1.8 0.5zm0.6-1.7q0.9 0 1.6-0.7 0.6-0.7 0.6-1.7v-0.5h-0.6q-1.9 0-2.7 0.3-0.7 0.3-0.7 1.1 0 0.6 0.5 1 0.4 0.5 1.3 0.5zm11.7 5.3q-1.3 0-2.5-0.3-1.2-0.3-2.1-1l0.7-1.7q0.8 0.5 1.8 0.8 1 0.3 1.9 0.3 2.7 0 2.7-2.6v-1.3q-0.4 0.8-1.3 1.3-0.9 0.4-1.9 0.4-1.3 0-2.3-0.6-1-0.6-1.5-1.7-0.6-1.1-0.6-2.5 0-1.5 0.6-2.6 0.5-1.1 1.5-1.7 1-0.6 2.3-0.6 1.1 0 1.9 0.5 0.9 0.5 1.3 1.3v-1.6h2.4v8.8q0 2.4-1.2 3.6-1.3 1.2-3.7 1.2zm0-6q1.1 0 1.8-0.8 0.7-0.8 0.7-2.1 0-1.4-0.7-2.2-0.7-0.8-1.8-0.8-1.2 0-1.9 0.8-0.7 0.8-0.7 2.2 0 1.3 0.7 2.1 0.7 0.8 1.9 0.8zm12.4 2.4q-1.7 0-2.9-0.6-1.2-0.7-1.9-1.8-0.6-1.1-0.6-2.7 0-1.5 0.6-2.7 0.7-1.1 1.8-1.7 1.1-0.7 2.5-0.7 2.1 0 3.3 1.3 1.2 1.3 1.2 3.6v0.8h-7q0.3 2.6 3 2.6 0.8 0 1.6-0.3 0.9-0.2 1.5-0.8l0.7 1.7q-0.7 0.6-1.7 0.9-1.1 0.4-2.1 0.4zm-0.4-8.5q-1.1 0-1.8 0.7-0.7 0.7-0.8 1.8h4.9q-0.1-1.2-0.7-1.8-0.5-0.7-1.6-0.7zm6.4 8.3v-9.8h2.5v1.5q0.4-0.8 1.2-1.2 0.8-0.5 1.8-0.5 2.2 0 2.9 1.9 0.4-0.9 1.3-1.4 0.8-0.5 1.9-0.5 3.3 0 3.3 4v6h-2.5v-5.9q0-1.1-0.3-1.6-0.4-0.5-1.3-0.5-1 0-1.5 0.7-0.6 0.6-0.6 1.9v5.4h-2.5v-5.9q0-1.1-0.4-1.6-0.3-0.5-1.2-0.5-1 0-1.5 0.7-0.6 0.6-0.6 1.9v5.4zm22.3 0.2q-1.6 0-2.8-0.6-1.2-0.7-1.9-1.8-0.6-1.1-0.6-2.7 0-1.5 0.6-2.7 0.6-1.1 1.7-1.7 1.2-0.7 2.6-0.7 2.1 0 3.3 1.3 1.2 1.3 1.2 3.6v0.8h-7q0.3 2.6 3 2.6 0.8 0 1.6-0.3 0.8-0.2 1.5-0.8l0.7 1.7q-0.7 0.6-1.7 0.9-1.1 0.4-2.2 0.4zm-0.3-8.5q-1.1 0-1.8 0.7-0.7 0.7-0.8 1.8h4.9q-0.1-1.2-0.7-1.8-0.6-0.7-1.6-0.7zm6.4 8.3v-9.8h2.4v1.5q0.5-0.8 1.3-1.3 0.9-0.4 2-0.4 3.4 0 3.4 4v6h-2.5v-5.9q0-1.1-0.4-1.6-0.4-0.5-1.3-0.5-1.1 0-1.8 0.7-0.6 0.6-0.6 1.8v5.5zm16.1 0.2q-3.8 0-3.8-3.9v-4.2h-1.9v-1.9h1.9v-2.9h2.5v2.9h2.9v1.9h-2.9v4.1q0 1 0.4 1.4 0.4 0.5 1.3 0.5 0.3 0 0.6 0 0.3-0.1 0.6-0.2l0.4 1.8q-0.3 0.2-0.9 0.4-0.5 0.1-1.1 0.1zm13.7 0q-1.6 0-3.1-0.4-1.4-0.5-2.4-1.2l0.8-2q1 0.7 2.2 1 1.1 0.4 2.5 0.4 1.6 0 2.3-0.5 0.7-0.5 0.7-1.4 0-0.7-0.5-1.1-0.5-0.4-1.7-0.6l-2.2-0.5q-3.8-0.8-3.8-3.9 0-1.3 0.7-2.3 0.7-0.9 2-1.5 1.2-0.5 2.8-0.5 1.5 0 2.7 0.4 1.3 0.4 2.1 1.2l-0.8 1.9q-1.6-1.4-4-1.4-1.4 0-2.2 0.6-0.7 0.6-0.7 1.5 0 0.8 0.4 1.2 0.5 0.4 1.7 0.7l2.2 0.4q1.9 0.4 2.9 1.3 1 0.9 1 2.4 0 1.3-0.7 2.3-0.7 0.9-1.9 1.5-1.3 0.5-3 0.5zm8.3 3.4l1.8-4-4.1-9.4h2.7l2.7 6.8 2.8-6.8h2.5l-5.9 13.4zm13.1-3.4q-1.3 0-2.4-0.3-1-0.3-1.8-0.9l0.7-1.6q0.7 0.5 1.6 0.8 1 0.2 1.9 0.2 0.9 0 1.4-0.3 0.5-0.3 0.5-0.9 0-0.8-1.3-1.1l-2-0.3q-2.5-0.5-2.5-2.7 0-0.9 0.5-1.6 0.6-0.7 1.5-1.1 0.9-0.4 2.2-0.4 1 0 2 0.3 0.9 0.3 1.6 0.9l-0.7 1.6q-0.6-0.5-1.4-0.8-0.8-0.2-1.5-0.2-1 0-1.5 0.3-0.4 0.3-0.4 0.9 0 0.9 1.1 1.1l2 0.4q1.3 0.2 2 0.8 0.6 0.7 0.6 1.8 0 1.4-1.1 2.3-1.1 0.8-3 0.8zm10.5 0q-3.8 0-3.8-3.9v-4.2h-1.9v-1.9h1.9v-2.9h2.5v2.9h2.9v1.9h-2.9v4.1q0 1 0.4 1.4 0.4 0.5 1.3 0.5 0.3 0 0.6 0 0.3-0.1 0.6-0.2l0.4 1.8q-0.3 0.2-0.9 0.4-0.5 0.1-1.1 0.1zm8 0q-1.7 0-2.9-0.6-1.2-0.7-1.9-1.8-0.6-1.1-0.6-2.7 0-1.5 0.6-2.7 0.7-1.1 1.8-1.7 1.1-0.7 2.5-0.7 2.1 0 3.3 1.3 1.2 1.3 1.2 3.6v0.8h-7q0.3 2.6 3 2.6 0.8 0 1.6-0.3 0.9-0.2 1.5-0.8l0.7 1.7q-0.7 0.6-1.7 0.9-1.1 0.4-2.1 0.4zm-0.4-8.5q-1.1 0-1.8 0.7-0.7 0.7-0.8 1.8h4.9q-0.1-1.2-0.7-1.8-0.5-0.7-1.6-0.7zm6.4 8.3v-9.8h2.5v1.5q0.4-0.8 1.2-1.2 0.8-0.5 1.8-0.5 2.2 0 2.9 1.9 0.4-0.9 1.3-1.4 0.8-0.5 1.9-0.5 3.3 0 3.3 4v6h-2.5v-5.9q0-1.1-0.3-1.6-0.4-0.5-1.3-0.5-1 0-1.5 0.7-0.6 0.6-0.6 1.9v5.4h-2.5v-5.9q0-1.1-0.4-1.6-0.3-0.5-1.2-0.5-1 0-1.5 0.7-0.6 0.6-0.6 1.9v5.4z"/>
</svg>