<svg version="1.2" xmlns="http://www.w3.org/2000/svg" viewBox="0 0 1002 200" width="1000" height="200">
	<title>PostNew</title>
	<style>
		tspan { white-space:pre } 
		.s0 { fill: #3963ee } 
		.s1 { fill: #ff3131 } 
		.s2 { fill: #000000 } 
	</style>
	<path id="POSTNEW.in copy" fill-rule="evenodd" class="s0" d="m117.6 127h-18.6v52h-36.8v-160.8h55.4q26.7 0 43.2 15 16.7 15 16.7 38.2 0 26.5-17.4 41-17.2 14.6-42.5 14.6zm-4.3-79.5h-14.3v50.4h12.2q29.1 0 29.1-26.5 0-23.9-27-23.9zm169.8 81.8q0 22.7-13.2 36.8-13.1 13.9-34.9 13.9-22 0-35-13.9-13.1-13.9-13.1-36.8 0-22.7 13.1-36.6 13.2-14.1 35-14.1 22 0 35 13.9 13.1 14 13.1 36.8zm-65.5-22q-6.5 8.1-6.5 22 0 13.9 6.5 22.1 6.4 8.1 17.4 8.1 11 0 17.5-8.1 6.4-8.2 6.4-22.1 0-13.9-6.4-22-6.5-8.2-17.5-8.2-11 0-17.4 8.2zm142.3 43q0 13.3-9.8 21.7-9.9 8.2-26.1 8.2-17.5 0-28.5-6.2v-22.7q13.4 9.7 28.5 9.7 5.1 0 8.5-2.7 3.3-2.7 3.3-7.1 0-1.5-0.4-2.8-0.4-1.3-1.6-2.5-1.2-1.2-2.4-1.9-1-0.9-3.2-1.9-2-1.2-3.5-1.9-1.5-0.8-4.4-2.1-2.8-1.3-4.5-2-9.6-4.4-15.4-10.9-5.7-6.4-5.7-17.1 0-12.8 9.3-20.5 9.4-8 26-8 14.8 0 25.5 5v21.1q-11.9-6.9-24.6-6.9-5.8 0-8.8 2.4-3 2.3-3 6 0 3.7 3.7 6.6 3.7 2.8 11 6 4.5 2 7.5 3.7 3 1.4 6.8 4.2 4 2.6 6.2 5.7 2.3 3 4 7.4 1.6 4.3 1.6 9.5zm79.7-70.1v18.2h-24v80.6h-22.8v-80.6h-24.1v-18.2z"/>
	<path id="POSTNEW.in copy" class="s1" d="m486.6 124.7v54.3h-30v-131.1h32.9l30.6 54.3q6.4 11.4 11 21.6 4.9 9.9 6.3 14l1.5 4.2q-1.9-14.4-1.9-39.8v-54.3h29.9v131.1h-32.8l-31.4-54.3q-6.2-10.5-11-20.6-4.7-10.3-6.5-15.2l-1.5-4.8q2.9 17.5 2.9 40.6zm163.9 36.3v18h-61.4v-98.8h60.8v18.1h-38.1v22.4h34v17.9h-34v22.4zm72.4-13.2l-9.1 31.2h-25.2l-26.5-98.8h23.7l9.1 36.4q3 11.7 4.9 21.2 1.9 9.4 2.3 13.1l0.6 3.5q2.5-11.5 10-37.8l9.8-34.9h16.7l9.7 34.9q3 11 5.4 20.5 2.5 9.4 3.4 13.3l0.8 4q1.9-13.1 8.2-38l9.1-36.2h23l-26.3 98.8h-25.3l-8.6-31.2q-3.1-11.3-5.1-19.1-1.9-7.7-2.4-9.9l-0.3-2.2q-0.4 6-7.9 31.2z"/>
	<path id="POSTNEW.in copy" class="s2" d="m826.5 160.3q3.4 3.4 3.4 8.2 0 4.8-3.4 8.2-3.4 3.3-8.2 3.3-4.8 0-8.1-3.3-3.4-3.4-3.4-8.2 0-4.8 3.4-8.2 3.3-3.3 8.1-3.3 4.8 0 8.2 3.3zm35.9-47.1v65.8h-18.9v-65.8zm-1.7-26.8q3.3 3.2 3.3 7.8 0 4.5-3.3 7.8-3.2 3.2-7.8 3.2-4.5 0-7.8-3.2-3.2-3.3-3.2-7.8 0-4.6 3.2-7.8 3.3-3.2 7.8-3.2 4.6 0 7.8 3.2zm78.2 49.9v42.7h-18.9v-39.2q0-5.8-2.7-8.8-2.8-3.1-7.7-3.1-5.2 0-8.7 4.2-3.4 4-3.4 12.1v34.8h-18.9v-65.8h18.9v11.2q2.5-5.4 7.6-8.6 5.2-3.2 12.3-3.2 10.1 0 15.8 6.1 5.7 6 5.7 17.6z"/>
</svg>