<svg version="1.2" xmlns="http://www.w3.org/2000/svg" viewBox="0 0 547 547" width="547" height="547">
	<title>New Project</title>
	<style>
		.s0 { fill: #e9e9e9 } 
		.s1 { fill: #cccccc } 
		.s2 { fill: #f8f8f8 } 
		.s3 { fill: #c0c0c0 } 
		.s4 { fill: #ffffff } 
		.s5 { fill: #545454 } 
	</style>
	<path id="Shape 3" class="s0" d="m0 0h547v547h-547z"/>
	<path id="Shape 1 copy 3" class="s1" d="m138.2 190c-0.9-2.6 0.5-5.5 3.1-6.4l123.7-42.3c2.6-0.8 5.5 0.5 6.4 3.2l42.2 123.7c0.9 2.6-0.5 5.4-3.1 6.3l-123.7 42.3c-2.6 0.9-5.4-0.5-6.3-3.1z"/>
	<g id="Folder 1">
		<path id="Shape 1" class="s2" d="m236 109.2c0.5-2.7 3.1-4.5 5.8-3.9l167.8 33c2.7 0.5 4.5 3.1 3.9 5.8l-33 167.8c-0.5 2.7-3.1 4.5-5.8 3.9l-167.8-33c-2.7-0.5-4.5-3.1-3.9-5.8z"/>
		<path id="Shape 1 copy" class="s3" d="m244.2 121.5c0.6-2.7 3.2-4.5 5.9-3.9l147.2 28.9c2.7 0.5 4.5 3.2 4 5.9l-29 147.2c-0.5 2.7-3.2 4.5-5.9 3.9l-147.2-28.9c-2.7-0.5-4.5-3.2-3.9-5.9z"/>
		<path id="Shape 1 copy 2" class="s4" d="m262.1 148.1c0.5-2.7 3.2-4.4 5.9-3.9l102.7 20.2c2.7 0.5 4.4 3.2 3.9 5.9l-20.2 102.7c-0.5 2.7-3.2 4.4-5.9 3.9l-102.7-20.2c-2.7-0.5-4.4-3.2-3.9-5.9z"/>
		<path id="Shape 2" class="s1" d="m248 250l99 19 12-57-60 25-15-24-32 18z"/>
	</g>
	<path id="NO POST AVAILABLE" fill-rule="evenodd" class="s5" d="m197.4 419.3v11.7h-6.5v-28.3h7.1l6.6 11.7q1.4 2.5 2.4 4.7 1 2.1 1.3 3l0.4 0.9q-0.5-3.1-0.5-8.6v-11.7h6.5v28.3h-7.1l-6.8-11.7q-1.3-2.3-2.4-4.5-1-2.2-1.3-3.2l-0.4-1.1q0.7 3.8 0.7 8.8zm49.3-2.5q0 6.5-3.8 10.5-3.8 4-10 4-6.3 0-10-4-3.8-4-3.8-10.5 0-6.5 3.8-10.5 3.7-4.1 10-4.1 6.3 0 10 4 3.8 4 3.8 10.6zm-18.8-6.3q-1.9 2.3-1.9 6.3 0 4 1.9 6.3 1.8 2.3 5 2.3 3.1 0 5-2.3 1.8-2.3 1.8-6.3 0-4-1.8-6.3-1.9-2.4-5-2.4-3.2 0-5 2.4zm43.4 11.3h-3.3v9.2h-6.4v-28.3h9.7q4.7 0 7.6 2.6 3 2.7 3 6.8 0 4.6-3.1 7.2-3 2.5-7.5 2.5zm-0.7-13.9h-2.6v8.8h2.2q5.1 0 5.1-4.6 0-4.2-4.7-4.2zm41.1 8.9q0 6.5-3.8 10.5-3.7 4-10 4-6.3 0-10-4-3.7-4-3.7-10.5 0-6.5 3.7-10.5 3.8-4.1 10-4.1 6.3 0 10.1 4 3.7 4 3.7 10.6zm-18.8-6.3q-1.8 2.3-1.8 6.3 0 4 1.8 6.3 1.9 2.3 5 2.3 3.2 0 5-2.3 1.9-2.3 1.9-6.3 0-4-1.9-6.3-1.8-2.4-5-2.4-3.1 0-5 2.4zm40.8 12.3q0 3.8-2.8 6.2-2.8 2.3-7.5 2.3-5 0-8.1-1.7v-6.5q3.8 2.7 8.1 2.7 1.5 0 2.5-0.7 0.9-0.8 0.9-2.1 0-0.4-0.1-0.8-0.1-0.4-0.4-0.7-0.4-0.3-0.7-0.5-0.3-0.3-0.9-0.6-0.6-0.3-1-0.5-0.5-0.2-1.3-0.6-0.8-0.4-1.3-0.6-2.7-1.3-4.4-3.1-1.7-1.9-1.7-4.9 0-3.7 2.7-5.9 2.7-2.3 7.5-2.3 4.2 0 7.3 1.5v6q-3.4-2-7.1-2-1.6 0-2.5 0.7-0.8 0.7-0.8 1.7 0 1.1 1 1.9 1.1 0.8 3.2 1.7 1.3 0.6 2.1 1.1 0.9 0.4 2 1.2 1.1 0.8 1.7 1.6 0.7 0.9 1.2 2.1 0.4 1.3 0.4 2.8zm22.9-20.1v5.2h-6.9v23.1h-6.5v-23.1h-6.9v-5.2zm-182.5 72.5l-1.7 5.8h-6.8l9.5-28.3h8.1l9.5 28.3h-7l-1.7-5.8zm1.9-6.2l-0.3 1h6.8l-0.3-1q-1.2-4.1-2-7-0.8-2.9-1-3.8l-0.1-0.8q-0.4 2.3-3.1 11.6zm44.5-16.3l-9.5 28.3h-7.1l-9.5-28.3h7l3.4 11.3q0.9 3 1.6 5.8 0.7 2.8 0.9 4.1l0.2 1.3q0.7-4.4 2.7-11.2l3.4-11.3zm10.3 22.5l-1.7 5.8h-6.8l9.5-28.3h8.1l9.4 28.3h-6.9l-1.7-5.8zm1.8-6.2l-0.2 1h6.8l-0.3-1q-1.3-4.1-2.1-7-0.7-2.9-0.9-3.8l-0.1-0.8q-0.4 2.3-3.2 11.6zm27.3-16.3v28.3h-6.4v-28.3zm22.8 22.6v5.7h-16.9v-28.3h6.4v22.6zm10.3-0.1l-1.7 5.8h-6.8l9.5-28.3h8.1l9.5 28.3h-7l-1.7-5.8zm1.9-6.2l-0.3 1h6.8l-0.3-1q-1.2-4.1-2-7-0.8-2.9-0.9-3.8l-0.2-0.8q-0.4 2.3-3.1 11.6zm32.6 12h-12.2v-28.3h11q4.7 0 7.1 2.2 2.4 2.2 2.4 5.6 0 2.2-1.1 3.9-1.2 1.7-3.1 2.3 4.9 1.4 4.9 6.6 0 3.4-2.4 5.6-2.4 2.1-6.6 2.1zm-2.3-23.1h-3.4v6.3h2.4q2.5 0 3.7-0.9 1.3-0.9 1.3-2.5 0-2.9-4-2.9zm0 11.4h-3.4v6.5h3.4q4.7 0 4.7-3.2 0-3.3-4.7-3.3zm32.4 6v5.7h-16.9v-28.3h6.5v22.6zm21.1 0.5v5.2h-17.6v-28.3h17.5v5.2h-11v6.4h9.8v5.1h-9.8v6.4z"/>
</svg>