<svg version="1.2" xmlns="http://www.w3.org/2000/svg" viewBox="0 0 190 190" width="190" height="190">
	<title>New Project</title>
	<style>
		.s0 { fill: #ffffff } 
		.s1 { fill: #fe0000 } 
	</style>
	<path id="Shape 3" class="s0" d="m-1-2h193v195h-193z"/>
	<path id="Shape 1" class="s1" d="m95 149.2c-29.9 0-54.2-24.3-54.2-54.2 0-29.9 24.3-54.2 54.2-54.2 29.9 0 54.2 24.3 54.2 54.2 0 29.9-24.3 54.2-54.2 54.2z"/>
	<path id="Shape 2" class="s0" d="m89.3 76.6c0-3.5 2.8-6.3 6.3-6.3 3.5 0 6.4 2.8 6.4 6.3v36.8c0 3.5-2.9 6.4-6.4 6.4-3.5 0-6.3-2.9-6.3-6.4zm24.7 12c3.5 0 6.4 2.8 6.4 6.4 0 3.5-2.9 6.3-6.4 6.3h-36.7c-3.6 0-6.4-2.8-6.4-6.3 0-3.6 2.8-6.4 6.4-6.4z"/>
</svg>