<?xml version="1.0" standalone="no"?>
<!DOCTYPE svg PUBLIC "-//W3C//DTD SVG 1.1//EN" "http://www.w3.org/Graphics/SVG/1.1/DTD/svg11.dtd" >
<svg xmlns="http://www.w3.org/2000/svg">
<metadata>Generated by IcoMoon</metadata>
<defs>
<font id="font-icons" horiz-adv-x="1024">
<font-face units-per-em="1024" ascent="960" descent="-64" />
<missing-glyph horiz-adv-x="1024" />
<glyph unicode="&#x20;" horiz-adv-x="512" d="" />
<glyph unicode="&#xe900;" glyph-name="user-plus" d="M746.93 1.91c-24.178 0-43.781 19.6-43.781 43.781v0 89.218c-0.074 74.268-60.258 134.456-134.523 134.527h-312.27c-74.299 0-134.527-60.231-134.527-134.527v-89.218c0-24.178-19.6-43.781-43.781-43.781s-43.781 19.6-43.781 43.781v0 89.218c0.035 122.63 99.454 222.024 222.089 222.024 0.088 0 0.18 0 0.269 0h312.248c122.597-0.143 221.945-99.492 222.089-222.074v-89.233c-0.034-24.153-19.623-43.718-43.781-43.718-0.088 0-0.18 0-0.268 0.001h0.015zM412.617 894.090c122.655 0 222.089-99.433 222.089-222.089s-99.433-222.089-222.089-222.089c-122.655 0-222.089 99.433-222.089 222.089v0c0.143 122.597 99.492 221.945 222.074 222.089h0.015zM412.617 537.218c74.299 0 134.526 60.231 134.526 134.527s-60.231 134.527-134.527 134.527c-74.207 0-134.383-60.084-134.526-134.258v-0.015c0.074-74.268 60.258-134.456 134.523-134.527h0.007zM812.248 315.258c-24.178 0-43.781 19.6-43.781 43.781v0 267.654c0 24.178 19.6 43.781 43.781 43.781s43.781-19.6 43.781-43.781v-267.654c0-24.178-19.6-43.781-43.781-43.781v0zM945.951 448.956h-267.654c-24.178 0-43.781 19.6-43.781 43.781s19.6 43.781 43.781 43.781h267.654c24.178 0 43.781-19.6 43.781-43.781s-19.6-43.781-43.781-43.781v0z" />
<glyph unicode="&#xe901;" glyph-name="user" d="M871.728-32c-26.016 0-47.109 21.090-47.109 47.109v0 96c-0.079 79.914-64.839 144.677-144.749 144.753h-336.008c-79.947 0-144.753-64.809-144.753-144.753v-96c0-26.016-21.090-47.109-47.109-47.109s-47.109 21.090-47.109 47.109v0 96c0.038 131.952 107.014 238.902 238.971 238.902 0.095 0 0.194 0 0.289 0h335.984c131.916-0.154 238.816-107.055 238.971-238.955v-96.016c-0.037-25.989-21.115-47.041-47.109-47.041-0.095 0-0.194 0-0.288 0.001h0.016zM512.001 928c131.979 0 238.971-106.992 238.971-238.971s-106.992-238.971-238.971-238.971c-131.979 0-238.971 106.992-238.971 238.971v0c0.154 131.916 107.055 238.816 238.955 238.971h0.016zM512.001 544c79.947 0 144.752 64.809 144.752 144.753s-64.809 144.753-144.753 144.753c-79.848 0-144.598-64.651-144.752-144.464v-0.016c0.079-79.914 64.839-144.677 144.749-144.753h0.008z" />
<glyph unicode="&#xe902;" glyph-name="arrow-right" d="M325.554-12.794c-27.499 0.050-52.495 10.729-71.103 28.149l0.056-0.054c-18.214 17.432-29.533 41.937-29.533 69.088s11.32 51.655 29.498 69.053l0.035 0.033 303.289 294.306-304.209 294.653c-18.214 17.432-29.533 41.937-29.533 69.088s11.32 51.655 29.498 69.053l0.035 0.033c18.506 17.456 43.522 28.185 71.043 28.185s52.537-10.729 71.095-28.234l-0.053 0.049 375.251-363.737c17.902-17.21 29.023-41.357 29.023-68.103 0-0.344-0.002-0.692-0.006-1.035l0.001 0.054c-0.2-27.017-11.254-51.416-29.012-69.083l-0.004-0.004-374.332-363.393c-18.635-17.218-43.573-27.853-70.997-28.093l-0.050-0.001z" />
<glyph unicode="&#xe903;" glyph-name="close" d="M957.803 893.803c-45.59 45.59-119.506 45.59-165.095 0v0l-280.708-280.708-280.708 280.708c-45.59 45.59-119.506 45.59-165.095 0s-45.59-119.506 0-165.095v0l280.708-280.708-280.708-280.708c-45.59-45.59-45.59-119.506 0-165.095s119.506-45.59 165.095 0v0l280.708 280.708 280.708-280.708c45.59-45.59 119.506-45.59 165.095 0s45.59 119.506 0 165.095v0l-280.708 280.708 280.708 280.708c45.59 45.59 45.59 119.506 0 165.095v0z" />
<glyph unicode="&#xe904;" glyph-name="bars" d="M32 105.142h960v-137.142h-960v137.142zM32 379.429h960v-137.142h-960v137.142zM32 653.713h960v-137.142h-960v137.142zM32 928h960v-137.142h-960v137.142z" />
<glyph unicode="&#xe905;" glyph-name="arrow-left" d="M698.446 908.794c27.499-0.050 52.495-10.729 71.103-28.149l-0.056 0.054c18.214-17.432 29.533-41.937 29.533-69.088s-11.32-51.655-29.498-69.053l-0.035-0.033-303.289-294.306 304.209-294.653c18.214-17.432 29.533-41.937 29.533-69.088s-11.32-51.655-29.498-69.053l-0.035-0.033c-18.506-17.456-43.522-28.185-71.043-28.185s-52.537 10.729-71.095 28.234l0.053-0.049-375.251 363.737c-17.902 17.21-29.023 41.357-29.023 68.103 0 0.344 0.002 0.692 0.006 1.035l-0.001-0.054c0.2 27.017 11.254 51.416 29.012 69.083l0.004 0.004 374.332 363.393c18.635 17.218 43.573 27.853 70.997 28.093l0.050 0.001z" />
<glyph unicode="&#xe906;" glyph-name="arrow-up" d="M972.794 261.554c-0.050-27.499-10.729-52.495-28.149-71.103l0.054 0.056c-17.432-18.214-41.937-29.533-69.088-29.533s-51.655 11.32-69.053 29.498l-0.033 0.035-294.306 303.289-294.653-304.209c-17.432-18.214-41.937-29.533-69.088-29.533s-51.655 11.32-69.053 29.498l-0.033 0.035c-17.456 18.506-28.185 43.522-28.185 71.043s10.729 52.537 28.234 71.095l-0.049-0.053 363.737 375.251c17.21 17.902 41.357 29.023 68.103 29.023 0.344 0 0.692-0.002 1.035-0.006l-0.054 0.001c27.017-0.2 51.416-11.254 69.083-29.012l0.004-0.004 363.393-374.332c17.218-18.635 27.853-43.573 28.093-70.997l0.001-0.050z" />
<glyph unicode="&#xe907;" glyph-name="sun" d="M713.748 448.602c0-111.794-90.628-202.422-202.422-202.422s-202.422 90.628-202.422 202.422c0 111.794 90.628 202.422 202.422 202.422v0c111.794 0 202.422-90.628 202.422-202.422v0zM511.474 721.505c26.833 0.057 48.574 21.797 48.631 48.625v101.242c0 26.858-21.772 48.631-48.631 48.631s-48.631-21.772-48.631-48.631v0-102.342c0.507-26.407 22.037-47.624 48.523-47.624 0.037 0 0.078 0 0.115 0h-0.006zM250.454 642.065c8.656-8.58 20.572-13.88 33.727-13.88s25.072 5.299 33.731 13.884l-0.004-0.004c8.733 8.772 14.131 20.871 14.131 34.233s-5.399 25.459-14.131 34.235l-72.439 72.439c-8.842 9.307-21.314 15.099-35.135 15.099-26.747 0-48.428-21.683-48.428-48.428 0-13.824 5.792-26.29 15.076-35.117l0.023-0.021zM238.572 448.503c-0.057 26.833-21.797 48.574-48.625 48.631h-101.242c-26.858 0-48.631-21.772-48.631-48.631s21.772-48.631 48.631-48.631h102.342c26.407 0.507 47.624 22.037 47.624 48.523 0 0.037 0 0.078 0 0.115v-0.006zM250.405 255.091l-72.441-72.441c-8.733-8.772-14.131-20.871-14.131-34.233s5.399-25.459 14.131-34.235l-0.002 0.002c8.656-8.58 20.572-13.88 33.727-13.88s25.072 5.299 33.731 13.884l72.437 72.437c8.733 8.772 14.131 20.871 14.131 34.233s-5.399 25.459-14.131 34.235l0.002-0.002c-8.588 8.724-20.527 14.131-33.727 14.131s-25.14-5.404-33.72-14.126l-0.006-0.007zM511.474 175.65c-26.833-0.057-48.574-21.797-48.631-48.625v-102.397c0-26.858 21.772-48.631 48.631-48.631s48.631 21.772 48.631 48.631v0 102.193c0 0.030 0 0.066 0 0.099 0 26.875-21.759 48.673-48.625 48.73h-0.006zM772.495 255.091c-8.663 8.231-20.404 13.295-33.328 13.295-26.747 0-48.428-21.683-48.428-48.428 0-12.924 5.061-24.666 13.311-33.351l-0.021 0.023 72.441-72.441c8.656-8.58 20.572-13.88 33.727-13.88s25.072 5.299 33.731 13.884l-0.004-0.004c8.733 8.772 14.131 20.871 14.131 34.233s-5.399 25.459-14.131 34.235l0.002-0.002zM934.24 497.184h-101.236c-26.858 0-48.631-21.772-48.631-48.631s21.772-48.631 48.631-48.631h102.292c26.833 0.057 48.574 21.797 48.631 48.625v0.006c-0.537 26.972-22.527 48.631-49.578 48.631-0.037 0-0.079 0-0.116 0h0.007zM738.713 627.165c13.134 0.131 25.015 5.404 33.738 13.903l-0.012-0.011 72.441 72.441c9.307 8.842 15.099 21.314 15.099 35.135 0 26.747-21.683 48.428-48.428 48.428-13.824 0-26.29-5.792-35.117-15.076l-0.021-0.023-72.441-72.441c-8.733-8.772-14.131-20.871-14.131-34.233s5.399-25.459 14.131-34.235l-0.002 0.002c9.068-8.518 21.275-13.781 34.715-13.895h0.024z" />
<glyph unicode="&#xe908;" glyph-name="dashboard" d="M546.348 448.891c0-0.002 0-0.005 0-0.008 0-18.931-15.348-34.28-34.28-34.28s-34.28 15.348-34.28 34.28c0 18.931 15.348 34.28 34.28 34.28 9.447 0 18.002-3.82 24.203-10.002l-0.001 0.001c6.224-6.207 10.076-14.786 10.078-24.268v0zM991.992 414.612c-7.433-105.176-47.985-199.658-111.168-274.395l0.578 0.702c-8.779 20.176-20.731 37.379-35.42 51.807l-0.026 0.025-44.702 44.291c-24.807 24.815-59.083 40.167-96.943 40.176h-384.627c-37.862-0.009-72.134-15.361-96.945-40.175v0l-44.702-44.291c-14.716-14.452-26.668-31.656-35.040-50.787l-0.406-1.045c-62.603 74.036-103.154 168.519-110.502 272.176l-0.088 1.517h67.259c18.931 0 34.28 15.348 34.28 34.28s-15.348 34.28-34.28 34.28v0h-67.052c17.986 238.218 207.016 427.034 443.711 444.589l1.59 0.093v-66.913c0-18.931 15.348-34.28 34.28-34.28s34.28 15.348 34.28 34.28v0 66.913c238.284-17.65 427.313-206.465 445.203-443.066l0.097-1.616h-67.052c-18.931 0-34.28-15.348-34.28-34.28s15.348-34.28 34.28-34.28v0zM742.707 679.256c-6.208 6.243-14.806 10.107-24.305 10.107s-18.093-3.864-24.304-10.105l-0.002-0.002-137.808-137.601c-12.91 6.448-28.108 10.258-44.189 10.35h-0.030c-56.797 0-102.839-46.042-102.839-102.839s46.042-102.839 102.839-102.839c56.797 0 102.839 46.042 102.839 102.839v0c-0.090 16.090-3.905 31.267-10.619 44.743l0.268-0.59 137.808 137.67c6.221 6.208 10.070 14.787 10.070 24.269s-3.85 18.064-10.069 24.268l-0.001 0.001zM797.553 144.003l-44.495 44.426c-12.407 12.411-29.55 20.088-48.489 20.088-0.042 0-0.088 0-0.13 0h-383.931c-0.035 0-0.081 0-0.123 0-18.935 0-36.079-7.677-48.488-20.088v0l-44.495-44.426c-18.79-18.639-30.422-44.472-30.422-73.020 0-56.797 46.042-102.839 102.839-102.839 0.186 0 0.373 0.001 0.559 0.002h424.428c0.156-0.001 0.342-0.001 0.528-0.001 56.797 0 102.839 46.042 102.839 102.839 0 28.548-11.631 54.377-30.415 73.012l-0.007 0.007z" />
<glyph unicode="&#xe909;" glyph-name="download" d="M405.339 928v-432h-156.411l263.382-280.113 262.56 280.113h-155.727v432zM92.928 139.429h838.149v-171.429h-838.149v171.429z" />
<glyph unicode="&#xe90a;" glyph-name="expand" d="M292.601 794.199l138.027-140.086-127.056-128.907-138.027 140.086-83.105-84.338c-4.819-4.901-11.52-7.942-18.929-7.942-14.656 0-26.537 11.881-26.537 26.537 0 0.189 0.002 0.377 0.006 0.564v-0.030l-4.938 300.74c-0.026 0.415-0.036 0.902-0.036 1.392 0 14.199 11.512 25.712 25.712 25.712 0.35 0 0.699-0.007 1.049-0.022l-0.049 0.002 296.489-4.799c14.637-0.642 26.26-12.666 26.26-27.402 0-7.255-2.818-13.853-7.417-18.758l0.015 0.016zM963.951 927.907l-296.489-4.799c-14.637-0.642-26.26-12.666-26.26-27.402 0-7.255 2.818-13.853 7.417-18.758l-0.015 0.016 83.105-84.338-138.096-140.086 127.056-128.907 138.027 140.086 83.105-84.338c4.819-4.901 11.52-7.942 18.929-7.942 14.656 0 26.537 11.881 26.537 26.537 0 0.189-0.002 0.377-0.006 0.564v-0.030l4.73 300.81c0.001 0.061 0.001 0.134 0.001 0.208 0 15.617-12.639 28.282-28.247 28.319h-0.004zM942.009 316.692l-83.105-84.338-138.027 140.086-127.264-130.69 137.824-139.947-82.967-82.76c-4.905-4.889-7.943-11.659-7.943-19.131 0-14.845 11.97-26.892 26.786-27.016h0.013l296.489-4.799c0.297-0.013 0.646-0.021 0.996-0.021 14.199 0 25.712 11.512 25.712 25.712 0 0.49-0.015 0.976-0.039 1.459l0.003-0.067-4.73 300.81c0.058 0.653 0.090 1.411 0.090 2.182 0 14.313-11.606 25.919-25.919 25.919-7.056 0-13.457-2.821-18.131-7.397l0.005 0.005zM303.571 374.014l-138.027-140.086-83.105 84.338c-4.819 4.901-11.52 7.942-18.929 7.942-14.656 0-26.537-11.881-26.537-26.537 0-0.189 0.002-0.377 0.006-0.564v0.030l-4.938-300.81c-0.026-0.415-0.036-0.902-0.036-1.392 0-14.199 11.512-25.712 25.712-25.712 0.35 0 0.699 0.007 1.049 0.022l-0.049-0.002 296.489 4.799c14.637 0.642 26.26 12.666 26.26 27.402 0 7.255-2.818 13.853-7.417 18.758l0.015-0.016-81.458 82.829 138.027 140.086z" />
<glyph unicode="&#xe90b;" glyph-name="info" d="M975.822 884.346c-12.995 15.932-32.627 26.027-54.617 26.027-0.735 0-1.47-0.012-2.199-0.032l0.106 0.003h-813.362c-0.72 0.027-1.563 0.039-2.409 0.039-19.207 0-36.673-7.43-49.689-19.575l0.042 0.038c-12.711-12.97-20.554-30.747-20.554-50.36 0-0.767 0.013-1.531 0.034-2.288l-0.003 0.111v-841.886c0.263-6.024 5.213-10.807 11.278-10.807 2.967 0 5.665 1.143 7.679 3.015l-0.008-0.007 224.103 191.129c9.234 7.937 18.469 15.938 27.772 23.668h541.714c25.241 0 50.552-1.094 75.658 0h1.643c3.214 0 3.214 0 0 0 37.242 0.979 67.131 31.107 67.721 68.348l0.001 0.057c0 6.842 0 14.433 0 21.548v541.714c0.081 1.287 0.125 2.791 0.125 4.306 0 16.96-5.65 32.595-15.172 45.134l0.136-0.186zM561.482 356.589c-0.077-6.127-5.023-11.073-11.143-11.15h-77.033c-6.069 0.15-10.941 5.069-11.012 11.143v77.102c0.115 6.008 4.996 10.838 11.011 10.878h77.098c6.020-0.036 10.897-4.869 11.012-10.866v-77.105zM561.482 510.297c-0.035-5.981-4.891-10.812-10.878-10.812-0.095 0-0.194 0.001-0.288 0.004h-77.014c-0.040-0.001-0.088-0.001-0.14-0.001-5.934 0-10.761 4.755-10.875 10.664v247.78c0.069 6.141 4.911 11.126 10.987 11.422l0.029 0.001h77.094c6.101-0.298 10.947-5.286 11.012-11.416v-247.638z" />
<glyph unicode="&#xe90c;" glyph-name="fullscreen" d="M992.092 613.41v269.016c-0.366 25.040-20.566 45.24-45.573 45.606h-268.929c-25.186 0-45.606-20.42-45.606-45.606s20.42-45.606 45.606-45.606h268.896l-45.606 45.606v-269.016c0-25.186 20.42-45.606 45.606-45.606s45.606 20.42 45.606 45.606v0zM900.88 282.47v-268.896l45.606 45.606h-268.896c-25.186 0-45.606-20.42-45.606-45.606s20.42-45.606 45.606-45.606h268.896c25.040 0.366 45.24 20.566 45.606 45.573v268.929c0 25.186-20.42 45.606-45.606 45.606s-45.606-20.42-45.606-45.606v0zM123.12 613.41v268.896l-45.606-45.606h268.896c25.186 0 45.606 20.42 45.606 45.606s-20.42 45.606-45.606 45.606h-268.896c-25.040-0.366-45.24-20.566-45.606-45.573v-268.929c0-25.186 20.42-45.606 45.606-45.606s45.606 20.42 45.606 45.606v0zM31.908 282.47v-268.896c0.366-25.040 20.566-45.24 45.573-45.606h268.929c25.186 0 45.606 20.42 45.606 45.606s-20.42 45.606-45.606 45.606h-268.896l45.606-45.606v268.896c0 25.186-20.42 45.606-45.606 45.606s-45.606-20.42-45.606-45.606v0z" />
<glyph unicode="&#xe90d;" glyph-name="bars-1" d="M101.332 800h821.332c32.402 0 58.668-26.266 58.668-58.668s-26.266-58.668-58.668-58.668h-821.332c-32.402 0-58.668 26.266-58.668 58.668s26.266 58.668 58.668 58.668zM101.332 506.668h821.332c32.402 0 58.668-26.266 58.668-58.668s-26.266-58.668-58.668-58.668h-821.332c-32.402 0-58.668 26.266-58.668 58.668s26.266 58.668 58.668 58.668zM101.332 213.332h821.332c32.402 0 58.668-26.266 58.668-58.668s-26.266-58.668-58.668-58.668h-821.332c-32.402 0-58.668 26.266-58.668 58.668s26.266 58.668 58.668 58.668z" />
<glyph unicode="&#xe90e;" glyph-name="arrow-down" d="M51.206 634.446c0.050 27.499 10.729 52.495 28.149 71.103l-0.054-0.056c17.432 18.214 41.937 29.533 69.088 29.533s51.655-11.32 69.053-29.498l0.033-0.035 294.306-303.289 294.653 304.209c17.432 18.214 41.937 29.533 69.088 29.533s51.655-11.32 69.053-29.498l0.033-0.035c17.456-18.506 28.185-43.522 28.185-71.043s-10.729-52.537-28.234-71.095l0.049 0.053-363.737-375.251c-17.21-17.902-41.357-29.023-68.103-29.023-0.344 0-0.692 0.002-1.035 0.006l0.054-0.001c-27.017 0.2-51.416 11.254-69.083 29.012l-0.004 0.004-363.393 374.332c-17.218 18.635-27.853 43.573-28.093 70.997l-0.001 0.050z" />
<glyph unicode="&#xe90f;" glyph-name="date-input" d="M921.069 573.868h-818.132c-17.308 0-31.468-14.16-31.468-31.468v-472c0-51.92 42.48-94.4 94.4-94.4h692.268c51.92 0 94.4 42.48 94.4 94.4v472c0 17.308-14.16 31.468-31.468 31.468zM354.669 133.332c0-17.308-14.16-31.468-31.468-31.468h-62.932c-17.308 0-31.468 14.16-31.468 31.468v62.932c0 17.308 14.16 31.468 31.468 31.468h62.932c17.308 0 31.468-14.16 31.468-31.468v-62.932zM574.933 133.332c0-17.308-14.16-31.468-31.468-31.468h-62.932c-17.308 0-31.468 14.16-31.468 31.468v62.932c0 17.308 14.16 31.468 31.468 31.468h62.932c17.308 0 31.468-14.16 31.468-31.468v-62.932zM574.933 353.6c0-17.308-14.16-31.468-31.468-31.468h-62.932c-17.308 0-31.468 14.16-31.468 31.468v62.932c0 17.308 14.16 31.468 31.468 31.468h62.932c17.308 0 31.468-14.16 31.468-31.468v-62.932zM795.201 353.6c0-17.308-14.16-31.468-31.468-31.468h-62.932c-17.308 0-31.468 14.16-31.468 31.468v62.932c0 17.308 14.16 31.468 31.468 31.468h62.932c17.308 0 31.468-14.16 31.468-31.468v-62.932zM858.133 825.6h-78.668v31.468c0 34.612-28.32 62.932-62.932 62.932s-62.932-28.32-62.932-62.932v-31.468h-283.2v31.468c0 34.612-28.32 62.932-62.932 62.932s-62.932-28.32-62.932-62.932v-31.468h-78.668c-51.92 0-94.4-42.48-94.4-94.4v-31.468c0-17.308 14.16-31.468 31.468-31.468h818.132c17.308 0 31.468 14.16 31.468 31.468v31.468c0 51.92-42.48 94.4-94.4 94.4z" />
<glyph unicode="&#xe910;" glyph-name="sitemap" d="M955.964 291.492h-91.992v51.067c0 67.442-54.674 122.116-122.116 122.116h-122.476v34.42c0 18.383-14.905 33.288-33.288 33.288v0h-41.044v72.124h85.488c0.325-0.013 0.708-0.020 1.092-0.020 17.791 0 32.216 14.422 32.216 32.216 0 0.384-0.007 0.767-0.022 1.147l0.002-0.055v216.435c0 18.383-14.905 33.288-33.288 33.288v0h-237.313c-18.383 0-33.288-14.905-33.288-33.288v0-216.435c-0.013-0.325-0.020-0.708-0.020-1.092 0-17.791 14.422-32.216 32.216-32.216 0.384 0 0.767 0.007 1.147 0.022l-0.055-0.002h85.488v-72.124h-41.044c-18.383 0-33.288-14.905-33.288-33.288v0-34.42h-122.116c-0.034 0-0.079 0-0.12 0-67.442 0-122.116-54.674-122.116-122.116v0-51.067h-91.992c-18.383 0-33.288-14.905-33.288-33.288v0-216.435c0.607-18.136 15.152-32.681 33.231-33.286l0.057-0.002h238.627c18.383 0 33.288 14.905 33.288 33.288v0 216.435c0.013 0.325 0.020 0.708 0.020 1.092 0 17.791-14.422 32.216-32.216 32.216-0.384 0-0.767-0.007-1.147-0.022l0.055 0.002h-79.94v51.067c0 30.64 24.84 55.48 55.48 55.48v0h122.416v-37.764c-0.013-0.325-0.020-0.708-0.020-1.092 0-17.791 14.422-32.216 32.216-32.216 0.384 0 0.767 0.007 1.147 0.022l-0.055-0.002h148.724c0.325-0.013 0.708-0.020 1.092-0.020 17.791 0 32.216 14.422 32.216 32.216 0 0.384-0.007 0.767-0.022 1.147l0.002-0.055v38.060h122.116c30.64 0 55.48-24.84 55.48-55.48v0-51.067h-79.94c-0.325 0.013-0.708 0.020-1.092 0.020-17.791 0-32.216-14.422-32.216-32.216 0-0.384 0.007-0.767 0.022-1.147l-0.002 0.055v-216.435c0-18.383 14.905-33.288 33.288-33.288v0h238.627c17.936 0.723 32.294 15.062 33.046 32.921l0.003 0.071v216.435c0 18.383-14.905 33.288-33.288 33.288v0z" />
<glyph unicode="&#xe911;" glyph-name="round-right" d="M992 448c0-265.098-214.902-480-480-480s-480 214.902-480 480c0 265.098 214.902 480 480 480v0c265.098 0 480-214.902 480-480v0zM695.36 413.713l-129.393-131.727c-10.209-10.251-24.333-16.594-39.942-16.594-31.13 0-56.368 25.235-56.368 56.368 0 15.521 6.273 29.58 16.425 39.773l0.547 0.547c16.593 16.32 11.109 29.691-12.273 29.691h-103.611c-31.050 0.079-56.21 25.188-56.367 56.213v0.016c0.117 31.054 25.298 56.19 56.363 56.229h103.546c23.382 0 28.938 13.302 12.273 29.691l-0.549 0.549c-10.15 10.191-16.423 24.249-16.423 39.771 0 31.13 25.235 56.368 56.368 56.368 15.608 0 29.732-6.343 39.94-16.591l0.002-0.002 129.258-130.287c8.89-9.030 14.377-21.43 14.377-35.112 0-13.58-5.407-25.892-14.185-34.911l0.012 0.012zM879.062 448c0 202.722-164.34 367.062-367.062 367.062s-367.062-164.34-367.062-367.062c0-202.722 164.34-367.062 367.062-367.062v0c202.722 0 367.062 164.34 367.062 367.062v0z" />
<glyph unicode="&#xe912;" glyph-name="network" d="M32.087 256.080c3.261-52.056 46.277-93.042 98.866-93.042 1.667 0 3.328 0.040 4.973 0.123l-0.231-0.010c0.248-0.002 0.539-0.003 0.831-0.003 29.189 0 55.742 11.273 75.548 29.702l-0.068-0.062 200.376-104.147c-2.897-7.83-4.57-16.872-4.57-26.307 0-0.452 0.004-0.908 0.012-1.358l-0.001 0.069c3.261-52.056 46.277-93.042 98.866-93.042 1.667 0 3.328 0.040 4.973 0.123l-0.231-0.010c1.414-0.073 3.075-0.113 4.741-0.113 52.59 0 95.609 40.987 98.85 92.759l0.015 0.284c0.017 0.57 0.026 1.236 0.026 1.908 0 9.221-1.681 18.052-4.754 26.199l0.168-0.51 200.376 104.147c19.449-18.362 45.75-29.649 74.683-29.649 0.57 0 1.144 0.005 1.712 0.014l-0.088-0.001c1.414-0.073 3.075-0.113 4.741-0.113 52.59 0 95.609 40.987 98.85 92.759l0.015 0.284c-1.77 46.482-36.562 84.33-81.499 90.828l-0.511 0.061v203.075c45.566 6.79 80.507 44.387 83.138 90.631l0.012 0.258c-3.261 52.056-46.277 93.042-98.866 93.042-1.667 0-3.328-0.040-4.973-0.123l0.231 0.010c-0.208 0.002-0.45 0.002-0.694 0.002-29.955 0-57.083-12.101-76.762-31.683l0.005 0.005-200.376 104.147c3.468 8.463 5.549 18.274 5.698 28.556l0.001 0.061c-3.261 52.056-46.277 93.042-98.866 93.042-1.667 0-3.328-0.040-4.973-0.123l0.231 0.010c-1.414 0.073-3.075 0.113-4.741 0.113-52.59 0-95.609-40.987-98.85-92.759l-0.015-0.284c0.15-10.343 2.232-20.154 5.894-29.154l-0.195 0.538-200.376-104.147c-19.674 19.578-46.802 31.678-76.757 31.678-0.245 0-0.489-0.001-0.734-0.003h0.036c-1.414 0.073-3.075 0.113-4.741 0.113-52.59 0-95.609-40.987-98.85-92.759l-0.015-0.284c2.246-45.927 36.185-83.298 80.3-90.81l0.57-0.082v-203.975c-45.362-6.101-80.227-43.714-82.004-89.813l-0.006-0.176zM216.565 582.861l83.15-42.895c-14.355-26.13-22.798-57.261-22.798-90.362 0-0.186 0-0.371 0.001-0.557v0.030c0.393-32.005 7.923-62.155 21.062-89.068l-0.545 1.235-83.99-41.995c-15.184 14.534-34.632 24.728-56.281 28.524l-0.652 0.093v202.176c23.932 4.297 44.59 16.057 59.986 32.742l0.067 0.074zM867.85 550.165v-203.195c-23.462-4.283-43.768-15.594-59.18-31.641l-0.033-0.035-78.59 40.855c14.803 26.864 23.652 58.828 23.996 92.825l0.001 0.104c-0.197 32.85-8.179 63.793-22.188 91.132l0.531-1.143 80.87 39.835c14.35-14.587 33.032-24.87 53.965-28.761l0.63-0.096zM710.729 449.077c-0.079-26.881-6.726-52.192-18.421-74.433l0.423 0.882-55.793 28.617c6.471 12.936 10.261 28.186 10.261 44.319 0 0.215-0.001 0.433-0.002 0.647v-0.031c-0.081 15.537-3.43 30.27-9.391 43.581l0.272-0.686 56.933 28.617c9.925-20.906 15.718-45.423 15.718-71.294 0-0.078 0-0.152 0-0.23v0.013zM490.972 332.691v-58.193c-54.885 5.428-102.601 32.355-135.247 72.123l-0.277 0.348 56.933 28.617c20.2-21.972 47.252-37.358 77.755-42.772l0.836-0.123zM534.23 332.691c31.43 3.711 59.015 17.85 79.716 38.801l0.014 0.014 56.933-28.617c-33.928-38.591-81.958-64.075-135.96-68.348l-0.704-0.044zM616.24 524.668c-21.155 21.985-49.556 36.864-81.348 40.788l-0.662 0.067v58.193c56.032-4.251 105.089-31.002 138.689-71.137l0.256-0.314zM490.972 565.523c-30.607-4.84-57.239-19.164-77.428-39.81l-0.027-0.027-55.793 28.617c32.839 38.477 79.616 64.213 132.429 69.348l0.815 0.064zM393.063 491.972c-5.689-12.625-9.038-27.358-9.119-42.868v-0.030c0.383-14.776 3.274-28.765 8.267-41.708l-0.288 0.853-56.933-28.617c-9.903 19.978-15.772 43.476-15.958 68.33v0.062c0.348 26.076 6.625 50.61 17.536 72.416l-0.438-0.965zM234.803 226.444c3.565 9.094 5.65 19.626 5.699 30.634v0.022c-0.15 10.694-2.231 20.855-5.902 30.22l0.203-0.584 83.99 41.995c41.228-52.13 102.661-86.718 172.283-91.862l0.8-0.047v-83.99c-22.377-4.267-41.803-14.789-56.951-29.654l0.018 0.018zM591.223 122.292c-14.896 15.215-34.436 25.831-56.324 29.55l-0.609 0.087v82.73c70.050 4.434 131.604 37.473 173.672 87.454l0.307 0.375 80.87-41.995c-2.173-7.482-3.422-16.080-3.422-24.968 0-0.209 0.001-0.414 0.002-0.623v0.030c0.255-11.065 2.321-21.566 5.914-31.329l-0.215 0.673zM790.459 670.63c-3.467-8.463-5.548-18.274-5.698-28.556l-0.001-0.061c0.15-10.694 2.231-20.855 5.902-30.22l-0.203 0.584-79.73-39.835c-42.334 52.26-105.024 86.595-175.821 90.858l-0.682 0.031v81.71c22.054 4.089 41.158 14.652 55.772 29.614l0.021 0.022zM435.178 774.781c14.87-14.616 33.863-25.089 55.071-29.51l0.722-0.126v-83.99c-69.013-5.518-129.323-38.755-170.471-88.44l-0.33-0.409-83.99 43.915c2.173 7.485 3.422 16.085 3.422 24.977 0 0.206-0.001 0.408-0.002 0.614v-0.030c-0.15 10.343-2.232 20.154-5.894 29.154l0.195-0.538z" />
<glyph unicode="&#xe913;" glyph-name="setting" d="M958.253 927.798h-782.324c-0.14 0.001-0.302 0.001-0.465 0.001-39.311 0-75.005-15.465-101.338-40.642l0.055 0.052c-25.891-24.739-42.029-59.494-42.168-98.024v-638.16c0.111-32.539 13.731-61.877 35.539-82.717l0.043-0.041c22.177-21.219 52.315-34.281 85.498-34.281 0.12 0 0.241 0 0.361 0.001h314.694c0.041 0 0.090 0 0.142 0 9.208 0 17.573 3.631 23.731 9.542l-0.013-0.012c6.066 5.794 9.845 13.939 9.872 22.963v136.519h51.698v-110.185c0.33-46.366 26.094-86.638 64.021-107.598l0.636-0.324c18.63-10.505 40.904-16.695 64.623-16.695s45.992 6.19 65.291 17.041l-0.671-0.345c38.563 21.28 64.324 61.556 64.656 107.874v110.23h146.112c0.041 0 0.090 0 0.142 0 9.208 0 17.573 3.631 23.731 9.542l-0.013-0.012c6.060 5.798 9.836 13.941 9.872 22.962v659.53c-0.036 9.028-3.813 17.172-9.863 22.957l-0.013 0.012c-6.147 5.901-14.51 9.53-23.72 9.53-0.049 0-0.097 0-0.15 0h0.008zM924.521 267.998h-112.376v185.124c43.585 34.995 71.25 88.276 71.25 148.019 0 7.64-0.451 15.173-1.333 22.577l0.088-0.896c-8.677 66.422-50.020 121.561-107.119 149.378l-1.145 0.505c-4.447 2.209-9.684 3.504-15.221 3.504s-10.774-1.291-15.426-3.593l0.205 0.090c-9.282-4.575-15.983-13.171-17.865-23.455l-0.030-0.201-14.604-84.474h-56.225l-13.712 84.474c-1.9 10.486-8.606 19.091-17.705 23.57l-0.192 0.087c-4.447 2.209-9.684 3.504-15.221 3.504s-10.774-1.291-15.426-3.593l0.205 0.090c-58.697-28.209-100.396-83.594-108.984-149.389l-0.103-0.974c-0.785-6.473-1.23-13.967-1.23-21.565 0-60.145 28.030-113.743 71.738-148.45l0.39-0.299v-184.164h-401.241c-0.27 0.002-0.588 0.004-0.908 0.004-19.278 0-37.523-4.404-53.794-12.257l0.742 0.324v533.158c0.378 20.078 8.869 38.105 22.327 50.988l0.028 0.027c13.749 13.165 32.36 21.35 52.883 21.598h750.284zM331.437 605.612h66.577v-266.579h-66.577zM189.644 774.762h66.577v-439.501h-66.577z" />
<glyph unicode="&#xe914;" glyph-name="search" d="M978.974 60.828l-184.165 184.165c54.417 70.694 87.212 160.48 87.212 257.928 0 234.725-190.282 425.007-425.007 425.007s-425.007-190.282-425.007-425.007c0-234.725 190.282-425.007 425.007-425.007 97.449 0 187.235 32.794 258.927 87.952l-0.999-0.741 184.235-184.027c9.733-8.103 22.363-13.021 36.144-13.021 31.301 0 56.676 25.375 56.676 56.676 0 13.78-4.918 26.414-13.096 36.237l0.075-0.090zM457.494 191.199c-172.102 0.027-311.612 139.548-311.612 311.655 0 172.122 139.532 311.655 311.655 311.655s311.655-139.532 311.655-311.655c0-86.071-34.891-163.993-91.302-220.393l-0.001-0.001c-56.369-56.495-134.291-91.468-220.381-91.534h-0.013z" />
<glyph unicode="&#xe915;" glyph-name="minus" d="M168.969 543.493h686.062c52.74 0 95.493-42.753 95.493-95.493s-42.753-95.493-95.493-95.493v0h-686.062c-52.74 0-95.493 42.753-95.493 95.493s42.753 95.493 95.493 95.493v0z" />
<glyph unicode="&#xe916;" glyph-name="plus" d="M512 928c57.69-0.089 104.436-46.831 104.525-104.516v-270.959h270.95c57.728 0 104.525-46.797 104.525-104.525s-46.797-104.525-104.525-104.525v0h-270.95v-270.95c0-57.728-46.797-104.525-104.525-104.525s-104.525 46.797-104.525 104.525v0 270.95h-270.95c-57.728 0-104.525 46.797-104.525 104.525s46.797 104.525 104.525 104.525v0h270.95v270.95c0.089 57.69 46.831 104.436 104.516 104.525h0.009z" />
<glyph unicode="&#xe917;" glyph-name="360" d="M841.622 442.513c0-33.531-53.28-81.462-170.331-107.931-49.567-11.396-106.483-17.927-164.927-17.927-26.873 0-53.426 1.381-79.587 4.076l3.277-0.272c-14.127 1.44-27.429 3.153-40.182 4.938-5.823 35.033-9.15 75.4-9.15 116.548 0 73.286 10.555 144.103 30.229 211.020l-1.332-5.281c24.687 78.651 62.811 129.807 97.029 129.807s72.687-51.153 97.371-130.287c1.44-4.593 2.811-9.873 4.251-14.811-5.967 0.687-12 1.782-17.967 2.127-25.669 2.69-55.461 4.227-85.607 4.227-13.085 0-26.102-0.288-39.044-0.862l1.84 0.065c-18.812-0.869-33.739-16.331-33.739-35.28 0-19.504 15.81-35.314 35.314-35.314 0.556 0 1.108 0.014 1.653 0.037l-0.079-0.003c10.971 0.55 23.825 0.864 36.75 0.864 26.683 0 53.057-1.335 79.052-3.939l-3.277 0.268c14.127-1.44 27.429-3.153 40.182-4.938 2.127-13.029 3.909-26.469 5.28-40.593 1.029-10.902 1.782-22.56 2.127-34.287l-8.091 9.189c-5.338 5.741-12.931 9.324-21.365 9.324-15.565 0-28.279-12.201-29.101-27.559l-0.003-0.074c-0.011-0.285-0.017-0.624-0.017-0.96 0-7.534 2.813-14.415 7.449-19.644l-0.029 0.030 64.527-70.56c5.334-5.95 13.046-9.676 21.627-9.676 7.529 0 14.384 2.867 19.539 7.57l-0.024-0.022 70.56 64.527c5.682 4.909 9.321 12.056 9.53 20.056l0.001 0.035c0.011 0.284 0.017 0.62 0.017 0.955 0 15.943-12.927 28.869-28.869 28.869-7.359 0-14.076-2.754-19.175-7.29l0.030 0.027-15.498-14.127c-0.342 17.28-1.029 34.287-2.469 50.469-0.687 5.967-1.44 11.658-2.127 17.622 4.938-1.44 10.218-2.469 15.153-3.909 78.378-24.411 129.189-62.469 129.189-97.098zM512 928c-265.098 0-480-214.902-480-480s214.902-480 480-480c265.098 0 480 214.902 480 480v0c-0.313 264.972-215.029 479.688-479.97 480h-0.030zM687.2 276.229c-52.489-12.15-112.764-19.11-174.662-19.11-34.875 0-69.231 2.209-102.939 6.499l4.001-0.415c1.371-4.8 2.742-9.942 4.113-14.4 24-76.8 61.029-126.513 94.287-126.513 27.429 0 58.629 34.629 81.258 90.513 5.311 12.525 17.505 21.15 31.713 21.15 18.973 0 34.35-15.381 34.35-34.35 0-4.765-0.97-9.301-2.724-13.424l0.087 0.224c-34.971-85.371-86.4-132.687-144.687-132.687-67.2 0-125.487 63.429-159.771 174.513-4.458 13.713-8.571 30.171-12.342 47.313-108.069 19.131-229.713 93.942-222.171 172.458 3.265 49.501 32.099 91.59 73.307 113.466l0.75 0.363-22.971 9.6c-10.152 4.304-17.142 14.189-17.142 25.704 0 0.004 0 0.009 0 0.013v-0.001c-0.001 0.071-0.001 0.152-0.001 0.237 0 11.829 7.487 21.909 17.981 25.76l0.191 0.061c3.026 1.277 6.54 2.015 10.23 2.015 3.993 0 7.785-0.87 11.195-2.43l-0.167 0.070 85.371-36.687c10.109-4.431 17.039-14.35 17.039-25.888 0-4.028-0.845-7.858-2.369-11.322l0.072 0.181-37.029-85.029c-4.323-10.163-14.222-17.156-25.755-17.156-15.413 0-27.909 12.496-27.909 27.909 0 1.896 0.19 3.75 0.551 5.542l-0.030-0.179c-8.401-8.305-13.873-19.554-14.733-32.071l-0.009-0.154c0-33.258 48.687-69.942 124.458-93.942 5.211-1.509 10.833-2.949 16.458-4.458-0.687 5.829-1.371 11.313-2.058 17.487-2.644 24.181-4.152 52.227-4.152 80.62 0 78.551 11.539 154.408 33.013 225.964l-1.432-5.556c33.942 110.742 92.229 174.171 159.429 174.171s125.487-63.429 160.113-174.513c4.458-14.058 8.571-30.171 12.342-48 16.113-3.429 32.229-7.542 47.658-12.342 110.742-34.287 174.171-92.571 174.171-159.771 0-76.113-81.942-140.229-219.087-171.429z" />
<glyph unicode="&#xe918;" glyph-name="application" d="M32 84.608c1.075-64.614 53.707-116.581 118.474-116.581 0.536 0 1.070 0.004 1.604 0.011l-0.082-0.001h719.996c0.451-0.007 0.99-0.010 1.526-0.010 64.767 0 117.4 51.968 118.473 116.482l0.001 0.099v490.011h-959.996zM872 927.964h-719.996c-0.451 0.007-0.99 0.010-1.526 0.010-64.767 0-117.4-51.968-118.473-116.482l-0.001-0.099v-163.403h959.996v163.403c-1.075 64.614-53.707 116.581-118.474 116.581-0.536 0-1.070-0.004-1.604-0.011l0.082 0.001zM296 741.313h-96c-12.895 0-23.349 10.454-23.349 23.349s10.454 23.349 23.349 23.349v0h96c12.895 0 23.349-10.454 23.349-23.349s-10.454-23.349-23.349-23.349v0zM488 741.313h-96c-12.895 0-23.349 10.454-23.349 23.349s10.454 23.349 23.349 23.349v0h96c12.895 0 23.349-10.454 23.349-23.349s-10.454-23.349-23.349-23.349v0z" />
<glyph unicode="&#xe919;" glyph-name="bell-solid" d="M512.090 928.001c-33.13 0-59.986-26.856-59.986-59.986v0-35.991c-137.883-28.885-239.947-149.459-239.947-293.873 0-0.023 0-0.042 0-0.065v0.004-35.212c-0.117-92.009-34.657-175.924-91.431-239.584l0.313 0.357-13.857-15.536c-9.457-10.557-15.24-24.578-15.24-39.951 0-33.13 26.856-59.986 59.986-59.986 0.087 0 0.17 0 0.258 0.001h719.826c0.020 0 0.040 0 0.063 0 33.13 0 59.986 26.856 59.986 59.986 0 15.372-5.784 29.393-15.289 40.007l0.049-0.057-13.857 15.536c-56.413 63.293-90.896 147.2-90.938 239.157v35.282c0 0.019 0 0.038 0 0.061 0 144.414-102.064 264.989-237.991 293.531l-1.952 0.342v35.991c0 33.13-26.856 59.986-59.986 59.986v0zM596.973 3.249c21.684 21.705 35.092 51.682 35.092 84.787 0 0.054 0 0.108 0 0.162v-0.009h-239.947c0-0.064 0-0.141 0-0.213 0-66.26 53.715-119.971 119.971-119.971 33.183 0 63.218 13.47 84.938 35.247l0.002 0.003z" />
<glyph unicode="&#xe91a;" glyph-name="app" d="M40.005 89.793c1.314-63.096 52.772-113.745 116.065-113.745 0.687 0 1.377 0.006 2.061 0.019l-0.102-0.001h708.011c0.563-0.010 1.23-0.016 1.899-0.016 63.289 0 114.75 50.646 116.063 113.622l0.002 0.122v477.647h-943.991zM866.036 919.934h-708.011c-0.582 0.011-1.268 0.017-1.959 0.017-63.289 0-114.751-50.646-116.063-113.623l-0.002-0.122v-159.254h943.991v159.254c-1.315 63.096-52.772 113.744-116.065 113.744-0.668 0-1.331-0.006-1.997-0.018l0.099 0.001zM299.628 737.944h-94.441c-0.35-0.020-0.76-0.029-1.173-0.029-12.591 0-22.796 10.205-22.796 22.796s10.205 22.796 22.796 22.796c0.413 0 0.823-0.012 1.229-0.031l-0.056 0.003h94.441c0.35 0.020 0.76 0.029 1.173 0.029 12.591 0 22.796-10.205 22.796-22.796s-10.205-22.796-22.796-22.796c-0.413 0-0.823 0.012-1.229 0.031l0.056-0.003zM488.449 737.944h-94.441c-0.35-0.020-0.76-0.029-1.173-0.029-12.591 0-22.796 10.205-22.796 22.796s10.205 22.796 22.796 22.796c0.413 0 0.823-0.012 1.229-0.031l-0.056 0.003h94.38c0.35 0.020 0.76 0.029 1.173 0.029 12.591 0 22.796-10.205 22.796-22.796s-10.205-22.796-22.796-22.796c-0.413 0-0.823 0.012-1.229 0.031l0.056-0.003z" />
<glyph unicode="&#xe91b;" glyph-name="woman-child" d="M379.712 734.032c-51.356 0-92.984 41.628-92.984 92.984s41.628 92.984 92.984 92.984c51.356 0 92.984-41.628 92.984-92.984v0c0-0.030 0-0.061 0-0.092 0-51.301-41.588-92.892-92.892-92.892-0.031 0-0.067 0-0.098 0h0.005zM323.923-24c-0.008 0-0.017 0-0.026 0-22.939 0-41.536 18.597-41.536 41.536 0 0.009 0 0.018 0 0.027v-0.001 262.524h83.144v-262.432c0-0.030 0-0.061 0-0.092 0-22.953-18.609-41.562-41.562-41.562-0.009 0-0.018 0-0.027 0h0.001zM433.309-24c0 0 0 0 0 0-22.953 0-41.562 18.609-41.562 41.562 0 0.031 0 0.067 0 0.098v-0.006 262.432h83.144v-262.432c0-0.030 0-0.061 0-0.092 0-22.953-18.609-41.562-41.562-41.562-0.009 0-0.018 0-0.027 0h0.001zM729.771 352.276c42.294 0 76.582 34.288 76.582 76.582s-34.288 76.582-76.582 76.582c-42.294 0-76.582-34.288-76.582-76.582v0c-0.001-0.143-0.002-0.308-0.002-0.474 0-42.037 34.073-76.11 76.11-76.11 0.166 0 0.331 0.001 0.501 0.002h-0.028zM589.731 458.384c-8.758 29.526-15.314 56.876-24.072 89.68-7.644 27.35-16.52 52.51-24.072 76.582-13.072 46.699-55.037 80.459-104.964 80.948h-114.916c-0.195 0.001-0.422 0.002-0.65 0.002-49.989 0-92.024-34.036-104.202-80.2l-0.168-0.75c-8.758-29.526-18.598-60.154-28.438-92.984-13.124-41.562-27.35-84.226-38.278-125.788-0.815-2.744-1.284-5.894-1.284-9.157 0-14.359 9.101-26.588 21.847-31.242l0.231-0.075c3.57-1.29 7.695-2.088 11.987-2.195l0.049-0.001c0.039 0 0.089 0 0.138 0 15.6 0 28.73 10.56 32.637 24.923l0.055 0.237 52.51 172.824 7.644 28.438c0.921 5.016 5.263 8.764 10.475 8.764 0.166 0 0.33-0.004 0.499-0.012l-0.025 0.001h2.196c4.634-1.295 7.982-5.482 7.982-10.451 0-0.949-0.122-1.868-0.351-2.744l0.018 0.077c-4.366-17.51-13.124-55.788-22.964-100.628-17.51-74.386-38.278-166.262-48.118-211.128-0.266-0.971-0.417-2.083-0.417-3.228 0-2.92 0.98-5.605 2.632-7.753l-0.024 0.030c2.209-2.423 5.268-4.038 8.703-4.361l0.054-0.005h280.040c0.153-0.009 0.335-0.015 0.518-0.015 3.414 0 6.426 1.723 8.216 4.343l0.024 0.032c1.628 2.115 2.613 4.806 2.613 7.721 0 1.15-0.15 2.262-0.439 3.319l0.022-0.089c-9.84 44.84-30.68 136.736-48.118 211.128-10.948 44.84-19.68 83.144-22.964 100.628-0.16 0.715-0.255 1.535-0.255 2.378 0 5.019 3.282 9.271 7.818 10.722l0.081 0.024h3.278c0.143 0.007 0.308 0.011 0.474 0.011 5.217 0 9.553-3.748 10.469-8.703l0.011-0.066 7.644-28.438 42.67-132.35c4.357-13.053 16.467-22.293 30.734-22.293 3.478 0 6.827 0.551 9.968 1.564l-0.228-0.064c3.905 0.915 7.33 2.55 10.291 4.77l-0.072-0.050c8.011 7.938 12.972 18.949 12.972 31.117 0 5.198-0.907 10.181-2.567 14.809l0.094-0.306zM850.085 291.034c-8.998 15.645-22.562 27.793-38.855 34.794l-0.532 0.206c-8.27 3.615-17.907 5.717-28.032 5.717-2.071 0-4.119-0.089-6.146-0.262l0.266 0.020c-18.598 0-57.984 0-75.52 2.196-36.001 0.804-67.188 20.651-83.974 49.831l-0.257 0.483c-5.194 10.719-15.992 17.98-28.484 17.98-1.918 0-3.798-0.171-5.621-0.501l0.193 0.030c-13.556-2.921-23.571-14.807-23.571-29.032 0-2.111 0.219-4.172 0.64-6.162l-0.032 0.195c0.249-2.453 1.033-4.685 2.232-6.629l-0.037 0.067c16.586-38.056 49.015-66.549 88.727-77.443l0.953-0.222v-271.256c-0.004-0.196-0.007-0.424-0.007-0.653 0-16.068 11.079-29.544 26.015-33.211l0.234-0.048c2.077-0.459 4.459-0.725 6.907-0.725 15.766 0 28.974 10.945 32.436 25.655l0.044 0.225c0.715 1.9 1.129 4.097 1.129 6.388 0 0.443-0.017 0.882-0.045 1.32l0.004-0.059v145.468h19.68v-146.582c0.039-18.114 14.716-32.786 32.825-32.83h0.004c17.948 0.447 32.378 14.882 32.829 32.784l0.001 0.041v245.014c1.088 4.366 5.474 4.366 7.644-3.278 7.036-18.249 11.112-39.36 11.112-61.424 0-2.632-0.058-5.254-0.173-7.86l0.014 0.372c0.989-13.251 11.796-23.684 25.119-24.071l0.036-0.001h3.278c13.5 0.855 24.128 12.009 24.128 25.651 0 0.599-0.022 1.193-0.061 1.78l0.005-0.081c0.080 2.131 0.124 4.632 0.124 7.145 0 36.283-9.352 70.382-25.772 100.021l0.539-1.059z" />
<glyph unicode="&#xe91c;" glyph-name="graduation" d="M215.37 258.744v217.614l255.606-105.223c5.948-2.541 12.864-4.016 20.125-4.016s14.182 1.477 20.469 4.143l-0.344-0.13 262.084 107.849v-220.24c-0.043-3.764-0.845-7.336-2.257-10.575l0.066 0.176c-0.14-0.321-50.167-119.352-274.348-136.622-0.693-0.063-1.493-0.104-2.305-0.104s-1.617 0.036-2.409 0.107l0.104-0.008c-203.781 15.516-263.882 115.135-273.38 133.717-2.276 3.833-3.62 8.448-3.62 13.38 0 0.006 0 0.012 0 0.019v-0.001zM70.907 613.646l410.049 168.736c2.981 1.262 6.45 1.997 10.086 1.997s7.105-0.736 10.261-2.061l-0.175 0.063 410.049-168.736c9.734-4.1 16.438-13.56 16.438-24.585 0-6.338-2.216-12.162-5.917-16.731l0.039 0.051v-254.109l43.802-70.246c2.496-3.977 3.973-8.812 3.973-13.993 0-14.677-11.876-26.581-26.541-26.629h-95.889c-14.696 0.045-26.595 11.968-26.595 26.676 0 5.763 1.829 11.098 4.936 15.458l-0.057-0.081 42.995 68.842v228.633l-367.235-151.123c-2.981-1.262-6.45-1.997-10.086-1.997s-7.105 0.736-10.261 2.061l0.175-0.063-410.049 168.715c-9.724 4.1-16.422 13.549-16.422 24.566s6.703 20.466 16.251 24.497l0.175 0.063z" />
<glyph unicode="&#xe91d;" glyph-name="old-age" d="M397.204 429.116c32.361-22.795 72.643-51.157 114.808-51.157s82.447 28.362 114.808 51.157c5.427 3.854 10.59 7.471 15.418 10.73 24.299 16.76 41.381 42.483 46.498 72.299l0.091 0.654 8.945 53.465c1.384 8.042 8.305 14.088 16.64 14.088 0.007 0 0.013 0 0.020 0h-0.001c0.627-0.040 1.363-0.066 2.105-0.066 18.634 0 33.741 15.105 33.741 33.741s-15.105 33.741-33.741 33.741c-0.499 0-0.99-0.012-1.483-0.030l0.071 0.003-35.833-5.070c-6.554-35.642-37.38-62.294-74.436-62.294-37.968 0-69.404 27.984-74.801 64.453l-0.049 0.412c-5.377 1.687-11.564 2.654-17.976 2.654s-12.598-0.972-18.418-2.772l0.443 0.117c-5.519-36.819-36.926-64.725-74.851-64.725-37.016 0-67.824 26.591-74.362 61.713l-0.073 0.467-35.859 5.044c-0.14 0.002-0.302 0.003-0.464 0.003-18.634 0-33.741-15.105-33.741-33.741s15.105-33.741 33.741-33.741c0.414 0 0.827 0.008 1.237 0.024l-0.059-0.002c0.006 0 0.012 0 0.019 0 8.336 0 15.256-6.042 16.625-13.984l0.015-0.099 8.945-53.465c5.204-30.477 22.287-56.212 46.218-72.736l0.37-0.241c4.806-3.166 9.97-6.803 15.397-10.637zM410.816 496.027c0 37.254 30.201 67.454 67.454 67.454 0.009 0 0.018 0 0.027 0h67.453c37.254 0 67.454-30.201 67.454-67.454v0-16.871c-0.039-18.606-15.131-33.67-33.741-33.67 0 0 0 0 0 0h-134.913c-18.634 0-33.741 15.105-33.741 33.741v0zM292.748 732.137c0.001 37.053 9.255 71.942 25.578 102.484l-0.569-1.168c-10.095-1.177-19.207-4.566-27.112-9.668l0.25 0.148c-13.289-8.413-22.702-21.93-25.504-37.73l-0.049-0.338c-3.918-21.171-6.206-45.584-6.306-70.512v-0.088c-0.012-0.978-0.019-2.129-0.019-3.286 0-17.396 1.477-34.448 4.313-51.032l-0.253 1.779c8.042 7.772 18.049 13.562 29.202 16.548l0.469 0.106zM579.42 496.001c0 18.625-15.094 33.728-33.715 33.741h-67.456c-18.634 0-33.741-15.105-33.741-33.741v0-16.871h134.913zM677.57 676.479l19.939 2.809v52.776c0.044 1.533 0.072 3.338 0.072 5.146 0 102.501-83.093 185.594-185.594 185.594s-185.594-83.093-185.594-185.594c0-1.81 0.028-3.613 0.079-5.412l-0.006 0.267v-52.849l19.939-2.856c8.992 32.323 38.167 55.65 72.791 55.65 33.603 0 62.072-21.974 71.827-52.333l0.148-0.534c6.254 1.467 13.434 2.309 20.806 2.309s14.556-0.842 21.449-2.434l-0.638 0.125c9.901 30.893 38.371 52.867 71.973 52.867 34.624 0 63.795-23.327 72.664-55.12l0.127-0.53zM760.922 662.727c2.583 14.808 4.065 31.855 4.065 49.25 0 1.157-0.007 2.309-0.021 3.463l0.002-0.175c-0.094 25.019-2.387 49.44-6.686 73.157l0.384-2.537c-2.869 16.141-12.284 29.655-25.349 37.935l-0.229 0.138c-7.658 4.943-16.767 8.33-26.561 9.488l-0.3 0.030c15.754-29.373 25.008-64.263 25.009-101.315v0-52.73c11.621-3.095 21.632-8.882 29.692-16.674l-0.021 0.020zM960.603 178.97c14.617 14.752 23.649 35.061 23.649 57.482 0 5.925-0.629 11.704-1.828 17.27l0.095-0.537v0.502c-1.19 6.208-40.686 206.082-61.53 311.345-1.594 5.791-5.49 10.474-10.613 13.082l-0.117 0.054c-2.569 1.335-5.609 2.113-8.827 2.113-4.521 0-8.682-1.539-11.987-4.124l0.042 0.030c-5.599-3.967-9.208-10.42-9.208-17.716 0-1.069 0.079-2.118 0.226-3.147l-0.015 0.117s1.309-7.828 43.661-265.041c0.284-1.579 0.446-3.401 0.446-5.255 0-12.67-7.579-23.566-18.452-28.402l-0.199-0.080-85.898-36.454-27.508-54.727c-2.84-5.55-8.519-9.289-15.073-9.289-9.321 0-16.879 7.558-16.879 16.879 0 2.766 0.668 5.379 1.848 7.686l-0.043-0.093 30.147 59.916c-0.004 0.057-0.006 0.124-0.006 0.191s0.002 0.135 0.007 0.201v-0.010l76.57 151.95c1.32 2.47 2.095 5.407 2.095 8.52 0 2.219-0.39 4.343-1.11 6.312l0.039-0.129c-1.587 5.492-5.434 9.882-10.445 12.157l-0.119 0.048c-2.044 0.963-4.434 1.522-6.961 1.522-0.063 0-0.126 0-0.189-0.001h0.010c-7.376-0.208-13.851-3.886-17.872-9.452l-0.045-0.068-151.236-206.843c-12.191-16.43-19.51-37.108-19.51-59.496 0-0.082 0-0.16 0-0.242v0.013-172.031h134.913v20.508c0.031 19.008 7.889 36.174 20.517 48.455l0.017 0.016zM461.403 656.233c0-23.288-18.877-42.165-42.165-42.165s-42.165 18.877-42.165 42.165c0 23.288 18.877 42.165 42.165 42.165s42.165-18.877 42.165-42.165zM646.926 656.233c0-23.288-18.877-42.165-42.165-42.165s-42.165 18.877-42.165 42.165c0 23.288 18.877 42.165 42.165 42.165s42.165-18.877 42.165-42.165zM360.207-26.779v172.031c0 0.067 0 0.146 0 0.221 0 22.399-7.324 43.083-19.704 59.797l0.194-0.27-151.309 206.796c-3.874 5.679-10.311 9.361-17.611 9.361-2.717 0-5.315-0.508-7.706-1.442l0.147 0.049c-4.781-2.156-8.421-6.136-10.073-11.028l-0.037-0.132c-0.847-2.091-1.335-4.515-1.335-7.052 0-3.175 0.766-6.167 2.124-8.809l-0.050 0.107 76.544-151.878c0.004-0.057 0.006-0.124 0.006-0.191s-0.002-0.135-0.007-0.201v0.010l30.147-59.963c1.138-2.211 1.805-4.824 1.805-7.59 0-9.321-7.558-16.879-16.879-16.879-6.555 0-12.234 3.734-15.030 9.191l-0.043 0.093-27.436 54.82-85.66 36.474c-11.204 4.911-18.892 15.907-18.892 28.697 0 1.868 0.162 3.695 0.477 5.47l-0.030-0.189c43.567 264.234 43.712 264.995 43.759 265.33 0.101 0.789 0.16 1.697 0.16 2.625 0 7.277-3.632 13.709-9.179 17.579l-0.071 0.045c-3.271 2.539-7.435 4.070-11.957 4.070-3.176 0-6.181-0.756-8.834-2.103l0.111 0.051c-5.443-2.796-9.453-7.74-10.94-13.681l-0.030-0.147c-20.679-104.694-60.201-304.564-61.411-310.776v-0.548c-1.085-4.986-1.702-10.713-1.702-16.589 0-22.393 9.020-42.676 23.625-57.421l-0.007 0.007 141.458-137.009c12.645-12.298 20.503-29.464 20.534-48.461v-20.515z" />
<glyph unicode="&#xe91e;" glyph-name="home-sun" d="M210.942-23.923v338.757h-118.732l410.646 402.74 410.646-402.74h-118.896v-338.757h-213.134v238.197l26.597-60.843c3.752-10.125 13.138-17.302 24.257-17.745l0.052-0.002h15.505c0.16-0.006 0.351-0.009 0.543-0.009 5.473 0 10.341 2.608 13.42 6.645l0.029 0.039c1.885 2.677 3.013 6.001 3.013 9.591 0 2.053-0.37 4.022-1.043 5.84l0.036-0.116-69.576 194.208c-3.766 10.205-13.243 17.427-24.452 17.817l-0.045 0.001h-133.39c-11.256-0.392-20.732-7.614-24.438-17.63l-0.061-0.188-69.576-194.254c-0.637-1.702-1.007-3.671-1.007-5.724 0-3.59 1.128-6.919 3.046-9.645l-0.034 0.053c3.112-4.082 7.98-6.689 13.453-6.689 0.192 0 0.383 0.003 0.568 0.010l-0.029-0.001h15.433c11.208 0.426 20.629 7.629 24.32 17.609l0.061 0.188 26.597 60.843v-238.197zM495.847-23.923v178.842h14.607v-178.842zM577.479 461.368c-0.053 41.023-33.312 74.256-74.341 74.27h-0.001c-41.036 0-74.309-33.241-74.363-74.265v-0.006c0.068-41.027 33.333-74.256 74.361-74.27h0.001c41.018 0.039 74.26 33.258 74.342 74.262v0.008zM748.651 579.371v47.791c3.845-0.421 8.301-0.662 12.817-0.662 0.009 0 0.017 0 0.026 0h-0.001c4.508 0 8.954 0.241 13.337 0.708l-0.546-0.046v-47.791zM650.072 620.2l-18.101 18.172 33.795 33.795c5.458-6.706 11.395-12.642 17.879-17.925l0.222-0.176zM872.836 620.2l-33.795 33.772c6.699 5.466 12.635 11.402 17.924 17.879l0.176 0.222 33.795-33.703zM664.874 749.67c0.082 53.32 43.275 96.527 96.589 96.619h0.010c53.318-0.092 96.516-43.299 96.597-96.611v-0.008c-0.092-53.309-43.284-96.502-96.589-96.597h-0.010c-53.327 0.092-96.531 43.313-96.597 96.638v0.007zM591.142 736.88v25.607h47.791c-0.421-3.843-0.662-8.297-0.662-12.812 0-0.001 0-0.003 0-0.004v0c0-0.007 0-0.016 0-0.025 0-4.499 0.24-8.937 0.708-13.31l-0.046 0.544zM884.683 749.67c-0.009 4.523-0.259 8.981-0.735 13.366l0.048-0.554h47.791v-25.607h-47.791c0.432 3.846 0.678 8.308 0.682 12.83v0.009zM839.016 845.371l33.821 33.795 18.101-18.101-33.795-33.821c-5.481 6.733-11.421 12.696-17.904 18.022l-0.217 0.174zM665.766 827.27l-33.821 33.821 18.126 18.080 33.821-33.795c-6.703-5.46-12.646-11.379-17.953-17.838l-0.173-0.216zM748.63 872.111v47.812h25.607v-47.812c-3.826 0.428-8.276 0.678-12.776 0.682h-0.014c-0.338 0.004-0.738 0.006-1.144 0.006-4.109 0-8.172-0.201-12.182-0.588l0.507 0.038z" />
<glyph unicode="&#xe91f;" glyph-name="plant-hand" d="M890.24 255.327c-30.472-9.406-70.091-18.976-110.435-26.489l-7.257-1.123c-22.862-30.449-57.672-50.861-97.342-54.247l-0.501-0.033c-10.806-1.822-23.253-2.862-35.945-2.862-0.696 0-1.391 0.003-2.090 0.010l0.106-0.001c-42.689 1.318-83.064 4.705-122.801 10.109l6.002-0.669c-2.996 0-5.992 0.944-8.994 0.944-10.357 0.829-18.63 8.777-19.955 18.909l-0.013 0.109c-0.026 0.376-0.036 0.809-0.036 1.252 0 11.523 9.342 20.86 20.86 20.86 1.103 0 2.189-0.088 3.247-0.252l-0.117 0.016c2.996 0 7.080-0.944 9.984-0.944 30.393-4.963 65.423-7.8 101.116-7.8 15 0 29.882 0.501 44.632 1.487l-1.999-0.106c62.894 9.44 81.866 45.666 77.88 76.136-1.364 26.578-23.246 47.613-50.042 47.613-0.662 0-1.32-0.014-1.976-0.036l0.092 0.003c-4.311-0.060-9.404-0.092-14.499-0.092-46.254 0-91.852 2.802-136.636 8.249l5.385-0.534c-30.632 4.346-66.010 6.829-101.972 6.829-19.974 0-39.773-0.766-59.363-2.271l2.6 0.159c-39.981-8.493-75.023-19.97-108.321-34.674l3.49 1.377c-9.984-3.802-28.956-11.42-28.956-11.42l-183.772-50.504c-15.446-4.097-26.693-17.834-26.95-34.24v-157.039c0.909-20.223 17.524-36.276 37.89-36.276 1.068 0 2.125 0.043 3.169 0.132l-0.139-0.010 169.706 13.308c84.96-28.556 189.672-59.944 250.586-64.71 123.782-9.44 368.37 124.654 437.26 168.432 69.882 42.834 22.964 135.134-53.9 110.402zM573.692 430.625c39.012-3.802 78.988-7.624 114.178-7.624h22.846c49.705-0.683 90.013-39.996 92.293-89.235l0.008-0.206c0.452-2.431 0.713-5.224 0.713-8.083s-0.261-5.652-0.755-8.365l0.042 0.282c30.532 5.951 56.409 12.863 81.583 21.299l-4.508-1.311c11.329 4.218 24.418 6.658 38.079 6.658 0.326 0 0.657-0.002 0.982-0.005h1.86c3.625 11.268 5.711 24.23 5.711 37.681 0 0.137 0 0.268-0.001 0.405v-0.023c0 0.108 0.001 0.237 0.001 0.367 0 64.017-48.515 116.703-110.779 123.298l-0.542 0.045c-5.848 49.45-47.477 87.451-98.003 87.53h-0.009c-9.591-0.288-18.732-1.657-27.481-3.988l0.839 0.191v109.411c44.278 10.561 82.387 32.595 112.269 62.781l0.021 0.021c31.865 38.54 52.447 87.456 56.102 141.021l0.041 0.769c0.023 0.304 0.032 0.659 0.032 1.016 0 8.433-6.836 15.268-15.268 15.268-0.671 0-1.327-0.042-1.976-0.127l0.078 0.009c-53.463-8.681-100.095-33.186-136.12-68.48l0.041 0.040c-15.57-17.591-28.407-38.062-37.552-60.432l-0.514-1.425c-8.754 24.044-21.707 44.654-38.139 61.928l0.071-0.075c-35.979 35.252-82.616 59.759-134.631 68.244l-1.445 0.196c-0.844 0.174-1.809 0.272-2.802 0.272-7.992 0-14.468-6.476-14.468-14.468 0-0.695 0.048-1.382 0.146-2.049l-0.010 0.078c3.543-54.366 24.173-103.323 56.515-142.189l-0.324 0.4c30.020-30.024 68.077-52.011 110.666-62.462l1.622-0.335v-105.635c-5.334 1.039-11.559 1.73-17.912 1.91l-0.162 0.004c-0.16 0.001-0.351 0.002-0.543 0.002-47.783 0-87.599-34.114-96.426-79.316l-0.099-0.619h-2.858c-50.199-0.021-92.73-32.828-107.346-78.167l-0.221-0.796c11.42 0.944 24.734 1.914 39.012 1.914 35.21-0.026 75.166-3.822 115.142-7.624z" />
<glyph unicode="&#xe920;" glyph-name="list" d="M840.247 927.998h-655.406c-0.101 0-0.222 0.001-0.342 0.001-50.633 0-91.68-41.047-91.68-91.68 0-0.121 0-0.242 0.001-0.362v0.020-775.679c-0.001-0.184-0.002-0.399-0.002-0.619 0-50.633 41.047-91.68 91.68-91.68 0.121 0 0.243 0 0.364 0.001h654.288c0.101 0 0.222-0.001 0.342-0.001 50.633 0 91.68 41.047 91.68 91.68 0 0.121 0 0.242-0.001 0.362v-0.020 775.952c0.005 0.346 0.008 0.754 0.008 1.167 0 50.18-40.678 90.858-90.858 90.858-0.028 0-0.053 0-0.081 0h0.004zM325.415 180.57h-14.127c-25.696 0-46.527 20.831-46.527 46.527s20.831 46.527 46.527 46.527v0h14.127c25.696 0 46.527-20.831 46.527-46.527s-20.831-46.527-46.527-46.527v0zM325.415 401.028h-14.127c-25.696 0-46.527 20.831-46.527 46.527s20.831 46.527 46.527 46.527v0h14.127c25.696 0 46.527-20.831 46.527-46.527s-20.831-46.527-46.527-46.527v0zM325.415 621.486h-14.127c-0.022 0-0.043 0-0.069 0-25.64 0-46.422 20.786-46.422 46.422 0 0.026 0 0.047 0 0.073v-0.004c-0.004 0.225-0.007 0.494-0.007 0.759 0 25.26 20.478 45.738 45.738 45.738 0.269 0 0.534-0.002 0.802-0.007l-0.039 0.001h14.127c0.022 0 0.043 0 0.069 0 25.64 0 46.422-20.786 46.422-46.422 0-0.026 0-0.047 0-0.073v0.004c0.004-0.208 0.006-0.45 0.006-0.69 0-25.26-20.478-45.738-45.738-45.738-0.269 0-0.533 0.002-0.801 0.007l0.039-0.001zM713.735 180.57h-232.593c-25.696 0-46.527 20.831-46.527 46.527s20.831 46.527 46.527 46.527v0h233.622c0.022 0 0.043 0 0.069 0 25.64 0 46.422-20.786 46.422-46.422 0-0.026 0-0.047 0-0.073v0.004c-1.11-25.59-21.843-45.987-47.465-46.559l-0.055-0.001zM713.735 401.028h-232.593c-25.696 0-46.527 20.831-46.527 46.527s20.831 46.527 46.527 46.527v0h233.622c0.022 0 0.043 0 0.069 0 25.64 0 46.422-20.786 46.422-46.422 0-0.026 0-0.047 0-0.073v0.004c-1.148-25.56-21.867-45.92-47.466-46.49l-0.054-0.001zM713.735 621.486h-232.593c-0.022 0-0.043 0-0.069 0-25.64 0-46.422 20.786-46.422 46.422 0 0.026 0 0.047 0 0.073v-0.004c-0.004 0.225-0.007 0.494-0.007 0.759 0 25.26 20.478 45.738 45.738 45.738 0.269 0 0.534-0.002 0.802-0.007l-0.039 0.001h233.622c0.022 0 0.043 0 0.069 0 25.64 0 46.422-20.786 46.422-46.422 0-0.026 0-0.047 0-0.073v0.004c-0.461-25.737-21.435-46.423-47.24-46.423-0.098 0-0.199 0-0.296 0.001h0.016z" />
<glyph unicode="&#xe921;" glyph-name="shrink" d="M40.001 23.201l363.439 363.439h-207.679v61.36h316.24v-316.24h-61.36v207.679l-363.439-363.439zM512 448v316.24h61.36v-207.679l363.439 363.439 47.199-47.199-363.439-363.439h207.679v-61.36z" />
<glyph unicode="&#xe922;" glyph-name="expand1" d="M80.002 16.002v360.018h71.982v-237.599l669.599 669.599h-237.599v71.982h360.018v-360.018h-71.982v237.599l-669.599-669.599h237.599v-71.982z" />
<glyph unicode="&#xe923;" glyph-name="moon" horiz-adv-x="904" d="M403.638 919.32c1.773 0.43 3.805 0.677 5.9 0.677 14.422 0 26.107-11.689 26.107-26.107 0-6.913-2.684-13.195-7.071-17.867l0.014 0.015c-71.617-76.047-115.628-178.795-115.628-291.819 0-235.304 190.751-426.054 426.054-426.054 34.586 0 68.209 4.12 100.404 11.898l-2.91-0.593c1.773 0.43 3.805 0.677 5.9 0.677 14.422 0 26.107-11.689 26.107-26.107 0-6.913-2.684-13.195-7.071-17.867l0.014 0.015c-87.379-92.561-210.914-150.184-347.908-150.184-264.028 0-478.065 214.036-478.065 478.065 0 225.036 155.487 413.754 364.884 464.591l3.271 0.672z" />
<glyph unicode="&#xe924;" glyph-name="first" d="M890 880v-864l-648 432zM134 880h86.4v-864h-86.4z" />
<glyph unicode="&#xe925;" glyph-name="last" d="M134 16v864l648-432zM890 16h-86.4v864h86.4z" />
<glyph unicode="&#xe926;" glyph-name="previous" d="M830.001 872v-848l-636.001 424z" />
<glyph unicode="&#xe927;" glyph-name="next" d="M187.999 16v864l648.001-432z" />
<glyph unicode="&#xe928;" glyph-name="accessibility" d="M670.259 97.46c-54.367-56.941-130.866-92.345-215.641-92.345-76.128 0-145.592 28.555-198.259 75.537l0.292-0.258c-57.005 50.727-93.74 123.168-97.152 204.225l-0.022 0.587c-0.289 4.893-0.456 10.61-0.456 16.368 0 92.32 42.462 174.726 108.917 228.75l0.545 0.425c7.882 6.384 12.88 16.064 12.88 26.911 0 19.085-15.47 34.553-34.553 34.553-8.236 0-15.803-2.883-21.738-7.695l0.065 0.050c-82.978-67.417-135.569-169.452-135.569-283.778 0-201.469 163.322-364.791 364.791-364.791 0.199 0 0.398 0 0.597 0h19.654c97.543 5.597 184.145 48.3 246.706 114.082l0.148 0.157c6.004 6.31 9.698 14.874 9.698 24.291 0 10.075-4.222 19.161-10.992 25.585l-0.016 0.016c-6.384 5.029-14.546 8.069-23.413 8.069-10.301 0-19.644-4.098-26.487-10.753l0.010 0.010zM928.547 47.568l-150.992 342.717c-3.892 8.265-9.203 15.252-15.688 20.931l-0.074 0.062c-10.571 10.549-25.161 17.072-41.273 17.072-0.271 0-0.542-0.002-0.808-0.005h-224.511l-27.594 128.519h161.515c28.278 0 51.203 22.925 51.203 51.203s-22.925 51.203-51.203 51.203h-183.819l-5.233 24.976c-7.003 36.808-38.922 64.258-77.253 64.258-43.391 0-78.566-35.174-78.566-78.566 0-6.57 0.805-12.958 2.329-19.056l-0.113 0.543 64.347-292.825c8.227-35.734 38.83-62.304 75.967-64.337l0.213-0.010h253.455l131.305-298.057c10.251-22.839 32.795-38.461 58.981-38.461 9.547 0 18.606 2.077 26.757 5.797l-0.405-0.163c22.191 10.098 37.345 32.081 37.345 57.599 0 9.654-2.167 18.802-6.047 26.982l0.161-0.383zM452.478 857.593c0-56.555-45.851-102.406-102.406-102.406s-102.406 45.851-102.406 102.406c0 56.555 45.851 102.406 102.406 102.406s102.406-45.851 102.406-102.406z" />
<glyph unicode="&#xe929;" glyph-name="font-plus" d="M394.157 198.095l-31.155 90.752h-201.818l-31.155-90.752h-130.029l185.568 499.809h153.056l184.212-499.809zM262.77 580.061l-69.081-197.754h136.806zM765.293 662.685h81.268v-178.791h177.44v-79.916h-177.44v-178.791h-81.268v178.791h-177.44v79.916h177.44z" />
<glyph unicode="&#xe92a;" glyph-name="font-normal" d="M392.599 199.084l-31.032 90.394h-201.020l-31.032-90.394h-129.515l184.835 497.833h152.451l183.484-497.833zM261.732 579.54l-68.808-196.972h136.266zM596.321 490.497v78.249h427.68v-78.249zM596.321 338.046v78.249h427.68v-78.249z" />
<glyph unicode="&#xe92b;" glyph-name="font-minus" d="M392.599 199.084l-31.032 90.394h-201.020l-31.032-90.394h-129.515l184.835 497.833h152.451l183.484-497.833zM261.732 579.538l-68.808-196.972h136.266zM596.321 405.503v78.249h427.68v-78.249z" />
<glyph unicode="&#xe92c;" glyph-name="seek" d="M439.691 3.246c-11.038 0-19.989 8.951-19.989 19.989v200.52c-0.031 45.393-36.823 82.178-82.207 82.209h-0.004c-45.33 0-19.989 8.93-19.989 19.989 0.031 11.014 8.975 19.933 19.989 19.933 0 0 0 0 0 0v0c0.033 0 0.081 0 0.122 0 67.417 0 122.073-54.654 122.073-122.073 0-0.024 0-0.041 0-0.065v0.004-200.52c0-11.038-8.951-19.989-19.989-19.989v0zM77.242 3.246c-0.020 0-0.037 0-0.061 0-11.006 0-19.933 8.924-19.933 19.933 0 0 0 0 0 0v0 200.52c0 0.033 0 0.081 0 0.122 0 67.417 54.654 122.073 122.073 122.073 0.041 0 0.083 0 0.13 0h-0.008c16.529 0 19.989-8.93 19.989-19.989 0-11.038-8.951-19.989-19.989-19.989v0c-45.393-0.031-82.178-36.823-82.209-82.207v-200.524c0-11.038-8.951-19.989-19.989-19.989v0zM258.681 279.352c-76.808 0.059-139.043 62.335-139.043 139.143 0 76.851 62.301 139.143 139.143 139.143s139.143-62.301 139.143-139.143c0-57.266-34.595-106.451-84.027-127.799l-0.904-0.349c-15.957-6.954-34.55-10.996-54.083-10.996-0.083 0-0.167 0-0.25 0h0.014zM258.681 518.456c-54.965 0-99.529-44.564-99.529-99.529s44.564-99.529 99.529-99.529c54.965 0 99.529 44.564 99.529 99.529v0c-0.071 54.942-44.589 99.46-99.523 99.529h-0.008zM946.762 3.246c-11.038 0-19.989 8.951-19.989 19.989v0 200.52c-0.031 45.393-36.823 82.178-82.207 82.209h-0.004c-45.33 0-19.989 8.93-19.989 19.989 0 0 0 0 0 0 0 11.006 8.924 19.933 19.933 19.933 0.024 0 0.041 0 0.065 0h-0.004c0.020 0 0.037 0 0.061 0 67.453 0 122.131-54.684 122.131-122.131v0-200.52c0-11.038-8.951-19.989-19.989-19.989v0zM584.309 3.246c0 0 0 0 0 0-11.020 0-19.955 8.917-19.989 19.93v200.524c0 0.020 0 0.037 0 0.061 0 67.453 54.684 122.131 122.131 122.131 0.024 0 0.041 0 0.065 0h-0.004c16.468 0 19.989-8.93 19.989-19.989 0-11.038-8.951-19.989-19.989-19.989v0c-45.393-0.031-82.178-36.823-82.209-82.207v-200.524c0-11.038-8.951-19.989-19.989-19.989v0zM765.805 279.352c-76.88 0.043-139.194 62.38-139.194 139.268 0 76.918 62.355 139.268 139.268 139.268s139.268-62.355 139.268-139.268c0-57.325-34.634-106.56-84.121-127.922l-0.904-0.349c-15.949-6.954-34.532-10.996-54.062-10.996-0.090 0-0.187 0-0.276 0h0.016zM765.805 518.456c-54.965 0-99.529-44.564-99.529-99.529s44.564-99.529 99.529-99.529c54.965 0 99.529 44.564 99.529 99.529v0c-0.071 54.942-44.589 99.46-99.523 99.529h-0.008zM858.166 892.815h-291.659c-41.714 0-75.532-33.817-75.532-75.532v0-106.393c0-41.714 33.817-75.532 75.532-75.532h291.659c41.714 0 75.532 33.817 75.532 75.532v0 106.393c0 41.714-33.817 75.532-75.532 75.532v0zM887.698 716.603c0-19.297-15.645-34.942-34.942-34.942v0h-277.142c-19.297 0-34.942 15.645-34.942 34.942v0 94.427c0 19.297 15.645 34.942 34.942 34.942v0h277.142c19.297 0 34.942-15.645 34.942-34.942v0zM735.99 784.401c11.204-11.204 11.204-29.361 0-40.561s-29.361-11.204-40.561 0c-11.204 11.204-11.204 29.361 0 40.561s29.361 11.204 40.561 0zM643.749 784.401c11.204-11.204 11.204-29.361 0-40.561s-29.361-11.204-40.561 0c-11.204 11.204-11.204 29.361 0 40.561s29.361 11.204 40.561 0zM828.168 784.401c11.204-11.204 11.204-29.361 0-40.561s-29.361-11.204-40.561 0c-11.204 11.204-11.204 29.361 0 40.561s29.361 11.204 40.561 0zM568.39 645.997l-63.135-140.304 134.471 140.304zM432.581 672.49h-277.142c-19.297 0-34.942 15.645-34.942 34.942v0 94.427c0 19.297 15.645 34.942 34.942 34.942v0h277.142c0 0 0.002 0 0.002 0 12.54 0 23.544-6.623 29.685-16.56l0.083-0.147c0.366 19.191 6.696 36.835 17.194 51.237l-0.179-0.254c-11.568 7.619-25.753 12.15-41 12.15-0.138 0-0.268 0-0.404-0.002h-291.642c-41.714 0-75.532-33.817-75.532-75.532v0-106.393c0-41.714 33.817-75.532 75.532-75.532v0h291.659c0.12 0 0.258-0.002 0.402-0.002 15.239 0 29.42 4.532 41.263 12.328l-0.284-0.175c-10.3 14.114-16.617 31.714-17.011 50.765l-0.002 0.092c-6.233-10.091-17.227-16.708-29.774-16.708-0.024 0-0.043 0-0.067 0h0.004zM324.183 754.762c0-15.839-12.84-28.679-28.679-28.679s-28.679 12.84-28.679 28.679c0 15.839 12.84 28.679 28.679 28.679s28.679-12.84 28.679-28.679zM231.946 754.762c0-15.839-12.84-28.679-28.679-28.679s-28.679 12.84-28.679 28.679c0 15.839 12.84 28.679 28.679 28.679s28.679-12.84 28.679-28.679zM416.421 754.762c0-15.839-12.84-28.679-28.679-28.679s-28.679 12.84-28.679 28.679c0 15.839 12.84 28.679 28.679 28.679s28.679-12.84 28.679-28.679zM338.462 644.051l144.615-127.602-51.586 129.67zM330.807 28.343h-144.615c-0.329-0.022-0.713-0.028-1.101-0.028-11.038 0-19.989 8.951-19.989 19.989s8.951 19.989 19.989 19.989c0.388 0 0.772-0.012 1.154-0.029l-0.053 0.002h144.615c10.555-0.598 18.887-9.309 18.887-19.961s-8.332-19.361-18.834-19.957l-0.053-0.002zM837.809 28.343h-144.615c-10.555 0.598-18.887 9.309-18.887 19.961s8.332 19.361 18.834 19.957l0.053 0.002h144.615c10.555-0.598 18.887-9.309 18.887-19.961s-8.332-19.361-18.834-19.957l-0.053-0.002z" />
</font>
</defs>
</svg>
